<svg width="302" height="295" viewBox="0 0 302 295" fill="none" xmlns="http://www.w3.org/2000/svg">
<path fill-rule="evenodd" clip-rule="evenodd" d="M103.028 2.52274C102.065 3.49381 100.603 5.30634 99.7778 6.55058C98.7458 8.10588 96.4108 9.24244 92.3008 10.1896C88.3758 11.0939 85.6888 12.364 84.4748 13.8884C79.4558 20.1894 78.6528 20.8155 75.9808 20.5084C73.5698 20.2312 73.3128 19.8394 73.6018 16.8824C73.8898 13.9402 73.7208 13.678 72.1018 14.5474C71.0988 15.0868 69.1548 16.7238 67.7838 18.1864C65.3238 20.8075 65.0888 22.4316 65.7668 32.1612C65.8428 33.2579 65.8058 36.2568 65.6838 38.8261C65.5388 41.9078 66.0588 44.4042 67.2138 46.1609C68.7738 48.5357 68.8318 49.5247 67.7428 55.2794C66.5678 61.4866 66.8338 73.285 68.2248 76.6478C69.2318 79.0834 66.6038 79.7414 53.7338 80.2708L42.1908 80.7464L36.4788 73.6987C29.7148 65.3519 25.0478 61.5723 21.5048 61.5723C18.7428 61.5723 15.7778 63.8684 15.7778 66.0079C15.7778 66.9591 14.5768 67.1744 11.3138 66.8075C7.2628 66.3529 6.7418 66.5433 5.6798 68.8653C4.6948 71.0208 4.8468 71.9929 6.6438 75.0297C9.2978 79.5141 9.2978 79.5181 6.3598 79.5181C2.2558 79.5181 0.777802 80.5749 0.777802 83.5091C0.777802 86.9327 4.7838 90.6375 14.1038 95.8338C17.7748 97.8806 20.7778 99.8507 20.7778 100.213C20.7778 100.574 19.2518 102.459 17.3868 104.401C13.1258 108.838 12.1938 111.694 14.3148 113.81C17.0418 116.527 23.8248 115.829 31.0188 112.091C37.0808 108.94 37.5988 108.84 41.2328 110.094C50.6998 113.362 71.4678 114.084 80.6308 111.464C83.6408 110.603 83.9548 110.806 88.2698 116.397C98.5588 129.727 110.902 137.339 126.278 139.836C136.941 141.567 144.932 141.696 153.689 140.28C158.398 139.518 160.288 139.544 160.804 140.376C162.231 142.678 162.747 155.367 161.715 162.765C161.13 166.957 161.029 170.915 161.49 171.561C161.951 172.208 162.269 178.793 162.197 186.196C162.066 199.593 160.457 211.045 158.536 212.253C157.982 212.602 157.594 215.407 157.674 218.484C157.854 225.394 157.868 224.977 157.153 234.051C156.644 240.518 156.183 241.906 153.744 244.318C151.963 246.079 150.528 248.944 149.851 252.094C148.707 257.413 148.601 274.214 149.645 284.898C150.246 291.05 150.455 291.47 153.778 293.183C156.565 294.619 159.009 294.91 165.778 294.615C174.282 294.244 178.172 292.894 179.318 289.918C179.636 289.093 180.155 281.68 180.471 273.447C181.16 255.514 180.043 248.503 175.83 244.332C172.245 240.782 171.543 235.202 171.747 211.868C171.781 207.956 173.398 201.794 174.101 202.895C175.483 205.062 180.68 204.35 183.19 201.649C184.465 200.278 186.581 199.15 187.893 199.142C190.838 199.123 192.148 198.287 193.628 195.484C195.159 192.584 195.113 192.239 192.65 188.211C190.103 184.046 189.525 175.318 191.684 173.634C193.635 172.11 196.674 152.811 196.731 141.581L196.778 132.358H203.543H210.307L213.492 139.173C217.633 148.035 224.093 155.109 231.428 158.815C236.643 161.449 238.363 161.788 247.278 161.939C252.778 162.033 259.303 162.582 261.778 163.161C264.253 163.74 268.865 164.224 272.028 164.238L277.778 164.262V168.349C277.778 173.989 280.43 179.083 284.33 180.938C288.916 183.118 292.258 181.952 295.526 177.028C298.113 173.131 298.278 172.218 298.278 161.842C298.278 155.771 297.94 148.253 297.527 145.138C296.861 140.112 296.987 139.405 298.64 138.883C300.064 138.432 300.64 136.968 301.086 132.666C301.406 129.57 301.227 126.216 300.688 125.212C299.363 122.744 295.419 120.276 291.503 119.464C288.937 118.934 288.34 118.361 288.581 116.663C289.109 112.946 284.824 104.493 282.063 103.802C278.846 102.996 264.551 104.292 263.328 105.5C261.309 107.492 259.861 106.238 258.365 101.203C254.809 89.2318 243.766 76.4125 231.394 69.8932C224.879 66.4596 223.464 66.1096 214.633 65.7397C204.648 65.323 201.229 65.979 192.778 69.9341C188.949 71.7267 186.413 72.0407 175.778 72.0407C168.903 72.0407 159.79 71.6658 155.528 71.2082C148.472 70.4495 147.778 70.1793 147.778 68.1893C147.778 66.987 147.128 65.0788 146.333 63.9472C145.055 62.1277 145.124 61.1536 146.932 55.5007C149.72 46.782 149.736 34.6078 146.966 28.3657C145.853 25.8572 142.86 21.8713 140.313 19.5084C137.767 17.1456 133.469 13.0808 130.762 10.4767C126.866 6.72804 125.135 5.74102 122.458 5.74102C120.598 5.74102 116.96 4.61941 114.374 3.24855C108.829 0.309432 105.436 0.0920877 103.028 2.52274ZM113.374 6.23952C115.96 7.61037 119.156 8.73199 120.477 8.73199C123.848 8.73199 128.182 11.1656 130.154 14.1666C131.074 15.5663 133.608 17.8873 135.785 19.323C143.486 24.4046 147.164 35.6297 145.136 47.8638C144.381 52.417 143.432 52.5925 141.73 48.4949C141.02 46.786 138.721 44.147 136.621 42.6316L132.804 39.8739L134.958 37.1451C137.618 33.7733 137.725 29.3736 135.215 26.608C133.09 24.2671 127.869 24.3089 122.135 26.7137C119.104 27.9848 118.822 27.8821 114.244 23.8653C111.633 21.5742 108.898 19.6989 108.166 19.6989C107.435 19.6989 104.814 21.1206 102.341 22.8573C98.0748 25.8553 97.6408 25.955 93.8178 24.8134C88.8158 23.3199 87.2398 24.1025 83.2778 30.0486C77.6618 38.4771 72.0758 38.83 68.5918 30.9768C66.6268 26.5472 66.6148 26.2451 68.2838 22.7885C69.9418 19.3569 70.0548 19.2981 70.8658 21.4436C71.5438 23.2382 72.4878 23.6868 75.5848 23.6868C78.9588 23.6868 80.0388 23.0467 83.9918 18.7019C88.2888 13.9801 88.7928 13.7169 93.5588 13.7169C98.4508 13.7169 98.6898 13.5793 102.183 8.73199C104.158 5.99027 106.427 3.74705 107.223 3.74705C108.02 3.74705 110.788 4.86866 113.374 6.23952ZM114.256 27.8353C116.849 29.8691 117.357 29.92 123.291 28.7435C127.992 27.8123 130.108 27.7804 131.678 28.6189C134.476 30.1114 134.404 34.3516 131.528 37.4393L129.278 39.856L131.754 41.492C136.984 44.9466 140.64 48.786 141.646 51.8776C142.499 54.4987 142.469 54.736 141.485 53.1637C139.111 49.3702 132.498 42.6296 131.151 42.6296C128.957 42.6296 129.434 43.3414 135.778 49.5297C139.078 52.749 141.778 55.9663 141.778 56.6801C141.778 57.394 140.449 56.1756 138.825 53.9743C135.988 50.1279 130.778 46.6434 130.778 48.5926C130.778 49.108 133.036 51.6344 135.796 54.2086C139.554 57.713 140.661 59.373 140.201 60.8156C139.802 62.0718 140.318 63.4208 141.683 64.6889C142.835 65.7597 143.778 67.313 143.778 68.1415C143.778 71.4006 140.698 75.4295 137.259 76.6697C134.798 77.557 132.926 79.2978 131.11 82.3865C129.674 84.8281 126.506 88.815 124.069 91.2447C119.349 95.9505 119.105 97.5467 123.403 95.5946C124.851 94.9365 126.275 94.6364 126.567 94.9276C127.45 95.8069 124.916 103.002 122.763 105.731C119.1 110.373 108.954 111.748 105.852 108.022C104.95 106.938 105.428 106.537 108.252 106.009C114.073 104.92 112.259 103.731 104.028 103.238C98.3078 102.896 94.9398 102.094 91.1698 100.175C81.4068 95.2037 72.8438 82.8939 70.5338 70.5083C68.4908 59.5574 73.2348 39.494 78.1568 38.2628C79.4278 37.9447 82.2468 35.3197 84.4218 32.4304L88.3758 27.1763L94.9678 27.5053C98.9638 27.7057 101.824 27.4106 102.228 26.7575C103.44 24.8034 111.286 25.5063 114.256 27.8353ZM108.732 36.7334C107.411 39.195 107.264 39.0095 112.15 41.0294C116.82 42.9596 116.778 42.9566 116.778 41.3205C116.778 40.0065 111.744 34.6537 110.508 34.6537C110.145 34.6537 109.346 35.5898 108.732 36.7334ZM71.9268 37.9617C73.4128 39.0893 73.4308 39.5559 72.1098 42.6665C70.7078 45.9665 70.5798 46.0333 69.2108 44.1839C67.1248 41.3664 67.4348 36.5569 69.6948 36.6795C70.0158 36.6965 71.0198 37.2738 71.9268 37.9617ZM80.5278 39.3973C76.8628 41.6625 77.0538 42.825 81.0278 42.4431C83.5188 42.2039 84.3528 41.6077 84.5978 39.8879C84.9778 37.2209 84.2008 37.1272 80.5278 39.3973ZM79.1888 51.104C78.3388 54.4788 79.4848 58.5814 81.2778 58.5814C83.2748 58.5814 84.2778 53.9883 82.9258 51.0302C81.5038 47.9176 79.9828 47.9475 79.1888 51.104ZM93.8708 51.104C93.1998 52.749 91.2868 56.2175 89.6208 58.8127L86.5928 63.5304L88.7668 67.0378C90.9728 70.5971 93.2388 71.5632 94.0668 69.299C94.3178 68.6141 93.6938 67.1405 92.6798 66.0249C90.8828 64.0489 90.8998 63.8385 93.3688 57.7439C94.7628 54.3043 95.7208 50.7301 95.4978 49.8019C95.1988 48.5557 94.7728 48.8966 93.8708 51.104ZM105.022 50.2705C102.865 51.1379 104.748 52.5995 108.023 52.5995C109.844 52.5995 112.103 53.4928 113.434 54.74C115.325 56.5106 115.983 56.6622 117.249 55.6143C119.455 53.7889 119.156 52.8457 115.828 51.1299C112.975 49.6593 107.605 49.2326 105.022 50.2705ZM130.833 54.3442C130.924 55.5705 136.825 59.8635 137.498 59.1925C138.343 58.3511 133.76 53.5964 132.104 53.5964C131.375 53.5964 130.803 53.9334 130.833 54.3442ZM132.459 61.2104C133.41 62.6561 134.362 63.3141 134.577 62.673C135.205 60.7927 133.967 58.5814 132.286 58.5814C130.924 58.5814 130.946 58.9064 132.459 61.2104ZM25.4718 66.2771C26.9148 67.2193 30.4948 70.8912 33.4278 74.4365C38.6708 80.7733 38.7278 80.9119 36.8178 82.6856C33.1998 86.0464 31.9328 93.8907 33.8788 100.878C34.8748 104.457 34.7678 104.95 32.6228 106.674C29.3878 109.275 25.0548 111.071 20.0278 111.896C14.5668 112.793 14.6048 111.808 20.2778 105.44C22.7528 102.661 24.7778 99.9863 24.7778 99.4958C24.7778 97.8836 21.6828 95.4689 13.8308 90.9536C9.5758 88.507 5.2358 85.5389 4.1868 84.3595L2.2778 82.214L10.5278 82.8291C15.0648 83.1671 18.7778 83.0943 18.7778 82.6676C18.7778 82.2419 16.3028 79.7624 13.2778 77.1583C10.2528 74.5551 7.7778 71.7775 7.7778 70.9859C7.7778 68.4645 12.3648 69.4057 17.7778 73.0377C25.3188 78.0974 26.7708 77.6139 22.2778 71.5422C17.8618 65.5742 19.7158 62.5175 25.4718 66.2771ZM108.241 69.4306C109.314 72.8034 101.611 75.7096 90.0418 76.2959C82.1188 76.6976 80.7168 76.5312 80.1748 75.1244C79.3138 72.8872 76.7658 74.9848 76.8098 77.895C76.8508 80.6706 79.3388 83.8949 80.7618 83.0175C81.3758 82.6387 83.3178 82.9966 85.0778 83.8111C93.3758 87.6555 99.0418 86.85 108.275 80.5171C112.877 77.3606 114.687 77.3078 114.893 80.3247C114.956 81.2519 115.352 80.225 115.773 78.0416C116.764 72.9001 116.468 72.2959 111.625 69.5821L107.565 67.307L108.241 69.4306ZM224.008 72.5282C239.524 77.3068 252.849 92.9286 254.421 108.186C254.775 111.615 255.631 115.195 256.325 116.14C257.494 117.734 257.736 117.679 259.619 115.389C261.276 113.375 261.989 113.12 263.465 114.01C264.462 114.611 265.73 116.454 266.283 118.106C267.329 121.233 273.402 127.084 274.483 126.007C274.824 125.667 274.58 124.243 273.94 122.844C273.301 121.445 272.778 119.6 272.778 118.745C272.778 116.835 275.895 117.449 283.361 120.824C287.95 122.899 288.571 123.575 289.748 127.766C292.279 136.779 289.088 149.281 282.531 156.037C279.492 159.167 279.112 159.277 271.292 159.277C262.202 159.277 254.058 157.472 246.949 153.88C235.727 148.211 224.817 136.447 219.593 124.383C217.451 119.436 217.336 118.46 218.418 114.413C220.213 107.696 220.008 100.673 217.76 91.9087C215.775 84.1721 210.481 73.7864 208.028 72.8194C207.341 72.5482 206.778 71.9251 206.778 71.4355C206.778 69.8284 217.435 70.5043 224.008 72.5282ZM206.538 77.0516C213.012 82.5769 216.075 90.0334 216.562 101.452C216.9 109.395 216.615 111.85 214.794 116.672C211.89 124.359 208.425 128.371 204.689 128.371C201.31 128.371 201.284 128.2 203.261 118.899C206.321 104.497 204.832 95.5836 197.277 83.0764C195.353 79.89 193.778 76.9808 193.778 76.6129C193.778 75.9898 198.923 73.9938 201.348 73.6768C201.937 73.599 204.272 75.1184 206.538 77.0516ZM110.742 75.9509C109.937 76.7305 107.073 78.5251 104.379 79.9389C98.9388 82.7932 92.6798 83.2668 85.2038 81.3895C78.6548 79.7454 78.4828 78.226 84.9038 78.7534C91.1318 79.2639 100.158 77.9339 103.772 75.9728C105.15 75.2251 107.612 74.595 109.242 74.5731C111.825 74.5382 112.018 74.7156 110.742 75.9509ZM186.064 77.7006L190.851 77.5361L195.264 86.5778C197.692 91.5498 199.984 97.6513 200.357 100.135C201.008 104.463 199.494 122.36 198.19 125.747C197.157 128.43 196.076 127.6 195.438 123.635C194.523 117.951 185.416 94.448 184.278 94.8319C182.637 95.3852 183.749 101.272 187.386 111.289C192.432 125.188 193.153 131.575 191.823 150.612C190.456 170.174 190.386 170.285 179.417 170.167C175.491 170.125 170.478 169.543 168.278 168.873L164.278 167.656L164.778 160.725C165.053 156.912 165.278 149.756 165.278 144.821C165.278 136.096 165.104 135.425 159 120.573C149.961 98.5825 148.141 89.6475 151.386 83.207C154.646 76.7395 155.891 76.3168 169.278 77.1333C175.878 77.5361 183.432 77.7913 186.064 77.7006ZM143.264 78.5431C142.917 79.1034 141.545 84.7922 140.215 91.1849C138.886 97.5786 136.443 105.694 134.788 109.221C133.132 112.748 131.778 116.443 131.778 117.432C131.778 119.524 136.163 123.142 147.12 130.09L154.962 135.063L151.745 135.705C149.976 136.057 146.06 136.346 143.043 136.346C136.48 136.346 128.977 132.748 120.96 125.756C118.103 123.265 113.166 119.931 109.987 118.348C106.809 116.765 102.874 114.075 101.243 112.372L98.2778 109.274L102.778 111.831C108.725 115.211 116.067 115.348 120.88 112.168C125.1 109.38 128.634 102.475 129.47 95.3822C129.96 91.2238 131.013 88.7861 134.062 84.7523C136.295 81.7982 138.812 79.5181 139.839 79.5181C140.841 79.5181 141.938 79.0695 142.278 78.5211C142.618 77.9728 143.121 77.5241 143.396 77.5241C143.671 77.5241 143.612 77.9828 143.264 78.5431ZM149.778 78.5869C149.778 79.1712 149.319 80.5051 148.757 81.551C148.196 82.5968 147.321 85.6376 146.813 88.3096C145.579 94.793 147.335 102.868 153.182 117.608C155.71 123.98 157.778 129.661 157.778 130.233C157.778 133.12 139.762 123.058 136.423 118.305C135.09 116.408 135.223 115.572 137.83 109.466C140.925 102.214 142.195 97.2486 143.244 88.2936C143.633 84.9657 144.741 81.558 145.916 80.0685C147.999 77.4284 149.778 76.7455 149.778 78.5869ZM72.2158 86.3774C73.0348 87.9566 74.7618 90.5368 76.0528 92.1101C77.9998 94.4819 80.7778 102.951 80.7778 106.513C80.7778 107.992 56.9808 107.569 50.1768 105.969C40.8458 103.776 38.9048 102.603 37.6418 98.4001C36.7718 95.5078 36.8298 93.7132 37.9008 90.3384L39.2778 85.9985L52.9448 85.5C60.4618 85.2259 66.9488 84.6646 67.3618 84.2538C68.8708 82.7484 70.7628 83.5759 72.2158 86.3774ZM92.0278 88.154C89.3888 89.2158 90.9448 90.5917 94.4508 90.2956C98.8618 89.9247 100.368 87.4541 96.1108 87.5728C94.5528 87.6157 92.7158 87.8779 92.0278 88.154ZM92.7878 107.171C96.1128 113.403 103.901 120.12 112.274 123.978C116.339 125.85 119.948 127.839 120.295 128.397C120.641 128.956 123.254 131.009 126.101 132.96L131.278 136.506L126.778 135.832C121.137 134.988 112.078 131.036 106.156 126.839C96.0948 119.707 85.1718 107.654 84.1488 102.555L83.5088 99.3622L87.0218 101.155C89.1548 102.242 91.4208 104.607 92.7878 107.171ZM280.824 108.712C282.643 110.142 285.778 114.519 285.778 115.632C285.778 117.694 282.948 115.831 280.042 111.858C276.992 107.688 277.405 106.026 280.824 108.712ZM273.971 110.175C276.944 113.627 276.853 114.185 273.252 114.605C270.148 114.966 269.515 114.632 267.793 111.722L265.845 108.431H269.157C271.071 108.431 273.102 109.167 273.971 110.175ZM217.803 127.931C220.5 134.204 227.898 145.409 232.949 150.873L237.158 155.425L231.789 153.391C228.836 152.272 224.673 149.662 222.538 147.59C218.763 143.928 212.778 133.152 212.778 130.02C212.778 128.403 214.817 123.386 215.474 123.386C215.68 123.386 216.729 125.431 217.803 127.931ZM297.586 132.666C297.385 134.733 296.671 135.947 295.528 136.162C294.067 136.438 293.778 135.735 293.778 131.898C293.778 127.569 293.897 127.367 295.836 128.401C297.378 129.224 297.817 130.295 297.586 132.666ZM294.312 151.862C295.111 161.428 294.649 166.66 292.632 170.874C291.539 173.159 290.507 173.796 287.496 174.045C284.016 174.332 283.615 174.085 282.253 170.836C280.374 166.353 280.369 163.265 282.242 163.265C284.488 163.265 288.376 156.823 290.416 149.72C291.426 146.203 292.556 143.325 292.926 143.325C293.296 143.325 293.919 147.167 294.312 151.862ZM178.361 174.878C186.554 175.506 186.781 175.592 186.896 178.118C187.081 182.161 186.806 183.473 185.075 186.813C184.143 188.613 183.762 190.699 184.172 191.763C184.815 193.434 184.992 193.377 186.108 191.145C187.716 187.931 190.278 187.929 190.278 191.143C190.278 193.967 186.067 196.873 183.433 195.865C182.521 195.516 181.017 193.646 180.091 191.71C179.165 189.774 178.041 188.19 177.593 188.19C175.979 188.19 176.828 191.788 179.298 195.412L181.817 199.109L179.29 199.741C176.58 200.419 172.096 198.153 171.117 195.609C170.813 194.819 170.007 194.172 169.325 194.172C168.359 194.172 168.392 195.369 169.477 199.617C170.708 204.434 170.685 205.418 169.275 208.135C167.711 211.151 163.358 214.025 162.161 212.832C161.827 212.498 162.323 210.071 163.263 207.436C164.387 204.289 165.129 198.371 165.428 190.184C165.985 174.925 166.356 172.86 168.403 173.644C169.251 173.968 173.732 174.523 178.361 174.878ZM167.877 216.791C166.434 217.86 166.473 218.128 168.278 219.534C170.268 221.084 170.267 221.101 168.028 222.996C165.294 225.309 165.23 226.161 167.636 228.215C168.968 229.352 169.696 231.853 170.21 237.047C170.855 243.578 171.265 244.612 174.352 247.516C176.859 249.872 177.778 251.588 177.778 253.91C177.778 258.455 172.982 260.367 163.995 259.408L157.465 258.71L158.17 272.025C158.621 280.54 159.308 285.636 160.076 286.165C160.737 286.618 165.001 286.824 169.552 286.62C178.607 286.215 180.011 287.407 173.201 289.719C168.258 291.398 159.776 290.647 155.487 288.151L152.278 286.283L152.004 269.119C151.833 258.352 152.128 251.214 152.796 249.97C153.382 248.878 155.53 247.197 157.569 246.231C160.674 244.764 161.2 244.075 160.801 242.006C159.945 237.576 160.95 220.243 162.177 218.263C162.531 217.692 162.168 216.861 161.37 216.416C160.469 215.913 161.728 215.607 164.698 215.607C168.619 215.607 169.189 215.819 167.877 216.791ZM163.022 245.267C163.659 247.203 168.778 247.483 168.778 245.582C168.778 244.503 167.827 244.021 165.695 244.021C163.676 244.021 162.753 244.452 163.022 245.267ZM177.778 270.466C177.778 279.742 177.719 279.984 175.213 280.935C173.802 281.469 169.977 281.907 166.713 281.907H160.778V275.551C160.778 272.055 160.497 267.793 160.153 266.079C159.532 262.982 159.554 262.963 163.903 262.846C166.309 262.781 169.628 262.386 171.278 261.967C177.951 260.274 177.778 260.047 177.778 270.466Z" fill="#2dc92d"/>
</svg>
