<svg width="145" height="307" viewBox="0 0 145 307" fill="none" xmlns="http://www.w3.org/2000/svg">
<path fill-rule="evenodd" clip-rule="evenodd" d="M106.25 2.75672C102.87 5.05085 101.818 5.2672 96.7885 4.69691C91.622 4.11067 90.713 4.32004 86.3547 7.09972C81.2809 10.337 78.7615 10.8485 76.9256 9.01399C76.0815 8.17051 76.1713 7.3071 77.2798 5.61716C79.3831 2.40976 77.4474 1.61414 72.9624 3.84247C68.0952 6.26123 65.3173 10.2632 65.1976 15.03C65.1437 17.1676 64.4463 19.704 63.647 20.6671C62.738 21.7618 62.1773 24.695 62.1503 28.4947C62.1164 33.4339 61.4339 35.9134 58.5104 41.731C52.0877 54.5138 51.494 67.784 56.8052 79.8639C58.8147 84.4372 58.3258 85.8499 54.7098 85.9157C53.8867 85.9307 51.3054 87.0334 48.9726 88.3654L44.732 90.7882V86.2826C44.732 79.9646 40.7678 75.9486 34.5316 75.9486C27.1499 75.9486 26.5393 77.803 29.7672 90.4143C32.0621 99.3774 32.0012 99.531 23.9121 105.105C19.7344 107.985 19.5757 108.279 20.0297 112.301C20.6025 117.382 19.902 118.426 12.0554 124.198C0.201712 132.918 -2.29076 141.957 3.76781 154.255C7.94055 162.723 12.1233 165.93 19.7134 166.479C26.4974 166.969 32.2626 164.513 37.6337 158.846C39.9775 156.372 40.8376 155.88 40.4425 157.24C35.0325 175.884 33.0788 212.362 36.3126 234.346C37.7175 243.889 44.0764 274.479 45.3406 277.771C45.6479 278.571 44.8936 279.333 43.4319 279.7C39.7171 280.632 28.947 288.171 28.2655 290.317C25.4717 299.113 44.7759 301.066 61.5367 293.681C65.6436 291.871 67.3149 291.572 68.8176 292.375C72.0095 294.083 78.072 290.597 78.4841 286.817C78.6637 285.172 79.1756 283.449 79.6206 282.989C80.0666 282.529 80.1933 272.878 79.901 261.543C79.3742 241.058 80.0636 227.495 81.6312 227.495C82.0822 227.495 85.6812 237.254 89.6294 249.18C93.5777 261.106 98.395 273.898 100.334 277.605C103.353 283.378 108.263 289.157 111.238 290.44C111.702 290.641 112.981 292.6 114.079 294.793C117.488 301.605 128.482 307.492 134.824 305.902C136.132 305.573 138.109 303.573 139.41 301.26C141.293 297.913 141.608 296.189 141.195 291.507C140.919 288.38 140.478 282.231 140.214 277.844C139.886 272.384 138.117 264.207 134.605 251.922C127.65 227.592 123.245 206.04 123.141 195.84C123.096 191.316 122.722 187.614 122.31 187.614C120.32 187.614 122.091 184.891 127.413 179.769C136.721 170.808 141.445 159.757 143.561 141.99C144.951 130.318 143.631 120.95 139.322 111.904C135.538 103.961 127.132 95.3914 119.779 91.9796C114.965 89.7463 114.693 89.4372 116.131 87.85C116.985 86.9068 118.504 86.3494 119.506 86.6117C121.92 87.2418 126.862 84.6126 129.456 81.3175C130.904 79.478 131.54 77.2278 131.54 73.9426C131.54 70.9645 132.091 68.7561 133.03 67.9775C137.478 64.2885 143.513 49.2455 143.513 41.8447C143.513 36.4309 140.176 27.6043 136.585 23.5176C134.908 21.6083 133.535 19.4099 133.535 18.6322C133.535 15.4118 130.9 11.8565 127.102 9.95218C124.878 8.83652 121.358 6.18047 119.28 4.04985C114.737 -0.608205 111.656 -0.91329 106.25 2.75672ZM117.383 6.96313C119.431 9.05087 123.014 11.8306 125.345 13.1396C128.594 14.9642 130.188 16.8126 132.175 21.0579C133.6 24.1038 135.367 27.2823 136.101 28.1208C136.836 28.9593 138.113 32.2414 138.94 35.4129C140.778 42.4638 139.814 48.8826 135.816 56.2226L133.096 61.2167L131.962 56.77C131.337 54.3243 129.751 50.8447 128.438 49.0382C126.524 46.402 126.336 45.6533 127.491 45.2495C128.284 44.9733 130.018 43.6613 131.345 42.3352C133.259 40.423 133.63 39.2814 133.136 36.8148C132.057 31.4269 130.01 30.0859 122.858 30.0859C116.736 30.0859 116.412 29.9603 114.78 26.9583C113.846 25.2384 112.116 22.6661 110.935 21.2414C108.869 18.7468 108.621 18.697 104.186 19.8824C98.0388 21.5245 96.566 21.4188 93.6236 19.1187C90.1323 16.3899 88.938 16.5973 82.149 21.1128C78.8563 23.3022 75.1525 25.0958 73.9173 25.0978C67.7719 25.1068 65.4071 15.4228 70.1446 9.64709C72.0274 7.35196 72.6062 7.06183 72.6341 8.40082C72.685 10.8854 76.2601 14.1386 78.9062 14.1077C80.1415 14.0938 83.5998 12.5235 86.5931 10.6182C92.6886 6.7378 93.898 6.52943 97.9779 8.65606C101.832 10.664 101.936 10.6421 107.162 6.65605C109.678 4.73679 112.169 3.16649 112.697 3.16649C113.226 3.16649 115.334 4.87538 117.383 6.96313ZM93.3512 22.1098C95.2759 23.6223 97.3992 24.1038 102.151 24.1038C108.018 24.1038 108.577 24.3082 111.011 27.3441C112.44 29.1268 114.069 31.1457 114.632 31.8307C115.234 32.5655 118.013 33.0769 121.401 33.0769C127.457 33.0769 129.544 34.1936 129.544 37.4349C129.544 39.7181 126.824 43.0471 124.958 43.0471C122.287 43.0471 122.513 45.2246 125.543 48.6713C129.142 52.767 130.571 55.9933 130.475 59.8119C130.418 62.0921 130.221 61.8977 129.146 58.5008C127.216 52.4031 124.664 48.0322 123.032 48.0322C121.025 48.0322 121.166 48.6433 124.036 52.4041C126.608 55.774 129.568 63.0442 129.511 65.8548C129.493 66.7451 128.649 65.0722 127.634 62.1359C125.943 57.2446 121.562 51.1209 121.562 53.6513C121.562 54.2436 123.136 57.7461 125.06 61.435C128.254 67.5567 128.845 70.8857 126.482 69.4251C125.971 69.1101 125.553 69.3005 125.553 69.8489C125.553 70.3972 126.002 71.123 126.551 71.462C127.099 71.801 127.548 73.3573 127.548 74.9217C127.548 78.806 122.304 83.2627 118.408 82.6914C116.265 82.3773 114.5 83.2069 110.854 86.2408C108.237 88.4192 103.734 91.2916 100.847 92.6247C95.2659 95.2009 94.7581 97.4791 99.9805 96.504L103.103 95.9218L100.357 98.3515C97.019 101.305 91.6509 102.901 85.6413 102.726C83.1717 102.655 82.1869 102.398 83.4541 102.157C86.5323 101.569 85.7091 99.5788 82.0742 98.8231C74.5279 97.2548 65.3163 89.5738 61.402 81.5857C57.6483 73.9266 56.0359 62.9525 57.5545 55.3981C59.9971 43.2465 69.2137 29.0091 75.5357 27.6213C77.0383 27.2913 80.4538 25.4677 83.1278 23.5684C88.7623 19.5664 89.9068 19.4029 93.3512 22.1098ZM67.8667 29.3531C65.6905 31.6751 65.1477 31.8686 64.4253 30.5794C63.4584 28.8526 64.4004 24.9583 66.0387 23.9104C66.6334 23.5295 67.8697 23.9782 68.7846 24.9074C70.3412 26.4867 70.2813 26.7758 67.8667 29.3531ZM102.073 34.1089C101.062 35.2255 99.6452 35.9125 98.9248 35.6363C97.4251 35.061 97.2585 35.9563 98.5008 37.9155C99.1583 38.9513 99.8338 39.0092 101.413 38.1647C104.403 36.5665 108.658 36.8167 110.757 38.7151C112.479 40.2714 112.582 40.2245 112.582 37.8726C112.582 32.6283 105.659 30.1497 102.073 34.1089ZM74.6656 34.074C74.6656 34.6223 75.2274 35.077 75.9128 35.0849C76.5993 35.0919 78.1698 35.3691 79.4051 35.6991C81.0554 36.1418 81.6501 35.8736 81.6501 34.6891C81.6501 33.5116 80.7092 33.0769 78.1579 33.0769C76.2371 33.0769 74.6656 33.5256 74.6656 34.074ZM70.6246 41.6832C69.5809 44.427 70.1815 48.0322 71.6832 48.0322C73.127 48.0322 75.6634 43.761 75.6634 41.3292C75.6634 38.0191 71.9187 38.2814 70.6246 41.6832ZM80.787 49.0531L74.4361 54.9714L75.9338 58.7301C76.758 60.7979 78.2147 62.6454 79.1716 62.8358C80.6633 63.134 80.815 62.6693 80.2333 59.5746C79.6246 56.3283 80.0127 55.3842 84.0957 50.1917C91.4025 40.8985 90.0405 40.4299 80.787 49.0531ZM99.8747 46.8517C99.1972 47.2814 98.3561 49.0621 98.0069 50.8079C97.5169 53.2565 97.7574 54.1319 99.0565 54.6294C101.339 55.5048 102.477 54.1419 102.817 50.1209C103.111 46.6613 102.044 45.4768 99.8747 46.8517ZM119.597 58.7501C119.614 59.1608 120.779 61.2925 122.185 63.4859L124.743 67.474L124.144 64.0791C123.815 62.2127 123.044 60.0811 122.432 59.3433C121.226 57.8926 119.547 57.5407 119.597 58.7501ZM63.3776 63.459C60.8672 65.3124 62.0117 70.8399 65.4311 73.3783C67.9625 75.2577 78.1209 78.6256 84.2523 79.6196C87.3076 80.1141 94.7251 77.2038 96.1091 74.9655C97.1328 73.3105 99.6043 73.818 99.6801 75.6993C99.74 77.1909 99.8747 77.155 100.608 75.4501C102.427 71.2197 101.706 68.5517 98.1156 66.2277C93.9269 63.5168 93.6236 63.4879 93.6236 65.796C93.6236 67.2217 92.2885 67.8718 87.3365 68.8558C83.8782 69.5418 79.7254 69.791 78.107 69.4092C72.9215 68.1848 65.8032 64.8249 65.4899 63.453C65.2375 62.3473 64.8833 62.3483 63.3776 63.459ZM118.881 64.9814C119.243 66.3523 119.545 67.811 119.552 68.2217C119.56 68.6325 120.015 68.9695 120.564 68.9695C122.181 68.9695 121.704 65.3423 119.892 63.8568C118.393 62.6285 118.29 62.7431 118.881 64.9814ZM81.1512 71.3603C84.4439 71.4162 89.5526 71.0752 92.5041 70.6036C98.8689 69.5846 98.7422 70.7432 92.1508 73.8389C86.5363 76.476 82.6858 76.5069 77.9194 73.9546C75.8719 72.8578 72.8197 71.9605 71.1384 71.9605C67.9405 71.9605 65.6855 70.45 65.6855 68.3075C65.6855 67.4092 67.0505 67.6524 70.425 69.1519C73.3824 70.466 77.4155 71.2965 81.1512 71.3603ZM69.1778 78.9396C69.517 79.488 70.6106 79.9366 71.6094 79.9366C72.6072 79.9366 73.9821 80.6096 74.6656 81.4322C76.2461 83.3355 77.659 83.3514 77.659 81.4671C77.659 80.6645 76.7909 79.5428 75.7292 78.9745C73.2477 77.6475 68.3626 77.6216 69.1778 78.9396ZM40.5183 81.489C42.026 82.5438 42.7344 84.0603 42.7304 86.2248C42.7224 91.0334 40.8226 96.8859 39.2701 96.8859C36.8415 96.8859 33.7523 101.907 33.8192 105.744C33.879 109.141 33.9399 109.207 34.8698 106.877C36.6439 102.434 38.8001 100.873 43.1405 100.889C45.3875 100.898 46.6996 101.239 46.056 101.649C45.4115 102.057 44.5923 105.304 44.2341 108.862C43.7631 113.543 43.8759 114.917 44.6412 113.835C45.2229 113.013 45.7058 110.881 45.7148 109.099C45.7258 106.786 46.1917 105.859 47.3432 105.859C48.5485 105.859 48.787 106.426 48.2891 108.102C47.9219 109.337 47.3631 112.14 47.0488 114.334C46.5839 117.567 46.7196 118.092 47.7632 117.11C49.5812 115.402 50.2907 105.254 48.7241 103.368C47.0788 101.386 48.2432 101.475 51.8532 103.606C55.088 105.515 56.2614 108.504 55.2915 112.365C53.6691 118.824 45.8874 121.063 41.2317 116.41C39.1045 114.285 38.8839 113.372 39.3629 108.684C39.764 104.763 39.6273 103.759 38.842 104.862C37.4791 106.778 37.4341 115.376 38.7752 117.878C40.1681 120.479 44.9205 122.802 48.9227 122.837L52.2154 122.867L48.9566 125.828C45.1979 129.245 39.6193 129.808 34.7042 127.269C31.9753 125.859 31.7607 125.878 31.7607 127.528C31.7607 129.901 35.0504 131.827 40.646 132.732L45.2309 133.472L41.5211 135.119C35.1472 137.949 27.4074 136.515 24.9009 132.039C23.2835 129.151 22.8525 131.053 24.3292 134.56C25.9147 138.326 30.6083 140.735 36.4683 140.789L40.2419 140.825L37.7475 142.25C34.5206 144.093 29.5925 144.116 25.2651 142.31C17.9743 139.266 15.3691 128.829 20.4079 122.846C22.608 120.232 22.9243 119.119 22.3975 115.827C21.7858 112.006 21.8986 111.818 27.2787 107.759C30.3079 105.474 33.0389 102.597 33.3492 101.363C33.6585 100.131 32.979 96.1042 31.8386 92.4163C29.4499 84.6874 29.3022 82.7921 30.9625 81.1331C32.6468 79.4501 37.8851 79.6455 40.5183 81.489ZM58.8916 93.9288C58.3278 101.718 60.5798 107.741 65.6895 112.111L69.527 115.393L65.1916 129.546C61.1875 142.62 57.7032 158.816 57.7032 164.36C57.7032 165.634 57.322 166.677 56.8551 166.677C56.0668 166.677 51.6207 163.536 45.7507 158.833L43.2772 156.852L44.9834 148.056C45.9213 143.217 46.975 137.564 47.3232 135.493C47.6864 133.337 48.7461 131.306 49.8017 130.742C50.8165 130.199 52.2024 127.855 52.8819 125.534C53.5624 123.212 54.9234 119.967 55.9072 118.322C56.9698 116.545 57.6972 113.361 57.6992 110.477C57.7032 106.167 57.2702 105.192 53.8278 101.752C51.6965 99.6217 48.5535 97.5998 46.8433 97.2578C45.1331 96.9158 43.7342 96.3036 43.7342 95.8969C43.7342 94.849 51.5798 89.7891 54.643 88.8599C59.2328 87.4691 59.3496 87.6077 58.8916 93.9288ZM71.1773 98.8012C74.9679 105.565 85.2072 108.56 94.763 105.699C99.3259 104.333 106.189 98.7533 107.17 95.6117C108.137 92.514 109.422 91.9467 112.802 93.1242C115.323 94.0025 115.638 94.506 115.075 96.7613C114.087 100.72 109.852 105.735 104.789 108.945C98.5267 112.913 96.8005 113.313 94.5874 111.312C92.1668 109.123 89.9986 109.99 87.8494 114.005C85.1893 118.976 82.0003 121.811 79.0708 121.811C76.5524 121.811 76.4337 122.021 76.9934 125.465C77.3367 127.581 78.8463 130.418 80.5765 132.201C82.7736 134.466 83.3154 135.678 82.623 136.772C82.1051 137.592 81.6661 140.281 81.6471 142.749C81.6292 145.216 80.9566 151.497 80.1534 156.707C78.2117 169.294 78.2347 176.083 80.2243 178.072C81.3218 179.168 83.6996 179.638 88.1387 179.638C93.9868 179.638 94.6453 179.862 96.5231 182.498C99.3658 186.487 103.499 187.946 110.334 187.374C113.49 187.111 116.8 186.582 117.689 186.2C118.821 185.715 119.465 186.124 119.843 187.568C120.269 189.194 119.496 190.15 116.2 192.08C108.548 196.56 103.575 197.821 91.5581 198.328C82.0073 198.73 78.5629 198.452 71.6024 196.714C61.4429 194.177 48.8349 188.1 42.7743 182.82L38.3232 178.94L40.1332 169.334L41.9441 159.727L47.5787 164.084C53.2461 168.466 57.6144 171.109 58.1772 170.496C58.3448 170.315 59.2468 165.231 60.1837 159.199C61.1196 153.167 64.088 141.192 66.7791 132.587C69.4701 123.983 71.6722 116.041 71.6722 114.938C71.6722 113.685 69.991 111.778 67.1832 109.848C60.2097 105.053 58.5443 100.581 60.7624 92.5987L61.8161 88.8101L65.4969 92.0215C67.5214 93.7872 70.0778 96.838 71.1773 98.8012ZM123.68 98.7433C130.109 102.817 135.119 108.309 138.262 114.726C140.561 119.425 141.044 121.875 141.363 130.472C141.819 142.784 139.943 152.308 135.056 162.499C127.074 179.14 112.509 187.471 100.964 181.996C95.1332 179.231 93.1825 172.392 95.672 163.436L96.7117 159.696L99.6083 161.192C104.616 163.78 108.39 163.126 112.546 158.95C115.757 155.723 117.501 152.254 121.066 142.001C121.916 139.557 123.7 140.822 125.667 145.265C127.84 150.174 127.589 156.057 124.931 162.561C124.176 164.411 123.557 167.087 123.557 168.507C123.557 173.677 126.54 168.358 128.198 160.232C130.218 150.334 129.009 143.688 124.126 137.847C122.13 135.459 120.582 132.291 120.178 129.767C119.197 123.638 116.028 118.163 111.608 114.965L107.695 112.132L111.18 108.758C113.096 106.902 115.423 103.248 116.351 100.637C117.279 98.0255 118.295 95.8889 118.607 95.8889C118.919 95.8889 121.202 97.173 123.68 98.7433ZM90.6192 118.072C89.5316 119.854 88.6406 122.292 88.6386 123.489C88.6366 124.787 87.8294 125.92 86.6391 126.298C85.5415 126.646 84.6435 127.364 84.6435 127.892C84.6435 129.8 81.5314 129.99 79.5548 128.201C77.5492 126.389 77.5642 126.365 81.3378 125.331C84.4938 124.465 85.5285 123.481 87.4063 119.56C88.6516 116.96 90.3289 114.832 91.1341 114.832C92.3135 114.832 92.2137 115.459 90.6192 118.072ZM112.146 119.3C116.06 122.282 118.133 126.221 119.157 132.616C120.147 138.801 116.475 149.696 111.714 154.696C107.499 159.124 104.506 159.736 99.5604 157.179C96.2218 155.455 95.692 153.716 98.5057 153.716C100.597 153.716 102.082 151.136 100.539 150.183C99.9994 149.85 97.1238 149.327 94.1474 149.02C87.8534 148.371 81.8407 144.294 82.9432 141.423C83.5319 139.89 83.8602 139.917 86.8586 141.745C89.0307 143.068 91.8934 143.74 95.3697 143.742C99.8358 143.745 100.608 143.468 100.608 141.867C100.608 140.263 99.6622 139.93 94.1105 139.576C86.6001 139.099 84.0278 137.36 85.0157 133.427C85.9705 129.627 89.2812 129.078 92.525 132.183C97.5169 136.963 103.785 135.254 107.468 128.108C108.859 125.408 108.931 121.811 107.593 121.811C107.044 121.811 106.595 122.399 106.595 123.116C106.595 123.834 105.896 125.292 105.043 126.357C103.56 128.207 103.541 128.191 104.605 126C106.279 122.557 105.486 118.378 103.096 118.035C99.6023 117.534 97.6217 119.961 96.9592 125.55C96.6179 128.428 96.0522 130.784 95.7019 130.784C93.8291 130.784 90.6302 127.375 90.6302 125.379C90.6302 122.645 94.0446 118.023 97.0041 116.752C100.893 115.082 108.232 116.317 112.146 119.3ZM101.437 125.865C100.815 127.748 100.163 129.85 99.9895 130.535C99.8148 131.221 99.1603 131.781 98.5327 131.781C96.8634 131.781 98.3611 124.593 100.349 123.068C102.557 121.374 102.754 121.88 101.437 125.865ZM19.7114 141.13C22.3785 145.443 26.8137 147.736 32.4771 147.73C36.4623 147.726 42.7364 144.587 42.7364 142.597C42.7364 141.949 42.9868 141.67 43.2942 141.976C44.3438 143.026 40.9354 149.506 37.0959 153.762C32.6927 158.643 24.879 162.667 19.7873 162.675C11.2542 162.69 2.82489 153.266 2.82489 143.714C2.82489 140.82 3.74784 138.77 6.76814 134.952C8.93633 132.211 11.7301 129.255 12.9754 128.384C15.2184 126.813 15.2493 126.846 16.288 132.045C16.8648 134.929 18.4053 139.019 19.7114 141.13ZM91.7717 153.249C94.4677 153.84 94.7411 154.219 94.1664 156.558C93.8092 158.011 93.2574 162.957 92.9401 167.55L92.3624 175.902L86.9015 175.339C83.8971 175.029 81.1851 174.521 80.8748 174.21C80.2891 173.626 82.4753 152.335 83.3553 150.043C83.7315 149.062 84.4429 149.213 86.2908 150.665C87.6309 151.719 90.0984 152.881 91.7717 153.249ZM41.8144 185.263C46.2356 190.08 55.9192 195.563 65.5987 198.734C73.5421 201.336 77.2109 201.946 87.2337 202.333C100.483 202.846 107.177 201.579 115.477 196.992C117.893 195.657 119.966 194.683 120.083 194.828C120.201 194.973 121.297 200.924 122.52 208.053C124.489 219.527 127.215 231.013 136.098 265.26C139.515 278.43 139.392 279.734 134.418 283.024C130.866 285.373 129.085 285.789 121.197 286.12C112.907 286.468 111.767 286.289 108.59 284.138C103.712 280.835 98.8989 270.796 91.0762 247.611C84.5297 228.205 77.0822 210.969 74.2176 208.594C71.5415 206.375 72.3717 209.295 76.2132 215.613C79.7553 221.44 79.7553 221.442 78.6059 227.708C77.8795 231.669 77.5861 242.231 77.8076 256.408L78.1579 278.841L70.6744 280.025C60.5798 281.622 54.2988 281.605 50.3874 279.972L47.1257 278.611L43.3221 260.971C41.2297 251.269 38.8989 239.207 38.1406 234.166C36.0582 220.309 36.4773 182.629 38.7133 182.629C39.0885 182.629 40.4834 183.815 41.8144 185.263ZM51.7165 284.939C56.0978 286.483 61.2932 286.437 73.1689 284.748L77.1601 284.181L74.8043 286.247C72.3617 288.389 68.2279 289.007 67.2221 287.38C66.8978 286.856 64.3225 287.509 61.3521 288.868C54.8914 291.823 47.5068 293.298 39.1673 293.298C32.3345 293.298 30.8537 292.433 33.5338 290.01C35.0923 288.6 45.5152 283.341 46.7275 283.352C47.0019 283.355 49.247 284.068 51.7165 284.939ZM139.522 291.475C139.522 295.184 137.102 299.9 134.479 301.303C131.231 303.04 122.444 300 117.88 295.561L114.078 291.864L121.591 291.222C126.07 290.84 130.702 289.758 133.065 288.543C137.692 286.164 139.522 286.995 139.522 291.475Z" fill="#2dc92d"/>
</svg>
