<svg width="294" height="309" viewBox="0 0 294 309" fill="none" xmlns="http://www.w3.org/2000/svg">
<path fill-rule="evenodd" clip-rule="evenodd" d="M216.991 1.23527C209.506 2.40527 189.614 12.0223 180.433 18.9093C171.274 25.7803 171.523 25.6743 169.911 23.3733C169.129 22.2573 166.352 20.6343 163.739 19.7673C161.127 18.8993 157.714 16.8383 156.155 15.1863C152.387 11.1943 148.383 11.1933 143.838 15.1843C140.872 17.7893 139.648 18.1843 134.551 18.1843C129.306 18.1843 128.234 18.5573 124.491 21.6843C118.441 26.7383 111.722 26.3573 114.526 21.1193C116.202 17.9863 115.083 17.7233 110.657 20.2113C105.81 22.9353 104.22 25.7213 103.971 31.9263C103.866 34.5433 103.207 38.1883 102.505 40.0273C101.504 42.6543 101.484 44.2173 102.413 47.3183C103.477 50.8693 103.32 51.9393 100.846 57.9753C98.9317 62.6443 97.9737 67.0083 97.6927 72.3303L97.2887 79.9753L88.6397 81.5693C83.8827 82.4453 75.7157 83.8583 70.4907 84.7073C34.3397 90.5873 10.1417 102.39 2.88267 117.684C-0.869328 125.591 0.117678 131.386 6.30368 137.776C8.76668 140.321 10.6367 141.097 16.8687 142.163C22.9597 143.205 24.7497 143.93 26.0197 145.869C28.6537 149.889 33.4447 152.176 39.2407 152.18C42.1277 152.182 44.4907 152.618 44.4907 153.149C44.4907 155.339 51.1917 161.509 56.4567 164.167C66.1217 169.046 72.6267 170.451 83.5177 170.014L93.2707 169.622L93.9327 177.653C94.2967 182.07 95.2417 189.811 96.0317 194.855C97.0897 201.608 97.2077 205.402 96.4797 209.242C95.0457 216.806 95.2667 230.838 96.9607 239.69C101.02 260.908 112.996 272.369 132.674 273.871C139.083 274.36 141.835 275.062 144.671 276.931C146.695 278.266 151.122 280.331 154.51 281.521L160.669 283.684L163.631 290.827C165.261 294.756 168.058 299.664 169.848 301.734C172.578 304.892 173.529 305.391 175.751 304.833C183.9 302.788 189.717 281.139 184.421 272.57C182.309 269.153 182.517 267.184 184.991 267.184C187.428 267.184 187.638 265.338 185.902 259.152C184.291 253.409 180.998 249.196 178.106 249.176C177.493 249.172 176.008 247.446 174.806 245.34L172.62 241.512L175.165 234.598C178.303 226.071 179.103 214.993 177.723 199.184C177.171 192.859 176.944 184.913 177.219 181.527L177.718 175.37L183.354 177.352C195.063 181.47 210.636 178.052 222.642 168.729L228.304 164.331L234.957 165.471C242.625 166.785 242.911 166.588 243.988 159.269C244.358 156.747 245.518 153.761 246.565 152.632C249.766 149.18 252.573 129.375 250.272 126.474C249.657 125.698 249.678 123.547 250.33 120.489C250.999 117.354 251.01 115.505 250.361 115.104C248.742 114.103 255.334 109.05 266.501 102.733C277.847 96.3143 285.923 89.1083 288.922 82.7273C297.374 64.7423 293.692 44.5233 278.788 27.0663C261.312 6.59928 239.909 -2.34773 216.991 1.23527ZM240.75 5.12227C252.922 8.23627 261.952 13.7193 272.341 24.3093C287.809 40.0763 293.684 58.3123 288.643 74.9083C285.043 86.7633 280.118 91.7893 261.991 102.112C257.041 104.93 251.415 108.957 249.488 111.06C247.072 113.698 245.448 114.695 244.252 114.276C242.627 113.705 242.637 113.473 244.42 110.542C246.803 106.622 250.609 103.728 261.991 97.1783C274.985 89.7013 278.869 86.1933 282.643 78.5263C285.574 72.5743 285.9 71.0183 285.943 62.8023C285.988 54.3343 285.734 53.1493 282.385 46.1843C275.074 30.9813 264.432 20.2063 249.491 12.8813C241.232 8.83227 240.659 8.70327 229.31 8.34527C220.227 8.05927 216.446 8.35927 212.31 9.69427C204.592 12.1853 191.638 19.4123 182.363 26.4013C176.003 31.1943 174.106 32.1863 173.407 31.0833C172.92 30.3143 172.515 29.4123 172.506 29.0793C172.477 27.9033 188.698 16.6213 197.288 11.8433C212.424 3.42327 225.937 1.33427 240.75 5.12227ZM246.201 14.4083C259.931 20.1643 273.099 32.9773 279.886 47.1843C282.648 52.9663 282.991 54.6793 282.991 62.6843C282.991 70.5313 282.63 72.4193 280.173 77.4233C276.826 84.2393 272.666 87.8143 258.991 95.6293C248.269 101.756 244.52 104.795 241.336 109.94C240.227 111.731 238.941 112.962 238.478 112.676C237.607 112.138 237.096 113.413 236.002 118.861C235.41 121.809 235.127 121.999 232.065 121.502C227.624 120.782 225.233 122.259 221.49 128.036C218.631 132.447 217.568 133.191 210.01 136.062L201.68 139.226L191.308 128.955C182.669 120.401 179.184 117.74 170.463 113.035C164.703 109.928 158.979 107.086 157.741 106.718C156.503 106.35 155.491 105.578 155.491 105.002C155.491 103.097 163.948 96.2673 166.359 96.2253C167.751 96.2013 170.378 94.5323 172.737 92.1733C176.537 88.3733 176.72 87.9123 176.216 83.4373C175.791 79.6623 176.152 77.9043 178.012 74.6983C181.744 68.2653 184.491 58.7633 184.491 52.2883C184.491 47.4773 183.847 45.0943 181.149 39.9183L177.807 33.5073L185.399 27.8443C193.435 21.8503 206.309 14.7003 212.985 12.5223C215.604 11.6683 220.973 11.3183 228.491 11.5103C238.204 11.7593 240.956 12.2093 246.201 14.4083ZM154.847 17.1923C156.732 18.8473 160.374 21.1293 162.941 22.2653C166.441 23.8133 168.445 25.6363 170.949 29.5503C172.785 32.4223 174.959 35.3283 175.779 36.0083C176.599 36.6893 178.281 39.9483 179.516 43.2513C182.219 50.4783 181.871 57.9943 178.477 65.6843L176.271 70.6843L174.915 66.1533C174.169 63.6623 172.195 60.3173 170.529 58.7203L167.5 55.8183L171.107 52.5143C174.152 49.7253 174.607 48.7793 174.025 46.4473C172.653 40.9513 170.724 39.9033 163.325 40.6323L156.659 41.2893L153.533 36.7453C149.876 31.4303 147.35 30.5093 142.262 32.6353C138.027 34.4053 133.897 34.6493 132.991 33.1843C132.651 32.6343 130.91 32.1843 129.122 32.1843C126.717 32.1843 124.5 33.3553 120.6 36.6843C117.605 39.2403 114.314 41.1843 112.982 41.1843C107.863 41.1843 104.566 31.7553 107.626 25.8683C109.297 22.6553 109.287 22.6553 111.55 25.5313C114.5 29.2833 117.866 28.9123 124.757 24.0793C129.167 20.9853 131.21 20.1233 133.05 20.5793C134.393 20.9123 136.558 21.4503 137.861 21.7763C139.726 22.2413 141.097 21.4943 144.283 18.2763C146.511 16.0253 149.029 14.1843 149.878 14.1843C150.727 14.1843 152.963 15.5383 154.847 17.1923ZM131.686 34.7853C134.08 36.0233 136.24 36.2303 141.208 35.6983L147.635 35.0093L151.464 39.0353C155.217 42.9803 155.401 43.0493 160.728 42.4993C167.21 41.8303 170.491 43.2213 170.491 46.6373C170.491 50.3683 169.424 52.2593 166.743 53.2783L164.269 54.2193L168.407 58.7093C172.745 63.4143 174.506 66.8403 174.469 70.4993C174.454 72.0423 173.871 71.4143 172.485 68.3613C170.014 62.9153 166.674 58.1843 165.301 58.1843C164.721 58.1843 164.973 59.1973 165.861 60.4343C172.641 69.8843 174.47 75.0623 171.928 77.6053C170.653 78.8793 170.508 79.6013 171.355 80.4483C175.078 84.1713 170.287 93.1843 164.586 93.1843C162.327 93.1843 160.374 94.3963 156.674 98.0963C153.973 100.797 149.564 104.192 146.877 105.64L141.991 108.273L146.241 107.823C148.578 107.576 150.491 107.747 150.491 108.202C150.491 108.658 149.353 110.383 147.963 112.035C144.655 115.966 138.163 118.392 132.011 117.997C126.016 117.611 124.471 115.215 130.158 115.121C133.84 115.06 133.735 114.971 127.491 112.87C115.285 108.762 107.874 101.875 103.382 90.4663C100.168 82.3013 100.135 67.1453 103.316 59.0803C106.495 51.0173 112.399 42.9753 115.803 42.0713C117.35 41.6603 120.603 39.4923 123.031 37.2543C125.459 35.0153 127.704 33.1843 128.018 33.1843C128.333 33.1843 129.983 33.9043 131.686 34.7853ZM108.783 40.9543C110.258 42.5843 110.223 42.9803 108.34 45.9533C105.845 49.8943 104.491 49.3103 104.491 44.2923C104.491 38.9083 105.923 37.7943 108.783 40.9543ZM116.491 44.9583L112.991 46.5833L116.337 46.9543C120.108 47.3723 120.815 46.9973 120.329 44.8373C120.032 43.5153 119.568 43.5293 116.491 44.9583ZM145.741 46.8613C143.658 47.6773 144.328 49.6873 147.451 51.9963C150.933 54.5713 151.491 54.6733 151.491 52.7403C151.491 50.6553 147.215 46.2843 145.741 46.8613ZM113.098 55.7663C112.295 57.8593 112.324 61.6833 113.149 62.5093C114.474 63.8333 116.491 60.8473 116.491 57.5623C116.491 53.9923 114.237 52.7993 113.098 55.7663ZM128.491 57.1033C128.491 57.6093 126.241 60.4853 123.491 63.4943C120.741 66.5033 118.491 69.4433 118.491 70.0273C118.491 72.5343 120.957 76.1843 122.652 76.1843C124.812 76.1843 124.841 76.0463 123.36 72.7963C122.366 70.6143 122.728 69.5243 126.36 63.7743C130.792 56.7563 131.028 56.1843 129.491 56.1843C128.941 56.1843 128.491 56.5983 128.491 57.1033ZM142.158 58.8513C141.791 59.2173 141.491 61.0173 141.491 62.8513C141.491 65.1683 141.955 66.1843 143.012 66.1843C144.878 66.1843 146.975 61.8883 146.154 59.7483C145.54 58.1483 143.352 57.6563 142.158 58.8513ZM163.491 64.0623C163.491 64.5443 164.243 65.5573 165.162 66.3123C166.081 67.0663 168.106 69.6853 169.662 72.1303C172.715 76.9273 173.513 76.1073 170.874 70.8843C168.204 65.5993 163.491 61.2443 163.491 64.0623ZM165.64 72.1723C166.855 73.8153 168.054 74.9543 168.305 74.7033C168.989 74.0193 165.6 69.1843 164.438 69.1843C163.884 69.1843 164.425 70.5283 165.64 72.1723ZM162.491 74.9783C162.491 75.5073 163.218 76.5423 164.106 77.2803C165.504 78.4403 165.672 78.3663 165.356 76.7353C164.98 74.7913 162.491 73.2663 162.491 74.9783ZM106.299 79.8043C105.006 81.0983 104.886 82.0173 105.704 84.3663C106.36 86.2483 107.23 87.1143 108.12 86.7733C108.885 86.4793 111.478 87.6263 113.883 89.3213C120.082 93.6913 125.394 94.0863 133.628 90.7923C141.717 87.5563 142.895 87.5073 142.157 90.4343C141.61 92.6073 141.64 92.6183 143.041 90.7433C145.607 87.3083 144.845 83.6913 140.924 80.7003C137.881 78.3803 137.403 78.2513 137.674 79.8263C138.358 83.8053 122.658 85.4343 113.991 82.2833C111.241 81.2833 109.104 79.9523 109.241 79.3253C109.6 77.6883 108.184 77.9193 106.299 79.8043ZM115.678 84.2423C118.537 85.0163 123.483 85.1783 130.349 84.7233C138.466 84.1843 140.616 84.3083 140.288 85.2943C139.646 87.2203 130.615 90.0203 124.763 90.1063C118.945 90.1933 108.491 85.8643 108.491 83.3693C108.491 82.5633 109.101 82.2043 109.928 82.5223C110.719 82.8253 113.307 83.5993 115.678 84.2423ZM98.4907 85.0653C98.4907 87.2993 95.1907 88.2563 78.9907 90.7203C44.7257 95.9323 22.2187 104.506 12.2607 116.14C7.73368 121.428 6.80568 125.104 8.92468 129.352C10.8527 133.217 10.1407 136.968 7.84068 135.059C7.02568 134.383 5.71368 132.582 4.92468 131.056C-1.27232 119.073 14.4707 103.269 41.0197 94.8203C53.2967 90.9133 59.7517 89.4513 76.9917 86.6683C85.7457 85.2553 93.1147 83.8933 93.3667 83.6423C93.6177 83.3903 94.8737 83.1843 96.1577 83.1843C97.7747 83.1843 98.4907 83.7613 98.4907 85.0653ZM101.577 94.4343C102.746 96.7723 105.319 100.369 107.295 102.429C110.778 106.061 110.828 106.218 108.939 107.645C107.868 108.454 101.818 111.706 95.4957 114.871C86.1237 119.564 82.6337 121.971 76.6027 127.906C66.9757 137.378 64.5857 137.497 56.5697 128.902L52.6347 124.684L44.3127 124.872C32.7957 125.133 27.6187 126.076 26.5297 128.111C25.6747 129.708 25.0977 129.72 18.0517 128.285C9.96068 126.637 9.46667 126.065 11.9647 121.235C14.3067 116.706 21.2667 111.37 30.9907 106.648C42.8877 100.871 53.1637 98.0273 76.0327 94.1823C86.4597 92.4303 95.1787 90.8133 95.4077 90.5903C97.0197 89.0203 99.7047 90.6933 101.577 94.4343ZM117.991 96.1843C118.331 96.7343 119.932 97.1843 121.55 97.1843C123.168 97.1843 124.491 96.7343 124.491 96.1843C124.491 95.6343 122.889 95.1843 120.932 95.1843C118.814 95.1843 117.623 95.5893 117.991 96.1843ZM114.904 108.789C115.772 109.122 117.404 111.034 118.533 113.039C122.825 120.665 132.483 123.987 140.956 120.75C145.16 119.145 149.022 115.645 152.575 110.218L154.159 107.799L159.007 110.64L163.855 113.482L161.139 115.648C158.304 117.909 150.147 121.197 147.396 121.189C142.298 121.173 139.748 132.954 138.802 160.898C138.302 175.668 138.449 179.428 139.577 180.787C140.801 182.262 142.533 182.387 153.979 181.827C161.136 181.477 168.229 180.912 169.741 180.571L172.491 179.951V191.527V203.104L166.241 205.03C146.496 211.118 134.201 211.418 113.216 206.325C106.74 204.754 101.28 203.291 101.082 203.076C100.884 202.86 100.331 197.184 99.8517 190.461L98.9817 178.239L102.986 178.911C105.189 179.28 108.116 179.605 109.491 179.633L111.991 179.684L112.599 162.184C113.152 146.247 114.441 136.753 117.484 126.191C119.409 119.511 118.977 118.555 112.741 115.683L106.991 113.035L109.991 110.615C111.641 109.283 113.067 108.192 113.159 108.189C113.252 108.186 114.037 108.456 114.904 108.789ZM111.274 117.818C113.08 119.04 114.992 120.184 115.525 120.362C116.089 120.55 115.662 123.589 114.501 127.649C111.504 138.129 109.491 153.608 109.491 166.174V177.407L105.741 176.742C98.2607 175.416 98.7757 176.477 98.0497 160.902C97.6847 153.082 97.1327 145.371 96.8227 143.766C95.8667 138.827 94.8087 142.86 94.1067 154.118C93.7497 159.856 93.2397 164.768 92.9747 165.033C92.7097 165.298 89.0057 165.712 84.7417 165.953C75.6877 166.464 67.0677 164.553 58.5707 160.149C48.8947 155.135 48.1527 154.234 47.6877 146.938C47.2997 140.847 47.4517 140.298 50.4877 136.84C54.1197 132.704 55.9357 132.279 57.4987 135.199C58.1257 136.37 60.4797 137.724 63.1167 138.429C66.8517 139.428 67.9107 140.253 69.0957 143.091C70.7467 147.041 71.4637 146.577 73.8857 139.992C74.8347 137.412 77.4067 133.451 79.6007 131.19C86.4177 124.166 104.476 113.448 106.947 114.959C107.521 115.31 109.468 116.597 111.274 117.818ZM170.472 116.674C175.052 119.042 186.029 129.155 190.955 135.543L195.473 141.401L193.507 144.162C191.488 146.996 189.202 152.184 189.971 152.184C190.208 152.184 192.095 151.035 194.163 149.632C198.65 146.587 208.94 141.596 212.616 140.682C215.112 140.062 215.276 140.265 215.959 144.817C216.511 148.501 217.523 150.422 220.347 153.144C222.365 155.091 224.911 157.199 226.004 157.827C227.915 158.927 227.862 159.106 224.616 162.504C222.76 164.447 217.864 167.751 213.735 169.847C206.877 173.328 205.528 173.657 198.11 173.663C191.517 173.668 188.152 173.042 180.207 170.333C171.129 167.237 167.491 166.851 167.491 168.984C167.491 169.458 168.637 170.46 170.039 171.21C171.921 172.217 172.509 173.241 172.289 175.128C172.021 177.429 171.443 177.749 166.491 178.335C163.466 178.693 156.604 179.031 151.241 179.085L141.491 179.184L141.511 164.434C141.528 151.587 143.352 131.349 144.945 126.328C145.268 125.312 147.91 123.962 151.732 122.859C155.175 121.866 159.791 119.77 161.991 118.201C166.771 114.792 166.816 114.784 170.472 116.674ZM246.753 118.129C248.155 119.379 246.352 124.987 244.384 125.502C243.223 125.805 242.491 125.479 242.491 124.658C242.491 123.921 241.558 123.023 240.419 122.661C239.11 122.246 238.557 121.454 238.919 120.512C239.233 119.692 239.491 118.393 239.491 117.627C239.491 116.597 240.339 116.392 242.741 116.841C244.529 117.175 246.334 117.755 246.753 118.129ZM239.491 126.984C239.491 129.163 237.628 131.184 235.62 131.184C232.977 131.184 230.491 134.375 230.491 137.768C230.491 139.568 229.762 141.77 228.872 142.66C226.895 144.637 227.84 145.97 229.967 144.204C231.249 143.14 231.491 143.267 231.491 145.003C231.491 146.137 231.924 147.334 232.453 147.661C233.801 148.494 231.531 153.184 229.781 153.184C225.037 153.184 218.503 146.307 218.495 141.306C218.491 138.667 223.901 128.389 226.324 126.434C227.176 125.747 230.487 125.184 233.682 125.184C238.609 125.184 239.491 125.457 239.491 126.984ZM46.0497 129.652C48.5687 131.557 49.8527 131.571 49.1287 129.684C48.4937 128.027 50.2087 127.72 52.3887 129.1C53.4837 129.793 52.9647 130.707 49.9897 133.319C45.8087 136.99 43.4907 141.539 43.4907 146.072C43.4907 148.541 42.9977 149.133 40.4867 149.685C38.4667 150.129 36.2727 149.745 33.7907 148.514C29.2277 146.251 28.6057 144.623 31.9827 143.775C37.2057 142.465 37.2247 134.387 32.0107 132.011C30.6247 131.38 29.4907 130.435 29.4907 129.912C29.4907 128.74 36.4757 129.937 38.2647 131.416C40.0567 132.897 41.0387 131.55 39.5107 129.708C38.4267 128.402 38.6647 128.184 41.1767 128.184C42.7897 128.184 44.9817 128.845 46.0497 129.652ZM247.491 131.261C247.491 132.403 246.149 134.68 244.51 136.319C241.98 138.849 240.882 139.254 237.26 138.992C233.769 138.74 232.935 138.291 232.684 136.53C232.439 134.812 233.147 134.126 236.184 133.138C238.278 132.457 240.879 131.288 241.964 130.542C244.931 128.499 247.491 128.832 247.491 131.261ZM23.9907 132.773C27.8407 133.695 31.5997 135.015 32.3437 135.705C34.3907 137.605 32.8517 141.184 29.9887 141.184C27.4687 141.184 13.3567 138.383 12.7327 137.759C12.5287 137.555 12.6687 135.754 13.0427 133.756C13.5557 131.024 14.1297 130.244 15.3577 130.61C16.2557 130.878 20.1407 131.851 23.9907 132.773ZM247.491 139.234C247.491 141.809 244.319 146.012 241.493 147.183C239.153 148.153 237.804 148.192 235.946 147.345C232.175 145.627 232.924 143.414 237.712 142.125C240.033 141.499 242.834 140.357 243.934 139.586C246.318 137.917 247.491 137.8 247.491 139.234ZM244.898 149.434C242.325 153.956 238.112 155.495 234.52 153.223C232.594 152.005 233.044 151.666 238.991 149.85C245.272 147.932 245.772 147.897 244.898 149.434ZM241.121 158.434C240.79 159.672 240.512 161.267 240.505 161.979C240.495 162.929 239.49 163.094 236.741 162.597C232.065 161.751 232.118 161.805 232.89 158.731C233.445 156.52 234.07 156.184 237.627 156.184C241.388 156.184 241.675 156.369 241.121 158.434ZM246.407 184.472C242.444 189.937 239.351 192.593 230.851 197.83C229.362 198.748 229.239 199.235 230.231 200.27C231.244 201.327 232.068 201.276 234.731 199.993C242.14 196.424 254.358 182.885 253.108 179.629C252.175 177.197 251.143 177.942 246.407 184.472ZM255.491 194.39C247.071 201.267 239.701 205.034 232.711 206.034C229.502 206.493 227.991 207.185 227.991 208.196C227.991 209.324 229.23 209.675 233.116 209.648C236.968 209.621 240.071 208.699 245.616 205.934C256.54 200.485 269.619 188.05 264.241 188.225C263.554 188.247 259.616 191.021 255.491 194.39ZM113.991 209.975C121.781 212.193 124.94 212.537 137.491 212.537C151.856 212.537 156.776 211.708 172.241 206.682C174.447 205.965 174.491 206.106 174.474 213.817C174.437 230.373 170.367 241.187 160.57 250.758C154.313 256.871 153.147 259.184 156.325 259.184C158.341 259.184 164.601 253.607 168.569 248.275L171.106 244.867L173.549 248.775C178.463 256.64 176.062 272.869 169.282 277.618C166.433 279.614 158.083 279.657 152.551 277.705C142.976 274.327 138.031 268.369 133.593 254.867C130.762 246.252 127.894 233.479 127.267 226.693C127.088 224.746 126.364 223.582 125.196 223.36C123.585 223.055 123.47 223.569 124.073 228.352C125.328 238.308 130.4 256.396 133.912 263.435L137.41 270.447L130.684 269.966C110.019 268.487 99.5467 253.773 99.1677 225.684C99.0927 220.184 99.3947 213.503 99.8377 210.837C100.567 206.444 100.846 206.057 102.817 206.702C104.013 207.093 109.041 208.566 113.991 209.975ZM182.962 259.882C183.432 262.385 183.235 263.731 182.314 264.315C179.992 265.787 179.755 265.308 179.647 258.934C179.555 253.438 179.708 252.902 180.915 254.486C181.67 255.478 182.591 257.906 182.962 259.882ZM183.014 282.184C182.109 290.621 180.656 294.968 177.598 298.39C175.675 300.543 174.268 301.312 173.086 300.859C171.58 300.281 164.491 286.748 164.491 284.45C164.491 283.975 166.035 283.027 167.922 282.345C171.9 280.907 177.168 275.319 178.119 271.53L178.776 268.912L181.191 272.798C183.251 276.115 183.518 277.49 183.014 282.184ZM197.491 289.867C197.491 292.034 201.245 293.664 208.668 294.723C213.802 295.454 227.12 293.593 228.1 292.007C229.513 289.721 226.657 289.162 219.681 290.358C212.615 291.57 210.792 291.403 199.741 288.535C197.987 288.08 197.491 288.374 197.491 289.867ZM189.793 294.84C187.792 300.055 210.58 308.708 224.394 307.979C228.571 307.759 229.991 307.303 229.991 306.184C229.991 305.035 228.116 304.516 221.991 303.966C208.311 302.739 201.638 300.677 194.808 295.566C191.027 292.737 190.622 292.678 189.793 294.84Z" fill="#2dc92d"/>
</svg>
