<svg width="250" height="354" viewBox="0 0 250 354" fill="none" xmlns="http://www.w3.org/2000/svg">
<path fill-rule="evenodd" clip-rule="evenodd" d="M123.096 0.821107C122.394 1.12628 120.723 3.53573 119.385 6.17556C117.356 10.1767 116.24 11.2049 112.681 12.3558C109.002 13.5445 108.046 14.476 105.788 19.0725C104.345 22.0075 102.41 24.8319 101.486 25.3485C98.9953 26.7417 96.9338 25.525 96.9338 22.6618C96.9338 19.2042 95.3003 19.4964 92.9314 23.3788C90.6045 27.1924 90.377 33.7616 92.4754 36.5341C93.2807 37.5992 93.9403 40.1642 93.9403 42.2336C93.9403 44.9941 94.7385 46.9069 96.9338 49.4051C99.5501 52.383 99.9273 53.5688 99.9273 58.8095C99.9273 66.3261 102.979 76.3848 106.901 81.7961C108.554 84.0759 109.906 86.1203 109.906 86.3387C109.906 86.9979 92.5443 85.7573 91.1094 84.9954C90.375 84.6054 88.7465 81.7592 87.4912 78.6716C86.235 75.583 83.6925 70.6932 81.8405 67.8051C78.2024 62.1295 58.2926 37.8146 56.8138 37.2391C56.3179 37.0467 53.2076 39.2397 49.9018 42.1129L43.8918 47.3377L41.033 44.2092C38.0036 40.8942 37.3291 40.6269 35.2785 41.9264C33.1861 43.2538 33.3976 46.51 36.9868 68.2489C39.9284 86.0615 40.2198 89.2758 39.0892 91.388C37.3929 94.5554 38.1812 101.354 41.9291 115.902C44.5185 125.952 44.6612 127.313 43.3889 129.862C41.505 133.635 42.5288 137.154 46.5321 140.666C49.3959 143.179 50.0784 144.803 52.0202 153.722L54.2374 163.908L45.3766 173.052C40.5032 178.082 34.2677 184.828 31.5207 188.042L26.5265 193.888L19.5716 190.348C15.7459 188.4 10.4414 186.227 7.78415 185.517C3.32981 184.328 2.84087 184.377 1.54768 186.146C-0.492898 188.934 -0.161621 193.471 2.49761 199.151C7.03277 208.838 23.0371 221.59 30.6585 221.59C34.5461 221.59 34.8105 221.784 35.9081 225.446C36.5438 227.566 37.0636 230.892 37.0636 232.837C37.0636 235.908 39.3317 244.508 41.51 249.696C42.0279 250.929 41.4092 251.79 39.1771 252.944C35.2017 254.998 33.7838 260.082 33.7329 272.452C33.7039 279.329 34.3066 284.113 35.9321 289.905C38.0575 297.479 39.0523 299.044 55.5865 320.821C78.6005 351.132 81.1889 353.037 99.9273 353.456C103.575 353.537 132.279 349.419 191.728 340.287C222.484 335.562 243.346 331.893 244.415 331.024C246.262 329.519 245.476 325.211 243.117 323.913C242.019 323.309 241.042 322.811 240.946 322.807C240.851 322.802 241.404 320.11 242.178 316.823C242.952 313.536 243.592 308.8 243.6 306.298C243.614 302.409 244.05 301.427 246.609 299.536C248.256 298.32 249.603 296.51 249.603 295.514C249.603 293.639 246.681 290.403 244.987 290.403C244.456 290.403 242.246 288.578 240.076 286.348L236.132 282.293L240.388 278.619C245.893 273.868 245.846 271.686 240.168 268.258C233.699 264.353 230.319 258.531 229.866 250.512C229.559 245.073 229.91 243.229 232.05 239.06C234.051 235.157 234.335 233.846 233.37 232.946C232.693 232.316 226.303 230.096 219.169 228.013C212.034 225.929 205.311 223.632 204.228 222.908C203.146 222.183 200.789 221.59 198.989 221.59C195.816 221.59 194.687 220.352 196.717 219.097C197.266 218.758 197.715 218.956 197.715 219.537C197.715 220.117 198.389 220.593 199.212 220.593C201.008 220.593 201.177 218.468 199.511 216.803C198.58 215.873 198.593 215.606 199.57 215.606C200.261 215.606 200.573 215.196 200.263 214.694C199.952 214.192 200.202 213.615 200.816 213.409C201.431 213.205 202.098 211.932 202.298 210.582C203.067 205.387 206.086 193.757 209.132 184.253L212.31 174.342L217.236 173.228C226.525 171.126 234.739 163.65 236.691 155.519C238.679 147.233 237.395 139.652 232.265 129.4C218.805 102.5 193.648 82.3396 168.528 78.3235C164.602 77.6962 163.765 76.0806 166.283 73.9913C167.107 73.3081 167.78 71.8381 167.78 70.7242C167.78 69.6102 169.576 67.0412 171.771 65.0157C175.126 61.9201 175.763 60.7074 175.763 57.4123C175.763 55.2562 174.981 52.382 174.027 51.0267C172.699 49.1408 172.262 46.3314 172.169 39.0861C172.014 27.2114 170.054 20.8058 164.927 15.4194C161.177 11.4791 156.093 8.17014 153.79 8.17014C153.176 8.17014 150.571 6.7111 148.003 4.92894C144.126 2.23826 142.316 1.65883 137.346 1.51522C134.053 1.41948 129.788 1.10035 127.867 0.804153C125.946 0.508956 123.799 0.515936 123.096 0.821107ZM137.919 4.05133C142.562 4.49612 145.626 5.43956 148.409 7.27956C150.571 8.71067 153.293 10.1827 154.456 10.5517C157.959 11.6626 166.501 21.455 167.685 25.7175C169.558 32.4611 168.894 42.8838 166.677 41.5145C165.174 40.5861 165.684 42.3054 167.531 44.3947C168.491 45.4808 167.11 44.7298 164.46 42.7272C161.812 40.7247 158.669 39.116 157.475 39.1539C155.423 39.2178 155.441 39.2816 157.802 40.3507C161.776 42.1508 167.845 47.1582 167.572 48.4108C167.434 49.0421 168.597 50.8212 170.157 52.366C172.476 54.6638 172.88 55.7359 172.376 58.255C171.657 61.8483 170.101 63.9625 167.456 64.9409C166.376 65.3398 164.859 67.6804 163.92 70.3961C162.326 75.0105 162.069 75.2259 155.299 77.6493C143.569 81.8469 136.033 83.8256 133.898 83.2671C132.778 82.9749 130.85 83.3897 129.615 84.1906C128.379 84.9904 124.599 85.9298 121.214 86.2769C115.157 86.8982 115.013 86.8543 112.111 83.5523C107.801 78.6456 103.927 70.0949 102.656 62.687C101.266 54.576 102.845 42.2595 105.462 40.7955C106.385 40.2789 108.441 36.9908 110.029 33.4873C112.912 27.1346 112.929 27.1186 117.096 27.1186C119.975 27.1186 122.443 26.3089 125.036 24.5127C128.881 21.849 129.386 21.8181 138.552 23.688C140.905 24.1677 142.655 23.7837 145.155 22.2389C149.442 19.5911 153.409 19.5203 154.773 22.0664C156.24 24.8069 156.053 27.6682 154.309 29.1132C152.039 30.9961 152.484 31.8219 156.142 32.507C157.974 32.8511 161.342 34.731 163.626 36.6857C165.911 38.6393 167.78 39.8331 167.78 39.3374C167.78 37.7966 163.437 34.2672 159.534 32.6377C157.483 31.782 155.806 30.9143 155.806 30.7099C155.806 30.5054 156.477 29.0534 157.297 27.4817C159.331 23.5823 159.194 22.4354 156.35 19.5941C153.149 16.3938 151.128 16.5055 145.558 20.1935L140.955 23.2402L136.165 20.6921C133.53 19.2899 130.716 18.143 129.912 18.143C129.108 18.143 126.721 19.8265 124.608 21.8829C121.407 24.9994 120.07 25.6227 116.583 25.6227C112.442 25.6227 112.367 25.6875 109.082 32.0931C105.395 39.2816 104.598 40.0465 100.764 40.0685C96.6873 40.0914 92.9424 35.0491 92.9424 29.5351C92.9424 25.1989 94.1698 23.68 95.2993 26.62C96.1465 28.827 100.953 28.4371 103.605 25.9478C104.875 24.7551 105.914 23.3998 105.914 22.936C105.914 22.4723 107.026 20.3331 108.384 18.1819C110.533 14.7792 111.398 14.2307 115.039 13.9634C119.018 13.6702 119.302 13.4328 120.801 9.14649C123.212 2.25621 123.631 1.86627 127.744 2.69402C129.733 3.09493 134.311 3.70527 137.919 4.05133ZM159.229 37.5902C162.419 39.51 165.254 41.0807 165.529 41.0807C166.884 41.0807 162.978 37.7159 159.655 36.0215C153.347 32.8052 153.057 33.8763 159.229 37.5902ZM133.994 39.1081C131.602 40.1931 128.468 41.0807 127.032 41.0807H124.419L126.978 43.6378L129.536 46.1938L132.966 42.8898C134.853 41.0717 137.283 39.0502 138.368 38.397C141.512 36.5021 138.749 36.9519 133.994 39.1081ZM100.549 41.8436C101.994 42.7891 101.068 49.2695 99.5581 48.7798C98.0044 48.2742 95.6845 43.2917 96.4379 42.074C97.1573 40.9092 98.9654 40.8084 100.549 41.8436ZM78.7243 66.8906C82.3085 71.6267 86.9554 81.1688 86.9554 83.7937C86.9554 84.2075 83.2504 85.2477 78.7233 86.1044C74.1961 86.961 67.773 88.7621 64.4512 90.1055L58.4123 92.5489L59.7115 87.5405C61.4078 81.0042 61.313 67.2017 59.5149 59.0319C58.7306 55.4666 58.0721 50.6128 58.0531 48.2452L58.0182 43.9399L66.2503 52.6124C70.7775 57.3824 76.3913 63.807 78.7243 66.8906ZM157.885 44.4446C158.114 44.649 159.872 45.5685 161.793 46.488L165.285 48.1605L162.93 46.116C161.634 44.9921 159.875 44.0726 159.022 44.0726C158.168 44.0726 157.656 44.2401 157.885 44.4446ZM41.1119 47.1712C41.8064 48.4666 41.8822 49.6285 41.3094 50.2009C40.5311 50.9788 42.7323 66.7569 46.5431 87.704C46.9971 90.2022 46.7835 90.9452 45.6091 90.9452C44.7719 90.9452 43.8489 89.935 43.5595 88.7013C42.1177 82.56 38.0804 53.9517 38.0714 49.807C38.0605 44.7677 39.2659 43.7235 41.1119 47.1712ZM53.0899 51.0536C53.2565 53.114 53.4192 52.9405 54.0268 50.0563C54.6565 47.0654 54.7812 46.9438 54.893 49.2046C54.9658 50.6557 55.9656 56.6574 57.1161 62.5424C59.1358 72.8733 59.1507 73.5545 57.5632 82.3675C56.0784 90.6091 54.0837 96.7056 54.0418 93.1303C54.0338 92.4122 53.5778 92.1021 53.029 92.4412C52.4483 92.7992 51.9763 91.6772 51.8995 89.7574L51.7687 86.4574L51.0333 89.9479L50.2979 93.4384L50.0515 90.4466C49.8599 88.1269 49.6803 87.9035 49.2542 89.4493C48.7643 91.2255 43.2752 58.9003 43.1145 53.2975C43.0187 49.9327 44.6821 50.5969 45.6101 54.2948L46.4243 57.536L46.7905 53.2975C47.1947 48.6152 48.9918 47.4594 49.1165 51.8016C49.2083 54.9889 49.5954 54.1263 50.5723 48.5604C51.1521 45.2524 51.4105 44.9123 52.0801 46.5658C52.5251 47.6628 52.9791 49.6823 53.0899 51.0536ZM115.923 45.758C115.907 46.4102 114.209 47.0924 112.151 47.2729L108.409 47.602L112.37 48.8097C116.842 50.172 118.665 49.2336 117.024 46.4122C116.435 45.4 115.94 45.1048 115.923 45.758ZM137.97 46.4162C137.272 47.2549 135.725 48.0927 134.529 48.2762C132.657 48.5634 132.868 48.8606 136.049 50.4203C141.226 52.9584 143.654 50.927 140.536 46.6665C139.379 45.0838 139.098 45.0559 137.97 46.4162ZM122.877 49.084C122.877 50.1949 121.978 53.6615 120.879 56.787L118.88 62.4706L121.291 64.881C122.953 66.5415 124.271 67.0691 125.535 66.5774C127.238 65.9152 127.201 65.7287 125.008 63.9406C122.852 62.1824 122.706 61.5242 123.322 56.2864C123.691 53.134 124.222 49.7691 124.501 48.8097C124.779 47.8503 124.528 47.0645 123.942 47.0645C123.356 47.0645 122.877 47.973 122.877 49.084ZM158.8 48.9174C158.8 49.9426 161.822 51.3568 162.521 50.6597C162.763 50.4163 162.026 49.7172 160.881 49.1049C159.736 48.4926 158.8 48.4078 158.8 48.9174ZM112.561 53.844L109.727 55.2372L112.425 56.6354C115.967 58.4725 116.893 58.4006 116.876 56.2894C116.847 53.0741 115.583 52.3581 112.561 53.844ZM140.293 63.8718C140.9 65.7836 136.677 69.2113 128.865 73.1486C126.944 74.1169 125.956 74.9267 126.669 74.9487C128.422 75.0025 133.448 72.3677 138.611 68.6857C142.035 66.2443 143.111 65.8973 144.099 66.9135C145.08 67.9238 144.423 68.9779 140.839 72.1393C134.011 78.16 131.206 79.3407 123.665 79.3657C114.212 79.3976 112.815 77.6723 120.994 76.0666L125.372 75.207L120.133 75.0983C117.253 75.0374 114.558 74.9646 114.146 74.9357C113.735 74.9068 113.246 75.6139 113.061 76.5064C112.639 78.5419 115.981 82.4413 116.89 80.9723C117.337 80.2513 119.115 80.2932 122.643 81.107C129.736 82.7435 135.224 80.5774 141.411 73.6991C145.793 68.8273 146.102 68.6618 147.426 70.4708C148.418 71.8272 148.817 71.9628 148.807 70.9406C148.771 67.103 147.337 64.8391 144.083 63.4798C139.672 61.6388 139.586 61.6468 140.293 63.8718ZM160.243 79.8903C160.554 80.3919 159.57 81.2894 158.057 81.8858C155.564 82.8692 155.679 82.915 159.299 82.3805C161.494 82.0564 162.956 82.1282 162.547 82.54C162.139 82.9509 162.762 83.7767 163.932 84.3741C165.102 84.9714 166.012 85.9019 165.954 86.4424C165.861 87.3051 70.6548 100.913 65.5019 100.8C64.1629 100.772 64.8204 100.135 67.4976 98.8687C72.1565 96.6657 70.2766 96.3824 64.542 98.4239C59.5069 100.216 59.042 99.7413 63.2149 97.0706C67.3749 94.4078 65.6716 94.2931 60.7922 96.907C56.4256 99.2457 54.896 97.9592 58.5899 95.055C66.4708 88.8599 80.4805 86.8134 105.291 88.2346C123.62 89.2837 132.615 88.097 148.821 82.4912C159.996 78.6257 159.528 78.7324 160.243 79.8903ZM183.561 85.8112C187.575 87.4467 193.298 90.2621 196.277 92.0672C208.897 99.7114 222.932 115.556 230.324 130.504C233.86 137.654 234.136 138.843 234.136 146.905C234.136 154.974 233.919 155.907 231.104 159.922C227.137 165.578 218.613 170.729 213.226 170.724C208.302 170.72 204.787 168.668 197.967 161.816L192.742 156.566L196.182 152.549C200.096 147.979 202.291 139.879 201.298 133.674C200.615 129.401 201.264 129.045 205.629 131.3C208.432 132.749 213.127 137.653 213.884 139.925C214.102 140.576 214.821 140.928 215.484 140.708C218.546 139.688 208.707 127.586 202.815 125.125C200.916 124.332 197.361 121.459 194.916 118.742C190.443 113.769 185.389 110.374 183.861 111.318C183.409 111.598 182.789 106.405 182.483 99.7792C182.178 93.1532 181.551 87.3769 181.09 86.9421C180.63 86.5073 178.106 86.4883 175.482 86.8992C170.916 87.6143 170.584 87.5016 167.749 84.2743C166.12 82.4204 164.787 80.734 164.787 80.5275C164.787 79.6728 176.777 83.0467 183.561 85.8112ZM54.2214 87.4547C54.2414 89.1002 54.4649 89.6527 54.7183 88.6824C54.9718 87.712 54.9548 86.3657 54.6814 85.6905C54.408 85.0153 54.2015 85.8092 54.2214 87.4547ZM44.4825 93.8324C44.7869 94.324 44.3638 94.9822 43.5436 95.2974C40.8115 96.3455 42.0039 98.8108 46.5241 101.459C49.8569 103.41 51.7458 103.912 53.946 103.429C56.8587 102.79 56.9226 102.868 58.9162 109.579C63.9483 126.521 66.1416 138.815 64.1309 138.815C59.3214 138.815 48.0328 131.954 48.0498 129.041C48.0548 128.109 46.1908 120.327 43.9088 111.75C41.6267 103.171 40.0362 95.43 40.3755 94.5464C41.04 92.8161 43.5815 92.3743 44.4825 93.8324ZM176.552 101.713L176.842 109.987L169.437 102.71C165.363 98.7081 162.158 95.2894 162.313 95.1149C162.802 94.5644 172.177 93.1323 174.266 93.2888C176.064 93.4235 176.291 94.2592 176.552 101.713ZM165.204 105.157C170.928 110.231 175.646 115.108 175.688 115.995C175.749 117.306 174.358 117.7 168.315 118.087C164.219 118.35 160.178 119.138 159.334 119.837C157.057 121.726 157.475 124.593 160.296 126.441C161.723 127.375 162.791 129.027 162.791 130.298C162.791 131.522 163.692 133.337 164.794 134.333C165.895 135.33 166.699 136.633 166.582 137.23C166.023 140.071 168.049 143.515 171.538 145.663L175.374 148.021L174.955 174.085C174.724 188.42 174.41 200.287 174.257 200.458C173.69 201.089 87.7327 214.722 87.2647 214.254C86.5533 213.543 85.7969 209.981 74.8666 155.896C69.3935 128.815 65.0888 106.483 65.3024 106.271C65.6397 105.932 76.9032 104.555 136.348 97.5812C155.72 95.3084 153.406 94.701 165.204 105.157ZM188.935 116.132C190.418 117.363 193.224 120.829 195.172 123.833C198.261 128.598 198.713 130.086 198.713 135.486C198.713 142.441 197.568 146.243 194.481 149.536C190.912 153.344 186.786 152.262 174.205 144.218C168.605 140.638 166.784 137.133 171.023 138.095C172.258 138.374 174.84 138.884 176.761 139.227L180.253 139.85L176.404 138.35C168.295 135.191 163.353 130.838 165.502 128.745C165.932 128.328 168.739 128.627 171.739 129.412C181.686 132.01 181.41 130.699 171.301 127.338C165.829 125.519 161.195 123.559 161.003 122.982C160.429 121.263 165.285 120.605 175.301 121.042L184.743 121.454V117.669C184.743 113.278 185.268 113.085 188.935 116.132ZM57.3656 144.3C59.3353 145.123 62.229 145.796 63.7956 145.796H66.6435L71.7494 169.959C74.5573 183.247 76.6797 194.296 76.4652 194.511C75.6879 195.288 66.8221 191.106 63.5123 188.402C60.7034 186.107 60.1396 184.995 60.2244 181.92C60.3092 178.852 55.1524 150.618 53.3992 144.55C52.7865 142.431 52.8763 142.425 57.3656 144.3ZM190.168 156.625C192.267 160.308 201.457 169.073 205.192 170.955C207.391 172.062 209.299 173.059 209.433 173.171C209.745 173.432 205.613 185.688 205.213 185.688C205.047 185.688 203.586 184.451 201.967 182.938C198.66 179.852 191.357 176.311 184.993 174.711L180.752 173.643V164.289C180.752 151.881 180.907 151.533 185.567 153.465C187.583 154.302 189.654 155.723 190.168 156.625ZM56.4436 180.144C56.5873 188.331 58.3954 193.246 62.5204 196.668C63.4853 197.469 64.0052 199.71 64.0052 203.072C64.0052 207.193 64.6997 209.397 67.4248 213.92C69.3057 217.042 70.4662 219.596 70.0032 219.596C69.5402 219.596 65.6736 221.927 61.4098 224.778C55.5994 228.661 53.5399 229.598 53.1857 228.517C52.0382 225.02 44.2151 210.705 41.522 207.174C39.8925 205.039 36.4649 201.637 33.9045 199.614L29.2476 195.934L33.8207 190.562C36.3362 187.607 42.0089 181.492 46.4263 176.972C55.806 167.379 56.2211 167.51 56.4436 180.144ZM196.905 181.819C203.589 186.106 205.75 189.067 205.066 193C204.234 197.787 201.633 205.634 200.878 205.634C200.51 205.634 198.995 204.113 197.513 202.255C194.33 198.269 187.406 194.663 182.931 194.663H179.754V185.356C179.754 180.236 180.017 175.786 180.337 175.465C181.301 174.501 191.732 178.501 196.905 181.819ZM18.8362 192.787C29.7874 198.205 39.1671 206.927 44.9874 217.104L49.4188 224.854L47.1218 226.712C42.9579 230.082 38.6422 228.485 37.6514 223.21C36.9529 219.486 35.6118 218.598 30.6865 218.598C23.963 218.598 9.04541 207.229 5.11095 199.105C3.11927 194.994 2.51058 189.638 3.87862 188.271C5.14487 187.005 10.2857 188.558 18.8362 192.787ZM72.4579 198.543C77.4101 200.422 77.4221 200.437 79.1703 207.268C81.5362 216.505 81.5052 219.596 79.0496 219.596C76.6308 219.596 71.3353 215.199 69.5971 211.748C68.5004 209.571 66.5028 196.656 67.2631 196.659C67.3919 196.659 69.7298 197.507 72.4579 198.543ZM190.861 199.233C194.374 201.03 198.713 206.306 198.713 208.782C198.713 214.002 186.972 227.252 176.304 234.072C166.162 240.557 157.153 240.886 137.454 235.489C129.559 233.327 129.179 233.09 130.697 231.261C131.312 230.52 132.505 228.266 133.347 226.251C134.548 223.376 134.6 222.587 133.586 222.587C132.876 222.587 129.84 227.86 126.84 234.306C123.839 240.751 119.236 249.313 116.612 253.333C111.978 260.429 102.918 270.457 101.141 270.457C100.658 270.457 98.8386 268.26 97.0974 265.575C93.155 259.492 83.7504 250.716 74.8098 244.774C71.0629 242.284 67.9965 240.053 67.9965 239.818C67.9965 239.581 69.5771 235.712 71.5079 231.219L75.0203 223.048L81.3725 223.067C86.6062 223.083 88.052 222.714 89.5847 220.973C91.1723 219.171 95.918 218.106 121.88 213.725C138.618 210.899 152.88 208.597 153.574 208.606C154.267 208.617 155.816 210.645 157.015 213.113C158.216 215.582 159.781 217.601 160.495 217.601C162.293 217.601 162.124 216.726 159.415 211.991L157.061 207.878L167.659 206.145C173.489 205.192 178.588 203.901 178.991 203.277C179.394 202.654 179.73 200.87 179.739 199.313C179.754 196.539 179.839 196.496 183.995 197.187C186.327 197.574 189.417 198.495 190.861 199.233ZM70.4213 226.327C69.5452 228.385 67.9297 232.311 66.8321 235.054C65.7344 237.796 64.6727 240.204 64.4732 240.403C64.2736 240.603 62.6272 239.856 60.8151 238.742C56.4785 236.078 50.8048 235.071 48.1446 236.494C45.5822 237.864 45.3237 242.867 47.5409 248.172C49.4887 252.832 49.4318 253.172 47.0629 251.029C44.7999 248.983 41.6227 241.021 40.588 234.804L39.8815 230.566H43.9018C46.113 230.566 48.1995 230.117 48.5387 229.569C49.6384 227.789 50.8158 228.506 51.9005 231.616C52.8185 234.249 53.2296 234.518 54.9359 233.606C56.0215 233.025 57.2129 232.059 57.5841 231.458C58.4014 230.136 69.9523 222.587 71.1577 222.587C71.6297 222.587 71.2974 224.271 70.4213 226.327ZM211.685 229.519C220.74 232.183 227.476 234.605 226.652 234.902C225.829 235.198 204.314 240.875 178.84 247.517C153.366 254.16 131.589 260.097 130.445 260.71C129.302 261.323 125.74 262.085 122.532 262.401L116.7 262.978L114.204 268.961C110.73 277.293 110.129 286.712 112.752 291.717L114.747 295.522L112.576 294.155C111.381 293.403 106.302 290.176 101.288 286.984L92.1731 281.179L94.5529 277.674C95.8631 275.746 96.9517 273.221 96.9737 272.063C97.0096 270.192 97.1792 270.263 98.5024 272.701C99.3216 274.209 100.368 275.444 100.83 275.444C102.305 275.444 115.256 261.189 119.218 255.203C121.322 252.027 124.375 246.49 126.003 242.9C128.387 237.647 129.295 236.514 130.661 237.086C136.658 239.604 147.621 242.559 153.015 243.112C164.877 244.326 177.226 239.593 186.911 230.12C189.834 227.26 192.901 224.864 193.724 224.796C194.547 224.73 202.629 226.854 211.685 229.519ZM59.5149 240.418C61.7102 241.425 65.8402 244.728 68.692 247.76C73.5206 252.893 81.9662 264.834 81.9662 266.529C81.9662 266.941 78.9358 268.702 75.2308 270.442L68.4955 273.608L62.7978 267.296C56.4226 260.232 50.5763 250.973 48.8181 245.155C47.7834 241.73 47.8642 241.139 49.5336 239.919C52.0451 238.083 54.7134 238.216 59.5149 240.418ZM226.776 242.727C226.127 244.483 223.127 245.843 211.591 249.614C203.685 252.198 197.89 254.353 198.713 254.403C199.536 254.452 205.763 253.574 212.55 252.452C219.336 251.329 225.117 250.639 225.395 250.918C227.168 252.69 222.919 254.677 208.141 258.989C190.432 264.155 188.126 265.625 201.87 262.986C223.811 258.774 226.962 258.373 227.778 259.694C228.211 260.394 228.247 261.281 227.858 261.666C227.47 262.051 217.273 264.901 205.199 267.998C193.125 271.096 183.022 273.877 182.748 274.178C182.473 274.48 183.371 274.48 184.743 274.179C186.115 273.878 197.471 271.91 209.978 269.805C229.59 266.504 232.842 266.179 233.622 267.441C234.119 268.245 234.426 269.005 234.302 269.129C234.178 269.252 213.329 274.09 187.97 279.878C152.7 287.93 140.2 290.403 134.783 290.403C129.702 290.403 127.814 290.064 128.101 289.202C128.461 288.122 135.977 286.036 162.791 279.569C170.359 277.744 170.681 277.579 165.784 278.044C162.766 278.33 153.901 279.433 146.085 280.494C138.269 281.556 131.421 282.425 130.868 282.425C130.314 282.425 129.862 280.649 129.862 278.478V274.531L136.598 272.544C148.08 269.157 159.98 265.844 167.627 263.904C181.909 260.281 172.745 261.472 151.371 266.015C139.449 268.55 129.564 270.473 129.403 270.291C129.244 270.108 128.802 268.95 128.422 267.716C127.859 265.881 128.245 265.269 130.544 264.35C133.204 263.287 223.795 240.881 226.371 240.648C227.21 240.573 227.335 241.216 226.776 242.727ZM88.2027 259.341C92.8027 263.751 94.9381 266.547 94.9381 268.16C94.9381 271.281 92.667 276.597 90.6025 278.308C89.1397 279.521 88.9511 279.388 88.9511 277.144C88.9511 274.151 83.4341 263.413 77.5748 254.999C75.2827 251.708 73.0186 248.385 72.5437 247.615C70.9202 244.983 81.4563 252.872 88.2027 259.341ZM51.0333 257.957C52.9542 259.39 56.0115 262.451 57.8276 264.761C68.4366 278.259 78.1784 285.121 85.1503 284.006C88.6886 283.44 89.909 283.851 95.7843 287.583C121.208 303.728 122.153 304.139 126.429 300.907C127.646 299.986 130.774 299.421 134.852 299.384C138.785 299.349 158.802 295.853 185.715 290.503L230.093 281.679L236.285 287.288C241.27 291.802 242.151 293.029 240.802 293.574C239.88 293.947 231.043 294.989 221.164 295.889C211.286 296.79 194.672 298.861 184.244 300.492C134.752 308.234 120.136 310.358 112.584 310.905C108.093 311.231 101.322 312.392 97.5405 313.487C91.8578 315.133 90.4498 315.25 89.436 314.161C88.7615 313.436 78.6574 300.052 66.9817 284.419C55.3061 268.787 45.2579 255.362 44.6522 254.587C43.7342 253.413 43.8828 253.359 45.5452 254.265C46.6429 254.864 49.1125 256.525 51.0333 257.957ZM60.5756 289.518L81.2438 318.526L79.6093 321.951C78.5796 324.109 77.9749 327.947 77.9749 332.323C77.9749 336.144 77.6376 339.249 77.2265 339.223C76.8154 339.196 68.6332 329.613 59.045 317.925C39.8795 294.567 38.6013 292.2 37.3929 277.832C36.7314 269.966 37.7382 259.17 39.0583 259.985C39.5253 260.273 49.2083 273.563 60.5756 289.518ZM122.351 270.107C119.429 275.599 119.205 280.813 121.502 289.948C123.174 296.599 124.04 297.346 127.395 295.026C128.477 294.277 132.058 293.341 135.35 292.945C141.208 292.241 180.045 284.562 218.518 276.5C229.136 274.275 238.229 272.705 238.724 273.01C240.427 274.063 239.621 276.404 237.379 276.914C234.791 277.503 191.713 285.389 158.635 291.329C146.196 293.563 134.284 295.39 132.164 295.39C130.045 295.39 127.292 296.103 126.047 296.974C122.994 299.112 121.377 298.274 118.798 293.224C115.758 287.268 115.18 278.116 117.398 271.067C118.993 266.001 119.427 265.471 121.988 265.471H124.817L122.351 270.107ZM86.0284 275.689C87.121 279.5 85.765 281.428 81.9912 281.428C79.2581 281.428 72.8959 277.809 72.3471 275.943C72.1864 275.394 74.6212 273.782 77.7584 272.362C84.0238 269.525 84.2902 269.632 86.0284 275.689ZM240.622 300.273C240.622 301.318 239.796 301.463 190.73 309.031C170.15 312.205 154.052 314.947 154.958 315.123C155.863 315.299 175.305 313.175 198.162 310.403C221.019 307.63 239.924 305.363 240.171 305.363C240.876 305.363 240.671 307.73 239.857 309.009C239.178 310.075 233.11 311.057 196.967 315.952C189.695 316.936 183.745 318.128 183.745 318.601C183.745 319.072 184.532 319.236 185.492 318.963C188.932 317.986 237.611 314.984 238.331 315.705C239.767 317.141 236.393 317.995 218.201 320.803C208.079 322.364 200.031 324.023 200.319 324.487C200.605 324.951 207.21 325.108 214.994 324.836L229.147 324.34L208.192 327.752C152.261 336.859 98.2669 344.542 94.7904 343.89L91.1493 343.208L92.233 339.494C92.8287 337.451 93.3685 335.681 93.4314 335.562C93.4952 335.441 98.214 334.642 103.919 333.785C109.623 332.929 114.502 332.018 114.759 331.76C115.017 331.503 110.405 331.292 104.51 331.292C94.961 331.292 93.8295 331.108 94.1209 329.597C94.3464 328.425 96.4528 327.403 100.929 326.291L107.411 324.68L103.42 324.008C101.224 323.638 98.1561 323.331 96.6015 323.325C91.741 323.306 94.1638 320.991 101.502 318.643C105.301 317.428 109.98 316.41 111.901 316.381C113.822 316.352 124.15 315.192 134.852 313.804C152.928 311.457 165.662 309.646 215.177 302.374C236.019 299.312 240.622 298.932 240.622 300.273ZM148.073 316.023C149.033 316.274 150.605 316.274 151.565 316.023C152.525 315.772 151.74 315.567 149.819 315.567C147.898 315.567 147.113 315.772 148.073 316.023ZM141.587 316.993C142.273 317.27 143.396 317.27 144.082 316.993C144.768 316.717 144.206 316.49 142.834 316.49C141.462 316.49 140.901 316.717 141.587 316.993ZM88.9511 319.851C88.9511 320.561 87.9722 323.698 86.7768 326.821C84.8639 331.818 84.7432 333.028 85.779 336.897C86.4256 339.315 86.9554 342.347 86.9554 343.635C86.9554 345.676 87.6629 346.118 92.4684 347.082C98.4984 348.293 94.3644 348.843 196.214 333.265C240.549 326.483 246.36 326.042 241.197 329.851C238.81 331.612 241.114 331.236 192.726 337.745C102.079 349.936 98.192 350.392 94.2037 349.3C92.1382 348.735 89.3702 348.153 88.053 348.01C81.601 347.304 78.844 333.887 83.002 323.424C84.837 318.807 85.6882 317.707 87.132 318.085C88.1329 318.346 88.9511 319.141 88.9511 319.851ZM178.008 319.014C178.968 319.266 180.54 319.266 181.5 319.014C182.46 318.764 181.675 318.559 179.754 318.559C177.833 318.559 177.048 318.764 178.008 319.014Z" fill="#2dc92d"/>
</svg>
