<svg width="250" height="328" viewBox="0 0 250 328" fill="none" xmlns="http://www.w3.org/2000/svg">
<path fill-rule="evenodd" clip-rule="evenodd" d="M161.552 4.68041C158.528 7.87019 156.992 8.65493 152.648 9.23126C148.1 9.83352 146.845 10.5295 143.255 14.4372C140.163 17.8015 138.507 18.8624 136.736 18.6111C134.726 18.327 134.4 17.7766 134.614 15.0345C134.946 10.7858 133.503 10.9204 128.844 15.5759L125.06 19.358L125.082 30.2834C125.097 37.71 125.556 42.0893 126.516 43.9549C127.75 46.353 127.722 47.4109 126.292 52.3247C123.677 61.3127 124.635 74.362 128.518 82.6481C130.203 86.2457 133.384 91.0807 135.585 93.393L139.589 97.5979L129.488 107.793C115.821 121.588 102.509 140.594 98.4076 152.17C97.4906 154.758 95.1106 160.465 93.1178 164.852C88.7361 174.503 87.7053 184.358 90.4026 190.81C95.9828 204.154 106.404 212.158 110.996 206.628C111.727 205.748 113.354 204.638 114.611 204.16C115.869 203.681 116.898 202.658 116.898 201.885C116.898 201.112 118.06 199.719 119.48 198.788C122.528 196.793 122.247 194.281 118.314 188.342C116.313 185.32 116.009 184.099 116.787 182.19C117.321 180.881 117.993 178.686 118.283 177.312C118.856 174.585 129.311 161.363 130.894 161.363C131.487 161.363 131.847 166.379 131.807 174.076C131.711 192.298 135.292 202.249 147 216.307L152.033 222.351L151.351 228.002C150.106 238.309 146.055 255.74 143.941 259.88L141.859 263.958L137.611 261.531C134.301 259.64 131.91 259.101 126.782 259.092C119.487 259.079 116.898 260.678 116.898 265.194C116.898 271.293 128.339 287.983 138.063 296.068C149.469 305.553 155.244 306.965 162.854 302.128C169.42 297.956 174.588 291.065 184.567 273.174L187.551 267.824L189.27 270.445C190.929 272.975 190.905 273.197 188.588 276.793C184.987 282.381 183.756 285.698 183.756 289.816C183.756 294.672 185.947 297.648 190.528 299.017C197.978 301.243 211.338 293.82 217.883 283.817C222.218 277.191 224.67 270.994 224.67 266.665C224.67 260.019 216.532 245.235 207.657 235.755L201.762 229.458L204.478 218.095C206.955 207.739 207.194 205.027 207.175 187.507C207.151 165.678 206.757 166.087 214.597 179.809C220.635 190.377 220.626 189.783 214.824 195.142C212.006 197.743 209.701 200.64 209.701 201.578C209.701 204.334 213.917 205.675 218.74 204.451L222.899 203.396L222.192 212.824C221.429 223 222.104 225.172 226.039 225.185C227.207 225.189 229.734 223.635 231.655 221.73C233.576 219.826 238.135 215.427 241.786 211.956C248.093 205.961 248.46 205.358 249.145 199.877C249.949 193.447 249.314 187.03 247.207 180.308C246.433 177.84 244.387 170.885 242.659 164.852C238.481 150.263 227.618 128.047 219.958 118.425C214.162 111.146 201.117 98.7844 193.236 93.1019C191.041 91.5194 189.085 90.1045 188.889 89.9579C187.873 89.1941 195.318 80.596 196.996 80.596C199.56 80.596 204.404 75.2963 205.215 71.604C205.612 69.7962 205.311 67.5377 204.437 65.7898C203.266 63.4426 203.237 62.5003 204.275 60.52C206.566 56.1497 208.703 46.0149 208.703 39.5167C208.703 31.5418 205.441 24.4563 199.416 19.34C194.244 14.9487 193.407 14.1181 189.985 9.98807C187.866 7.43046 186.237 6.554 182.758 6.10031C180.216 5.76927 177.044 4.49794 175.447 3.17078C170.936 -0.578388 166.035 -0.0459271 161.552 4.68041ZM172.925 4.91872C174.547 6.07239 178.137 7.61294 180.905 8.34283C185.081 9.44365 187.138 10.9104 192.993 16.9639C202.599 26.8962 205.163 32.5738 204.429 42.2827C204.125 46.2921 203.463 50.3115 202.957 51.2159C202.18 52.6009 201.835 52.3746 200.756 49.7721C200.053 48.074 197.93 45.3289 196.041 43.6707L192.606 40.6564L195.166 37.6162C196.574 35.9441 197.727 34.1901 197.727 33.7195C197.727 31.9626 195.564 27.2641 194.421 26.5382C192.378 25.24 185.785 25.6867 182.585 27.3399L179.516 28.9253L174.866 24.3486C172.308 21.8308 169.465 19.7718 168.548 19.7718C167.63 19.7718 164.694 21.0601 162.022 22.6335C157.496 25.3008 156.976 25.3965 154.395 24.0464C150.337 21.9216 147.661 23.0782 142.401 29.2295C136.591 36.0248 133.019 36.667 129.859 31.4879C127.781 28.0808 127.267 22.2756 128.826 19.8117C129.622 18.5553 130.007 18.5892 131.634 20.061C135.222 23.3046 139.402 22.2596 145.118 16.6887C150.212 11.7231 150.43 11.6253 154.977 12.2246C159.968 12.8817 159.552 13.1649 165.093 5.34948C167.274 2.27237 169.066 2.17366 172.925 4.91872ZM157.811 25.92C159.732 25.8821 163.356 25.5661 165.865 25.2181C169.828 24.6676 170.828 24.9229 173.493 27.1644C176.908 30.0351 178.802 30.2655 185.387 28.6083C190.344 27.3609 191.889 28.1296 193.198 32.492C193.711 34.1981 193.157 35.4595 190.909 37.706L187.943 40.6694L191.296 42.7394C194.933 44.9859 199.722 50.1909 199.722 51.8969C199.722 52.4803 197.888 50.8749 195.646 48.3303C193.404 45.7846 190.934 43.7026 190.158 43.7026C187.868 43.7026 188.532 45.4097 191.699 47.6632C193.324 48.8188 195.65 51.2049 196.868 52.9659C198.991 56.034 198.929 56.0121 195.363 52.4274C192.228 49.2765 188.746 47.5355 188.746 49.12C188.746 49.3583 191.024 51.889 193.808 54.7457C197.738 58.7771 198.745 60.4393 198.308 62.1762C197.967 63.5323 198.331 64.8994 199.233 65.6472C203.163 68.9068 198.81 78.6018 193.417 78.6018C191.679 78.6018 190.235 79.7853 188.246 82.8395C186.727 85.1708 183.207 89.2091 180.424 91.8136C176.906 95.1071 175.902 96.5499 177.131 96.5499C178.103 96.5499 179.84 96.0463 180.992 95.4301L183.086 94.3104L181.131 97.6736C178.573 102.075 170.579 106.491 165.295 106.422L161.304 106.37L164.796 105.025L168.289 103.681L163.299 103.582C157.341 103.463 148.483 100.017 143.016 95.6904C134.559 88.9967 128.868 75.9614 128.878 63.307C128.887 51.3086 133.63 38.4029 139.147 35.3677C140.905 34.3995 143.851 31.5727 145.692 29.0859C148.631 25.1144 149.36 24.6517 151.679 25.2769C153.131 25.6678 155.89 25.9579 157.811 25.92ZM131.285 35.3338C133.289 36.1026 133.274 37.1645 131.213 40.3074C129.306 43.215 127.915 42.0275 127.889 37.4706C127.874 34.6677 128.508 34.2689 131.285 35.3338ZM167.77 36.2482C167.075 37.0838 166.684 37.9263 166.899 38.1198C167.579 38.731 175.668 42.7055 176.232 42.7055C177.631 42.7055 176.491 40.2785 173.854 37.6431C170.537 34.3287 169.552 34.1024 167.77 36.2482ZM138.712 38.6841L136.356 40.6445L139.019 40.6784C142.671 40.7232 144.838 39.768 144.838 38.1118C144.838 36.0936 141.443 36.4107 138.712 38.6841ZM166.793 48.1887C166.164 48.9455 165.795 50.826 165.972 52.3676C166.378 55.9094 170.255 56.9095 171.264 53.7316C172.618 49.472 169.223 45.2631 166.793 48.1887ZM137.227 50.3384C136.548 53.0376 137.61 55.7528 139.604 56.4169C141.262 56.9693 143.098 52.8312 142.41 50.0912C141.561 46.7159 138.095 46.8814 137.227 50.3384ZM151.807 50.7233C151.115 52.3905 149.243 55.5584 147.646 57.761C145.86 60.2239 144.962 62.4624 145.314 63.5722C146.19 66.3272 149.56 68.9467 151.349 68.2606C152.802 67.7033 152.796 67.3981 151.278 64.8306C149.68 62.1284 149.713 61.8083 152.085 57.0949C153.445 54.3907 154.872 51.1681 155.254 49.9346C156.343 46.4218 153.302 47.1178 151.807 50.7233ZM191.777 57.6214C193.677 59.2447 195.584 60.5908 196.015 60.6128C197.361 60.6826 194.785 56.7629 192.78 55.691C188.969 53.6529 188.404 54.7407 191.777 57.6214ZM189.975 61.6508C191.198 63.6081 193.735 64.4158 193.735 62.8473C193.735 61.6019 191.479 59.6565 190.035 59.6565C188.978 59.6565 188.967 60.0384 189.975 61.6508ZM165.794 69.4672C165.794 74.6163 144.557 77.9895 138.822 73.7518C136.269 71.8662 136.186 71.8652 135.036 73.7039C133.501 76.1598 133.594 77.6655 135.429 80.0925C136.52 81.5353 137.14 81.7487 137.684 80.8702C138.239 79.9708 139.709 80.3138 143.383 82.1964C150.337 85.7631 156.713 85.1957 164.512 80.3148C169.715 77.0592 170.406 76.8628 171.522 78.3276C173.016 80.2899 173.351 80.0017 174.203 76.0212C174.8 73.2343 174.481 72.6899 170.848 70.2878C166.082 67.1349 165.794 67.089 165.794 69.4672ZM169.195 74.4637C170.205 76.097 157.784 81.5931 153.084 81.5931C146.916 81.5931 137.853 78.8411 137.853 76.9685C137.853 76.0192 138.489 75.6603 139.6 75.9823C145.555 77.7103 152.616 77.6296 158.31 75.7709C164.956 73.6002 168.405 73.1864 169.195 74.4637ZM148.349 87.5469C147.621 88.7255 152.23 90.0108 154.316 89.2101C155.141 88.894 155.815 88.1731 155.815 87.6067C155.815 86.3025 149.152 86.2487 148.349 87.5469ZM189.744 99.281C189.744 107.345 183.628 113.658 173.145 116.417C170.876 117.015 168.518 118.109 167.905 118.847C167.291 119.586 166.29 123.889 165.681 128.409C164.494 137.225 165.734 159.095 168.087 170.835L169.287 176.818L173.409 177.119C177.944 177.449 191.029 174.417 198.06 171.405L202.548 169.482L203.247 174.554C203.877 179.131 203.714 179.809 201.585 181.496C187.285 192.825 157.917 194.552 141.642 185.021C135.608 181.487 134.82 180.332 135.515 176.046C136.105 172.412 136.109 172.41 138.926 173.865C140.477 174.666 143.627 175.322 145.927 175.322H150.109L149.459 166.597C147.72 143.275 147.642 133.85 149.114 125.508C149.934 120.87 150.371 116.467 150.086 115.726C149.801 114.985 147.817 113.678 145.678 112.823C139.494 110.35 137.827 104.9 142.35 101.938C144.436 100.572 145.332 100.501 147.766 101.509C149.37 102.172 150.925 103.344 151.22 104.114C151.515 104.883 153.231 106.41 155.033 107.509C163.785 112.841 181.112 107.197 185.332 97.6387C187.619 92.4607 189.744 93.2514 189.744 99.281ZM212.27 116.652C215.858 120.902 220.932 128.101 223.544 132.65C230.943 145.537 238.776 165.103 240.269 174.424C241.318 180.987 236.109 187.593 228.963 188.756L224.774 189.439L221.107 182.132C212.971 165.92 204.831 156.346 190.478 146.112C184.235 141.662 180.763 140.31 180.763 142.334C180.763 142.836 182.671 144.706 185.004 146.488C191.118 151.16 202.716 162.603 202.716 163.963C202.716 166.937 186.197 173.375 177.863 173.649C172.659 173.821 172.438 173.721 171.645 170.835C171.193 169.19 170.37 162.684 169.816 156.377C167.736 132.699 168.927 119.506 173.148 119.462C179.831 119.393 192.02 109.894 193.773 103.388L194.821 99.5014L200.282 104.214C203.286 106.805 208.681 112.402 212.27 116.652ZM137.315 110.386C137.642 111.415 139.945 113.321 142.434 114.624C146.338 116.667 146.89 117.338 146.463 119.524C144.004 132.142 143.617 139.897 144.764 153.547C145.423 161.41 146.209 168.853 146.507 170.087C147.22 173.033 144.903 173.056 139.735 170.153C137.314 168.793 135.857 167.25 135.857 166.043C135.857 162.265 129.873 136.879 128.232 133.693C126.541 130.412 124.873 129.416 124.89 131.698C124.895 132.384 126.007 137.827 127.361 143.792L129.824 154.64L125.219 159.746C122.686 162.555 119.548 166.536 118.245 168.592C115.535 172.866 114.944 172.985 109.23 170.393C102.013 167.119 99.9105 159.261 104.07 151.102C107.764 143.855 115.053 132.185 119.77 125.965C124.971 119.108 134.788 108.515 135.942 108.515C136.37 108.515 136.988 109.357 137.315 110.386ZM103.152 171.068C104.299 172.292 106.02 173.541 106.974 173.845C109.067 174.508 108.468 177.953 105.992 179.497C104.559 180.392 104.464 181.44 105.274 187.42C105.788 191.211 105.905 194.615 105.536 194.985C105.165 195.355 103.65 194.446 102.168 192.965C99.8157 190.614 99.4245 189.322 99.0952 182.798C98.7649 176.264 98.4795 175.322 96.831 175.322C95.2443 175.322 94.945 176.076 94.9499 180.059C94.9529 182.664 95.4439 186.555 96.0416 188.705C97.288 193.19 101.873 198.256 104.686 198.256C106.963 198.256 109.521 203.034 108.037 204.517C106.359 206.194 100.642 201.735 97.2261 196.082C92.5121 188.283 91.3765 181.795 93.4661 174.611C94.3851 171.452 95.8051 167.577 96.6214 165.998L98.1063 163.129L99.5851 165.985C100.398 167.556 102.003 169.843 103.152 171.068ZM114.376 176.275C114.7 176.8 114.273 178.885 113.427 180.909C111.926 184.498 111.962 184.704 114.892 189.266C119.196 195.969 118.852 198.444 114.221 194.097C111.387 191.437 110.124 192.31 112.305 195.422C114.234 198.173 114.393 201.247 112.607 201.247C110.36 201.247 109.003 199.061 109.55 196.325C109.84 194.874 109.63 191.237 109.081 188.244C108.284 183.892 108.368 182.485 109.497 181.226C110.275 180.361 110.91 178.977 110.91 178.152C110.91 175.571 113.179 174.341 114.376 176.275ZM244.997 184.546C245.955 188.119 245.709 199.41 244.585 203.455C242.971 209.26 241.712 208.869 242.343 202.758C242.734 198.975 242.556 197.259 241.774 197.259C241.148 197.259 240.636 197.91 240.636 198.706C240.636 203 238.14 210.667 235.978 213.017L233.504 215.706L234.021 213.213C235.65 205.344 235.904 199.998 234.628 200.424C233.894 200.668 232.583 204.427 231.653 208.953C230.148 216.279 227.622 222.187 225.997 222.187C225.655 222.187 225.684 217.027 226.061 210.72C226.803 198.318 226.628 197.92 221.676 200.749C220.304 201.532 217.63 202.19 215.734 202.21L212.286 202.244L217.684 197.259C222.292 193.005 223.676 192.27 227.12 192.251C232.673 192.221 239.321 189.005 241.409 185.337C243.468 181.723 244.196 181.562 244.997 184.546ZM157.021 193.705C173.397 197.026 183.779 195.173 202.966 185.505C203.378 185.297 203.714 188.586 203.714 192.813C203.714 202.949 199.738 222.196 194.165 239.04C189.449 253.293 178.153 277.522 172.819 284.825L169.674 289.13L165.902 283.329C161.685 276.844 154.766 270.093 149.692 267.514C147.846 266.574 146.192 265.682 146.016 265.531C145.84 265.38 146.635 263.421 147.78 261.177C151.785 253.332 155.655 231.806 157.363 207.866C157.913 200.17 157.777 197.854 156.738 197.213C154.537 195.853 153.823 197.12 153.732 202.553C153.684 205.399 153.341 209.972 152.968 212.714L152.292 217.7L147.462 211.218C144.806 207.654 141.831 203.167 140.852 201.247C139.196 198.003 135.857 187.909 135.857 186.15C135.857 185.723 138.888 186.898 142.593 188.759C146.297 190.622 152.791 192.848 157.021 193.705ZM20.6011 194.498C15.2275 196.417 6.55284 204.052 3.53921 209.513C-0.155981 216.208 -0.416432 225.192 2.87561 232.427C5.3843 237.941 14.5689 247.115 20.0583 249.588L23.8453 251.295L22.3355 254.318C19.1063 260.786 19.4955 265.26 24.0937 274.535C26.4268 279.242 28.1671 283.21 27.9616 283.354C27.755 283.498 26.351 284.386 24.8422 285.33C23.1048 286.416 22.098 287.912 22.098 289.406C22.098 292.256 33.1316 309.36 35.9387 310.861C38.7657 312.373 42.2454 312.183 44.8269 310.375C47.8116 308.287 47.619 305.675 44.1903 301.742C42.6196 299.94 40.6158 297.062 39.7367 295.346C38.2269 292.4 38.2488 292.128 40.1348 290.422C42.0717 288.671 42.2015 288.69 44.4737 291.049C45.7619 292.386 48.9552 298.324 51.5687 304.244C56.6938 315.849 59.3881 318.907 64.4883 318.907C67.8423 318.907 70.9946 316.398 70.9946 313.729C70.9946 312.461 71.755 312.583 75.4382 314.446C77.882 315.683 81.1162 317.665 82.626 318.851C84.8054 320.564 86.1496 320.877 89.1592 320.369C91.4334 319.985 92.9482 320.125 92.9482 320.72C92.9482 321.264 95.0458 323.099 97.6093 324.796C100.931 326.995 103.455 327.881 106.391 327.881C111.209 327.881 112.906 326.541 112.906 322.735C112.906 319.513 112.179 318.773 105.12 314.803C100.536 312.226 99.9304 311.536 100.579 309.634C100.991 308.428 101.351 302.056 101.379 295.475C101.429 283.719 101.39 283.504 99.1271 283.183C97.8608 283.004 95.7293 283.574 94.3921 284.45C90.3427 287.101 87.373 285.558 83.8624 278.977C81.9814 275.45 79.2462 272.114 76.9071 270.495C74.7866 269.026 71.6722 265.677 69.9857 263.053C62.9576 252.107 53.0595 245.57 39.0621 242.628C18.2521 238.253 6.27044 226.114 11.6281 214.833C13.4602 210.975 20.0872 206.032 25.9478 204.154C31.0071 202.533 33.2394 200.377 32.489 197.839C31.1957 193.463 26.8868 192.251 20.6011 194.498ZM28.5473 196.866C30.7038 199.021 29.2389 200.667 23.3962 202.656C14.1747 205.796 8.12052 212.563 8.15345 219.694C8.20734 231.542 19.0963 240.845 37.4196 244.697C41.3313 245.518 46.8945 247.272 49.7824 248.593C56.136 251.5 64.9364 259.59 67.9999 265.339C69.3431 267.861 71.9715 270.62 74.5521 272.217C78.6265 274.74 82.9693 280.99 82.9693 284.331C82.9693 285.555 89.9405 288.994 92.4183 288.994C92.9132 288.994 94.3562 288.02 95.6245 286.829C96.8918 285.639 98.2659 285.001 98.6771 285.411C99.8895 286.623 99.0463 304.544 97.5175 310.041C96.8729 312.36 97.313 312.973 101.607 315.729C110.883 321.682 111.022 321.821 109.884 323.945C109.312 325.015 107.802 325.887 106.523 325.887C103.955 325.887 97.5834 321.917 94.9639 318.684C93.492 316.868 92.8773 316.742 90.1301 317.7C87.3929 318.653 86.6226 318.501 84.2276 316.541C82.7118 315.301 79.9976 313.694 78.1954 312.971C76.3932 312.248 74.11 310.631 73.1221 309.376C71.4876 307.299 64.0094 304.835 64.0094 306.372C64.0094 306.73 64.9514 308.295 66.1019 309.85C68.6655 313.315 68.2704 316.302 65.1919 316.74C61.6284 317.247 60.1066 315.298 54.0335 302.451C49.6697 293.218 47.5192 289.828 44.6323 287.628C42.5737 286.059 40.5839 285.164 40.2097 285.638C39.8365 286.113 38.4923 287.689 37.223 289.141C34.9698 291.717 34.9558 291.863 36.6263 295.124C37.5673 296.963 39.6229 300.102 41.1946 302.1C42.7663 304.098 44.0516 306.174 44.0516 306.713C44.0516 308.549 41.1716 310.104 39.0312 309.425C36.8099 308.721 25.0916 291.833 25.0916 289.337C25.0916 288.549 26.4358 287.139 28.0793 286.205C29.7219 285.271 31.069 283.89 31.073 283.137C31.076 282.383 29.2828 278.181 27.0874 273.798C22.5141 264.668 22.1918 261.195 25.3411 255.008L27.5864 250.597L22.5969 248.175C19.8527 246.844 14.8842 243.031 11.5563 239.703C6.48298 234.631 5.22964 232.662 3.79766 227.515C2.4096 222.527 2.28985 220.473 3.16101 216.547C5.14282 207.616 11.205 200.974 20.7927 197.231C26.7272 194.914 26.6004 194.92 28.5473 196.866ZM205.186 237.891C207.163 239.948 210.837 244.895 213.352 248.886C218.54 257.118 218.653 259.806 214.068 265.813C210.543 270.43 205.982 273.032 201.403 273.036C196.627 273.041 194.719 272.024 191.437 267.724L188.828 264.307L192.143 256.453C193.968 252.132 196.507 245.347 197.788 241.375C199.068 237.403 200.448 234.152 200.854 234.152C201.26 234.152 203.21 235.835 205.186 237.891ZM137.437 265.312C140.534 267.403 144.291 271.527 148.028 276.938C151.213 281.549 153.819 285.613 153.819 285.968C153.819 286.324 150.564 288.071 146.585 289.85L139.35 293.086L134.272 287.675C124.333 277.087 118.547 265.741 121.555 262.737C121.92 262.371 124.563 262.071 127.429 262.071C131.656 262.071 133.542 262.683 137.437 265.312ZM217.822 275.403C213.539 284.096 208.634 289.372 201.54 292.914C194.378 296.49 191.495 296.726 188.731 293.964C186.696 291.931 186.757 288.971 188.919 284.756C189.935 282.774 194.14 282.456 198.323 284.045C201.344 285.193 203.598 283.959 201.511 282.301C200.802 281.738 198.562 280.743 196.533 280.09C194.025 279.284 193.019 278.452 193.387 277.493C193.803 276.41 195.242 276.213 199.57 276.641C204.296 277.11 205.939 276.811 209.701 274.799C212.171 273.477 215.539 270.613 217.186 268.434C220.037 264.661 220.195 264.587 220.507 266.882C220.686 268.207 219.479 272.042 217.822 275.403ZM156.425 277.378C159.826 280.861 163.583 285.62 164.774 287.954L166.941 292.196L164.711 294.568L162.482 296.939L160.287 291.54C159.078 288.571 155.827 282.745 153.06 278.594C150.293 274.442 148.527 271.046 149.135 271.046C149.743 271.046 153.023 273.895 156.425 277.378ZM70.9697 287.563C69.7363 290.805 69.7003 296.275 70.9178 295.523C71.4247 295.21 72.1342 293.612 72.4944 291.974C72.8547 290.335 73.3556 288.994 73.6081 288.994C73.8615 288.994 75.8892 289.922 78.1165 291.058C80.3428 292.192 82.4204 292.865 82.7338 292.553C83.4034 291.883 83.6349 292.103 78.0796 288.138C72.7649 284.345 72.211 284.301 70.9697 287.563ZM157.353 293.35C157.7 295.198 157.833 297.777 157.648 299.084C157.364 301.094 156.773 301.444 153.794 301.364C150.615 301.279 142.886 297.383 142.855 295.851C142.841 295.134 153.724 290.154 155.521 290.057C156.181 290.021 157.007 291.502 157.353 293.35ZM80.9735 306.96C80.9735 307.748 83.4223 308.936 85.0469 308.936C85.5508 308.936 85.9629 308.319 85.9629 307.565C85.9629 306.767 84.9202 306.194 83.4682 306.194C82.0961 306.194 80.9735 306.539 80.9735 306.96ZM92.9482 307.44C92.9482 308.263 93.5669 308.936 94.3233 308.936C95.0787 308.936 96.2562 308.263 96.9397 307.44C97.9905 306.176 97.778 305.945 95.5646 305.945C93.9042 305.945 92.9482 306.491 92.9482 307.44Z" fill="#2dc92d"/>
</svg>
