<svg width="304" height="356" viewBox="0 0 304 356" fill="none" xmlns="http://www.w3.org/2000/svg">
<path fill-rule="evenodd" clip-rule="evenodd" d="M132.811 1.8739C129.81 2.67964 125.2 4.72091 122.567 6.40916C117.025 9.96418 110.043 17.517 109.201 20.8705C107.84 26.2883 120.354 38.1021 131.147 41.5883C146.382 46.5105 164.375 40.5582 173.268 27.6545C176.854 22.4531 176.855 22.4451 175.155 19.1593C172.692 14.3987 164.627 6.90976 159.238 4.37787C150.442 0.246475 141.889 -0.564248 132.811 1.8739ZM131.454 11.1867C129.437 13.4185 127.606 16.6923 127.217 18.7625C126.287 23.7185 128.321 29.956 131.983 33.3734C135.607 36.7569 135.173 36.8427 129.025 33.9568C124.013 31.6034 115.814 24.1553 115.814 21.9555C115.814 18.8353 130.305 7.53899 134.64 7.27972C134.842 7.26775 133.408 9.02581 131.454 11.1867ZM149.553 9.65305C153.011 11.44 156.728 18.0225 156.723 22.3514C156.716 29.0177 151.151 34.9131 143.955 35.8774C139.326 36.4976 135.133 34.586 131.4 30.1525C126.526 24.3647 128.776 13.4863 135.613 9.77471C139.025 7.92291 146.086 7.86109 149.553 9.65305ZM157.725 10.3581C162.002 12.9239 165.285 15.8686 167.839 19.4296L169.774 22.128L166.147 26.1387C162.3 30.3948 158.107 33.3295 153.224 35.1823L150.241 36.3132L152.864 33.5031C156.691 29.4006 157.725 26.8926 157.725 21.7172C157.725 16.774 156.692 14.0716 153.435 10.4987C150.756 7.55893 152.94 7.48714 157.725 10.3581ZM139.613 15.9035C138.707 16.1438 137.408 17.6825 136.729 19.3229C134.331 25.1086 139.675 30.5563 145.256 28.0155C148.436 26.5675 148.358 26.1417 144.464 23.6757C141.938 22.0742 141.262 20.9673 141.27 18.4404C141.275 16.6773 141.275 15.2872 141.27 15.351C141.264 15.4149 140.519 15.6632 139.613 15.9035ZM61.4293 30.1934C60.3756 31.8976 61.9163 33.185 65.0097 33.185C71.032 33.185 88.8522 44.3287 94.3516 51.5334C97.0668 55.0914 98.8501 55.4414 98.8501 52.4159C98.8501 48.122 87.2067 37.9037 75.6782 32.0801C69.9373 29.1802 62.6527 28.2159 61.4293 30.1934ZM198.836 32.6026C184.425 40.4216 173.909 51.0199 177.25 54.3585C177.56 54.6686 180.83 51.9393 184.516 48.2915C191.906 40.9791 203.59 34.1014 210.114 33.2238C215.913 32.443 215.561 29.7765 209.615 29.4435C206.091 29.246 203.773 29.9251 198.836 32.6026ZM47.1596 39.3676C46.501 40.0257 45.9621 40.8744 45.9621 41.2543C45.9621 41.6342 51.0144 42.1179 57.1883 42.3293C66.6842 42.6544 69.2787 43.1141 74.0226 45.3139C80.3722 48.2576 86.8265 53.6933 89.929 58.7103C92.2031 62.3879 94.8585 63.2226 94.8585 60.2589C94.8585 58.1259 90.4279 51.8206 86.2557 48.0163C82.6384 44.7186 75.6332 40.9222 70.2946 39.3676C64.871 37.788 48.7402 37.788 47.1596 39.3676ZM206.123 38.873C200.878 40.1963 193.064 44.6208 188.597 48.7961C183.047 53.9845 179.222 59.5609 180.167 61.0886C181.323 62.9583 183.605 62.1296 185.065 59.3096C187.313 54.9658 195.217 48.2317 201.458 45.3438C206.193 43.152 208.886 42.6583 217.9 42.3293C227.22 41.9892 228.636 41.715 228.366 40.303C228.103 38.9318 226.45 38.6456 218.085 38.52C212.604 38.4372 207.22 38.5958 206.123 38.873ZM137.789 54.1002C135.071 57.5276 133.948 58.1538 129.472 58.7382C124.997 59.3225 123.658 60.0684 119.587 64.2487C113.366 70.6358 108.871 70.5969 109.704 64.1619C110.005 61.8305 109.925 61.7946 107.677 63.2675C102.214 66.8464 99.5286 73.735 101.882 78.1307C102.609 79.4879 102.575 81.2081 101.769 83.8985C100.782 87.1913 100.906 88.3759 102.648 92.3129C104.537 96.5819 104.576 97.2211 103.206 101.687C101.05 108.712 101.312 120.236 103.788 127.339C106.19 134.237 111.009 142.093 114.538 144.866L117.022 146.819L113.674 149.534C100.136 160.517 89.438 177.139 82.5656 197.865C79.0829 208.367 74.7162 228.269 75.0485 232.123C75.259 234.567 74.4887 236.278 71.7245 239.505C69.7457 241.816 67.9196 244.788 67.6671 246.11C66.9965 249.613 70.2975 256.191 73.5776 257.885C75.1313 258.687 77.2568 260.288 78.3006 261.442C79.3454 262.595 81.1116 263.538 82.2263 263.538C83.3399 263.538 85.2529 264.477 86.4763 265.626C89.4011 268.371 92.4855 267.388 94.5552 263.051C95.4233 261.231 97.2025 259.256 98.5098 258.662C101.777 257.174 103.183 253.133 101.844 249.078C100.959 246.399 101.219 244.667 103.433 238.501C106.376 230.304 109.538 223.65 110.49 223.65C111.714 223.65 109.908 237.431 105.982 258.053C101.735 280.367 99.6394 293.772 97.436 312.712C96.6826 319.19 95.9063 324.6 95.7117 324.735C95.5171 324.87 92.1542 326.207 88.2385 327.708C80.95 330.501 77.1869 333.385 78.3585 335.28C81.2224 339.91 96.2256 341.552 107.831 338.503C111.947 337.422 115.465 336.941 115.647 337.433C115.831 337.925 117.76 338.328 119.934 338.328C124.133 338.328 128.787 334.944 128.787 331.891C128.787 331.043 129.424 330.35 130.205 330.35C131.721 330.35 132.273 328.317 133.314 318.882C134.61 307.141 144.421 275.504 146.766 275.504C148.344 275.504 166.706 320.521 166.706 324.391C166.706 325.964 170.67 333.553 172.683 335.835C173.651 336.932 174.726 339.425 175.074 341.375C175.767 345.271 181.009 350.981 186.365 353.675C191.196 356.104 197.243 355.769 200.099 352.915C204.188 348.828 205.259 341.267 202.284 337.483C201.504 336.491 201.671 335.893 202.927 335.191C204.301 334.422 204.623 332.768 204.609 326.561C204.562 305.835 201.006 286.03 192.538 259.332C186.302 239.672 185.669 236.903 185.698 229.412C185.727 221.76 185.843 221.303 187.277 223.151C189.926 226.569 195.822 238.795 198.237 245.885C200.073 251.27 200.326 253.152 199.467 255.036C197.927 258.412 199.244 262.409 202.515 264.285C204.06 265.17 205.797 267.15 206.376 268.683C206.956 270.217 208.6 272.004 210.03 272.655C212.277 273.678 212.94 273.547 214.928 271.68C216.193 270.492 218.177 269.521 219.337 269.521C220.496 269.521 222.281 268.46 223.301 267.163C224.323 265.865 226.182 264.479 227.435 264.081C230.381 263.147 233.556 257.905 233.561 253.965C233.565 251.095 229.278 243.764 226.645 242.139C226.061 241.777 225.572 239.152 225.56 236.305C225.534 230.095 222.566 216.163 218.934 205.202C211.975 184.204 204.754 171.695 192.911 160.125C186.633 153.994 183.452 151.813 174.557 147.543C168.638 144.703 163.778 141.809 163.755 141.113C163.676 138.714 171.163 130.236 174.169 129.322C179.668 127.649 183.907 117.585 180.533 114.213C179.677 113.358 179.988 111.255 181.78 105.787C185.172 95.4441 185.141 83.4508 181.708 76.7326C180.353 74.0841 177.435 70.3825 175.221 68.5077C169.523 63.6823 168.826 62.9972 165.86 59.3225C163.75 56.7069 162.179 55.8832 158.097 55.253C155.282 54.8182 151.742 53.4889 150.228 52.3003C148.675 51.0797 146.051 50.1373 144.203 50.1373C141.579 50.1373 140.305 50.9241 137.789 54.1002ZM148.61 53.7452C149.878 54.6327 153.533 56.1514 156.731 57.1187C161.5 58.5617 163.793 60.1113 169.469 65.7275C178.389 74.5528 180.981 79.5278 181.092 88.0309C181.231 98.7249 178.886 105.921 177.309 99.6413C176.985 98.3479 174.77 95.4959 172.389 93.3021L168.059 89.3143L170.377 86.6228C173.235 83.3012 173.349 79.1379 170.659 76.253C168.266 73.6862 165.962 73.5206 161.064 75.5659C155.8 77.7637 154.541 77.4735 150.241 73.0729C145.705 68.4299 143.429 68.1388 138.733 71.601C135.705 73.8328 134.688 74.0462 129.737 73.4867L124.153 72.8555L119.235 78.3531C116.531 81.3766 113.377 84.1259 112.229 84.4619C107.069 85.9737 101.675 76.7137 103.938 70.2279C105.231 66.5233 105.26 66.5153 107.831 69.0841C111.258 72.5085 114.824 71.6529 120.305 66.0925C124.961 61.3688 125.494 61.1065 130.447 61.1065C135.521 61.1065 135.768 60.9739 138.765 56.6191C142.146 51.7089 144.654 50.977 148.61 53.7452ZM231.986 68.9984C229.032 70.2698 224.935 75.4263 221.544 82.1394C219.939 85.3165 216.822 89.8109 214.618 92.1264C210.143 96.8262 210.038 97.8782 214.263 95.6684C218.21 93.6032 222.966 88.339 225.563 83.1606C228.807 76.6887 231.829 74.0701 236.053 74.0701C240.582 74.0701 246.528 77.0737 249.88 81.0545C254.958 87.0855 257.07 100.089 253.95 106.118C250.664 112.468 235.448 131.915 232.623 133.375C225.928 136.834 221.725 133.997 218.673 123.959C217.263 119.32 215.855 116.621 214.452 115.871C212.452 114.802 212.381 114.92 213.008 118.262C216.368 136.165 223.594 142.504 234.353 136.99C238.879 134.671 240.045 133.373 250.478 119.02C262.291 102.768 262.953 100.647 259.941 88.7349C256.944 76.8882 248.964 69.0243 239.337 68.43C236.437 68.2515 233.129 68.5067 231.986 68.9984ZM150.435 76.6429C153.635 79.082 154.258 79.2147 157.692 78.1865C163.446 76.4634 167.472 76.7586 168.667 78.9903C170.319 82.0756 169.887 84.2365 167.019 87.2281C165.544 88.7668 164.869 90.0253 165.519 90.0253C167.528 90.0253 174.921 97.3288 176.339 100.713C178.356 105.528 177.985 105.693 174.818 101.393C171.542 96.9478 165.708 91.2369 165.708 92.4774C165.708 92.9351 167.681 95.4161 170.092 97.9919C172.503 100.568 175.207 104.204 176.102 106.073C177.681 109.374 177.678 109.4 175.979 106.978C173.061 102.818 167.986 98.0009 166.557 98.0348C165.816 98.0517 166.557 99.2444 168.203 100.685C172.695 104.616 175.76 109.166 175.169 111.025C174.881 111.935 175.328 113.246 176.163 113.939C178.571 115.936 178.067 121.642 175.233 124.474C173.886 125.82 171.89 126.922 170.797 126.922C169.494 126.922 167.553 128.811 165.169 132.401C163.167 135.416 159.663 139.493 157.382 141.464L153.235 145.048L156.478 144.485C158.739 144.094 159.721 144.31 159.721 145.199C159.721 147.165 153.662 152.57 149.525 154.294C147.484 155.144 144.116 155.82 142.041 155.796L138.267 155.751L141.26 154.467C144.204 153.206 144.149 153.175 137.96 152.607C122.485 151.188 109.7 139.313 105.896 122.821C104.564 117.047 104.58 106.474 105.928 101.493C107.546 95.5189 111.954 86.0365 113.114 86.0365C113.675 86.0365 116.764 83.2992 119.98 79.9536C124.323 75.4343 126.272 74.0492 127.556 74.5667C131.529 76.1682 136.3 76.1931 138.267 74.6226C140.978 72.4586 146.049 73.3003 150.435 76.6429ZM34.193 90.7732C34.3248 111.398 33.8398 113.257 28.1279 114.032C20.1987 115.107 15.6982 123.275 18.1041 132.225C19.4353 137.176 20.544 138.062 23.6374 136.654C25.3558 135.872 26.3487 135.937 27.5252 136.914C28.3933 137.634 30.9888 138.58 33.2919 139.016C35.5951 139.451 39.7682 140.349 42.5643 141.009C46.8752 142.027 48.4229 141.957 52.7308 140.549C55.5258 139.636 59.0883 138.888 60.646 138.888C62.2047 138.888 64.414 138.234 65.5566 137.434C66.6992 136.635 68.9314 136.074 70.5191 136.188C73.1994 136.38 73.4668 136.071 74.2921 131.808C76.1741 122.081 72.6506 115.445 64.9219 114.157C60.5472 113.43 60.3975 113.282 59.1262 108.449C58.2291 105.037 57.9467 98.8934 58.2241 88.7788C58.5894 75.4103 58.4706 74.0701 56.9209 74.0701C54.7285 74.0701 53.9452 79.448 53.9452 94.4927C53.9452 109.649 58.1463 126.423 61.9413 126.423C63.0709 126.423 63.3493 125.412 63.1088 122.185C62.8374 118.566 63.0699 117.947 64.7004 117.947C67.725 117.947 70.1638 121.514 70.6588 126.662L71.1148 131.409L64.3242 131.549C58.5225 131.668 57.2622 132.024 55.6616 134C54.1328 135.885 52.5891 136.387 47.2673 136.725C41.1463 137.115 40.6134 136.975 38.5997 134.451C36.6588 132.018 35.7717 131.746 29.2854 131.586C23.4269 131.441 22.0338 131.094 21.6656 129.688C20.9441 126.936 22.7443 120.607 24.6433 119.22C27.7098 116.98 28.8683 117.734 29.1906 122.185C29.9171 132.227 34.5952 123.73 37.518 107.057C38.5897 100.948 38.8113 95.3134 38.3323 86.3656C37.7485 75.4393 37.4751 74.0701 35.8805 74.0701C34.221 74.0701 34.0952 75.3216 34.193 90.7732ZM107.903 85.0772C109.742 86.0614 109.757 86.2728 108.209 89.3153C106.045 93.5683 105.879 93.698 104.798 91.9908C103.52 89.9714 103.598 84.0421 104.903 84.0421C105.488 84.0421 106.838 84.5078 107.903 85.0772ZM144.337 85.6805C143.6 87.5981 143.368 87.3269 147.59 89.4738C152.038 91.7355 152.744 90.6844 149.233 87.0237C145.956 83.6043 145.213 83.4009 144.337 85.6805ZM115.675 87.998L113.319 89.9585L116.456 89.9924C119.371 90.0233 121.49 88.0528 120.069 86.6328C119.084 85.6476 118.149 85.9388 115.675 87.998ZM234.292 90.0961C232.179 91.3506 232.922 93.0169 235.593 93.0169C237.693 93.0169 240.55 97.615 240.55 100.994C240.55 106.451 233.263 114.292 228.685 113.762C226.5 113.508 226.034 112.898 225.788 109.969C225.551 107.136 225.925 106.292 227.778 105.482C229.033 104.933 230.208 103.7 230.388 102.74C230.875 100.153 227.238 100.524 223.891 103.403C221.261 105.665 221.101 106.255 221.254 113.125C221.595 128.45 225.148 129.961 234.354 118.695C244.732 105.993 246.366 100.787 242.253 93.5155C239.908 89.3701 237.361 88.2762 234.292 90.0961ZM143.991 97.1682C142.204 98.9542 142.446 103.929 144.355 104.661C147.32 105.799 148.825 100.855 146.486 97.6578C145.484 96.2897 144.971 96.189 143.991 97.1682ZM114.212 98.4177C113.366 100.619 114.189 105.285 115.497 105.715C117.216 106.279 119.076 102.199 118.375 99.4059C117.717 96.7863 115.079 96.1601 114.212 98.4177ZM128.77 100.038C128.078 101.705 126.162 104.933 124.511 107.211C121.756 111.012 121.624 111.554 122.902 113.803C124.479 116.576 127.38 118.689 128.32 117.748C128.664 117.404 128.167 115.935 127.214 114.482C125.568 111.971 125.57 111.658 127.253 108.162C130.03 102.393 131.771 97.0057 130.859 97.0057C130.401 97.0057 129.461 98.3698 128.77 100.038ZM165.763 103.737C165.841 104.793 171.697 109.304 172.26 108.742C172.515 108.486 171.533 107.087 170.078 105.633C167.492 103.049 165.654 102.24 165.763 103.737ZM167.343 110.468C167.659 111.291 168.305 111.964 168.778 111.964C169.25 111.964 169.379 111.291 169.063 110.468C168.747 109.645 168.101 108.972 167.628 108.972C167.156 108.972 167.028 109.645 167.343 110.468ZM142.757 118.816C142.757 120.303 141.383 121.308 137.231 122.861C130.454 125.395 116.806 125.777 114.524 123.495C112.888 121.861 110.802 123.215 110.857 125.875C110.906 128.278 113.407 131.005 115.001 130.394C115.791 130.091 118.431 130.747 120.866 131.851C128.404 135.268 134.912 134.121 143.909 127.788C147.27 125.423 147.635 125.449 148.627 128.127C149.352 130.087 149.52 129.913 150.15 126.556C150.938 122.362 150.355 121.294 145.828 118.638C142.825 116.877 142.757 116.881 142.757 118.816ZM146.483 123.633C146.706 124.298 144.205 126.182 140.857 127.871C136.187 130.226 133.517 130.91 128.993 130.91C123.002 130.91 113.818 128.439 113.818 126.828C113.818 126.331 118.422 125.901 124.047 125.871C131.627 125.83 135.438 125.337 138.765 123.968C143.737 121.923 145.882 121.829 146.483 123.633ZM126.791 136.79C124.598 137.4 124.518 137.569 126.124 138.186C129.153 139.349 131.78 138.98 131.78 137.392C131.78 135.8 130.781 135.679 126.791 136.79ZM167.676 146.852C169.813 147.941 171.826 149.261 172.151 149.786C173.012 151.18 165.035 155.545 158.699 157.15C152.049 158.833 151.488 159.794 149.283 173.291C148.104 180.507 147.735 188.086 147.95 200.714L148.245 218.165H158.723C164.486 218.165 171.824 217.941 175.032 217.667L180.861 217.168L181.25 229.257L181.639 241.347L175.676 243.019C167.068 245.433 152.546 246.872 142.757 246.281C134.813 245.803 117.694 242.41 115.189 240.818C114.499 240.379 113.902 235.421 113.641 227.941L113.215 215.778L116.759 215.974L120.305 216.171L120.934 199.219C121.528 183.224 122.975 173.17 126.248 162.303C128.001 156.48 127.532 155.262 122.558 152.725C119.899 151.37 118.903 150.361 119.568 149.696C120.705 148.56 128.787 152.23 128.787 153.881C128.787 154.426 130.247 155.762 132.03 156.849C139.843 161.609 153.952 157.741 160.215 149.12C161.865 146.851 163.343 144.966 163.503 144.932C163.662 144.898 165.54 145.763 167.676 146.852ZM236.558 149.407C225.562 152.243 208.28 160.451 207.796 163.07C207.311 165.694 209.796 165.226 216.816 161.372C225.772 156.455 245.892 150.854 254.6 150.854C260.84 150.854 261.505 150.662 261.505 148.86C261.505 147.033 260.857 146.87 253.772 146.914C248.957 146.945 242.461 147.886 236.558 149.407ZM16.5325 150.213C14.0467 150.961 12.4152 152.106 12.1937 153.258C11.8743 154.91 12.2366 155.011 15.6783 154.225C17.7898 153.742 26.0293 153.439 33.9875 153.551C45.2037 153.709 50.1393 154.228 55.941 155.857C64.871 158.366 67.2769 158.665 67.8368 157.336C68.6281 155.457 59.4346 151.938 49.7152 150.399C38.3323 148.597 22.2005 148.506 16.5325 150.213ZM124.795 157.857C124.795 158.323 123.664 163.333 122.283 168.989C119.512 180.335 117.296 202.791 118.293 209.429C118.844 213.104 118.686 213.676 117.122 213.663C113.798 213.635 113.001 212.219 111.914 204.413C110.67 195.467 105.902 178.776 104.592 178.776C104.104 178.776 103.937 179.561 104.222 180.521C105.528 184.931 109.827 209.054 109.827 211.972C109.827 213.818 108.234 218.236 106.168 222.126C104.155 225.915 101.504 232.182 100.278 236.054L98.0478 243.095L91.9098 243.393C86.133 243.675 85.5981 243.506 82.821 240.535C81.1974 238.798 79.5769 236.211 79.2177 234.783C78.3665 231.394 82.1654 212.066 85.9673 200.439C92.1981 181.386 103.116 162.686 112.542 154.922L115.984 152.087L120.389 154.547C122.812 155.901 124.795 157.39 124.795 157.857ZM179.968 153.975C186.031 157.038 197.402 169.213 202.748 178.365C209.183 189.384 215.076 204.422 218.582 218.772C222.336 234.131 222.582 239.261 219.783 243.788C216.975 248.328 214 249.768 208.207 249.391L203.411 249.079L200.597 241.355C195.87 228.372 189.754 217.973 182.025 209.776C178.101 205.615 174.628 202.465 174.306 202.778C173.984 203.089 175.354 205.676 177.351 208.525C179.347 211.375 180.778 213.908 180.533 214.154C179.796 214.891 152.633 216.844 151.131 216.268C148.326 215.192 149.699 179.522 153.059 166.16C154.225 161.528 154.281 161.48 161.112 159.184C164.896 157.913 169.387 155.764 171.091 154.408C174.909 151.375 174.83 151.378 179.968 153.975ZM241.32 156.821C233.282 157.833 228.964 159.16 221.383 162.95C215.586 165.849 208.617 171.278 208.617 172.897C208.617 174.785 212.887 173.661 216.41 170.844C220.857 167.287 227.172 164.417 235.084 162.358C242.678 160.382 260.006 160.385 268.413 162.365C275.178 163.959 277.761 163.253 275.056 160.549C271.766 157.261 253.683 155.263 241.32 156.821ZM22.0847 158.386C12.7155 160.417 1.05724 166.165 1.05724 168.755C1.05724 171.319 2.14793 171.326 6.2722 168.788C11.8314 165.368 24.7411 161.819 33.8488 161.207C43.5732 160.554 54.2994 162.363 61.578 165.884C66.327 168.182 69.2707 167.904 68.2539 165.254C67.4436 163.145 60.16 160.021 51.9494 158.262C43.8047 156.517 30.454 156.572 22.0847 158.386ZM246.701 170.488C244.87 171.391 241.277 174.627 238.718 177.68C236.158 180.733 232.518 184.748 230.629 186.602C227.437 189.735 227.296 190.128 228.633 192.209C235.073 202.226 238.185 206.617 240.67 209.191C242.257 210.836 245.013 214.394 246.794 217.096C248.573 219.799 251.755 223.389 253.865 225.074C257.358 227.865 258.347 228.137 264.998 228.137C271.649 228.137 272.638 227.865 276.131 225.074C278.241 223.389 281.424 219.799 283.206 217.096C284.989 214.394 287.956 210.612 289.8 208.692C291.645 206.772 294.317 203.182 295.739 200.714C297.161 198.246 299.4 194.916 300.714 193.313L303.103 190.399L298.021 184.929C282.578 168.301 281.252 167.564 270.421 169.577C266.833 170.244 263.287 170.306 260.865 169.744C255.113 168.41 250.42 168.657 246.701 170.488ZM286.107 177.11C294.988 186.566 295.068 187.212 286.652 181.515C283.088 179.103 280.833 178.468 273.347 177.766C268.362 177.299 260.605 177.306 255.991 177.782C248.944 178.508 246.783 179.196 242.061 182.214C235.567 186.365 235.859 184.722 242.9 177.483L247.308 172.95H264.754H282.201L286.107 177.11ZM54.6218 177.529C53.0501 179.1 50.8857 179.239 32.9537 178.92L13.0319 178.566V181.987C13.0319 186.675 16.4017 189.74 21.5778 189.76C31.6834 189.8 29.3872 193.917 15.2232 201.157C1.02331 208.416 -1.96036 211.261 1.25682 214.476C3.19272 216.41 8.56633 215.859 14.7492 213.092C22.0927 209.805 25.0065 208.659 25.0065 209.059C25.0065 209.234 21.4011 212.417 16.9955 216.133C12.5888 219.85 8.50945 223.776 7.92968 224.859C6.52865 227.474 7.5894 231.349 9.90849 232.085C13.0099 233.068 16.5315 231.059 23.9338 224.081C27.8166 220.42 30.9938 217.751 30.9938 218.149C30.9938 218.547 29.6367 220.883 27.9782 223.338C19.575 235.782 18.9523 241.6 26.0243 241.6C28.1698 241.6 29.6127 240.181 34.0563 233.704C37.035 229.361 39.6036 225.939 39.7632 226.098C39.9229 226.258 39.2992 229.099 38.3782 232.412C36.5331 239.041 36.8245 240.912 39.9618 242.59C43.3616 244.409 47.1715 239.413 49.9856 229.446C52.0053 222.291 52.9074 220.639 56.5786 217.377C60.7258 213.69 66.9177 204.274 66.9177 201.656C66.9177 200.936 67.8617 198.399 69.0153 196.018C70.3534 193.253 70.8863 190.786 70.4861 189.196C69.7058 186.086 63.498 179.123 59.8078 177.215C56.395 175.452 56.7203 175.432 54.6218 177.529ZM63.1098 183.759C68.0912 188.923 68.9823 191.608 66.4188 193.734C65.5955 194.417 64.9219 195.971 64.9219 197.187C64.9219 201.006 58.9715 211.496 54.7655 215.095C51.2858 218.071 50.2341 220.024 47.0997 229.324C44.5122 237.003 42.9655 240.196 41.7211 240.426C39.2633 240.88 39.4549 237.879 42.5573 227.341C44.9542 219.2 45.1648 215.649 43.2489 215.688C42.8208 215.696 39.8012 219.848 36.5391 224.912C29.2545 236.225 27.1979 238.608 24.7241 238.608C21.7255 238.608 23.1405 235.015 30.6535 223.556C35.8785 215.588 36.9731 213.288 35.8755 212.593C35.1121 212.109 34.213 211.707 33.8787 211.699C33.5434 211.691 29.1038 215.521 24.0106 220.211C17.4785 226.227 14.1305 228.65 12.6447 228.437C8.79984 227.89 10.4424 225.324 20.0171 216.922C34.3846 204.313 33.4107 202.143 16.5534 209.202C10.5751 211.704 5.0917 213.525 4.36823 213.248C1.22389 212.042 3.7655 209.786 14.2792 204.451C20.4541 201.318 27.13 197.759 29.1148 196.542L32.7242 194.33L35.9274 197.024C39.1615 199.743 41.9706 200.54 41.9706 198.738C41.9706 196.633 28.4612 187.848 23.5775 186.779C18.5801 185.683 16.0255 184.267 16.0255 182.591C16.0255 182.047 23.6923 181.735 34.5802 181.835C50.5065 181.983 53.3644 181.779 54.7515 180.391C57.1344 178.01 57.8389 178.294 63.1098 183.759ZM273.979 182.054C266.88 183.287 262.756 183.267 256.017 181.967C251.855 181.164 253.427 181.006 265.497 181.01C278.71 181.014 279.446 181.103 273.979 182.054ZM247.991 183.625C246.322 184.643 243.744 186.914 242.263 188.672C239.9 191.479 236.919 192.135 237.753 189.664C238.218 188.288 247.84 181.884 249.531 181.826C250.354 181.799 249.662 182.607 247.991 183.625ZM287.645 185.888C292.498 189.182 293.401 190.185 292.143 190.889C290.956 191.552 289.336 190.538 285.564 186.769C282.812 184.018 280.789 181.768 281.066 181.768C281.344 181.768 284.305 183.621 287.645 185.888ZM261.643 187.49C262.203 188.049 262.909 190.355 263.213 192.616C263.954 198.141 265.949 197.817 267.076 191.989C267.917 187.639 268.286 187.179 271.597 186.362C276.367 185.184 280.092 186.227 283.587 189.719C285.86 191.991 286.453 193.476 286.452 196.898C286.451 204.615 281.783 214.282 275.076 220.461C270.916 224.292 270.077 224.647 265.181 224.647C260.871 224.647 259.14 224.114 256.279 221.905C251.51 218.221 247.189 211.538 244.601 203.839C242.042 196.221 242.871 192.24 247.856 188.213C250.515 186.067 251.804 185.718 255.826 186.063C258.466 186.288 261.083 186.93 261.643 187.49ZM236.507 194.012C238.053 195.077 239.395 197.441 240.161 200.448C240.826 203.063 241.266 205.309 241.138 205.441C240.725 205.862 232.095 192.296 231.786 190.742C231.53 189.45 231.664 189.456 232.776 190.788C233.485 191.636 235.163 193.087 236.507 194.012ZM298.427 190.605C298.427 191.078 297.192 193.058 295.683 195.004C294.174 196.952 291.945 200.267 290.73 202.372L288.52 206.199L289.098 201.213C289.436 198.286 290.322 195.815 291.243 195.23C292.106 194.681 293.738 193.27 294.871 192.095C297.09 189.79 298.427 189.231 298.427 190.605ZM30.8731 203.457C32.2971 206.08 37.064 210.249 40.7911 212.129C46.017 214.765 46.7943 213.358 41.745 210.4C39.2403 208.934 36.0501 206.378 34.6561 204.723C31.859 201.4 29.2904 200.541 30.8731 203.457ZM86.0951 246.075C88.1358 246.905 91.81 247.583 94.2598 247.583C97.8751 247.583 98.8381 247.969 99.365 249.626C100.207 252.281 97.4131 256.557 94.8356 256.557C93.3008 256.557 92.8627 255.88 92.8627 253.507C92.8627 251.727 92.4466 250.713 91.8649 251.073C91.316 251.412 90.867 254.104 90.867 257.056C90.867 260.008 90.39 262.718 89.8062 263.078C88.4611 263.909 84.9764 260.813 83.5894 257.555C82.5316 255.072 82.5256 255.071 82.1375 257.305C81.9229 258.54 81.3621 259.549 80.8911 259.549C79.4851 259.549 75.8987 254.437 75.8987 252.434C75.8987 250.078 73.9149 249.965 73.87 252.319C73.842 253.783 73.5207 253.686 71.8742 251.71C69.3116 248.637 69.3905 245.537 72.1227 241.983C75.5684 237.499 76.196 237.424 79.3913 241.112C81.0378 243.013 84.0544 245.245 86.0951 246.075ZM186.51 256.807C195.085 283.943 200.634 312.394 200.634 329.225C200.634 334.451 198.754 335.336 187.662 335.336C175.441 335.336 175.95 335.821 169.737 318.247C166.758 309.821 162.38 298.728 160.007 293.595C153.058 278.56 141.759 258.915 141.759 261.869C141.759 262.112 142.371 263.766 143.119 265.544C144.392 268.568 144.227 269.395 140.587 278.301C136.292 288.81 131.089 306.181 128.21 319.63L126.341 328.356L117.336 328.35C107.925 328.345 101.753 327.182 100.067 325.098C98.7433 323.46 105.571 280.001 110.272 260.144C112.208 251.971 113.975 245.1 114.2 244.875C114.424 244.651 118.584 245.423 123.444 246.591C140.119 250.602 157.011 250.144 175.236 245.185C177.954 244.447 180.663 243.785 181.256 243.718C181.85 243.65 184.214 249.54 186.51 256.807ZM228.025 246.929C230.728 250.47 231.264 254.399 229.494 257.702C228.512 259.536 228.311 259.569 227.218 258.075C226.169 256.642 225.808 256.912 224.335 260.236C223.41 262.326 221.729 264.608 220.599 265.307C218.696 266.485 218.592 266.394 219.178 264.06C220.063 260.537 218.408 260.96 216.549 264.732C214.836 268.204 212.123 270.365 210.948 269.19C210.53 268.773 210.29 266.015 210.414 263.06C210.537 260.106 210.184 257.407 209.628 257.064C209.03 256.694 208.617 257.685 208.617 259.49C208.617 262.086 208.242 262.541 206.102 262.541C203.066 262.541 201.072 258.921 202.023 255.136C202.61 252.799 203.124 252.569 207.737 252.569C213.838 252.569 218.91 250.347 221.678 246.463C222.801 244.885 224.118 243.594 224.601 243.594C225.085 243.594 226.625 245.095 228.025 246.929ZM102.503 329.852C105.665 330.674 112.184 331.347 116.991 331.347C124.184 331.347 125.633 331.602 125.179 332.782C124.423 334.752 119.08 335.807 117.308 334.336C116.243 333.453 114.625 333.432 110.814 334.248C102.078 336.12 82.8839 335.46 82.8839 333.287C82.8839 332.357 92.5444 328.484 95.0591 328.408C95.9931 328.379 99.343 329.029 102.503 329.852ZM200.474 339.87C202.166 343.582 201.919 345.113 199.182 347.846C196.126 350.901 192.006 351.011 186.375 348.187C180.984 345.484 177.683 342.444 177.683 340.184C177.683 338.604 178.868 338.36 187.911 338.075C193.536 337.897 198.404 337.657 198.727 337.541C199.052 337.425 199.837 338.473 200.474 339.87Z" fill="#2dc92d"/>
</svg>
