<svg width="211" height="321" viewBox="0 0 211 321" fill="none" xmlns="http://www.w3.org/2000/svg">
<path fill-rule="evenodd" clip-rule="evenodd" d="M98.7607 2.05232C97.1107 3.14432 93.5967 4.32831 90.9527 4.68231C86.9547 5.21831 85.6067 5.98232 82.9527 9.21632C81.1967 11.3563 78.2997 13.8203 76.5127 14.6933C68.6167 18.5493 63.0397 31.8173 65.2647 41.4513C66.5217 46.8963 66.4887 47.6813 65.0607 46.2533C63.5477 44.7403 51.7587 44.6773 45.4537 46.1483C42.8727 46.7503 35.2147 49.9223 28.4357 53.1963C10.2407 61.9863 5.75273 67.3683 2.17473 84.6903L0.94873 90.6283L6.22073 98.5903C14.8067 111.556 18.5337 115.454 25.2137 118.451C30.2057 120.692 33.8247 123.791 46.3947 136.592C55.6427 146.01 62.8177 152.487 64.7957 153.202C67.6677 154.24 68.0987 154.897 68.5837 158.963C69.0017 162.475 68.5247 165.08 66.5507 170.053C65.1317 173.628 62.5987 181.053 60.9217 186.553C58.2197 195.413 57.8487 198.149 57.6657 210.553C57.3787 229.933 56.4087 239.057 54.3167 242.053C49.3047 249.23 48.9627 250.802 49.6937 263.306C50.2527 272.86 50.0797 276.066 48.8007 279.855L47.2137 284.553L38.1187 287.458C29.4117 290.24 28.9447 290.539 27.1637 294.458C24.8667 299.518 24.7337 303.637 26.8427 304.446C31.0627 306.066 37.5187 304.975 43.9667 301.553C49.3277 298.708 51.6527 298.053 56.3887 298.053C61.6167 298.053 62.3967 297.775 63.9877 295.349C65.1877 293.518 65.8017 290.505 65.8867 286.02C65.9997 280.021 66.3597 278.941 69.6927 274.574C76.0337 266.267 78.1497 260.943 78.4487 252.553C78.5367 250.068 80.0427 245.79 82.4257 241.255C84.5347 237.242 86.2607 233.12 86.2607 232.095C86.2607 231.07 89.9187 224.318 94.3887 217.09C101.104 206.232 102.886 204 104.639 204.25C106.217 204.475 108.737 208.117 114.466 218.451C122.556 233.045 125.716 237.17 130.237 239.043C133.924 240.57 137.021 247.781 137.569 256.114C138.111 264.351 140.675 270.191 148.449 280.891C153.598 287.978 155.327 291.53 159.416 303.429C163.908 316.501 165.901 320.053 168.741 320.053C169.344 320.053 171.503 319.204 173.539 318.166C175.574 317.129 178.707 316.002 180.5 315.663C185.209 314.773 190.261 311.411 190.261 309.166C190.261 308.112 185.982 302.749 180.752 297.249L171.243 287.248L171.867 274.401C172.576 259.783 172.147 258.105 163.852 243.11L159.304 234.888L160.332 227.499C162.455 212.231 156.305 194.482 141.993 174.575L135.538 165.597L137.052 161.075C137.885 158.588 139.998 154.946 141.749 152.983C143.499 151.019 146.009 147.494 147.327 145.149C149.103 141.99 153.483 138.087 164.242 130.078C194.382 107.642 193.25 108.649 202.789 95.8053L210.029 86.0573L208.653 78.8053C206.49 67.4113 202.428 60.2283 194.5 53.7823C180.786 42.6333 164.686 33.0533 159.66 33.0533C154.951 33.0533 149.353 35.2833 145.253 38.7913C141.036 42.4013 140.276 41.8583 142.777 37.0223C143.611 35.4093 144.315 31.7193 144.341 28.8213C144.367 25.9243 144.435 21.7963 144.493 19.6483C144.579 16.4513 144.021 15.2273 141.414 12.8983C137.416 9.32732 136.107 9.30132 136.473 12.8033C136.707 15.0393 136.317 15.6163 134.386 15.8893C132.697 16.1283 130.821 15.0683 127.886 12.2173C124.592 9.01632 122.754 8.07132 118.761 7.52532C114.862 6.99232 113.057 6.09531 110.562 3.44731C106.823 -0.519686 103.279 -0.938682 98.7607 2.05232ZM108.946 6.03231C111.615 9.80431 112.035 10.0113 117.033 10.0323C121.781 10.0513 122.738 10.4513 126.645 14.0533C130.092 17.2303 131.753 18.0533 134.716 18.0533C137.62 18.0533 138.566 17.6053 138.977 16.0323C139.845 12.7103 142.261 15.7023 142.261 20.0993C142.261 24.5463 138.265 30.0533 135.038 30.0533C133.901 30.0533 130.757 27.7813 127.955 24.9343C122.964 19.8643 122.869 19.8213 117.981 20.4003C114.201 20.8473 112.145 20.5243 109.194 19.0193C103.923 16.3303 102.773 16.5003 97.6107 20.7293C93.4057 24.1753 92.9207 24.3323 89.8717 23.2293C79.7337 19.5633 72.0367 25.9283 78.4077 32.7093L80.5547 34.9953L78.1577 36.9913C76.8397 38.0883 75.4597 39.0013 75.0927 39.0203C74.7247 39.0383 73.3907 40.7243 72.1287 42.7673C69.8577 46.4413 69.8267 46.4543 69.1467 44.0173C67.8037 39.1993 68.2307 29.9203 69.9657 26.2043C70.9037 24.1963 75.0527 19.3123 79.1867 15.3503C85.3307 9.46031 87.6157 7.92832 91.7117 6.94532C94.4677 6.28432 98.0807 4.91432 99.7417 3.90232C104.153 1.21132 105.806 1.59431 108.946 6.03231ZM110.203 22.1833C112.698 23.0523 114.363 23.0103 117.43 21.9973L121.415 20.6823L126.182 25.8683C128.804 28.7203 131.633 31.0533 132.469 31.0533C133.36 31.0533 135.173 33.6373 136.855 37.3033C139.364 42.7733 139.725 44.7393 139.742 53.0533C139.759 61.5623 139.454 63.1773 136.821 68.5403C133.325 75.6623 125.903 83.4063 120.009 86.0813C109.589 90.8113 95.3997 86.4563 85.3287 75.4373C82.5417 72.3873 80.2607 69.5343 80.2607 69.0973C80.2607 68.6603 78.8547 68.0223 77.1357 67.6783C74.2667 67.1043 74.0607 66.8023 74.6227 63.9913C74.9837 62.1873 74.6297 59.4793 73.7617 57.4003C71.9447 53.0523 72.6097 51.6243 78.9987 46.1473C81.9247 43.6403 83.1317 42.0633 82.1287 42.0593C81.2307 42.0563 78.6327 43.9163 76.3557 46.1933C74.0787 48.4703 72.5277 49.5213 72.9087 48.5293C73.3847 47.2883 73.2357 46.9513 72.4307 47.4483C70.7167 48.5073 71.0057 46.9843 73.2017 43.3823C74.2657 41.6383 77.2457 38.9743 79.8257 37.4623L84.5147 34.7143L81.8877 32.8003C78.6527 30.4433 78.4087 26.5803 81.3937 24.9823C83.3617 23.9293 87.5377 24.1653 92.8617 25.6303C94.0447 25.9563 95.5737 25.6003 96.3617 24.8163C100.19 21.0063 104.484 20.1893 110.203 22.1833ZM142.049 31.6393C142.207 32.6993 141.702 34.4353 140.927 35.4953C139.571 37.3503 139.461 37.3133 137.997 34.5193C136.619 31.8893 136.631 31.4993 138.119 30.3683C140.244 28.7543 141.688 29.2203 142.049 31.6393ZM97.7607 33.0533C94.5447 36.4103 95.5007 36.8603 100.64 34.4093C102.774 33.3923 103.889 32.2483 103.567 31.4093C102.748 29.2743 100.873 29.8053 97.7607 33.0533ZM126.446 32.8033C126.646 33.8583 127.866 34.6793 129.52 34.8693C132.966 35.2673 133.077 33.7463 129.714 32.2143C126.355 30.6833 126.054 30.7373 126.446 32.8033ZM169.705 40.0923C179.004 45.5263 188.724 52.5143 194.611 57.9963C200.255 63.2533 203.522 69.2003 205.844 78.4423L207.503 85.0503L203.44 90.4323C196.214 100.003 188.028 108.137 183.121 110.624C176.297 114.082 171.054 113.82 161.692 109.553C153.88 105.993 149.953 105.313 147.261 107.053C146.185 107.748 147.212 108.027 150.897 108.038C155.253 108.051 156.99 108.692 162.334 112.261C165.956 114.679 170.312 116.699 172.579 117.011L176.524 117.553L160.442 128.528C145.953 138.416 144.199 139.926 142.728 143.778C140.926 148.496 138.261 149.555 138.261 145.553C138.261 141.483 136.572 142.704 135.84 147.303C135.468 149.641 134.029 155.197 132.642 159.651C130.396 166.864 129.745 167.928 126.696 169.382C124.813 170.28 119.23 171.553 114.29 172.211C103.829 173.604 96.0757 172.572 85.6507 168.399C76.9337 164.909 73.9787 161.892 72.2907 154.756C70.8697 148.753 69.5837 146.912 68.2817 149.019C66.9187 151.224 62.2677 147.76 49.4117 134.963C37.6797 123.284 37.1797 122.624 39.4117 121.737C41.5907 120.872 41.4347 120.715 37.2607 119.572C30.1707 117.632 25.0017 115.172 21.8747 112.25C19.0737 109.633 3.26073 90.3513 3.26073 89.5533C3.26073 87.2053 8.85372 72.5083 11.0877 68.9863C14.4267 63.7213 23.1677 58.6663 39.2607 52.6903C51.6817 48.0783 53.4367 47.7023 58.7987 48.5063C62.3217 49.0353 64.1927 50.1003 67.3287 53.3643C71.6977 57.9113 72.8197 60.6883 71.8497 64.5533C71.4367 66.2013 70.5247 67.0533 69.1757 67.0533C66.0317 67.0533 63.2607 65.1913 63.2607 63.0773C63.2607 60.5563 64.9917 59.5853 66.8047 61.0893C68.6537 62.6243 68.6387 61.1363 66.7797 58.6823C65.7457 57.3163 64.6617 56.9873 62.7677 57.4623C61.0927 57.8823 59.1337 57.5003 57.2467 56.3863C53.2877 54.0473 52.1337 55.5793 55.7087 58.4293C58.1077 60.3433 58.3087 60.8213 56.9367 61.3473C55.9727 61.7173 55.0307 63.6413 54.6507 66.0153C53.9367 70.4823 53.9347 70.4843 51.1947 69.0183C48.5137 67.5833 48.7787 64.5783 51.7957 62.2043C54.2377 60.2833 54.2567 60.1873 52.3047 59.5673C49.4667 58.6663 48.9107 59.1993 44.7547 66.8063C36.9187 81.1503 29.5837 88.4323 20.2177 91.1653C16.2057 92.3363 16.0357 92.5023 18.5107 92.8263C20.5467 93.0923 21.2697 93.7533 21.2957 95.3693C21.3157 96.5703 21.9747 98.6783 22.7607 100.053C24.1377 102.463 24.1907 102.365 24.2257 97.3383C24.2527 93.3513 24.6877 91.8953 26.0727 91.1543C27.0687 90.6203 30.0987 88.3553 32.8037 86.1193C35.5097 83.8823 38.6327 82.0553 39.7427 82.0573C45.4557 82.0673 52.0387 90.1663 52.3387 97.5533C52.4057 99.2033 52.8547 101.678 53.3357 103.053C53.9347 104.762 54.1067 103.066 53.8797 97.6983L53.5477 89.8433L57.5117 90.4773C59.6917 90.8263 65.0337 92.4833 69.3827 94.1603C73.7317 95.8383 77.8107 97.0363 78.4477 96.8243C79.0837 96.6123 78.1777 95.8473 76.4327 95.1243C74.6877 94.4023 73.2607 93.4243 73.2607 92.9513C73.2607 91.5953 77.9447 90.7713 81.6747 91.4713C84.9837 92.0923 85.0927 92.0063 85.7167 88.3103C86.7687 82.0873 87.5757 81.4293 91.0917 83.9323C98.6817 89.3373 112.976 90.8193 121.652 87.1003L126.209 85.1463L127.262 89.0573C128.251 92.7293 130.261 95.4473 130.261 93.1123C130.261 91.2423 134.875 91.9803 138.48 94.4273L141.979 96.8013L143.657 93.9593C148.636 85.5313 153.071 82.4453 161.659 81.4363C167.147 80.7913 167.34 80.8583 174.659 85.9173C178.745 88.7423 182.449 91.0533 182.89 91.0533C183.332 91.0533 181.275 88.6043 178.319 85.6123L172.945 80.1703L175.651 79.4913C177.419 79.0473 180.277 79.5473 183.898 80.9333C186.945 82.0993 190.861 83.0513 192.6 83.0483C195.209 83.0443 193.976 82.1723 185.535 78.0483C179.91 75.3013 174.841 73.0533 174.27 73.0533C172.874 73.0533 169.269 67.0233 169.265 64.6813C169.262 63.1163 169.512 63.0163 170.785 64.0733C173.03 65.9363 173.394 64.8643 171.657 61.5073C169.324 56.9983 166.293 54.1943 163.388 53.8583C160.928 53.5723 160.767 53.2353 160.856 48.5533C160.946 43.8423 159.861 41.5643 158.059 42.6783C157.62 42.9493 157.261 45.3813 157.261 48.0823C157.261 52.4073 156.894 53.2653 154.183 55.2693C151.129 57.5273 151.123 57.5483 153.433 58.0943C159.663 59.5643 152.683 63.9183 146.081 62.6793L142.761 62.0563L142.794 52.8043L142.827 43.5533L150.113 39.8033C154.121 37.7413 158.613 36.0533 160.096 36.0533C161.579 36.0533 165.903 37.8713 169.705 40.0923ZM77.5767 41.3693C71.3267 47.2743 72.2737 48.2073 78.6437 42.4213C81.3297 39.9823 83.2687 37.7273 82.9517 37.4113C82.6347 37.0943 80.2157 38.8753 77.5767 41.3693ZM100.006 41.8033C99.1457 42.7663 98.2877 44.4533 98.1007 45.5533C97.8077 47.2753 98.3137 47.5533 101.747 47.5533C106.363 47.5533 107.608 45.1983 104.694 41.9793C102.55 39.6093 101.986 39.5883 100.006 41.8033ZM127.857 41.9473C125.226 44.8543 126.15 47.5533 129.775 47.5533C132.367 47.5533 132.724 47.2243 132.479 45.0573C132.324 43.6843 131.619 41.9833 130.912 41.2763C129.866 40.2293 129.299 40.3543 127.857 41.9473ZM115.261 42.0313C115.261 42.5693 116.471 45.4763 117.951 48.4933C120.489 53.6683 120.545 54.0823 118.951 55.8443C116.799 58.2213 116.815 59.0613 119.011 59.0223C119.974 59.0043 121.618 57.8153 122.666 56.3783C124.169 54.3173 124.326 53.4293 123.412 52.1603C122.775 51.2763 121.017 48.4223 119.507 45.8173C116.905 41.3313 115.261 39.8643 115.261 42.0313ZM78.1217 48.9673C76.8227 50.0203 75.9857 51.1043 76.2607 51.3773C76.5357 51.6503 78.1107 50.7913 79.7607 49.4683C81.4107 48.1453 82.2477 47.0613 81.6217 47.0583C80.9947 47.0553 79.4197 47.9143 78.1217 48.9673ZM79.4607 52.2533C78.8007 52.9133 78.2607 53.8133 78.2607 54.2533C78.2607 55.7263 79.7667 55.0733 81.0287 53.0533C82.3957 50.8633 81.3727 50.3413 79.4607 52.2533ZM162.714 57.2143C164.486 58.0213 165.263 59.1623 165.267 60.9643C165.275 65.0543 167.08 70.5073 169.705 74.3753C172.397 78.3423 171.622 79.2713 166.768 77.8993C158.301 75.5063 147.927 79.8803 143.874 87.5533C142.712 89.7533 141.635 91.7543 141.48 92.0003C141.326 92.2473 139.906 91.6843 138.326 90.7503C136.746 89.8173 134.108 89.0533 132.465 89.0533C130.116 89.0533 129.344 88.5213 128.853 86.5653C128.344 84.5353 128.966 83.4113 132.235 80.4573C134.439 78.4673 137.65 73.9773 139.371 70.4823L142.5 64.1253L145.331 65.5893C149.079 67.5283 150.581 67.4403 155.35 65.0083C159.912 62.6803 161.094 60.6173 159.41 57.9213C158.065 55.7673 159.068 55.5523 162.714 57.2143ZM99.9927 60.5893C96.2887 63.1063 95.6987 64.7573 97.1627 68.4993C97.8877 70.3503 97.9537 70.3373 98.5067 68.2213C99.0847 66.0093 99.1247 66.0163 105.508 69.5253C113.009 73.6483 118.411 74.0763 125.032 71.0713C127.381 70.0043 129.884 69.3553 130.594 69.6273C131.305 69.9003 132.488 68.9983 133.224 67.6223C134.33 65.5563 134.334 64.8463 133.25 63.5403C132.206 62.2823 131.773 62.2243 131.136 63.2563C130.606 64.1133 127.523 64.6393 122.048 64.8083C112.164 65.1113 103.565 62.7203 104.055 59.8033C104.429 57.5743 104.431 57.5743 99.9927 60.5893ZM59.4647 71.7993C60.0377 72.4893 62.0257 73.0533 63.8827 73.0533C66.2187 73.0533 67.2607 73.5163 67.2607 74.5533C67.2607 76.3473 67.3037 76.3443 61.7277 74.9403C57.8127 73.9543 57.2367 73.4433 56.6747 70.4483C56.3267 68.5893 56.4057 66.2773 56.8517 65.3113C57.4817 63.9473 57.7487 64.3363 58.0437 67.0493C58.2527 68.9723 58.8927 71.1093 59.4647 71.7993ZM111.05 65.4853C114.545 66.4153 118.956 66.7083 124.05 66.3483C129.52 65.9613 131.47 66.1143 130.761 66.8763C128.94 68.8313 117.972 71.1443 113.761 70.4603C109.985 69.8473 100.261 65.5803 100.261 64.5363C100.261 63.6033 105.815 64.0913 111.05 65.4853ZM67.1677 69.5333C70.7377 70.3173 70.3717 72.0533 66.6357 72.0533C62.7757 72.0533 60.2607 70.2643 60.2607 67.5183C60.2607 65.0973 60.2947 65.0873 62.1587 66.9513C63.2027 67.9953 65.4567 69.1573 67.1677 69.5333ZM54.2087 74.2503C55.0627 75.1843 58.3797 76.6123 61.5817 77.4243L67.4027 78.9003L70.0747 74.4773C71.5437 72.0443 73.4507 70.0533 74.3127 70.0533C75.1747 70.0533 77.9667 72.4713 80.5177 75.4263C84.5527 80.1003 85.0567 81.1723 84.3927 83.6763C83.7157 86.2283 82.8907 86.7343 77.0917 88.1543C73.4957 89.0343 70.0597 90.0593 69.4567 90.4323C68.8537 90.8053 66.6567 90.1973 64.5747 89.0813C62.3057 87.8653 58.9017 87.0533 56.0747 87.0533C53.0877 87.0533 51.0667 86.5413 50.5607 85.6563C50.1207 84.8883 47.9607 83.2323 45.7607 81.9763C43.5607 80.7193 41.6217 79.5973 41.4517 79.4803C41.0017 79.1723 44.1247 71.9213 45.3387 70.4593C46.1577 69.4733 47.0327 69.5613 49.5157 70.8823C51.2427 71.8013 53.3547 73.3173 54.2087 74.2503ZM113.261 76.0533C113.261 77.3293 118.287 77.3293 120.261 76.0533C121.36 75.3433 120.623 75.0803 117.511 75.0683C115.173 75.0603 113.261 75.5033 113.261 76.0533ZM94.9407 93.7073C93.9227 94.7243 96.9937 101.56 98.6097 101.876C100.546 102.256 100.747 100.215 99.1257 96.6553C97.9967 94.1783 95.9267 92.7203 94.9407 93.7073ZM105.261 97.9183C105.261 102.684 108.405 107.053 111.834 107.053C113.169 107.053 114.261 106.603 114.261 106.053C114.261 105.503 113.191 105.053 111.883 105.053C108.578 105.053 106.784 102.484 106.903 97.9243C106.959 95.7953 106.612 94.0533 106.133 94.0533C105.653 94.0533 105.261 95.7923 105.261 97.9183ZM76.8187 99.9593C76.2307 100.911 84.3447 104.053 87.3917 104.053C88.3677 104.053 92.5947 105.859 96.7867 108.067C103.769 111.744 106.261 112.285 106.261 110.125C106.261 109.148 96.3667 104.725 86.8357 101.44C79.2637 98.8303 77.6627 98.5933 76.8187 99.9593ZM127.261 104.493C120.578 107.928 116.4 111.525 117.646 112.771C118.034 113.16 119.297 112.887 120.452 112.166C121.607 111.444 126.424 108.822 131.157 106.337C141.598 100.856 141.384 101.042 137.178 101.102C135.299 101.129 130.836 102.655 127.261 104.493ZM112.71 114.169C113.125 116.03 113.772 120.253 114.149 123.553L114.834 129.553L115.485 125.053C116.317 119.295 115.171 111.852 113.359 111.25C112.249 110.882 112.114 111.489 112.71 114.169ZM59.8087 116.14C58.4407 123.057 61.6587 134.388 66.1437 138.447C67.9547 140.086 68.9927 140.221 73.9957 139.467C77.1667 138.988 85.1607 138.653 91.7607 138.721C102.87 138.836 105.181 138.379 105.244 136.053C105.251 135.778 99.0707 135.548 91.5087 135.542C71.1457 135.525 67.3997 133.401 62.7167 119.216L60.5177 112.553L59.8087 116.14ZM149.276 123.353C149.253 127.689 146.586 131.846 142.488 133.937C136.954 136.76 126.795 137.56 121.33 135.602C118.417 134.558 116.562 134.352 115.913 135.001C114.829 136.085 115.31 136.328 121.852 137.999C133.328 140.931 136.233 141.108 140.145 139.112C148.284 134.96 153.221 126.634 150.261 122.053C149.508 120.888 149.288 121.178 149.276 123.353ZM102.261 143.308C94.7707 146.366 90.2607 148.91 90.2607 150.079C90.2607 151.502 90.6747 151.388 99.3967 147.553C103.776 145.628 108.474 144.053 109.838 144.053C111.202 144.053 115.005 145.409 118.29 147.067C125.505 150.71 126.166 149.484 119.347 145.108C112.838 140.931 109.058 140.533 102.261 143.308ZM103.011 149.08C102.048 149.67 101.261 150.805 101.261 151.603C101.261 152.785 103.247 153.037 112.011 152.969L122.761 152.884L118.749 151.035C113.675 148.695 105.329 147.658 103.011 149.08ZM99.5107 159.023C94.4697 161.187 97.4047 162.052 109.511 161.971C121.441 161.892 121.67 161.849 118.261 160.342C114.051 158.479 102.645 157.677 99.5107 159.023ZM80.9267 170.017C83.7677 171.097 90.7427 172.936 96.4267 174.102C107.985 176.475 114.339 176.228 124.622 173.004C127.998 171.945 130.881 171.073 131.028 171.066C131.174 171.059 129.708 173.359 127.77 176.177C125.831 178.995 122.873 184.176 121.196 187.689C118.616 193.095 117.348 194.536 112.954 197.056C104.761 201.755 103.175 201.317 97.4037 192.765C93.9797 187.69 89.5777 183.084 82.9147 177.602C71.4577 168.175 70.9467 166.224 80.9267 170.017ZM139.282 175.775C145.206 183.599 150.684 194.239 152.812 202.053C153.636 205.078 154.586 212.278 154.923 218.053L155.537 228.553L153.084 226.303C150.904 224.302 148.261 223.307 148.261 224.487C148.261 224.725 149.627 227.118 151.297 229.804C153.853 233.916 154.429 236.057 154.945 243.37C155.592 252.531 156.761 254.565 157.781 248.303C159.116 240.115 159.593 240.253 164.307 250.176L168.761 259.553L168.739 271.353C168.722 280.295 168.381 283.361 167.335 284.007C166.283 284.657 168.2 287.415 175.357 295.551C187.231 309.047 187.12 308.886 185.281 310.032C182.71 311.636 176.279 312.313 174.855 311.131C173.801 310.256 173.39 310.66 172.914 313.037C172.463 315.293 171.758 316.053 170.115 316.053C167.217 316.053 164.261 313.286 164.261 310.573C164.261 304.941 157.735 289.624 151.257 280.053C144.36 269.862 141.857 264.077 141.427 257.326C141.101 252.204 141.29 251.127 142.437 251.567C143.332 251.91 142.551 249.36 140.304 244.598C137.091 237.788 136.389 236.97 132.767 235.821C129.523 234.791 127.871 233.24 123.96 227.553C121.312 223.703 117.124 216.524 114.653 211.601L110.16 202.648L113.608 200.879C115.504 199.906 118.714 197.185 120.741 194.832C124.598 190.354 133.261 173.696 133.261 170.757C133.261 169.82 133.471 169.053 133.727 169.053C133.984 169.053 136.484 172.078 139.282 175.775ZM90.0617 189.01C92.4267 190.82 95.6547 194.565 97.2347 197.332L100.108 202.362L90.7237 210.447C85.0927 215.299 81.7027 218.895 82.2487 219.441C82.7947 219.987 84.2277 219.65 85.8327 218.598C88.9097 216.582 88.4737 217.594 83.6947 223.553C80.1827 227.933 76.2707 234.12 76.2647 235.303C76.2627 235.716 76.9357 236.053 77.7607 236.053C80.2747 236.053 79.4557 238.599 75.3377 243.582C71.9037 247.738 71.5397 248.655 72.4117 250.941C73.6007 254.059 72.6647 261.349 70.5377 265.54C69.6967 267.197 66.8157 271.533 64.1347 275.175C59.1907 281.892 57.6387 285.637 60.9227 282.925C62.4387 281.673 62.5337 281.932 62.0077 285.881C61.2837 291.306 58.8837 294.051 54.8557 294.06C53.1537 294.063 50.4107 294.986 48.7607 296.111C43.6207 299.614 36.4207 303.053 34.2287 303.053C31.2357 303.053 28.0817 301.152 28.8937 299.838C29.2717 299.225 29.6847 297.423 29.8097 295.834C29.9347 294.244 30.2477 292.732 30.5067 292.474C30.7647 292.216 34.9777 290.612 39.8687 288.91C44.7587 287.208 49.0987 285.307 49.5107 284.685C51.5407 281.623 52.5367 274.498 52.3597 264.306C52.1967 254.952 52.4997 252.3 54.1617 248.544C55.2597 246.061 56.8637 243.759 57.7257 243.428C58.9767 242.948 59.2537 241.344 59.1017 235.448C58.8987 227.597 59.2687 226.458 61.7177 227.398C62.8497 227.832 63.2607 229.455 63.2607 233.486C63.2607 237.897 63.6427 239.187 65.1947 240.018C66.2587 240.587 67.3057 241.053 67.5207 241.053C68.1057 241.053 64.6537 221.091 63.3717 217.06C62.7607 215.138 62.2657 209.738 62.2727 205.06C62.2897 192.563 65.2707 182.992 71.0797 176.785L73.6697 174.016L79.7157 179.868C83.0407 183.086 87.6957 187.2 90.0617 189.01ZM140.492 236.906C139.501 237.522 139.697 238.835 141.385 242.897C142.574 245.759 143.669 247.977 143.817 247.827C143.965 247.676 143.564 244.98 142.924 241.835C142.072 237.645 141.422 236.328 140.492 236.906Z" fill="#2dc92d"/>
</svg>
