<svg width="44" height="88" viewBox="0 0 44 88" fill="none" xmlns="http://www.w3.org/2000/svg">
<path fill-rule="evenodd" clip-rule="evenodd" d="M19.8708 0.991336C18.5113 1.45539 16.0527 2.42798 14.4072 3.15217C12.7617 3.87637 10.2431 5.31116 8.81013 6.33998C7.37781 7.36942 5.31275 9.68412 4.22152 11.4841C3.07344 13.378 1.82709 16.6888 1.26294 19.3427C0.630197 22.3198 0.400966 25.507 0.60982 28.4272C0.802609 31.1207 1.44214 33.9712 2.2034 35.5332C2.90226 36.9674 4.74056 39.7474 6.28781 41.7105C8.42332 44.4194 10.0274 45.7158 12.9415 47.0863C15.0535 48.0793 17.5375 49.0488 18.4625 49.2398C19.9764 49.5524 20.0839 49.744 19.5439 51.1646C19.2139 52.0321 18.9439 53.1654 18.9439 53.6832C18.9439 54.4352 19.4296 54.5421 21.3599 54.2158C23.4108 53.8692 23.8328 53.9884 24.156 55.0067C24.3654 55.6667 24.5731 57.1725 24.6176 58.3533C24.6614 59.5342 24.4927 60.8324 24.2425 61.2378C23.9916 61.6437 24.2517 63.4554 24.8208 65.2641C25.8299 68.4717 25.8219 68.6187 24.4971 71.2152C23.155 73.8456 23.1519 73.9155 24.2443 77.1298C25.2682 80.1422 25.2793 80.6371 24.392 83.8237C23.8655 85.7163 23.5504 87.2648 23.6925 87.2648C23.834 87.2648 24.3531 86.3003 24.8456 85.1219C25.338 83.9436 25.7409 82.1399 25.7409 81.1141C25.7409 80.089 25.4072 78.0029 25 76.4786C24.3667 74.1113 24.4118 73.3865 25.309 71.5056C25.8861 70.2945 26.3588 68.6496 26.3588 67.85C26.3588 67.0511 25.9664 65.641 25.4869 64.7166C24.8289 63.448 24.7714 62.5873 25.2522 61.2075C25.6031 60.2015 25.7354 58.4269 25.5463 57.2633C25.2923 55.6976 25.4783 54.9449 26.2612 54.3678C26.9533 53.8587 27.3135 52.7532 27.3024 51.1763C27.2863 48.8462 27.4124 48.6985 31 46.8509C33.0434 45.7986 35.6065 44.2996 36.6959 43.5198C37.9274 42.638 39.5611 40.3115 41.0145 37.3703C43.2754 32.7928 43.3508 32.4276 43.3403 26.1212C43.3316 21.1198 43.0054 18.5666 41.9395 15.1483C41.1751 12.6977 39.3628 8.94386 37.9113 6.80651C36.1775 4.25268 34.459 2.51881 32.9007 1.75013C31.5332 1.07661 28.794 0.488974 26.4354 0.364156C24.0169 0.236248 21.3309 0.492681 19.8708 0.991336ZM31.6111 4.70375C33.3103 5.50889 35.5898 7.10496 36.6773 8.25118C37.7643 9.39679 39.2936 11.7251 40.0759 13.4243C41.3191 16.1259 41.4977 17.484 41.4977 24.2378C41.4977 31.1665 41.3426 32.2799 39.9918 35.0513C39.1632 36.7505 36.9264 39.6702 35.0207 41.5393C33.1151 43.4085 30.2869 45.5638 28.7353 46.3282C26.9588 47.2037 24.7801 47.7185 22.8503 47.7185C21.1653 47.7185 18.3291 47.2859 16.5476 46.757C14.7594 46.2256 12.2877 44.868 11.0284 43.7255C9.77469 42.5873 7.80294 40.0885 6.64806 38.1717C5.49318 36.2556 4.03306 33.1271 3.40402 31.2202C2.77499 29.3133 2.26334 26.6149 2.26705 25.2234C2.27075 23.8318 2.66314 21.409 3.13955 19.8389C3.61596 18.2694 4.62253 15.7668 5.37639 14.2777C6.13024 12.7891 7.31107 10.771 8.00004 9.79287C8.69767 8.8036 10.9802 7.20753 13.1497 6.1923C15.2933 5.18881 18.3773 4.14454 20.0036 3.87142C21.6299 3.59769 24.2116 3.34434 25.7409 3.30727C27.5007 3.26525 29.6554 3.77812 31.6111 4.70375ZM29.4484 8.90494C29.4484 9.30781 30.028 10.2545 30.7367 11.0089C31.4455 11.7634 32.4063 13.4497 32.8722 14.7559C33.6329 16.8877 33.7225 16.9594 33.7466 15.4542C33.7633 14.4272 33.023 12.9207 31.8379 11.5712C30.7732 10.3589 30.0688 9.19906 30.2733 8.99515C30.4772 8.79062 31.4949 8.97599 32.5342 9.40606C33.5736 9.83675 34.933 10.9169 35.5552 11.8066C36.1781 12.6964 36.9826 14.2585 37.3441 15.2781C37.8223 16.6264 38.0145 16.7951 38.0479 15.896C38.0738 15.2163 37.5418 13.7537 36.8664 12.6464C36.191 11.5385 34.7328 10.0802 33.6249 9.40483C32.5176 8.72945 31.1242 8.1758 30.5297 8.17456C29.9353 8.17333 29.4484 8.50144 29.4484 8.90494ZM8.17244 18.186C7.6398 18.9466 7.20355 19.8803 7.20355 20.2597C7.20355 20.6391 7.93454 21.2829 8.82804 21.6902C9.72154 22.0974 10.5891 22.2939 10.7559 22.127C10.9228 21.9602 10.8764 20.8473 10.6521 19.6541C10.4284 18.4603 9.99713 17.3308 9.69374 17.1429C9.39034 16.9557 8.70569 17.4247 8.17244 18.186ZM35.9365 18.4443L34.0827 19.3476L35.9365 18.9682C36.956 18.76 38.0547 18.3306 38.3772 18.0148C38.748 17.6521 38.748 17.4593 38.3772 17.4908C38.0547 17.5186 36.956 17.9475 35.9365 18.4443ZM35.3606 22.8148C35.0201 23.7083 35.0905 23.7756 35.7146 23.1565C36.1422 22.732 36.8541 22.3841 37.2959 22.3841C37.7377 22.3841 38.0992 22.9495 38.0992 23.6397C38.0992 24.3546 37.5004 25.1505 36.7089 25.4872C35.3389 26.0705 35.3408 26.0773 36.8633 25.9309C38.135 25.8085 38.4081 25.4545 38.4081 23.9288C38.4081 22.5101 38.1004 22.0312 37.0963 21.8879C36.2813 21.7717 35.6244 22.1227 35.3606 22.8148ZM25.3652 50.4842C26.1494 51.6811 26.171 52.0482 25.4913 52.6129C24.8777 53.1221 24.4705 53.056 23.8872 52.3528C23.2847 51.6274 22.9078 51.5748 22.2454 52.1242C21.7727 52.5165 21.2079 52.6605 20.991 52.4436C20.7741 52.2267 20.886 51.4142 21.2394 50.6387C21.5929 49.8632 22.4524 49.186 23.15 49.1335C23.8724 49.0785 24.8252 49.6599 25.3652 50.4842Z" fill="#2DC92D"/>
</svg>
