<svg width="329" height="155" viewBox="0 0 329 155" fill="none" xmlns="http://www.w3.org/2000/svg">
<path d="M116.262 153.999C103.002 153.259 91.4078 149.811 80.5843 143.391C76.1114 140.737 72.8868 138.376 68.5896 134.607C59.6404 126.757 52.3783 116.286 47.9387 104.829C47.2001 102.923 45.858 98.8658 45.654 97.9223L45.5385 97.3879H50.3746C53.0344 97.3879 60.0013 97.4371 65.8564 97.4973L76.5022 97.6066L76.8806 98.4426C78.6305 102.308 79.5979 104.522 79.5979 104.66C79.5979 104.751 77.8224 106.634 75.6524 108.845C73.4825 111.056 71.5033 113.211 71.2544 113.635C70.8833 114.266 70.8028 114.597 70.8074 115.473C70.8111 116.143 70.9134 116.726 71.082 117.035C71.3311 117.492 78.6007 124.824 79.9469 125.976C80.7996 126.706 81.8546 127.139 82.7931 127.143C84.3223 127.149 84.2939 127.173 91.4696 120.102C93.2496 118.348 93.4228 118.219 93.7714 118.393C93.9787 118.496 95.2581 119.039 96.6145 119.601C97.9709 120.162 100.597 121.262 102.451 122.046C104.305 122.83 106.874 123.91 108.161 124.446L110.5 125.42L110.503 131.433C110.507 137.953 110.563 138.434 111.42 139.358C112.39 140.404 112.203 140.382 119.879 140.382H126.866L127.573 139.977C128.298 139.562 128.797 138.916 129.129 137.962C129.251 137.614 129.35 135.259 129.407 131.342L129.497 125.261L130.648 124.795C141.207 120.522 146.566 118.418 146.727 118.484C146.835 118.528 150.546 122.105 154.973 126.431C159.4 130.758 163.82 135.069 164.797 136.011C165.773 136.953 166.572 137.77 166.572 137.827C166.572 138.092 161.744 141.452 158.943 143.136C156.44 144.641 150.653 147.535 148.158 148.53C136.943 152.335 127.065 154.607 116.262 153.999ZM121.822 112.284C120.77 112.001 119.918 111.308 119.503 110.399C119.195 109.723 119.149 109.262 119.092 106.321C119.051 104.217 119.097 102.674 119.216 102.099C119.475 100.85 120.13 100.003 121.215 99.5132C122.067 99.1288 122.253 99.1129 126.501 99.0615C129.211 99.0286 131.359 99.0789 132.089 99.1922C134.095 99.5034 135.181 100.402 135.429 101.958C135.539 102.642 135.535 102.649 135.043 102.649C134.522 102.649 134.347 102.422 134.347 101.744C134.347 101.203 133.627 100.409 132.903 100.153C132.449 99.9919 131.005 99.9363 127.277 99.9363C122.318 99.9363 122.255 99.941 121.59 100.322C120.327 101.046 120.29 101.203 120.29 105.773C120.29 109.673 120.302 109.82 120.662 110.4C121.392 111.573 121.598 111.61 127.553 111.61C132.64 111.61 132.861 111.597 133.297 111.271C134.267 110.546 134.429 110.152 134.429 108.515V107.006L130.935 106.962C127.578 106.919 127.442 106.905 127.442 106.592C127.442 106.276 127.565 106.266 131.573 106.266H135.705L135.631 108.049C135.517 110.82 134.805 111.919 132.853 112.337C131.66 112.593 122.811 112.551 121.822 112.284ZM213.429 112.343C211.547 111.961 210.774 111.217 210.663 109.68L210.595 108.732H211.108C211.603 108.732 211.621 108.756 211.621 109.448C211.621 109.919 211.748 110.352 211.993 110.715C212.604 111.623 213.189 111.71 218.362 111.656C223.395 111.604 223.747 111.536 224.364 110.497C224.796 109.77 224.809 107.829 224.386 107.184C223.863 106.385 223.414 106.313 218.362 106.218C214.745 106.15 213.484 106.071 212.835 105.87C211.15 105.347 210.594 104.555 210.583 102.656C210.576 101.342 210.728 100.889 211.429 100.138C212.154 99.3598 213.146 99.167 216.882 99.0765C223.207 98.9234 224.995 99.4964 225.363 101.794L225.473 102.485H224.877C224.327 102.485 224.28 102.447 224.28 102.002C224.28 101.117 223.994 100.677 223.171 100.297C222.429 99.9543 222.172 99.9363 218.033 99.9363C213.344 99.9363 212.816 100.011 212.097 100.776C211.76 101.134 211.695 101.392 211.647 102.539C211.597 103.727 211.633 103.936 211.956 104.347C212.157 104.602 212.515 104.893 212.752 104.994C213.017 105.107 215.11 105.216 218.197 105.277C222.472 105.363 223.309 105.42 223.869 105.666C225.231 106.264 225.758 107.142 225.758 108.815C225.758 110.57 225.066 111.694 223.69 112.173C222.916 112.442 214.597 112.58 213.429 112.343ZM249.29 112.336C248.169 112.116 247.438 111.659 247.062 110.941C246.742 110.331 246.72 109.979 246.671 104.745L246.62 99.1966H247.198H247.775L247.824 104.745C247.869 109.767 247.902 110.336 248.169 110.73C248.732 111.558 249.103 111.61 254.532 111.61C259.067 111.61 259.599 111.581 260.094 111.311C261.065 110.781 261.109 110.492 261.109 104.545V99.1966H261.684H262.259V104.428C262.259 110.516 262.171 111.094 261.143 111.765C260.807 111.983 260.094 112.241 259.558 112.338C258.41 112.545 250.346 112.544 249.29 112.336ZM295.446 112.292C294.493 112.028 293.964 111.686 293.439 110.996C292.756 110.1 292.648 109.265 292.705 105.352C292.754 102.003 292.784 101.696 293.121 101.067C293.32 100.694 293.707 100.201 293.98 99.9712C294.947 99.1574 295.311 99.1143 301.225 99.1143C306.649 99.1143 306.746 99.1199 307.584 99.4994C308.443 99.888 309.055 100.567 309.46 101.581C309.732 102.262 309.858 107.54 309.636 108.966C309.397 110.498 308.794 111.457 307.719 112.009L306.897 112.432L301.554 112.468C297.601 112.494 296.011 112.449 295.446 112.292ZM306.568 111.511C307.311 111.308 307.87 110.854 308.268 110.13C308.489 109.727 308.549 109.005 308.595 106.171C308.658 102.254 308.548 101.554 307.736 100.742C306.893 99.8989 306.347 99.8311 300.846 99.8865C296.264 99.9326 295.832 99.9617 295.235 100.265C293.946 100.92 293.915 101.033 293.858 105.333C293.83 107.429 293.849 109.369 293.9 109.644C294.032 110.356 294.784 111.175 295.553 111.446C296.385 111.739 305.534 111.793 306.568 111.511ZM316.23 112.348C315.355 112.166 314.49 111.76 314.131 111.362C313.766 110.959 313.408 109.935 313.399 109.267C313.392 108.786 313.439 108.732 313.866 108.732C314.316 108.732 314.346 108.777 314.45 109.615C314.584 110.688 315.1 111.254 316.19 111.526C316.679 111.648 318.452 111.694 321.369 111.661C325.27 111.616 325.877 111.573 326.408 111.309C327.234 110.899 327.531 110.205 327.531 108.689C327.531 107.28 327.238 106.732 326.336 106.456C326.044 106.366 323.733 106.255 321.201 106.21C315.805 106.113 315.132 105.996 314.192 104.988C313.7 104.46 313.564 104.165 313.471 103.426C313.223 101.436 313.873 100.081 315.362 99.4873C316.216 99.1464 316.525 99.1252 320.708 99.1199C324.6 99.1153 325.262 99.152 326.077 99.4199C327.376 99.8462 328.046 100.569 328.151 101.653L328.23 102.485H327.716C327.253 102.485 327.202 102.435 327.202 101.983C327.202 101.134 326.792 100.571 325.931 100.239C325.241 99.9725 324.628 99.9364 320.79 99.9364C316.758 99.9364 316.385 99.961 315.786 100.265C314.777 100.778 314.488 101.297 314.473 102.617C314.458 103.925 314.711 104.526 315.441 104.919C315.859 105.145 316.756 105.205 320.954 105.288C326.128 105.391 326.584 105.45 327.575 106.14C328.479 106.77 328.863 108.299 328.525 109.927C328.373 110.663 328.206 110.964 327.698 111.424C327.347 111.74 326.778 112.088 326.433 112.198C325.668 112.44 317.266 112.564 316.23 112.348ZM138.622 112.255C138.622 112.127 139.188 111.152 141.366 107.531C142.388 105.83 143.225 104.415 143.225 104.387C143.225 104.359 143.914 103.198 144.756 101.808L146.287 99.2788L147.183 99.2306L148.08 99.1825L149.909 102.272C150.914 103.972 152.109 105.991 152.564 106.76C153.019 107.528 153.748 108.747 154.186 109.467C154.623 110.188 155.188 111.136 155.442 111.574L155.904 112.37L155.303 112.319C154.742 112.271 154.645 112.174 153.847 110.87L152.993 109.472H147.167H141.341L140.516 110.905C139.748 112.236 139.653 112.337 139.156 112.343C138.862 112.347 138.622 112.307 138.622 112.255ZM152.104 108.211C152.104 108.015 151.352 106.591 150.433 105.046C149.514 103.502 148.497 101.779 148.172 101.217C147.521 100.09 147.035 99.8813 146.623 100.553C144.67 103.74 142.239 108.011 142.239 108.254C142.239 108.556 142.428 108.568 147.171 108.568H152.104V108.211ZM159.173 105.773V99.1965H160.309H161.444L163.802 102.575C165.099 104.433 166.764 106.819 167.5 107.877C169.29 110.448 169.505 110.705 169.86 110.705C170.059 110.705 170.553 110.148 171.284 109.102C172.654 107.143 173.829 105.454 175.032 103.718C175.534 102.994 176.283 101.922 176.699 101.334C177.114 100.746 177.602 100.025 177.783 99.7309C178.107 99.2059 178.134 99.1965 179.33 99.1965H180.547V105.773V112.349H179.973H179.4L179.357 106.39L179.314 100.43L178.903 100.389C178.543 100.353 178.291 100.643 176.9 102.691C176.024 103.979 174.434 106.293 173.365 107.833C172.296 109.372 171.163 111.016 170.847 111.486C170.067 112.644 169.596 112.663 168.852 111.569C168.294 110.748 161.772 101.352 161.324 100.723C161.181 100.522 160.898 100.355 160.694 100.353L160.324 100.347V106.348V112.349H159.749H159.173L159.173 105.773ZM184.821 105.773V99.1965H191.234H197.646V99.6055V100.014L191.85 100.058L186.055 100.101L186.009 102.608L185.964 105.115H191.558H197.152V105.524V105.933L191.603 105.976L186.055 106.02V108.732V111.445L191.85 111.488L197.646 111.532V111.941V112.35H191.233H184.821L184.821 105.773ZM235.421 106.225L235.378 100.101L231.884 100.056L228.391 100.012V99.6043V99.1965H236.036H243.681V99.6043V100.012L240.187 100.056L236.693 100.101L236.65 106.225L236.607 112.349H236.036H235.464L235.421 106.225ZM266.534 105.773V99.1965L272.33 99.1975C275.528 99.1981 278.595 99.2749 279.173 99.3687C282.019 99.8305 282.811 101.229 282.811 105.793C282.811 110.091 281.972 111.583 279.227 112.165C278.675 112.282 276.191 112.349 272.445 112.349H266.534V105.773ZM279.44 111.344C280.377 111.085 281.238 110.125 281.512 109.034C281.84 107.723 281.798 103.48 281.445 102.297C281.122 101.217 280.378 100.458 279.376 100.188C278.968 100.078 276.72 100.03 273.249 100.057L267.767 100.101L267.724 105.607C267.7 108.636 267.716 111.207 267.76 111.321C267.865 111.596 278.453 111.617 279.44 111.344ZM286.921 105.773V99.1965H287.497H288.072V105.773V112.349H287.497H286.921V105.773ZM0.680176 77.4942C0.680176 67.7391 0.736242 62.6971 0.844585 62.6971C0.935011 62.6971 1.009 62.7711 1.009 62.8615C1.009 62.9699 5.81848 63.0262 15.1073 63.0266C30.6441 63.0273 31.1553 63.0551 33.484 64.0245C36.2728 65.1855 37.4922 67.4743 37.2878 71.1643C37.1888 72.9511 36.8874 74.1334 36.3139 74.9854C35.8743 75.6383 34.7314 76.4006 33.7681 76.6834C33.2054 76.8486 33.0693 76.963 33.0693 77.2704C33.0693 77.5527 33.1872 77.6789 33.5214 77.7542C34.904 78.0655 35.3484 78.2324 36.1346 78.7353C37.8164 79.8111 38.4373 81.6589 38.2909 85.1521C38.1684 88.0747 37.4183 89.5968 35.5355 90.7435C33.6037 91.92 34.4384 91.8673 16.8336 91.9232C6.79106 91.955 1.009 92.0314 1.009 92.1323C1.009 92.2197 0.934964 92.2913 0.844585 92.2913C0.736195 92.2913 0.680176 87.2493 0.680176 77.4942ZM28.657 85.1568C29.4702 84.7364 29.8474 83.8865 29.7488 82.6969C29.6539 81.5533 29.2898 81.0058 28.3286 80.5615C27.5776 80.2144 27.376 80.2059 18.7097 80.1579C12.1255 80.1214 9.79855 80.158 9.62599 80.3013C9.44552 80.4511 9.394 81.0309 9.394 82.9125C9.394 84.2427 9.44568 85.3828 9.50879 85.4459C9.57193 85.5091 13.7706 85.5399 18.8392 85.5145C27.5092 85.471 28.0904 85.4497 28.657 85.1568ZM27.798 74.3988C28.6729 73.9295 28.9958 73.1901 28.9094 71.8531C28.8478 70.9007 28.7674 70.6607 28.3705 70.2465C28.1139 69.9786 27.642 69.6839 27.3217 69.5914C26.9481 69.4836 23.6461 69.4407 18.1078 69.4718L9.47621 69.5202L9.43095 72.1097L9.38569 74.6992H18.3118C26.6426 74.6992 27.2752 74.6791 27.798 74.3988ZM206.77 92.1101C203.141 91.6292 201.459 90.6526 200.41 88.4175C199.907 87.3451 199.871 87.146 199.81 85.0982L199.745 82.9198H203.956H208.168V83.5426C208.168 84.416 208.789 85.5564 209.483 85.9576C210.034 86.276 210.378 86.2923 217.539 86.3391C225.484 86.3909 226.069 86.3465 227.017 85.6253C227.946 84.9173 228.161 82.6864 227.394 81.7112C226.616 80.7215 224.606 80.458 217.786 80.4518C208.979 80.4434 204.677 80.0375 202.691 79.0262C201.243 78.2882 200.216 76.7466 199.951 74.9105C199.738 73.4385 199.742 69.9579 199.957 68.616C200.515 65.1474 202.743 63.4869 207.675 62.8632C209.379 62.6477 225.99 62.6532 227.737 62.8697C230.738 63.2416 232.416 63.9248 233.652 65.2772C234.116 65.7845 234.554 66.4715 234.706 66.9287C234.997 67.8061 235.283 69.7756 235.291 70.9587L235.296 71.7397H231.124H226.953L226.842 71.0513C226.648 69.8349 226.301 69.3193 225.457 68.9937C224.761 68.7252 224.026 68.6981 217.457 68.6981C210.551 68.6981 210.193 68.713 209.567 69.0269C208.611 69.5067 208.168 70.2616 208.168 71.4109C208.168 72.6599 208.62 73.3437 209.734 73.7773C210.486 74.0701 211.2 74.1055 218.608 74.2168C226.526 74.3357 228.897 74.4781 231.021 74.9625C234.217 75.6915 235.778 77.3288 236.285 80.485C236.55 82.1316 236.414 86.1012 236.047 87.441C235.344 90.0089 233.593 91.2808 229.902 91.9058C228.565 92.132 226.663 92.1826 218.115 92.219C212.499 92.243 207.404 92.1941 206.77 92.1101ZM44.5781 77.4942V63.0259H60.5261H76.474V66.0676V69.1092H64.9159C56.1454 69.1092 53.3101 69.1568 53.1604 69.3065C52.8851 69.5819 52.8851 74.2265 53.1604 74.5019C53.3099 74.6514 55.9993 74.6992 64.2582 74.6992H75.1587V77.4108V80.1224L64.1021 80.1647L53.0453 80.207L52.998 82.5088C52.9721 83.7747 52.9915 84.977 53.0423 85.1805L53.1338 85.5504H65.0505H76.9673V88.7564V91.9625H60.7727H44.5781V77.4942ZM93.4085 80.8822C93.4085 70.9302 93.382 69.7918 93.1484 69.7022C93.0054 69.6474 90.1199 69.6024 86.7363 69.6024H80.5843V66.3142V63.0259H97.601H114.618V66.3142V69.6024H108.466C105.082 69.6024 102.197 69.6473 102.054 69.7022C101.82 69.7918 101.793 70.9302 101.793 80.8822V91.9624H97.601H93.4085V80.8822ZM118.892 77.4942V63.0259H123.082H127.273L127.316 68.246L127.359 73.4661L137.265 73.5085L147.171 73.5508V68.2884V63.0259H151.364H155.556V77.4941V91.9624H151.364H147.171V86.3711V80.7798L137.265 80.8222L127.359 80.8646L127.316 86.4135L127.273 91.9624H123.083H118.892L118.892 77.4942ZM162.133 77.4942V63.0259H177.998H193.864V66.0676V69.1092L182.396 69.112C176.089 69.1129 170.834 69.1744 170.719 69.2476C170.56 69.3486 170.52 70.0146 170.554 71.999L170.6 74.6172L181.657 74.6595L192.713 74.7018V77.4135V80.1251H181.611H170.51L170.555 82.7968L170.6 85.4685L182.479 85.5107L194.357 85.5528V88.7578V91.9628H178.245H162.133V77.4942ZM243.188 77.5016V63.0256H257.784C266.62 63.0256 272.902 63.0911 273.703 63.1916C279.242 63.8861 281.619 66.1528 282.149 71.2462C282.352 73.1906 282.36 81.6505 282.161 83.7029C281.908 86.3238 280.955 88.4983 279.546 89.6707C278.705 90.3707 277.179 91.0706 275.56 91.4982C274.188 91.8608 274.076 91.8636 258.683 91.9204L243.188 91.9776V77.5016ZM271.22 84.7237C272.229 84.3582 273.205 83.2835 273.555 82.1511C273.803 81.3462 273.85 80.5888 273.85 77.4116C273.85 73.2845 273.73 72.444 272.977 71.3284C272.434 70.5252 271.432 70.004 269.987 69.7744C268.848 69.5934 252.288 69.5272 251.833 69.7018C251.601 69.7909 251.573 70.6159 251.573 77.3196C251.573 81.4545 251.625 84.8897 251.689 84.9534C251.752 85.0171 256.025 85.0452 261.183 85.0156C268.859 84.9716 270.682 84.9186 271.22 84.7237ZM286.366 91.0989C286.723 90.3938 290.197 83.9467 292.59 79.549C295.071 74.9879 298.414 68.8311 298.884 67.958C299.2 67.3702 299.936 66.019 300.52 64.9553L301.581 63.0214L307.261 63.0646L312.941 63.1078L315.897 68.4512C317.523 71.3901 319.722 75.3853 320.784 77.3294C321.846 79.2736 323.085 81.5302 323.538 82.344C323.99 83.1578 324.582 84.2306 324.852 84.728C326.636 88.0129 328.268 90.9719 328.548 91.4303L328.876 91.9673L324.233 91.9236L319.589 91.8799L318.389 89.6853C317.73 88.4783 317.073 87.313 316.931 87.0958L316.672 86.7009H307.223H297.774L296.457 89.3315L295.14 91.9621H290.535H285.929L286.366 91.0989ZM313.357 80.6929C313.4 80.3989 312.585 78.7851 308.446 70.9602C307.304 68.8028 307.153 68.7807 306.196 70.6308C301.072 80.5286 301.005 80.6718 301.337 81.0033C301.398 81.0647 304.117 81.0955 307.379 81.0719C313.209 81.0295 313.31 81.023 313.357 80.6929ZM162.08 54.6817C161.301 52.8958 160.553 51.1678 160.419 50.8417L160.175 50.2488L161.998 48.5439C165.965 44.8351 168.309 42.4024 168.676 41.6128C169.176 40.5363 169.162 39.2529 168.64 38.235C168.205 37.3886 164.066 32.7006 161.389 30.0217C159.474 28.1058 158.466 27.5146 157.118 27.5179C156.666 27.5197 155.996 27.656 155.63 27.8223C155.017 28.1008 152.946 30.1254 148 35.2811C147.241 36.0723 146.536 36.7197 146.433 36.7197C146.235 36.7197 139.817 34.0366 131.271 30.3814L129.429 29.5933L129.381 23.1685L129.332 16.7437L128.891 15.9924C128.578 15.4599 128.244 15.1487 127.745 14.9237C127.085 14.6261 126.605 14.6063 120.044 14.6063H113.047L112.231 15.0263C111.65 15.325 111.272 15.6778 110.92 16.2474L110.425 17.0484V23.4021V29.7558L107.712 30.842C106.22 31.4393 102.341 33.0021 99.0907 34.3147L93.1819 36.7012L90.5413 34.1891C84.0176 27.9829 84.0672 28.0222 82.5867 27.8879C81.05 27.7486 80.4555 28.1541 77.209 31.5562C75.6744 33.1643 73.8448 35.0764 73.143 35.8054C71.5791 37.43 70.9934 38.5241 70.9943 39.819C70.9953 41.5257 71.3107 41.9655 75.7174 46.4115L79.7183 50.4481L78.1033 53.7775L76.4883 57.1068H61.0353H45.5823L45.8298 56.2436C45.9659 55.7689 46.4887 54.1597 46.9916 52.6677C53.3574 33.7797 67.5022 17.6513 85.4575 8.80757C89.2567 6.93631 91.4302 6.02726 94.9772 4.82608C101.444 2.63615 109.505 1.17742 114.815 0.930246C120.125 0.683069 116.927 0.89866 124.283 0.932093C131.639 0.965525 150.34 5.99952 161.511 13.3038C175.803 22.6486 186.763 36.8017 192.185 52.9143C192.641 54.2707 193.136 55.8244 193.284 56.367C193.433 56.9096 193.592 57.4829 193.638 57.6412C193.717 57.9137 192.925 57.9289 178.61 57.9289H163.497L162.08 54.6817Z" fill="#2DC92D"/>
</svg>
