<svg width="40" height="25" viewBox="0 0 40 25" fill="none" xmlns="http://www.w3.org/2000/svg">
<g clip-path="url(#clip0_255_97)">
<path fill-rule="evenodd" clip-rule="evenodd" d="M12.6263 16.9028L11.4141 17.3077L10.9091 18.5223L11.4141 19.8381L12.6263 20.3441L13.8384 19.8381C14.1751 19.5007 14.3434 19.0621 14.3434 18.5223L13.8384 17.3077L12.6263 16.9028ZM20.6061 18.5223L20.101 17.3077C19.7643 17.0378 19.3603 16.9028 18.8889 16.9028L17.6768 17.3077L17.1717 18.5223L17.6768 19.8381L18.8889 20.3441C19.3603 20.3441 19.7643 20.1754 20.101 19.8381L20.6061 18.5223ZM26.8687 18.5223L26.4646 17.3077L25.2525 16.9028L24.0404 17.3077L23.4343 18.5223C23.4343 19.0621 23.6364 19.5007 24.0404 19.8381L25.2525 20.3441L26.4646 19.8381L26.8687 18.5223ZM32.7273 19.8381L33.2323 18.5223L32.7273 17.3077L31.4141 16.9028L30.202 17.3077L29.798 18.5223L30.202 19.8381L31.4141 20.3441L32.7273 19.8381ZM25.9596 0H27.3737V6.78138L28.5859 6.68016L29.2929 6.88259L29.495 7.89474V12.4494L34.9495 12.753C37.1717 12.9555 38.5185 13.3941 38.9899 14.0688C40.1347 15.4184 40.3367 17.004 39.596 18.8259C38.9899 20.4453 37.9461 21.7949 36.4646 22.8745C34.7811 24.0891 32.0875 24.7976 28.3838 25L14.8485 24.5951L4.14141 22.5708L3.73737 23.6842C3.33333 24.224 2.92929 24.4265 2.52525 24.2915C1.98653 24.4265 1.71717 23.9879 1.71717 22.9757V21.4575L0 19.9393C0 19.4669 0.3367 18.9946 1.0101 18.5223L2.0202 18.1174L1.91919 13.3603L2.22222 12.1457L2.62626 12.0445H3.0303C3.367 12.112 3.63636 12.3144 3.83838 12.6518L4.24242 13.8664L4.44444 17.2065L11.0101 14.8785C13.5017 14.0013 16.835 13.2928 21.0101 12.753V9.91903C21.0101 8.90688 21.2121 8.33333 21.6162 8.19838L25.9596 7.08502V0Z" fill="#2DC92D"/>
</g>
<defs>
<clipPath id="clip0_255_97">
<rect width="40" height="25" fill="white"/>
</clipPath>
</defs>
</svg>
