<svg width="24" height="24" viewBox="0 0 24 24" fill="none" xmlns="http://www.w3.org/2000/svg">
<g clip-path="url(#clip0_255_100)">
<path fill-rule="evenodd" clip-rule="evenodd" d="M1.57576 12C1.57576 13.5758 1.93939 15.1313 2.66667 16.6667V7.33333C1.93939 8.86869 1.57576 10.4242 1.57576 12ZM4.78788 8.66667L4.30303 8.54545H4L3.63636 8.42424L3.87879 8.36364H3.51515V18C5.0101 20.2222 7.09091 21.6162 9.75758 22.1818H10.8485V22.0606L10.7879 21.697L10.9091 21.5758V21.1515L10.4242 20.2424L10.3636 19.8788L10.303 19.697L10.2424 18.303L10.4242 17.8788V17.0909L10.4848 16.6667V16.4242L10.303 15.697L10.1212 16.0606L9.87879 16.3636V16.4242L9.75758 16.4848L9.69697 16.6061L9.15152 17.2121L8.84848 17.7576L8.72727 18.0606L8.06061 19.1515L7.75758 19.5758L7.57576 20.0606L7.45455 20.4848L7.39394 20.9697L7.33333 21.0303V21.0909L6.78788 20.9091L6.18182 20.4848V20.4242H6.24242L6.54545 20.3636L6.78788 20.2424L6.9697 19.8788L7.51515 17.8182L8.30303 16.6667L8.66667 16.3636V16.2424L9.0303 15.8788L9.15152 15.5152V15.3939L9.39394 14.6667L9.51515 14.303L9.57576 13.9394L9.81818 13.5758L10.2424 12.8485L10.4848 11.8788V11.3939L10.6667 10.9697L10.4242 10.2424L10.303 9.93939V9.63636L10.0606 9.33333V9.09091C9.9798 8.92929 9.87879 8.84848 9.75758 8.84848L9.57576 8.90909H8.9697L8.60606 8.78788L8.30303 8.84848L7.69697 8.78788L7.45455 8.84848H7.21212L6.78788 8.90909L6.24242 8.78788L5.93939 8.72727L5.75758 8.66667H5.39394L5.15151 8.54545C5.11111 8.62626 4.9899 8.66667 4.78788 8.66667ZM4.90909 6.30303L4.72727 6.12121H4.60606L4.48485 6.06061H4.36364L4.24242 6L3.93939 5.75758H4.18182H4.06061C3.93939 5.75758 3.83838 5.71717 3.75758 5.63636L3.51515 6.06061V7.93939L3.93939 7.87879L4.24242 7.81818H4.06061L3.81818 7.75758L3.69697 7.63636L4.24242 7.57576L4.42424 7.69697H4.66667L5.21212 7.93939H5.51515L5.69697 8L6.12121 7.93939H6.90909L7.27273 7.87879L7.57576 8L8.30303 7.93939H8.72727L8.36364 7.87879L7.39394 7.51515L7.21212 7.39394L6.9697 7.33333L5.87879 6.72727L5.27273 6.36364L4.90909 6.30303ZM4.9697 5.27273L5.09091 5.33333L5.51515 5.75758L5.69697 5.87879L6.18182 6.06061L7.15151 6.24242L7.21212 6.30303L7.75758 6.60606L8.18182 6.84848H8.36364L8.60606 6.9697L9.39394 7.21212L10.303 7.33333L10.7879 7.51515L11.1515 7.45455L11.3939 7.09091V6.9697L11.2727 6.60606H11.2121L11.0303 6.30303V6H11.1515C11.1111 5.55556 11.2525 5.25253 11.5758 5.09091H4.72727L4.9697 5.27273ZM21.3333 16.6061C22.0606 15.1515 22.4242 13.6162 22.4242 12C22.4242 10.3838 22.0606 8.84848 21.3333 7.39394V16.6061ZM19.0303 4.30303C17.0505 2.48485 14.7071 1.57576 12 1.57576C9.29293 1.57576 6.94949 2.48485 4.9697 4.30303H19.0303ZM14.0606 8.84848L13.7576 8.9697L13.5152 10.303L13.3939 10.5455L13.2121 11.7576L13.0303 11.697L13.0909 12.2424L13.2121 12.4848V12.9697H13.2727V12.9091L13.3333 12.9697L13.5758 13.3333L14 14.4242L14.4848 15.8788L14.3636 16.1212L14.4848 16.4242L14.7879 16.7273L14.9697 16.6667L15.2727 17.5758L15.8788 18.9697L16.3636 19.9394H16.2424V20.0606L16.3636 19.9394L16.7879 20.303H17.4545L18.1212 19.9394L18.2424 20.1212L18.0606 20.3636L17.3333 20.7879H16.8485L16.4848 20.9697L16.2424 21.3333L16.0606 21.2121L16.1818 20.6667L15.9394 20.2424L16 20.1818L15.8788 20.0606H15.8182L15.0909 19.0909L14.7879 18.7879C14.4242 18.3838 14.2626 18.0808 14.303 17.8788L14.4242 17.697L14.2424 17.3333L13.8788 17.0303H13.8182V17.1515H13.7576L13.2121 15.9394L13.1515 16.7879L13.0909 16.8485L12.9697 16.7879V17.0303L13.1515 17.3939L13.0303 17.8182L13.1515 17.7576L13.0909 17.8788L12.7879 20.0606V20.8485H12.7273L12.7879 20.9697L13.0303 21.3333L13.5758 21.5152L14.2424 21.6364V21.8788L13.7576 22.0606L13.2121 22.1212L12.7879 21.9394L12.4242 22.1212H12.2424V22.0606L12.303 21.697V21.0909L12.3636 21.0303L12.1212 20.2424V20.1818C11.8788 19.1717 11.8788 18.5455 12.1212 18.303L12.303 18.2424V17.7576L12.1818 17.3939L12.1212 17.1515H12.0606V17.0909L12 15.8182L11.8788 15.0303L11.7576 15.4545L11.5758 16.1212L11.6364 16.6061L11.5758 16.9697V17.1515L11.4545 17.3333V17.5152L11.3939 17.697L11.3333 17.8182L11.2121 18.303L11.3333 18.6667L11.3939 19.3939L11.3333 19.697L11.3939 19.8788V19.9394L11.5152 20.9697L11.697 21.2727V21.5152L11.8182 21.697L12.1212 21.9394L12.1818 22.1212V22.1818H14.2424C16.9091 21.6162 19.0303 20.202 20.6061 17.9394L20.5455 8.48485L19.697 8.42424V8.48485L20.303 8.54545L20.2424 8.66667H19.0303V8.78788H18.7879V8.60606L17.697 8.66667L17.5758 8.78788L17.1515 8.84848L16.6667 8.72727V8.60606H16.6061L16.303 8.78788L16.1818 8.72727H16.1212L14.0606 8.84848ZM16.2424 7.45455H16.1818L14.5455 8.06061L16.1818 8.18182L16.303 8.12121L16.4848 8.18182L16.6061 8.30303L16.6667 8.24242V8.12121L17.3939 8L18.6667 8.06061H18.7273V8.12121H18.7879V7.81818L18.9697 7.75758V7.87879L19.2727 7.75758L19.7576 7.63636L20.303 7.87879V8L20.5455 8.06061V6.06061L20.2424 5.63636L19.5758 5.87879L20.1212 5.75758V5.93939L19.0909 6.24242L19.1515 6.30303L18.9697 6.42424L18.8485 6.24242L17.697 6.84848L17.5758 6.9697L17.2121 7.21212L16.8485 7.33333H16.6667V7.15151L16.6061 7.21212L16.2424 7.45455ZM16.1212 6.84848H16.303H16.4848L16.4242 6.72727V6.66667L16.4848 6.54545L17.3333 6.24242C17.9394 6.08081 18.303 5.91919 18.4242 5.75758H18.4848L18.5455 5.87879H18.6061L18.4242 5.63636L18.4848 5.51515L18.6667 5.57576L18.9091 5.33333L19.3333 5.09091H12.4242L12.6667 5.21212L12.8485 6.06061H12.9697V6.30303L12.8485 6.48485L12.7879 6.60606L12.6667 6.9697L12.5455 7.15151L12.8485 7.63636C13.0909 7.31313 13.4141 7.15151 13.8182 7.15151L14.303 7.27273L16 6.9697L16.0606 6.90909V6.84848H16.1212ZM21.2121 4.30303L21.3333 4.48485C23.1111 6.66667 24 9.17172 24 12C24 15.3131 22.8283 18.1414 20.4848 20.4848C18.1414 22.8283 15.3131 24 12 24C8.68687 24 5.85859 22.8283 3.51515 20.4848C1.17172 18.1414 0 15.3131 0 12C0 9.17172 0.888889 6.64646 2.66667 4.42424L2.78788 4.30303C3.91919 2.9697 5.27273 1.91919 6.84848 1.15151C8.46465 0.383838 10.1818 0 12 0C13.8182 0 15.5354 0.383838 17.1515 1.15151C18.7273 1.91919 20.0808 2.9697 21.2121 4.30303Z" fill="#2DC92D"/>
</g>
<defs>
<clipPath id="clip0_255_100">
<rect width="24" height="24" fill="white"/>
</clipPath>
</defs>
</svg>
