<svg width="22" height="24" viewBox="0 0 22 24" fill="none" xmlns="http://www.w3.org/2000/svg">
<g clip-path="url(#clip0_255_94)">
<path fill-rule="evenodd" clip-rule="evenodd" d="M10.9685 13.8947C12.1452 13.8947 13.1328 14.3158 13.9312 15.1579C14.8138 15.9579 15.255 16.9684 15.255 18.1895V20.6526L14.8768 22.4211C13.8262 23.4737 12.5654 24 11.0946 24H10.9054C9.39255 24 8.1318 23.4737 7.12321 22.4211C6.78701 21.8737 6.61891 21.2842 6.61891 20.6526V18.1895C6.61891 16.9684 7.06017 15.9579 7.94269 15.1579C8.78319 14.3158 9.79179 13.8947 10.9685 13.8947ZM18.7221 10.6105L17.2722 8.02105H4.60172L3.2149 10.6105L6.36676 12.5053L9.89685 9.34737H12.0401L15.5072 12.5053L18.7221 10.6105ZM11.914 1.45263V0H13.2378C15.7173 0 17.3563 1.41053 18.1547 4.23158L22 15.2211L21.4327 16.6105C20.8863 17.6632 19.9408 18.4211 18.596 18.8842C17.9236 19.1368 17.2932 19.5579 16.7049 20.1474V18.1895C16.7049 16.5895 16.1375 15.2211 15.0029 14.0842C13.8262 13.0316 12.4814 12.5053 10.9685 12.5053C9.41356 12.5053 8.04775 13.0316 6.87106 14.0842C5.73639 15.2211 5.16905 16.5895 5.16905 18.1895V20.1474C4.62273 19.5579 4.01337 19.1368 3.34097 18.8842C1.99618 18.4211 1.05062 17.6632 0.504297 16.6105L0 15.2211L3.7192 4.23158C4.51767 1.41053 6.17765 0 8.69914 0H10.0229V1.45263H11.914Z" fill="#2DC92D"/>
</g>
<defs>
<clipPath id="clip0_255_94">
<rect width="22" height="24" fill="white"/>
</clipPath>
</defs>
</svg>
