<svg width="65" height="65" viewBox="0 0 65 65" fill="none" xmlns="http://www.w3.org/2000/svg">
<path d="M11.5507 7.66005L11.5482 7.66259L7.14984 12.1248L7.14853 12.126C6.25079 13.025 6.25135 14.4099 7.14981 15.3084L11.3976 19.5561C9.99199 21.7827 8.9453 24.2689 8.31772 26.9052H2.77816C1.50687 26.9052 0.5 27.9121 0.5 29.1834V35.434C0.499974 36.7052 1.50687 37.7121 2.77814 37.7121H8.24739C8.86047 40.4867 9.92631 43.1047 11.398 45.4434L7.14982 49.6916C6.25091 50.5905 6.2508 52.0401 7.14983 52.939L11.5506 57.34C12.4496 58.2389 13.8991 58.2388 14.7981 57.34L19.0464 53.0917C21.332 54.5285 23.8818 55.5621 26.5863 56.1762V62.2218C26.5863 63.4931 27.5931 64.5 28.8644 64.5H35.1149C36.3863 64.5 37.3931 63.4931 37.3931 62.2218V56.1761C40.0946 55.5622 42.6524 54.5289 44.9333 53.092L49.1175 57.2762C49.9942 58.1527 51.5082 58.2606 52.4287 57.34L56.8296 52.939C57.7509 52.0177 57.6417 50.5674 56.7659 49.6916L52.5172 45.4429C53.9827 43.1048 55.0525 40.4871 55.668 37.7121H62.1581C63.4066 37.7121 64.5 36.7274 64.5 35.434V29.1834C64.5 27.8899 63.4066 26.9052 62.1581 26.9052H55.5966C54.9626 24.2845 53.906 21.8356 52.5171 19.621L56.7659 15.3722C57.6425 14.4955 57.7502 12.9815 56.8296 12.061L52.4287 7.66007C51.9765 7.20783 51.3886 6.99138 50.7931 7.00578C50.2064 7.0212 49.5637 7.27761 49.1175 7.72386L49.115 7.72634L44.9307 11.9705C42.6534 10.5359 40.105 9.44095 37.3931 8.82369V2.84195C37.3931 1.59338 36.4084 0.5 35.1149 0.5H28.8644C27.5709 0.5 26.5863 1.59338 26.5863 2.84195V8.8238C23.887 9.44029 21.3772 10.5515 19.1109 11.9728L14.7982 7.66008C14.3394 7.20121 13.7397 7.00564 13.1744 7.00564C12.609 7.00564 12.0096 7.20127 11.5507 7.66005Z" fill="#2DC92D"/>
</svg>
