<svg width="40" height="40" viewBox="0 0 40 40" fill="none" xmlns="http://www.w3.org/2000/svg">
<path fill-rule="evenodd" clip-rule="evenodd" d="M0 0V39.125H39.125V0H0ZM2.15625 2.125H37V37H2.15625V2.125ZM11 12.8177C11 8.12333 14.8056 4.31775 19.5 4.31775C24.1944 4.31775 28 8.12333 28 12.8177V15.8177H31V34.8177H8V15.8177H11V12.8177ZM15 15.8177H24V12.8177C24 10.3325 21.9853 8.31775 19.5 8.31775C17.0147 8.31775 15 10.3325 15 12.8177V15.8177ZM19.6452 20.8178C17.9675 20.8178 16.6076 22.1778 16.6076 23.8554V23.934C16.6076 25.0167 17.174 25.9671 18.0268 26.505L16.6076 30.8178H22.6827L21.2635 26.505C22.1163 25.9671 22.6827 25.0167 22.6827 23.934V23.8554C22.6827 22.1778 21.3228 20.8178 19.6452 20.8178Z" fill="#2DC92D"/>
</svg>
