<svg width="16" height="22" viewBox="0 0 16 22" fill="none" xmlns="http://www.w3.org/2000/svg">
<path fill-rule="evenodd" clip-rule="evenodd" d="M8 0C4.73432 0 2.08696 2.64736 2.08696 5.91304V8.34783H0V21.5652H16V8.34783H13.913V5.91304C13.913 2.64736 11.2657 0 8 0ZM11.1304 8.34783V5.91304C11.1304 4.18415 9.72889 2.78261 8 2.78261C6.27111 2.78261 4.86957 4.18415 4.86957 5.91304V8.34783H11.1304ZM8.10098 11.6993C6.93395 11.6993 5.98788 12.6454 5.98788 13.8124V13.8671C5.98788 14.6203 6.38195 15.2815 6.97517 15.6557L5.98788 18.6558H10.2141L9.22679 15.6557C9.82001 15.2815 10.2141 14.6203 10.2141 13.8671V13.8124C10.2141 12.6454 9.26801 11.6993 8.10098 11.6993Z" fill="#2DC92D"/>
</svg>
