<svg width="8" height="11" viewBox="0 0 8 11" fill="none" xmlns="http://www.w3.org/2000/svg">
<path fill-rule="evenodd" clip-rule="evenodd" d="M4 0C2.36716 0 1.04348 1.32368 1.04348 2.95652V4.17392H0V10.7826H8V4.17392H6.95652V2.95652C6.95652 1.32368 5.63284 0 4 0ZM5.56522 4.17392V2.95652C5.56522 2.09208 4.86445 1.3913 4 1.3913C3.13556 1.3913 2.43478 2.09208 2.43478 2.95652V4.17392H5.56522ZM4.05049 5.84964C3.46698 5.84964 2.99394 6.32267 2.99394 6.90619V6.93353C2.99394 7.31012 3.19098 7.6407 3.48758 7.8278L2.99394 9.32789H5.10704L4.6134 7.8278C4.91001 7.64071 5.10704 7.31013 5.10704 6.93353V6.90619C5.10704 6.32267 4.63401 5.84964 4.05049 5.84964Z" fill="#2DC92D"/>
</svg>
