<svg width="12" height="17" viewBox="0 0 12 17" fill="none" xmlns="http://www.w3.org/2000/svg">
<path fill-rule="evenodd" clip-rule="evenodd" d="M6 0C3.55074 0 1.56522 1.98552 1.56522 4.43478V6.26093H0V16.174H12V6.26093H10.4348V4.43478C10.4348 1.98552 8.44926 0 6 0ZM8.34783 6.26093V4.43478C8.34783 3.13811 7.29667 2.08696 6 2.08696C4.70333 2.08696 3.65218 3.13811 3.65218 4.43478V6.26093H8.34783ZM6.07574 8.77451C5.20046 8.77451 4.49091 9.48406 4.49091 10.3593V10.4003C4.49091 10.9652 4.78646 11.4611 5.23137 11.7417L4.49091 13.9919H7.66056L6.92011 11.7417C7.36501 11.4611 7.66056 10.9652 7.66056 10.4003V10.3593C7.66056 9.48406 6.95101 8.77451 6.07574 8.77451Z" fill="#2DC92D"/>
</svg>
