<svg width="123" height="27" viewBox="0 0 123 27" fill="none" xmlns="http://www.w3.org/2000/svg">
<path d="M25.5627 0.53125C24.7997 0.53128 23.6725 1.50704 22.1252 3.46875C21.0569 4.84178 20.1475 6.18224 19.4065 7.46875C18.7958 8.53644 17.8958 10.2489 16.719 12.625C14.8876 16.3309 13.3081 19.069 12.0002 20.8125C9.55888 24.0821 7.11979 25.7188 4.65649 25.7188C4.06844 25.7188 3.48256 25.5646 2.93774 25.2812C2.26188 24.9327 1.93775 24.4916 1.93774 23.9688C1.93775 23.4891 2.37881 23.1178 3.25024 22.8125C3.90415 22.6163 4.56442 22.4243 5.21899 22.25C5.96004 21.9014 6.31274 21.3448 6.31274 20.625C6.31274 19.9279 6.05502 19.3925 5.53149 19C5.05187 18.6727 4.43809 18.5 3.71899 18.5C2.69456 18.5 1.84333 18.9232 1.15649 19.7188C0.469664 20.5144 0.125254 21.4124 0.125244 22.4375C0.125254 23.6795 0.557694 24.6855 1.37524 25.4375C2.1928 26.1895 3.23566 26.5625 4.50024 26.5625C7.48641 26.5625 10.241 24.8879 12.8127 21.5312C14.1645 19.7877 15.8982 16.782 17.969 12.5312C19.9527 8.45481 21.693 5.47765 23.219 3.625C21.824 6.61119 21.1252 10.5927 21.1252 15.5625C21.1252 18.5487 21.4713 22.2339 22.1252 26.5938L26.4065 24.5C26.2541 23.6279 26.1379 22.6714 26.094 21.625C28.1428 16.8295 29.1877 14.4375 29.1877 14.4375C30.8667 10.6012 31.9083 8.5334 32.344 8.25L34.3752 7.46875C35.2686 7.11953 35.719 6.65987 35.719 6.09375C35.719 5.30881 35.2593 4.90627 34.344 4.90625C33.3195 4.90627 31.7207 7.04978 29.5627 11.3438C29.0172 12.4553 27.793 15.212 25.8752 19.5938C25.3956 15.6484 25.1565 12.0608 25.1565 8.8125C25.1565 5.71726 25.4149 3.22766 25.9377 1.375C25.9816 1.22269 26.0002 1.13768 26.0002 1.09375C26.0002 0.72325 25.8461 0.53128 25.5627 0.53125ZM99.6877 0.65625V0.687439C98.2708 0.687469 96.9523 1.005 95.6877 1.59369C95.4482 1.39748 95.0454 1.1962 94.5002 0.999939C93.9551 0.803729 93.5243 0.687469 93.219 0.687439C90.6472 0.687469 87.8714 1.88377 84.9065 4.28119C82.3999 6.3088 80.2093 8.83559 78.3127 11.8437C76.1548 15.2656 75.0627 18.3656 75.0627 21.1562C75.0627 24.2295 76.8157 25.7812 80.2815 25.7812C82.6796 25.7812 84.8603 24.6513 86.844 22.4062C88.7838 20.2263 89.7502 17.91 89.7502 15.4687C89.7502 13.8775 88.9193 13.0937 87.219 13.0937C85.5187 13.0937 84.1404 13.8682 83.094 15.4374C82.1567 16.8111 81.6877 18.4 81.6877 20.1874C81.6877 20.2526 81.7063 20.426 81.7502 20.6874H81.8127L83.3752 19.5624C83.964 19.148 84.5399 18.8332 85.0627 18.5937C85.4772 17.1548 85.8106 16.2169 86.094 15.7812L86.1565 15.75C86.8975 14.965 87.4735 14.5625 87.844 14.5625C88.0835 14.5625 88.2727 14.6757 88.469 14.9375C88.6652 15.1993 88.7815 15.4886 88.7815 15.75C88.7815 17.4723 88.0734 19.194 86.6565 20.9375C85.1524 22.7688 83.5536 23.6875 81.8752 23.6875C80.1749 23.6875 79.344 22.5483 79.344 20.2812C79.344 18.5158 80.1278 16.1524 81.719 13.1875C83.0707 10.6371 84.6881 8.31088 86.5627 6.21875C89.0912 3.38494 91.3483 1.96877 93.3752 1.96875C93.5282 1.96877 93.8458 2.04445 94.2815 2.21875C92.9956 2.6984 91.7226 3.74327 90.469 5.3125C89.2154 6.88177 88.594 8.3265 88.594 9.65625L89.0627 10.8125L90.344 11.1562C91.9132 11.1563 93.3108 10.3824 94.5315 8.8125C95.687 7.33041 96.2815 5.76943 96.2815 4.15625C96.2815 4.02589 96.2423 3.81466 96.1878 3.53125C96.1332 3.24789 96.094 3.03732 96.0941 2.90625C96.0941 2.62289 96.4402 2.50002 97.0941 2.5C98.3587 2.50002 101.21 3.79063 105.657 6.40625C106.703 7.02741 107.539 7.47085 108.157 7.6875C108.105 7.7546 108.052 7.80688 108 7.875C105.482 11.1927 103.539 14.5721 102.157 18C101.982 18 101.724 18.0282 101.375 18.0937C101.027 18.1592 100.768 18.1875 100.594 18.1874C100.42 18.1874 100.219 18.1595 100 18.0937C100.48 16.7646 100.719 15.8645 100.719 15.4062C100.719 14.0332 99.9825 13.3437 98.5004 13.3437C96.6258 13.3437 94.7028 14.5772 92.7191 17.0624C90.8226 19.4599 89.8754 21.6439 89.8754 23.5624C89.8754 25.1317 90.7475 25.9062 92.4691 25.9062C93.7117 25.9062 95.1179 25.0154 96.6879 23.2499C97.8207 21.9634 98.7965 20.5379 99.6254 18.9687C99.8648 19.0126 100.104 19.0312 100.344 19.0312C100.715 19.0312 101.156 18.9748 101.657 18.8437C101.741 18.8233 101.802 18.8035 101.875 18.7812C101.856 18.8336 101.832 18.885 101.813 18.9374C101.05 20.987 100.657 22.6801 100.657 24.0312C100.657 24.576 100.828 25.0652 101.188 25.4687C101.548 25.8721 102.018 26.0624 102.563 26.0624C103.435 26.0624 104.833 24.9233 106.75 22.6562C107.71 21.5227 108.188 20.8239 108.188 20.5624C108.188 20.4533 108.109 20.4062 108 20.4062C107.739 20.4062 107.185 20.913 106.313 21.9374C105.441 22.9619 104.771 23.4999 104.313 23.4999C104.292 23.4999 104.244 23.4594 104.157 23.4374L103.782 22.6562C103.804 22.1114 103.986 21.3183 104.313 20.2499C104.684 19.0945 105.039 18.3864 105.344 18.1249C106.739 16.9695 107.771 16.088 108.469 15.4999C112.153 12.291 114.998 9.02218 117.063 5.68744C117.704 5.23483 118.362 4.71327 119 4.12494C120.504 2.75195 121.26 1.72903 121.282 1.03119L121.188 0.812439V0.78125H121.063C120.03 1.60375 119.139 2.28078 118.407 2.8125C118.438 2.61497 118.438 2.40951 118.438 2.21875C118.438 1.47772 117.874 1.12502 116.719 1.125C114.872 1.12502 112.699 2.52227 110.219 5.25C109.604 5.13608 108.778 4.77169 107.719 4.125C105.604 2.83916 104.349 2.11181 104 1.9375C102.431 1.13128 100.996 0.70018 99.6877 0.65625ZM116.906 2.1875C117.038 2.18752 117.229 2.40806 117.469 2.84375C117.431 3.08361 117.317 3.34716 117.219 3.625C116.981 3.77764 116.743 3.93434 116.563 4.03125C115.441 4.63044 114.223 5.01062 112.906 5.1875C114.57 3.22307 115.898 2.18752 116.906 2.1875ZM94.969 3.03125C94.947 3.18427 94.9567 3.36359 95.0002 3.625C95.0437 3.88645 95.0627 4.07843 95.0627 4.1875C95.0627 5.36429 94.6216 6.62903 93.7502 7.9375C92.7909 9.37572 91.768 10.0938 90.6564 10.0938C90.0897 10.0938 89.7814 9.80413 89.7814 9.28125C89.7814 9.08503 89.8791 8.79875 90.0314 8.40625C91.0559 5.76868 92.7019 3.99052 94.969 3.03125ZM53.6252 4.09375C53.1456 4.09377 52.5604 4.30501 51.9065 4.71875C50.62 6.98583 48.8421 10.4319 46.5315 15.0312C44.2209 19.6306 42.4297 23.0262 41.1877 25.25C42.9093 25.25 44.1528 25.0487 44.9377 24.6562L47.7815 18.9062C47.8906 19.5382 48.3881 19.8438 49.2815 19.8438C49.4777 19.8438 49.871 19.8252 50.4377 19.7812C49.261 21.1549 48.6877 22.5997 48.6877 24.125C48.6877 25.3896 49.4151 26.0312 50.8752 26.0312C51.9868 26.0312 52.8962 25.83 53.594 25.4375C54.0949 25.1761 54.7359 24.6015 55.5315 23.7188C56.1282 23.0567 56.5397 22.529 56.7502 22.0938C56.625 22.5392 56.5627 22.9496 56.5627 23.3438C56.5627 23.9325 56.7829 24.4988 57.219 25C57.655 25.5012 58.1615 25.75 58.7502 25.75C60.0361 25.75 61.0717 25.0891 61.8127 23.7812C62.1181 24.6533 62.2788 25.1316 62.344 25.2188C62.6061 25.5673 63.0843 25.75 63.7815 25.75C64.6755 25.75 65.9121 24.9649 67.4377 23.4062C68.9634 21.8477 69.719 20.6121 69.719 19.7188C69.719 19.5877 69.6811 19.4841 69.594 19.375H69.4377C69.3067 19.4409 68.9055 19.9553 68.219 20.9688C67.5325 21.9822 66.7473 22.6541 65.8752 22.9375L65.594 22.7188C65.9645 21.7163 66.8453 20.1766 68.219 18.0625C69.4829 16.1221 70.2667 14.5139 70.594 13.25C70.2454 13.1842 69.7479 13.1563 69.094 13.1563C68.4181 13.1563 67.9591 13.2413 67.719 13.4376C67.6977 13.6777 67.6313 13.8411 67.5002 13.9063C67.282 13.8844 66.9456 13.7602 66.5315 13.5313C66.1174 13.3025 65.8215 13.1876 65.6252 13.1876C64.0121 13.1876 62.0878 14.4699 59.8752 17.0313C58.2159 18.9524 57.1963 20.6193 56.7815 22.0313C56.8345 21.9132 56.8524 21.788 56.8752 21.6876L56.844 21.6251C56.2114 22.1486 55.7424 22.5511 55.4377 22.8126C54.4785 23.5756 53.437 23.9376 52.2815 23.9376L51.9065 23.6251C52.5165 23.4727 52.8127 22.6763 52.8127 21.2813C52.8127 20.4744 52.7655 19.949 52.6565 19.6876C52.4602 19.2299 52.0192 18.9436 51.344 18.8126L53.2815 16.7813C54.2407 15.7569 54.8924 15.2501 55.219 15.2501C55.2629 15.2501 55.5206 15.3072 56.0002 15.4376C55.8253 15.8301 55.539 16.0406 55.1252 16.0626C54.3403 16.5635 53.9377 17.2337 53.9377 18.0626C53.9377 18.193 54.0633 18.3162 54.2815 18.4688C54.4997 18.6215 54.6511 18.7188 54.7815 18.7188C55.4354 18.7188 56.0206 18.3727 56.5002 17.7188C56.9579 17.1301 57.1877 16.5197 57.1877 15.8438C57.1877 15.299 56.9486 14.8191 56.469 14.4376C55.9894 14.0561 55.442 13.8751 54.8752 13.8751C53.7637 13.8751 52.7215 14.3155 51.719 15.1876C51.5227 15.3619 50.6984 16.2121 49.2815 17.7813L48.7502 17.3751L48.6877 17.1876C49.9956 15.4221 51.2204 13.3071 52.3752 10.8438C53.727 7.87895 54.7306 5.62914 55.4065 4.12506C54.2949 4.10376 53.7124 4.09375 53.6252 4.09375ZM115.594 6.625C114.811 7.73945 113.8 8.9822 112.531 10.4062C109.785 13.5015 107.496 15.645 105.688 16.8438C106.472 14.6858 108.071 11.8628 110.469 8.375C110.572 8.22589 110.681 8.11246 110.781 7.96875C112.392 7.94205 113.998 7.48874 115.594 6.625ZM120.875 13.1562C120.199 13.1563 119.74 13.2412 119.5 13.4375C119.479 13.6777 119.413 13.8411 119.281 13.9062C119.063 13.8843 118.758 13.7601 118.344 13.5312C117.93 13.3024 117.603 13.1875 117.406 13.1875C115.793 13.1875 113.9 14.4698 111.688 17.0312C109.475 19.5927 108.344 21.6874 108.344 23.3438C108.344 23.9325 108.564 24.4988 109 25C109.436 25.5012 109.974 25.75 110.563 25.75C111.849 25.75 112.853 25.0891 113.594 23.7812C113.899 24.6533 114.091 25.1316 114.156 25.2188C114.419 25.5673 114.897 25.75 115.594 25.75C116.488 25.75 117.693 24.9649 119.219 23.4062C120.745 21.8477 121.5 20.6121 121.5 19.7188C121.5 19.5877 121.462 19.4841 121.375 19.375H121.25C121.119 19.4409 120.687 19.9553 120 20.9688C119.314 21.9822 118.56 22.6541 117.688 22.9375L117.375 22.7188C117.746 21.7163 118.627 20.1766 120 18.0625C121.264 16.1221 122.048 14.5139 122.375 13.25C122.027 13.1842 121.529 13.1562 120.875 13.1562ZM37.5627 13.3125L33.7815 13.625L30.0002 21.9688C29.7827 22.4484 29.6877 22.908 29.6877 23.3438C29.6877 23.9325 29.9083 24.4988 30.344 25C30.7797 25.5012 31.2865 25.75 31.8752 25.75C33.1618 25.75 34.1654 25.0891 34.9065 23.7812C35.2112 24.6533 35.4031 25.1316 35.469 25.2188C35.7304 25.5673 36.2093 25.75 36.9065 25.75C37.8005 25.75 39.0055 24.9649 40.5315 23.4062C42.0575 21.8477 42.8127 20.6121 42.8127 19.7188C42.8127 19.5877 42.7755 19.4841 42.6877 19.375H42.5627C42.4323 19.4409 42.0308 19.9553 41.344 20.9688C40.6571 21.9822 39.8717 22.6541 39.0002 22.9375L38.6877 22.7188C38.9711 21.9345 39.3836 21.1314 39.9065 20.2812C40.5384 19.2568 41.0167 18.4923 41.344 17.9688L44.094 13.3125L40.5315 13.625C39.8776 15.0858 38.9118 16.8547 37.6252 18.9688C35.9249 21.7806 34.7758 23.1875 34.1877 23.1875C33.9695 23.1875 33.7875 23.0048 33.6565 22.6562C33.5481 22.3948 33.5002 22.1371 33.5002 21.875C33.5002 20.8506 33.9978 19.3773 35.0002 17.4375C35.8284 15.8463 36.6906 14.468 37.5627 13.3125ZM72.0324 13.9688L69.6574 18.0938H73.4387L75.8449 13.9688H72.0324ZM66.2815 14.4062C66.6081 14.4063 66.81 14.5291 66.8752 14.8125C66.5267 15.7279 65.6359 17.2988 64.219 19.5C62.6278 21.9633 61.5956 23.1875 61.094 23.1875C60.7235 23.1875 60.5315 22.9577 60.5315 22.5C60.5315 21.3665 61.0855 19.9596 62.219 18.2812C63.2002 16.8424 64.2444 15.6747 65.3127 14.7812V14.8124C65.6613 14.5291 65.9761 14.4063 66.2815 14.4062ZM118.063 14.4062C118.389 14.4063 118.591 14.5291 118.656 14.8125C118.308 15.7279 117.417 17.2988 116 19.5C114.409 21.9633 113.377 23.1875 112.875 23.1875C112.505 23.1875 112.313 22.9577 112.313 22.5C112.313 21.3665 112.867 19.9596 114 18.2812C114.981 16.8424 116.026 15.6747 117.094 14.7812V14.8124C117.443 14.5291 117.757 14.4063 118.063 14.4062ZM98.969 14.5312C99.5358 14.5313 99.8127 14.8747 99.8127 15.5938C99.8127 15.9211 99.7463 16.3714 99.594 16.9375C99.3977 17.6353 99.1965 18 99.0002 18V18.0312C98.935 18.0532 98.8879 18.0625 98.844 18.0624C98.4083 18.0624 97.9473 17.8708 97.5002 17.4999C97.0532 17.1291 96.844 16.7262 96.844 16.3124C96.844 15.898 97.0924 15.5171 97.594 15.1249C98.0956 14.7328 98.5552 14.5313 98.969 14.5312ZM96.1252 17.0312C96.6268 18.0776 97.4578 18.6821 98.6565 18.8125C97.1092 21.7774 95.6359 23.25 94.219 23.25C93.7833 23.25 93.5627 23.0301 93.5627 22.5938C93.5627 22.2232 93.7076 21.7543 93.969 21.1875C94.2663 20.53 94.4515 20.0887 94.5002 19.8438C95.2193 18.4049 95.7547 17.467 96.1252 17.0312Z" fill="#2DC92D"/>
</svg>
