<svg width="31" height="54" viewBox="0 0 31 54" fill="none" xmlns="http://www.w3.org/2000/svg">
<path fill-rule="evenodd" clip-rule="evenodd" d="M2.17871 1.76822V0H2.8012L3.98394 1.26306V2.52612L6.1004 3.0945V4.98908H4.97992V9.97817H8.09237V11.0518H5.04217V16.1672H8.46586V22.2298H9.1506V23.3034H10.9558V21.2826H12.0141V24.1876H14.255V8.20989H14.8153V13.199H16.496V15.0936H15.002L14.8153 15.1251V19.2617H16.1225L15.9046 20.0511H15.002V28.1031H17.0562C17.1185 28.1031 17.0562 19.1985 17.0562 19.1985H18.1145V28.1031H21.1024V20.2721H20.1687L19.9197 19.3563L20.9468 19.0721V14.2094H19.9819V13.1358H21.9116V4.10494L23.8414 2.1472L24.1215 1.04202L24.993 0.789412L25.1486 0.221035H25.8956V18.2511H27.0783H27.9498L26.0201 20.209H25.1486V22.2298H26.0823V24.1875H24.8996V26.2716H26.0823V27.4715H30.1285V22.2298H31V30.566V47.4385H28.8621V54H23.5172V47.4385H18.1724V54H0V30.566V21.3457L1.05823 21.2194V10.1676H0V2.96819L1.12048 3.03134L2.17871 1.76822ZM18.1724 54V54.0001H23.5172V54H18.1724ZM28.8621 54V54.0001H31V54H28.8621ZM4.10843 4.92593H1.36948V10.1045H4.10843V4.92593ZM4.04619 23.0508H0.995984V28.4819H1.99197V29.2398H4.10843V27.8505H4.04619V23.0508ZM7.90562 23.1771H5.10442V28.6083H5.78916V29.3661H7.03414V28.6083H7.90562V23.1771ZM10.6896 48.3758H7.48274V54H10.6896V48.3758ZM7.62939e-06 36.1902H2.13794V41.8144H7.62939e-06V36.1902ZM17 31.5849H14V41.7736H17V31.5849ZM18 31.5849H21V41.7736H18V31.5849ZM28.8621 36.1902H24.5862V41.8144H28.8621V36.1902Z" fill="#2dc92d"/>
</svg>
