<svg width="31" height="30" viewBox="0 0 31 30" fill="none" xmlns="http://www.w3.org/2000/svg">
<path d="M8.75769 0.78418L8.00769 1.78418H5.60144V2.69043L8.60144 2.78418L9.32019 1.62793H10.6327V7.06543L8.60144 9.75293H7.60144V10.7529H9.63269L9.60144 13.7217L6.60144 15.8467V20.7529H2.60144V19.7842H1.57019V20.7529H1.53894V20.7841H0.57019V21.7841H1.53894V29.8466H3.60144V23.7216H7.63269V29.8466H13.5389V23.6904H16.6014V29.8466H25.6014V25.7529H28.6639V29.8466H30.6014V21.8154H28.6639V23.8154H25.5702V18.7841H27.3202L28.6014 17.1279V15.9091V15.7529V14.8466L26.5077 12.7529H23.6952L23.4452 11.6904L23.4139 11.5654L23.3202 11.4717L22.4764 10.5967L22.5701 7.62793L23.6639 6.97168L23.7577 6.90918L23.8202 6.81543L24.1014 6.37793L24.8514 7.53418L24.9764 7.72168L25.2264 7.75293L25.9452 7.81543L26.6639 8.69043L26.8202 8.90918L27.0702 8.87793L28.4139 8.81543L28.3514 7.81543L27.2889 7.87793L26.6014 7.00293L26.4764 6.84668L26.2577 6.81549L25.5702 6.7843L24.6952 5.4718L26.4764 2.7218L27.1952 2.6593L27.1327 1.69055L26.1327 1.75305L25.8827 1.78424L25.7577 2.00299L23.9764 4.78424L21.8827 4.65924L21.8202 5.65924L23.3514 5.72174L23.0702 6.19049L21.8202 6.90924L21.5702 7.06549V7.34674L21.4765 10.8155V11.0342L21.6328 11.1905L22.5078 12.0655L22.664 12.753H22.6015V15.753H21.5078V16.753H19.664V12.7842V12.7217H19.6015L15.5703 7.78424H14.6015V4.81549H15.6328V3.72174H16.6015V2.72174H15.6328V1.78424H14.5703L12.6015 3.75299V4.75299H11.664V2.90924L11.3203 0.784241L8.75769 0.78418ZM10.6014 12.7842H13.5702V20.7529H10.6327L10.6014 12.7842ZM14.6327 12.7842H17.6014V20.7529H14.6327V12.7842ZM21.5702 18.7842H24.6327V23.7529H21.5702V21.0654V20.7529V18.7842Z" fill="#2dc92d"/>
</svg>
