<svg width="23" height="23" viewBox="0 0 23 23" fill="none" xmlns="http://www.w3.org/2000/svg">
<path d="M7.36229 9.27633C8.22609 9.27633 10.8498 -0.183032 11.5577 0.00269972C12.2657 0.188431 15.8785 9.49471 16.0712 9.43187C16.2638 9.36899 18.1401 5.97847 18.2642 6.41327C19.8428 11.9418 21.6012 14.5308 23 23L15.4037 22.9689C15.4136 22.7944 15.4354 22.6185 15.4354 22.4399C15.4354 19.1586 13.7315 16.4961 11.6214 16.4961C9.51128 16.4961 7.77554 19.1586 7.77554 22.4399C7.77554 22.608 7.79811 22.7733 7.80727 22.9378L0.0202578 22.9067C-0.275366 20.5911 2.74925 11.6091 3.57007 11.2244C4.08959 10.9809 7.15658 9.27633 7.36229 9.27633Z" fill="#2dc92d"/>
</svg>
