<svg width="32" height="31" viewBox="0 0 32 31" fill="none" xmlns="http://www.w3.org/2000/svg">
<path d="M2.1875 0V1.74994L1.125 3L0 2.9375V10.0625H1.0625V21L0 21.125V30.25H31.125V22H30.25V27.1874H26.1875V26H25V23.9374H26.1875V22H25.25V20H26.125L28.0625 18.0624H27.1875H26V0.21875H25.25L25.0938 0.78125L24.2188 1.03125L23.9375 2.125L22 4.0625V12.9999H20.0625V14.0625H21.0312V18.8749L20 19.1562L20.25 20.0625H21.1875V27.8125H18.1875V19H17.125C17.125 19 17.1875 27.8125 17.125 27.8125H15.0625V19.8438H15.9688L16.1875 19.0625H14.875V14.9687L15.0625 14.9375H16.5625V13.0625H14.875V8.125H14.3125V23.9375H12.0625V21.0625H11V23.0625H9.1875V22H8.5V16H5.0625V10.9375H8.125V9.875H5V4.9375H6.125V3.0625L4 2.5V1.25L2.8125 0H2.1875ZM1.375 4.875H4.125V10H1.375V4.875ZM1 22.8125H4.0625V27.5625H4.125V28.9374H2V28.1874H1V22.8125ZM5.125 22.9374H7.9375V28.3125H7.0625V29.0624H5.8125V28.3125H5.125V22.9374Z" fill="#2dc92d"/>
</svg>
