<svg width="30" height="54" viewBox="0 0 30 54" fill="none" xmlns="http://www.w3.org/2000/svg">
<path fill-rule="evenodd" clip-rule="evenodd" d="M7.42975 0.997803L8.17896 0H10.7389L11.0823 2.12048V3.96033H12.0188V2.9624L13.9855 0.997925H15.0469V1.93335H16.0146V2.93127H15.0469V4.02271H14.0167V6.98499H14.9844L19.0115 11.9119H19.0739V11.9742V15.9344H20.9158V14.9366H22.0084V11.9431H22.0708L21.9147 11.2571L21.0406 10.3839L20.8846 10.228V10.0098L20.9781 6.54846V6.26782L21.2279 6.11194L22.4766 5.39465L22.7576 4.927L21.2279 4.86462L21.2903 3.8667L23.3819 3.99146L25.1613 1.21619L25.2861 0.997925L25.5359 0.966797L26.5349 0.904419L26.5973 1.87109L25.8793 1.93347L24.0999 4.67749L24.974 5.98718L25.6608 6.01831L25.8793 6.04944L26.0042 6.20544L26.6909 7.07849L27.7523 7.01611L27.8148 8.01404L26.4724 8.07642L26.2227 8.10754L26.0666 7.88928L25.3486 7.01611L24.6306 6.95374L24.3809 6.92261L24.256 6.73547L23.5068 5.58179L23.2258 6.01831L23.1634 6.11182L23.0696 6.17419L21.9771 6.8291L21.8835 9.79138L22.7263 10.6646L22.8199 10.7581L22.8512 10.8828L23.101 11.943H25.9105L28.0021 14.0322V14.9365V15.0924V16.3086L26.7222 17.9613H24.974V22.9817H28.0645V20.986H30V29V35H28V41H30V54H23V48H20V54H13V47H8V54H3V47H1V29H0.967712V20.9548H0V19.9569H0.967712V19.9259H0.998962V18.9592H2.02911V19.9259H6.02496V15.0302L9.02185 12.9097L9.05304 9.94739H7.02393V8.94946H8.02289L10.052 6.2677V0.841919H8.74091L8.02289 1.99573L5.026 1.9021V0.997803H7.42975ZM3.02808 29H7.05518V22.8882H3.02808V29ZM12.9553 29H16.0146V22.8569H12.9553V29ZM25.0052 29H28.0645V24.915H25.0052V29ZM12.9865 11.9742H10.0208L10.052 19.9259H12.9865V11.9742ZM17.0135 11.9742H14.0479V19.9259H17.0135V11.9742ZM24.0375 17.9613H20.9781V19.9259V20.2377V22.9194H24.0375V17.9613ZM20 35H23V41H20V35ZM19 35H16V41H19V35ZM3 35H7V41H3V35Z" fill="#2dc92d"/>
</svg>
