<svg width="304" height="572" viewBox="0 0 304 572" fill="none" xmlns="http://www.w3.org/2000/svg">
<path fill-rule="evenodd" clip-rule="evenodd" d="M155.386 7.44752C149.807 12.6457 147.928 13.3456 138.485 13.7329C128.785 14.1299 127.168 14.7761 119.922 21.1499C111.487 28.5723 106.985 30.2365 103.073 27.3783C101.274 26.0642 101.193 24.446 102.755 21.012C105.718 14.4946 101.919 13.581 94.2815 18.9741C85.9934 24.8278 82.0129 33.0037 83.1554 41.8296C83.6674 45.7875 83.106 50.6651 81.9069 52.6701C80.543 54.9493 80.3473 60.5196 81.3844 67.5352C82.7345 76.6546 82.1846 81.4231 78.4546 92.9893C70.2608 118.403 72.961 143.048 86.2152 163.808C91.2309 171.668 90.7329 174.413 84.0803 175.569C82.5658 175.833 78.1187 178.605 74.1956 181.729L67.0647 187.411L65.776 179.101C63.9689 167.448 55.5063 161.175 44.0006 162.96C30.3815 165.072 29.7853 168.667 39.3477 191.003C46.1455 206.878 46.0771 207.178 32.7472 219.774C25.8628 226.28 25.6542 226.868 27.6422 234.156C30.1521 243.363 29.1586 245.49 16.3325 258.38C-3.04353 277.854 -5.05682 295.239 9.63875 316.188C19.7594 330.611 28.3939 335.33 42.5546 334.17C55.2112 333.133 65.1457 326.955 73.4345 314.966C77.051 309.731 78.4973 308.578 78.1572 311.2C73.5084 347.134 80.3373 414.972 92.5916 454.593C97.9129 471.791 118.395 526.391 121.669 532.101C122.464 533.488 121.29 535.109 118.698 536.204C112.111 538.986 94.3969 555.973 93.7533 560.125C91.1147 577.149 127.289 575.226 156.101 556.81C163.16 552.297 166.158 551.268 169.16 552.318C175.538 554.555 185.726 546.391 185.406 539.302C185.267 536.217 185.718 532.893 186.407 531.916C187.099 530.941 184.572 513.104 180.791 492.282C173.96 454.652 171.352 429.438 174.245 428.99C175.077 428.861 184.508 445.83 195.204 466.697C205.899 487.563 218.446 509.778 223.083 516.06C230.305 525.843 241.017 535.098 246.872 536.613C247.787 536.85 250.706 540.098 253.36 543.829C261.597 555.417 283.566 563.129 294.812 558.382C297.131 557.401 300.206 553.146 301.945 548.508C304.461 541.796 304.55 538.527 302.449 530.01C301.044 524.32 298.472 513.106 296.731 505.091C294.564 495.115 288.961 480.539 278.967 458.885C259.177 416.001 244.885 377.513 241.776 358.729C240.4 350.399 238.65 343.679 237.89 343.797C234.219 344.366 236.708 338.837 245.061 327.867C259.671 308.676 265.226 286.942 264.049 253.568C263.274 231.643 258.159 214.743 247.623 199.292C238.369 185.725 220.41 172.324 205.866 168.136C196.347 165.394 195.756 164.902 197.955 161.563C199.261 159.579 201.905 158.116 203.828 158.313C208.462 158.785 216.828 152.522 220.672 145.702C222.817 141.895 223.346 137.563 222.406 131.504C221.554 126.011 221.941 121.781 223.45 120.076C230.602 111.999 237.433 82.528 235.317 68.8782C233.768 58.8932 225.088 43.5684 217.293 37.0584C213.653 34.0169 210.491 30.3551 210.268 28.9207C209.347 22.9812 203.468 17.1778 195.917 14.7522C191.495 13.3308 184.24 9.43932 179.796 6.10435C170.082 -1.18697 164.31 -0.868077 155.386 7.44752ZM177.13 12.0202C181.506 15.2847 188.912 19.3862 193.587 21.1337C200.103 23.5693 203.573 26.5224 208.453 33.7838C211.953 38.9938 216.122 44.3505 217.717 45.6869C219.312 47.0232 222.607 52.7113 225.04 58.3241C230.448 70.8026 230.505 82.9169 225.228 97.5986L221.638 107.588L218.273 99.7109C216.421 95.3789 212.501 89.415 209.562 86.4586C205.275 82.1445 204.715 80.8172 206.731 79.7419C208.114 79.0059 210.938 76.0898 213.007 73.2644C215.991 69.1899 216.349 66.9782 214.732 62.5702C211.201 52.9416 207.04 51.0542 193.845 53.1005C182.551 54.852 181.916 54.7131 178.046 49.6433C175.831 46.7385 171.903 42.4893 169.318 40.1993C164.792 36.1897 164.321 36.1686 156.477 39.624C145.605 44.4114 142.857 44.6379 136.771 41.2375C129.549 37.2035 127.405 37.9277 116.17 48.1983C110.722 53.1786 104.401 57.5464 102.123 57.9035C90.7871 59.6784 83.6543 42.4941 90.743 30.4862C93.5604 25.7144 94.5452 25.0137 94.9797 27.4753C95.7842 32.0432 103.311 37.0205 108.184 36.2064C110.459 35.8272 116.39 31.9415 121.368 27.571C131.505 18.6701 133.676 17.9398 141.812 20.6947C149.498 23.2953 149.683 23.2252 158.184 14.3784C162.278 10.1186 166.425 6.5095 167.399 6.35848C168.375 6.20717 172.753 8.75573 177.13 12.0202ZM137.124 46.8321C141.107 49.0709 145.163 49.3515 153.929 47.9921C164.754 46.3134 165.845 46.5302 171.203 51.4332C174.349 54.3123 177.933 57.5698 179.167 58.6721C180.487 59.8552 185.762 60.0031 192.012 59.0339C203.185 57.3013 207.355 58.7636 208.283 64.7417C208.936 68.9527 204.869 75.8709 201.427 76.4047C196.499 77.169 197.539 81.1202 204.114 86.6104C211.926 93.1347 215.485 98.6764 216.4 105.747C216.948 109.968 216.529 109.666 213.573 103.709C208.269 93.0145 202.31 85.6832 199.3 86.15C195.596 86.7244 196.03 87.8114 202.402 93.9262C208.112 99.4055 215.651 111.968 216.35 117.168C216.572 118.815 214.536 115.971 211.824 110.846C207.305 102.308 197.47 92.2676 198.193 96.9346C198.363 98.0269 202.27 104.036 206.874 110.29C214.518 120.666 216.561 126.637 211.783 124.619C210.75 124.185 210.033 124.655 210.19 125.667C210.347 126.678 211.383 127.888 212.492 128.357C213.602 128.825 214.875 131.567 215.323 134.452C216.434 141.616 208.032 151.336 200.68 151.397C196.638 151.431 193.619 153.466 187.76 160.105C183.554 164.872 176.068 171.458 171.121 174.743C161.562 181.091 161.276 185.438 170.633 182.145L176.227 180.178L171.855 185.445C166.542 191.847 157.095 196.327 145.957 197.724C141.38 198.299 139.49 198.108 141.759 197.3C147.27 195.334 145.182 191.9 138.259 191.546C123.888 190.812 104.695 179.281 95.1888 165.669C86.0726 152.616 79.9589 132.837 80.6001 118.47C81.631 95.359 94.5634 66.4631 105.83 62.0946C108.508 61.056 114.288 56.7155 118.679 52.4474C127.93 43.4541 129.995 42.825 137.124 46.8321ZM92.1765 67.4829C88.8257 72.3883 87.8795 72.9003 86.178 70.7294C83.9002 67.8211 84.5242 60.369 87.2472 57.9676C88.2355 57.095 90.6447 57.5688 92.5986 59.0208C95.9222 61.4882 95.8944 62.0386 92.1765 67.4829ZM106.071 74.2446C106.228 75.256 107.394 75.9338 108.661 75.7524C109.93 75.5688 112.907 75.6307 115.28 75.8859C118.451 76.2302 119.472 75.5654 119.133 73.3808C118.796 71.2091 116.936 70.6766 112.229 71.4066C108.685 71.9561 105.914 73.2332 106.071 74.2446ZM100.791 89.435C99.6507 94.7942 101.79 101.272 104.561 100.842C107.224 100.429 110.682 91.8255 109.987 87.3405C109.04 81.2355 102.206 82.7905 100.791 89.435ZM121.649 100.12L111.624 112.853L115.463 119.357C117.575 122.935 120.791 125.925 122.611 126.003C125.448 126.126 125.595 125.225 123.637 119.684C121.585 113.871 122.031 112.018 128.079 101.273C138.902 82.0429 136.255 81.5683 121.649 100.12ZM156.236 90.5986C155.109 91.585 154.067 95.1099 153.922 98.4296C153.718 103.086 154.412 104.632 156.951 105.178C161.414 106.139 163.122 103.3 162.6 95.7863C162.152 89.3216 159.845 87.4422 156.236 90.5986ZM196.027 106.901C196.176 107.653 198.936 111.251 202.157 114.895L208.016 121.518L205.94 115.428C204.799 112.08 202.768 108.369 201.427 107.184C198.788 104.853 195.589 104.684 196.027 106.901ZM93.6492 131.671C89.5476 135.808 93.2401 145.675 100.275 149.378C105.483 152.12 125.189 155.425 136.785 155.504C142.564 155.542 155.417 148.052 157.33 143.528C158.745 140.183 163.45 140.412 164.128 143.86C164.665 146.594 164.904 146.489 165.769 143.135C167.915 134.812 165.821 130.097 158.533 126.838C150.029 123.037 149.461 123.07 150.121 127.327C150.529 129.957 148.252 131.538 139.397 134.77C133.212 137.024 125.622 138.672 122.527 138.431C112.609 137.656 98.5152 133.496 97.5447 131.056C96.7627 129.089 96.1095 129.192 93.6492 131.671ZM196.487 118.598C197.548 121.023 198.523 123.627 198.653 124.383C198.785 125.138 199.721 125.629 200.734 125.472C203.718 125.01 201.8 118.456 198.032 116.235C194.914 114.398 194.757 114.639 196.487 118.598ZM128.701 141.159C134.792 140.319 144.12 138.229 149.431 136.515C160.883 132.814 160.98 134.987 149.705 142.583C140.1 149.053 127.902 149.368 123.637 149C119.372 148.632 112.366 147.369 109.216 146C106.065 144.63 99.9069 143.905 99.294 139.953C99.0371 138.296 101.625 138.354 108.28 140.154C114.112 141.732 121.791 142.11 128.701 141.159ZM108.778 158.563C109.561 159.478 111.707 159.992 113.55 159.707C115.391 159.421 118.12 160.269 119.616 161.59C123.077 164.649 125.688 164.274 125.149 160.798C124.919 159.318 122.997 157.498 120.876 156.753C115.918 155.016 106.897 156.366 108.778 158.563ZM56.6308 171.465C59.7141 172.979 61.4549 175.574 62.0666 179.567C63.4273 188.438 61.5961 199.776 58.7316 200.22C54.2508 200.915 49.9875 211.059 51.2084 218.118C52.2904 224.366 52.4215 224.47 53.4708 219.906C55.4733 211.205 59.0049 207.708 67.0175 206.496C71.1658 205.869 73.6841 206.123 72.6139 207.063C71.5416 208.001 70.9587 214.223 71.3156 220.888C71.7855 229.656 72.3865 232.158 73.4891 229.944C74.3271 228.26 74.6084 224.191 74.1154 220.902C73.4741 216.633 74.0686 214.789 76.193 214.46C78.4168 214.115 79.019 215.093 78.5798 218.327C78.2554 220.708 78.0264 226.039 78.0738 230.174C78.1408 236.271 78.5414 237.201 80.1861 235.091C83.0517 231.421 81.4579 212.5 78.0285 209.471C74.4259 206.286 76.5996 206.117 83.8694 209.014C90.3838 211.609 93.4036 216.787 92.7184 224.184C91.5727 236.562 77.8556 242.917 67.9353 235.669C63.4025 232.357 62.7344 230.736 62.2772 221.953C61.896 214.607 61.3566 212.795 60.2232 215.053C58.2566 218.978 60.6327 234.847 63.8227 239.079C67.1366 243.478 76.5693 246.403 83.9632 245.322L90.0468 244.435L84.8813 250.829C78.9239 258.206 68.7924 260.841 58.9977 257.564C53.5596 255.744 53.1692 255.841 53.6412 258.884C54.3199 263.26 60.9403 265.872 71.5228 265.939L80.1937 265.993L73.8203 270.092C62.8698 277.135 48.1798 276.705 42.275 269.166C38.465 264.303 38.2136 267.933 41.9413 273.98C45.9436 280.471 55.2922 283.571 66.1196 281.996L73.0922 280.982L68.8975 284.324C63.4709 288.645 54.3855 290.099 45.8847 288.005C31.5625 284.477 23.7707 265.974 31.3561 253.497C34.6676 248.046 34.9329 245.903 33.0193 239.982C30.7978 233.109 30.9522 232.731 39.7175 223.706C44.6529 218.624 48.8685 212.536 49.0883 210.172C49.3065 207.811 46.9011 200.578 43.7421 194.103C37.1243 180.531 36.3097 177.078 38.8985 173.543C41.5246 169.957 51.2453 168.819 56.6308 171.465ZM94.0874 189.152C95.2753 203.68 101.153 214.144 111.83 220.742L119.849 225.698L115.898 253.041C112.25 278.299 110.454 309.168 112.04 319.392C112.404 321.742 111.999 323.775 111.138 323.909C109.683 324.134 100.582 319.614 88.4066 312.619L83.2764 309.673L83.9083 292.961C84.2548 283.769 84.582 273.041 84.6321 269.122C84.6854 265.041 86.0596 260.992 87.8459 259.649C89.5629 258.358 91.4496 253.638 92.0394 249.163C92.6307 244.686 94.2135 238.311 95.5581 234.995C97.0105 231.414 97.4417 225.333 96.6207 220.014C95.3953 212.064 94.3175 210.389 86.9825 205.03C82.4409 201.71 76.0637 198.88 72.8105 198.739C69.5574 198.598 66.8013 197.869 66.685 197.119C66.3853 195.186 79.4132 183.609 84.799 181.019C92.8694 177.14 93.1244 177.362 94.0874 189.152ZM118.148 194.623C127.076 206.013 146.825 208.608 163.637 200.596C171.664 196.771 182.73 184.517 183.642 178.443C184.541 172.452 186.748 171.039 193.322 172.243C198.225 173.142 198.949 173.98 198.556 178.301C197.866 185.886 191.485 196.347 183.063 203.715C172.644 212.825 169.574 214.056 164.918 210.999C159.826 207.655 156.074 209.874 153.257 217.894C149.771 227.823 144.698 233.965 139.293 234.804C134.647 235.524 134.487 235.944 136.505 242.137C137.744 245.941 141.34 250.741 145.043 253.536C149.744 257.085 151.09 259.164 150.126 261.381C149.405 263.041 149.364 268.126 150.035 272.683C150.707 277.239 151.263 289.016 151.271 298.854C151.289 322.625 153.273 335.139 157.513 338.239C159.851 339.945 164.373 340.133 172.563 338.863C183.353 337.19 184.632 337.415 188.85 341.738C195.236 348.282 203.278 349.791 215.727 346.78C221.474 345.391 227.429 343.47 228.96 342.511C230.909 341.292 232.215 341.862 233.326 344.418C234.575 347.294 233.424 349.278 227.894 353.781C215.059 364.234 206.244 367.981 184.218 372.356C166.711 375.829 160.277 376.302 146.938 375.088C127.468 373.315 102.468 365.715 89.7757 357.71L80.4538 351.829L81.639 315.356L93.2809 321.78C104.991 328.24 113.806 331.865 114.669 330.575C114.927 330.192 115.137 320.558 115.14 309.165C115.142 297.772 117.193 274.836 119.697 258.195C122.201 241.556 123.992 226.277 123.677 224.243C123.318 221.932 119.671 218.897 113.939 216.14C99.7012 209.293 95.3494 201.52 97.1587 186.164L98.0191 178.874L105.729 183.744C109.969 186.422 115.558 191.317 118.148 194.623ZM214.999 179.495C228.025 185.169 238.839 193.864 246.474 204.801C252.061 212.81 253.652 217.19 256.699 232.955C261.062 255.533 260.325 273.634 254.223 293.829C244.257 326.803 219.766 346.336 196.901 339.542C185.351 336.111 179.796 324.055 181.828 306.824L182.676 299.629L188.448 301.561C198.428 304.899 205.203 302.613 211.676 293.723C216.679 286.852 218.903 279.956 222.548 260.025C223.418 255.275 227.071 257.098 231.97 264.729C237.384 273.162 238.604 284.083 235.561 296.84C234.696 300.467 234.32 305.58 234.726 308.2C236.205 317.734 240.186 307.071 240.922 291.61C241.818 272.775 237.686 260.864 227.006 251.489C222.641 247.656 218.878 242.255 217.411 237.716C213.848 226.692 206.435 217.501 197.365 212.867L189.337 208.762L194.8 201.542C197.806 197.57 201.054 190.165 202.019 185.083C202.984 180.002 204.247 175.771 204.823 175.681C205.399 175.592 209.979 177.307 214.999 179.495ZM159.53 224.604C158.033 228.201 157.087 232.952 157.426 235.161C157.793 237.556 156.628 239.876 154.54 240.913C152.614 241.869 151.163 243.45 151.314 244.424C151.86 247.944 146.172 249.184 142.014 246.45C137.795 243.681 137.816 243.633 144.482 240.646C150.058 238.147 151.685 236.036 154.028 228.267C155.582 223.115 158.068 218.711 159.554 218.48C161.73 218.143 161.725 219.328 159.53 224.604ZM199.599 220.708C207.672 225.088 212.624 231.76 216.342 243.262C219.938 254.387 216.279 275.531 208.926 286.115C202.415 295.487 197.069 297.472 187.212 294.173C180.559 291.947 179.084 288.891 184.276 288.086C188.134 287.488 190.136 282.306 187.017 280.99C185.926 280.53 180.471 280.387 174.891 280.672C163.093 281.276 150.834 275.477 152.047 269.866C152.695 266.871 153.308 266.827 159.363 269.34C163.749 271.158 169.223 271.579 175.637 270.588C183.878 269.315 185.224 268.585 184.766 265.632C184.307 262.673 182.466 262.33 172.122 263.265C158.129 264.533 152.886 262.062 153.584 254.527C154.258 247.244 160.209 245.284 167.083 250.084C177.66 257.471 188.736 252.526 193.487 238.293C195.281 232.915 194.384 226.26 191.916 226.643C190.903 226.8 190.243 228.012 190.448 229.336C190.653 230.66 189.782 233.548 188.512 235.756C186.304 239.593 186.265 239.569 187.602 235.223C189.705 228.395 187.047 220.913 182.538 220.964C175.95 221.041 172.99 226.083 173.366 236.581C173.56 241.988 173.19 246.495 172.544 246.595C169.089 247.131 162.211 241.757 161.64 238.076C160.859 233.034 165.836 223.532 170.933 220.342C177.631 216.149 191.524 216.326 199.599 220.708ZM181.719 235.881C181.108 239.533 180.508 243.595 180.383 244.908C180.257 246.224 179.21 247.444 178.052 247.624C174.972 248.101 175.679 234.415 178.91 231.033C182.499 227.277 183.009 228.154 181.719 235.881ZM35.3008 287.419C41.4549 294.609 50.2937 297.569 60.741 295.938C68.0925 294.79 78.7705 287.206 78.2013 283.536C78.0159 282.341 78.3981 281.754 79.0527 282.231C81.2896 283.867 76.8546 296.795 70.9879 305.741C64.2601 316.004 50.9948 325.662 41.6029 327.133C25.8636 329.602 7.61619 314.633 4.88401 297.015C4.05646 291.679 5.17299 287.634 9.65325 279.727C12.8696 274.052 17.1787 267.8 19.2269 265.837C22.9162 262.299 22.9826 262.35 26.3859 271.641C28.2749 276.796 32.2871 283.898 35.3008 287.419ZM171.718 289.153C176.861 289.472 177.474 290.092 177.083 294.571C176.839 297.352 177.236 306.632 177.964 315.195L179.287 330.764L169.051 331.288C163.419 331.575 158.27 331.415 157.609 330.93C156.361 330.02 154.305 290.126 155.273 285.647C155.686 283.73 157.042 283.806 160.867 285.954C163.64 287.515 168.526 288.953 171.718 289.153ZM88.7037 362.492C98.2384 370.11 117.673 377.454 136.438 380.532C151.838 383.058 158.782 383.134 177.385 380.98C201.977 378.134 213.963 373.884 227.966 363.048C232.041 359.895 235.588 357.505 235.844 357.738C236.103 357.973 239.829 368.635 244.125 381.433C251.038 402.031 259.353 422.437 285.538 483.058C295.608 506.372 295.755 508.812 287.519 516.302C281.637 521.65 278.47 522.929 264.012 525.796C248.816 528.81 246.662 528.805 240.185 525.747C230.24 521.051 218.488 503.913 197.424 463.388C179.795 429.47 161.125 399.812 155.161 396.252C149.588 392.924 151.955 398.073 160.85 408.626C169.052 418.359 169.052 418.363 168.724 430.249C168.517 437.763 170.996 457.326 175.46 483.411L182.522 524.685L169.054 529.009C150.886 534.843 139.293 536.609 131.609 534.716L125.202 533.139L113.139 501.692C106.504 484.397 98.7534 462.818 95.9125 453.737C88.1073 428.777 78.1032 359.161 82.2287 358.521C82.9209 358.414 85.8335 360.201 88.7037 362.492ZM135.482 543.497C144.007 545.092 153.58 543.52 175.007 537.008L182.209 534.819L178.453 539.303C174.559 543.952 167.109 546.275 164.788 543.562C164.04 542.689 159.475 544.631 154.384 547.987C143.309 555.286 130.106 560.118 114.72 562.504C102.113 564.459 99.134 563.289 103.385 558.052C105.858 555.006 123.584 542.323 125.824 541.997C126.331 541.924 130.677 542.598 135.482 543.497ZM299.352 530.43C300.413 537.27 297.298 546.66 292.859 549.998C287.364 554.131 270.281 551.038 260.591 544.157L252.52 538.427L266.197 535.093C274.351 533.107 282.589 529.786 286.601 526.869C294.457 521.158 298.071 522.166 299.352 530.43Z" fill="#2DC92D"/>
<path d="M159.195 78.3305C151.488 74.4117 151.912 74.9067 153.257 71.4066C154.856 67.2457 156.213 67.617 162.196 73.8583C168.604 80.5401 167.316 82.4586 159.195 78.3305Z" fill="#2DC92D"/>
</svg>
