<svg width="303" height="557" viewBox="0 0 303 557" fill="none" xmlns="http://www.w3.org/2000/svg">
<path fill-rule="evenodd" clip-rule="evenodd" d="M128.167 7.23332C123.207 13.4892 121.156 14.6323 112.985 15.6989C104.815 16.7655 102.373 18.127 94.9402 25.7571C83.584 37.4152 75.3775 37.3442 76.8985 25.5987C77.4487 21.3432 77.3011 21.2777 73.1988 23.9661C63.2252 30.4986 58.3232 43.0723 62.6186 51.0955C63.9466 53.5728 63.8847 56.7125 62.4128 61.6233C60.6112 67.6335 60.8371 69.7959 64.0177 76.9818C67.466 84.774 67.5371 85.9407 65.036 94.0914C61.1012 106.914 61.5785 127.95 66.098 140.915C70.4845 153.505 79.2813 167.844 85.7226 172.906L90.2567 176.47L84.1451 181.426C59.4326 201.474 39.9026 231.812 27.3569 269.644C20.9994 288.812 13.0278 325.139 13.6344 332.174C14.0188 336.635 12.6125 339.758 7.56654 345.648C3.95421 349.866 0.620586 355.29 0.159709 357.703C-1.06444 364.098 4.96158 376.103 10.9493 379.196C13.7857 380.661 17.6658 383.582 19.5712 385.688C21.4785 387.792 24.7028 389.514 26.7376 389.514C28.7706 389.514 32.2627 391.229 34.496 393.326C39.8353 398.337 45.466 396.542 49.2441 388.626C50.8289 385.304 54.0769 381.698 56.4633 380.614C62.4274 377.898 64.9941 370.523 62.5494 363.12C60.9336 358.231 61.4091 355.07 65.4513 343.816C70.8233 328.854 76.5961 316.708 78.334 316.708C80.5673 316.708 77.2702 341.862 70.1038 379.503C62.3509 420.231 58.5254 444.7 54.5032 479.27C53.1278 491.094 51.7106 500.97 51.3554 501.216C51.0001 501.461 44.8612 503.902 37.713 506.642C24.4077 511.74 17.5382 517.004 19.6769 520.464C24.905 528.915 52.2935 531.911 73.4793 526.347C80.9936 524.374 87.4149 523.494 87.7483 524.394C88.0835 525.291 91.6047 526.026 95.5741 526.026C103.24 526.026 111.734 519.85 111.734 514.277C111.734 512.73 112.898 511.465 114.323 511.465C117.091 511.465 118.099 507.754 119.999 490.533C122.365 469.103 140.274 411.356 144.555 411.356C147.436 411.356 180.957 493.524 180.957 500.588C180.957 503.458 188.192 517.311 191.867 521.476C193.634 523.478 195.597 528.028 196.231 531.589C197.497 538.7 207.066 549.122 216.843 554.039C225.664 558.472 236.701 557.861 241.915 552.652C249.38 545.192 251.334 531.39 245.904 524.485C244.479 522.674 244.785 521.581 247.077 520.3C249.586 518.897 250.174 515.879 250.148 504.548C250.063 466.718 243.57 430.568 228.112 381.837C216.728 345.952 215.573 340.898 215.626 327.225C215.679 313.259 215.89 312.423 218.508 315.798C223.345 322.035 234.107 344.352 238.517 357.294C241.867 367.123 242.33 370.557 240.761 373.996C237.951 380.159 240.355 387.454 246.327 390.878C249.147 392.494 252.318 396.107 253.375 398.906C254.433 401.706 257.433 404.967 260.044 406.156C264.146 408.023 265.357 407.783 268.986 404.376C271.296 402.208 274.917 400.435 277.034 400.435C279.151 400.435 282.408 398.499 284.272 396.131C286.137 393.763 289.531 391.232 291.817 390.506C297.196 388.801 302.991 379.232 303 372.041C303.007 366.802 295.181 353.422 290.376 350.455C289.308 349.795 288.416 345.004 288.394 339.808C288.347 328.472 282.929 303.042 276.298 283.035C263.596 244.708 250.413 221.876 228.793 200.758C217.333 189.566 211.526 185.585 195.288 177.791C184.483 172.608 175.61 167.326 175.568 166.055C175.424 161.676 189.092 146.203 194.581 144.533C204.618 141.479 212.356 123.11 206.197 116.956C204.635 115.394 205.203 111.556 208.475 101.576C214.666 82.6971 214.61 60.8061 208.342 48.5437C205.87 43.7093 200.541 36.9529 196.501 33.531C186.099 24.7232 184.826 23.4728 179.412 16.7655C175.559 11.9912 172.692 10.4878 165.239 9.33742C160.102 8.54383 153.639 6.11755 150.876 3.94792C148.041 1.72005 143.25 0 139.877 0C135.086 0 132.761 1.43611 128.167 7.23332ZM147.921 6.58534C150.236 8.20528 156.909 10.9774 162.747 12.7429C171.453 15.3767 175.639 18.2053 186.001 28.4564C202.283 44.5648 207.015 53.6456 207.218 69.1661C207.471 88.6855 203.192 101.82 200.312 90.3582C199.72 87.9975 195.677 82.7918 191.331 78.7875L183.427 71.5086L187.657 66.596C192.876 60.5331 193.083 52.9339 188.172 47.6682C183.804 42.9831 179.598 42.6809 170.657 46.4141C161.048 50.4257 158.749 49.896 150.899 41.8637C142.618 33.389 138.463 32.8575 129.89 39.1771C124.363 43.2506 122.507 43.6402 113.468 42.6191L103.276 41.4669L94.2971 51.5014C89.3604 57.0202 83.604 62.0383 81.5073 62.6517C72.0876 65.4111 62.2415 48.5091 66.373 36.6708C68.7321 29.9089 68.7867 29.8943 73.4793 34.583C79.7349 40.8335 86.2454 39.2718 96.2499 29.1226C104.75 20.5005 105.723 20.0218 114.765 20.0218C124.028 20.0218 124.478 19.7797 129.95 11.831C136.122 2.86857 140.7 1.53257 147.921 6.58534ZM151.253 48.3799C157.095 52.832 158.232 53.074 164.502 51.1975C175.005 48.0522 182.354 48.591 184.536 52.6645C187.551 58.2961 186.762 62.2404 181.527 67.7008C178.834 70.5094 177.603 72.8064 178.789 72.8064C182.456 72.8064 195.953 86.1373 198.541 92.3149C202.223 101.103 201.547 101.405 195.765 93.5562C189.784 85.442 179.135 75.0179 179.135 77.2822C179.135 78.1176 182.736 82.6462 187.138 87.3477C191.539 92.0491 196.475 98.6873 198.109 102.098C200.991 108.123 200.986 108.17 197.883 103.749C192.557 96.1572 183.292 87.364 180.683 87.4259C179.332 87.4569 180.683 89.6338 183.689 92.2639C191.888 99.439 197.485 107.743 196.406 111.137C195.88 112.797 196.696 115.191 198.22 116.456C202.616 120.1 201.696 130.516 196.523 135.684C194.063 138.141 190.42 140.152 188.424 140.152C186.046 140.152 182.503 143.602 178.15 150.154C174.495 155.656 168.099 163.099 163.935 166.696L156.364 173.237L162.285 172.211C166.413 171.497 168.205 171.89 168.205 173.514C168.205 177.102 157.144 186.967 149.592 190.114C145.866 191.667 139.718 192.901 135.929 192.855L129.04 192.773L134.505 190.431C139.878 188.128 139.778 188.072 128.48 187.036C100.23 184.446 76.8913 162.77 69.9471 132.668C67.5152 122.129 67.5444 102.83 70.0054 93.7382C72.9583 82.8337 81.0064 65.5258 83.1231 65.5258C84.1469 65.5258 89.7867 60.5294 95.6579 54.4228C103.586 46.1738 107.143 43.6456 109.488 44.5903C116.74 47.5135 125.449 47.559 129.04 44.6922C133.989 40.7425 143.247 42.2787 151.253 48.3799ZM73.6105 63.7748C76.9678 65.5713 76.9951 65.9571 74.1697 71.5105C70.2186 79.2734 69.9162 79.5101 67.9433 76.3939C65.6098 72.7081 65.7519 61.8854 68.1346 61.8854C69.2021 61.8854 71.6668 62.7355 73.6105 63.7748ZM140.121 64.876C138.776 68.3761 138.352 67.8811 146.059 71.7999C154.18 75.928 155.468 74.0095 149.06 67.3277C143.077 61.0864 141.72 60.7151 140.121 64.876ZM87.7993 69.106L83.4984 72.6844L89.2238 72.7463C94.5449 72.8028 98.4141 69.2061 95.8201 66.6142C94.0221 64.8159 92.3152 65.3474 87.7993 69.106ZM139.49 85.8442C136.228 89.1041 136.669 98.1849 140.154 99.5209C145.567 101.598 148.315 92.5733 144.045 86.7379C142.216 84.2406 141.279 84.0568 139.49 85.8442ZM85.1269 88.1249C83.584 92.142 85.0851 100.66 87.4732 101.445C90.6119 102.473 94.0075 95.0269 92.7269 89.9286C91.5264 85.1471 86.7099 84.004 85.1269 88.1249ZM111.703 91.0826C110.441 94.1259 106.943 100.018 103.928 104.175C98.8986 111.113 98.6582 112.102 100.992 116.208C103.87 121.268 109.165 125.125 110.881 123.409C111.51 122.781 110.603 120.098 108.863 117.446C105.859 112.863 105.863 112.291 108.934 105.911C114.004 95.38 117.183 85.5475 115.518 85.5475C114.681 85.5475 112.965 88.0375 111.703 91.0826ZM179.235 97.8336C179.377 99.7612 190.067 107.996 191.094 106.969C191.561 106.503 189.768 103.949 187.112 101.296C182.39 96.5777 179.035 95.1015 179.235 97.8336ZM182.119 110.12C182.696 111.621 183.875 112.85 184.738 112.85C185.6 112.85 185.835 111.621 185.259 110.12C184.682 108.618 183.503 107.389 182.64 107.389C181.778 107.389 181.543 108.618 182.119 110.12ZM137.237 125.358C137.237 128.072 134.729 129.907 127.149 132.741C114.778 137.366 89.8632 138.063 85.6971 133.898C82.7114 130.915 78.9024 133.387 79.0026 138.241C79.0918 142.628 83.6587 147.606 86.5679 146.49C88.0106 145.937 92.8289 147.134 97.2755 149.149C111.036 155.387 122.915 153.294 139.339 141.734C145.476 137.417 146.141 137.464 147.952 142.353C149.276 145.93 149.582 145.613 150.734 139.484C152.171 131.831 151.107 129.881 142.842 125.032C137.361 121.818 137.237 121.825 137.237 125.358ZM144.039 134.149C144.445 135.364 139.88 138.802 133.769 141.885C125.243 146.184 120.369 147.433 112.111 147.433C101.174 147.433 84.4092 142.923 84.4092 139.981C84.4092 139.075 92.8125 138.288 103.081 138.234C116.918 138.159 123.875 137.26 129.95 134.761C139.026 131.028 142.942 130.857 144.039 134.149ZM108.091 158.165C104.087 159.279 103.941 159.586 106.874 160.713C112.403 162.835 117.199 162.162 117.199 159.264C117.199 156.357 115.375 156.137 108.091 158.165ZM182.727 176.53C186.627 178.518 190.304 180.928 190.896 181.887C192.468 184.43 177.905 192.398 166.34 195.327C154.2 198.399 153.175 200.154 149.151 224.79C146.997 237.96 146.325 251.794 146.717 274.844L147.256 306.697H166.383C176.904 306.697 190.3 306.287 196.155 305.787L206.797 304.877L207.507 326.943L208.216 349.01L197.332 352.061C181.616 356.467 155.107 359.094 137.237 358.016C122.735 357.143 91.4845 350.951 86.9122 348.044C85.6516 347.243 84.5622 338.193 84.085 324.54L83.3071 302.34L89.7776 302.698L96.2499 303.057L97.3994 272.114C98.4833 242.92 101.125 224.568 107.1 204.733C110.3 194.104 109.444 191.881 100.363 187.251C95.5103 184.777 93.6905 182.935 94.9056 181.721C96.9804 179.648 111.734 186.346 111.734 189.36C111.734 190.356 114.399 192.793 117.654 194.777C131.918 203.467 157.674 196.406 169.107 180.671C172.118 176.528 174.818 173.088 175.109 173.026C175.399 172.964 178.827 174.542 182.727 176.53ZM104.447 196.617C104.447 197.469 102.383 206.614 99.8623 216.938C94.8036 237.646 90.7577 278.634 92.5775 290.751C93.583 297.458 93.2952 298.503 90.4407 298.479C84.3728 298.428 82.9173 295.843 80.9335 281.595C78.6619 265.266 69.9581 234.801 67.5662 234.801C66.6754 234.801 66.3712 236.233 66.8904 237.986C69.2749 246.035 77.1226 290.066 77.1226 295.392C77.1226 298.761 74.2152 306.826 70.4426 313.927C66.7683 320.841 61.9301 332.281 59.6912 339.349L55.6198 352.201L44.4149 352.745C33.8693 353.258 32.8929 352.951 27.8233 347.527C24.8595 344.358 21.9011 339.635 21.2453 337.028C19.6914 330.843 26.6265 295.565 33.5669 274.342C44.9413 239.564 64.872 205.432 82.0793 191.261L88.3622 186.086L96.4048 190.576C100.828 193.048 104.447 195.766 104.447 196.617ZM205.166 189.531C216.235 195.123 236.992 217.345 246.751 234.051C258.499 254.164 269.256 281.612 275.657 307.804C282.51 335.84 282.958 345.202 277.848 353.466C272.722 361.751 267.292 364.38 256.717 363.692L247.961 363.122L242.825 349.025C234.196 325.326 223.031 306.346 208.921 291.384C201.758 283.788 195.417 278.04 194.83 278.61C194.242 279.178 196.743 283.901 200.388 289.101C204.032 294.304 206.646 298.927 206.197 299.375C204.851 300.72 155.266 304.285 152.524 303.233C147.404 301.269 149.91 236.162 156.044 211.774C158.171 203.319 158.273 203.23 170.745 199.04C177.652 196.719 185.85 192.797 188.961 190.323C195.931 184.786 195.787 184.792 205.166 189.531ZM33.8001 357.64C37.5254 359.154 44.2327 360.392 48.7049 360.392C55.3047 360.392 57.0626 361.096 58.0244 364.121C59.5619 368.966 54.4613 376.773 49.756 376.773C46.9543 376.773 46.1546 375.537 46.1546 371.205C46.1546 367.956 45.3949 366.105 44.3329 366.762C43.331 367.381 42.5113 372.296 42.5113 377.683C42.5113 383.071 41.6405 388.018 40.5748 388.675C38.1193 390.191 31.7581 384.54 29.226 378.593C27.295 374.061 27.2841 374.059 26.5755 378.138C26.1838 380.392 25.16 382.234 24.3002 382.234C21.7335 382.234 15.1865 372.903 15.1865 369.247C15.1865 364.946 11.5651 364.74 11.4831 369.037C11.4321 371.709 10.8455 371.531 7.83978 367.925C3.16179 362.316 3.3057 356.659 8.29338 350.171C14.5835 341.986 15.7294 341.85 21.5623 348.581C24.568 352.05 30.0748 356.125 33.8001 357.64ZM217.109 377.228C232.763 426.758 242.893 478.689 242.893 509.412C242.893 518.949 239.461 520.566 219.211 520.566C196.902 520.566 197.831 521.45 186.489 489.374C181.051 473.993 173.06 453.746 168.728 444.378C156.042 416.933 135.415 381.076 135.415 386.467C135.415 386.911 136.532 389.931 137.898 393.176C140.221 398.695 139.92 400.206 133.275 416.462C125.435 435.643 115.937 467.35 110.681 491.898L107.269 507.825L90.8305 507.814C73.6505 507.805 62.3836 505.682 59.3069 501.878C56.8895 498.888 69.3533 419.563 77.9351 383.32C81.4691 368.402 84.6952 355.859 85.1051 355.45C85.515 355.04 93.1094 356.449 101.981 358.582C132.421 365.903 163.258 365.066 196.528 356.016C201.49 354.667 206.434 353.461 207.518 353.337C208.602 353.213 212.918 363.965 217.109 377.228ZM292.895 359.198C297.828 365.661 298.807 372.832 295.577 378.863C293.784 382.21 293.416 382.27 291.422 379.543C289.507 376.928 288.848 377.421 286.159 383.488C284.47 387.303 281.401 391.467 279.339 392.743C275.865 394.893 275.675 394.727 276.745 390.468C278.36 384.037 275.338 384.809 271.944 391.693C268.819 398.031 263.865 401.975 261.72 399.831C260.958 399.07 260.519 394.036 260.745 388.642C260.971 383.249 260.326 378.324 259.311 377.698C258.218 377.022 257.466 378.832 257.466 382.126C257.466 386.864 256.781 387.694 252.874 387.694C247.332 387.694 243.693 381.087 245.429 374.178C246.5 369.913 247.438 369.492 255.859 369.492C266.997 369.492 276.255 365.437 281.308 358.348C283.359 355.468 285.762 353.111 286.643 353.111C287.527 353.111 290.34 355.85 292.895 359.198ZM63.7535 510.555C69.5245 512.057 81.4254 513.285 90.2002 513.285C103.333 513.285 105.978 513.749 105.149 515.904C103.768 519.499 94.0148 521.425 90.7795 518.74C88.8358 517.129 85.8811 517.089 78.9242 518.58C62.9775 521.996 27.9381 520.791 27.9381 516.825C27.9381 515.127 45.5735 508.059 50.164 507.919C51.8691 507.867 57.9843 509.053 63.7535 510.555ZM242.6 528.842C245.689 535.617 245.237 538.411 240.242 543.4C234.663 548.977 227.141 549.177 216.861 544.022C207.021 539.088 200.995 533.54 200.995 529.414C200.995 526.53 203.157 526.084 219.667 525.564C229.935 525.24 238.821 524.801 239.412 524.59C240.004 524.379 241.437 526.292 242.6 528.842Z" fill="#2DC92D"/>
</svg>
