<svg width="32" height="32" viewBox="0 0 32 32" fill="none" xmlns="http://www.w3.org/2000/svg">
<path d="M14.0197 0.675293C13.5301 0.675293 13.1447 1.09187 13.1447 1.58154V4.70654C11.7161 5.00536 10.3921 5.5956 9.20724 6.36279L6.95724 4.11279C6.78413 3.93967 6.55504 3.86279 6.33224 3.86279C6.10944 3.86279 5.88036 3.93969 5.70724 4.11279L3.55099 6.30029C3.20472 6.64653 3.20475 7.17277 3.55099 7.51904L5.76974 9.73779C5.00925 10.898 4.45455 12.213 4.14474 13.6128H1.23849C0.748825 13.6128 0.363495 13.9981 0.363495 14.4878V17.5503C0.363485 18.04 0.748815 18.4253 1.23849 18.4253H4.11349C4.4137 19.8936 4.97604 21.2734 5.76974 22.4878L3.55099 24.7065C3.20475 25.0528 3.20472 25.6103 3.55099 25.9565L5.70724 28.1128C6.05347 28.459 6.61097 28.459 6.95724 28.1128L9.17599 25.894C10.3643 26.6707 11.71 27.2163 13.1447 27.519V30.6753C13.1447 31.165 13.5301 31.5503 14.0197 31.5503H17.0822C17.5719 31.5503 17.9572 31.165 17.9572 30.6753V27.519C19.3903 27.2163 20.7411 26.6707 21.926 25.894L24.1135 28.0815C24.4598 28.4278 25.0485 28.4591 25.3947 28.1128L27.551 25.9565C27.8973 25.6103 27.866 25.0528 27.5198 24.7065L25.3011 22.4878C26.0913 21.2734 26.6559 19.8936 26.9573 18.4253H30.3323C30.822 18.4253 31.2386 18.04 31.2386 17.5503V14.4878C31.2385 13.9981 30.822 13.6128 30.3323 13.6128H26.9261C26.6133 12.2209 26.0526 10.9264 25.3011 9.76904L27.5198 7.55029C27.866 7.20404 27.8973 6.61529 27.551 6.26904L25.3947 4.11279C25.2216 3.93966 24.9981 3.85727 24.7697 3.86279C24.5414 3.86879 24.2866 3.97091 24.1135 4.14404L21.926 6.36279C20.7391 5.58821 19.3931 5.00722 17.9572 4.70654V1.58154C17.9572 1.09187 17.5719 0.675293 17.0822 0.675293H14.0197Z" fill="black"/>
</svg>
