<svg width="40" height="40" viewBox="0 0 40 40" fill="none" xmlns="http://www.w3.org/2000/svg">
<path d="M0.685532 0.798218V39.9232H39.8105V0.798218H0.685532ZM2.84178 2.92322H37.6855V37.7982H2.84178V2.92322ZM19.123 4.92322C18.6334 4.92322 18.248 5.3398 18.248 5.82947V8.95447C16.8194 9.25329 15.4954 9.84353 14.3105 10.6107L12.0605 8.36072C11.8874 8.1876 11.6583 8.11072 11.4355 8.11072C11.2127 8.11072 10.9837 8.18762 10.8105 8.36072L8.65428 10.5482C8.30801 10.8945 8.30804 11.4207 8.65428 11.767L10.873 13.9857C10.1125 15.1459 9.55784 16.4609 9.24803 17.8607H6.34178C5.85211 17.8607 5.46678 18.246 5.46678 18.7357V21.7982C5.46677 22.2879 5.8521 22.6732 6.34178 22.6732H9.21678C9.51699 24.1415 10.0793 25.5214 10.873 26.7357L8.65428 28.9545C8.30804 29.3007 8.30801 29.8582 8.65428 30.2045L10.8105 32.3607C11.1568 32.707 11.7143 32.707 12.0605 32.3607L14.2793 30.142C15.4676 30.9186 16.8133 31.4642 18.248 31.767V34.9232C18.248 35.4129 18.6334 35.7982 19.123 35.7982H22.1855C22.6752 35.7982 23.0605 35.4129 23.0605 34.9232V31.767C24.4936 31.4642 25.8444 30.9186 27.0293 30.142L29.2168 32.3295C29.5631 32.6757 30.1518 32.707 30.498 32.3607L32.6543 30.2045C33.0006 29.8582 32.9693 29.3007 32.6231 28.9545L30.4043 26.7357C31.1945 25.5214 31.7592 24.1415 32.0606 22.6732H35.4356C35.9253 22.6732 36.3418 22.2879 36.3418 21.7982V18.7357C36.3418 18.246 35.9253 17.8607 35.4356 17.8607H32.0293C31.7166 16.4688 31.1559 15.1743 30.4043 14.017L32.6231 11.7982C32.9693 11.452 33.0006 10.8632 32.6543 10.517L30.498 8.36072C30.3249 8.18759 30.1014 8.1052 29.873 8.11072C29.6447 8.11672 29.3899 8.21884 29.2168 8.39197L27.0293 10.6107C25.8424 9.83614 24.4964 9.25515 23.0605 8.95447V5.82947C23.0605 5.3398 22.6752 4.92322 22.1855 4.92322H19.123ZM20.6543 15.7357C23.2093 15.7357 25.2793 17.8057 25.2793 20.3607C25.2793 22.9158 23.2093 24.9857 20.6543 24.9857C18.0992 24.9857 16.0293 22.9158 16.0293 20.3607C16.0293 17.8057 18.0992 15.7357 20.6543 15.7357Z" fill="#2dc92d"/>
</svg>
