<svg width="66" height="66" viewBox="0 0 66 66" fill="none" xmlns="http://www.w3.org/2000/svg">
<path d="M11.7234 7.77193L11.7208 7.77451L7.25374 12.3064C7.25329 12.3068 7.25285 12.3072 7.25241 12.3077C6.34065 13.2207 6.34122 14.6272 7.25371 15.5398L7.25372 15.5398L11.5679 19.8539C10.1403 22.1152 9.07726 24.6403 8.43987 27.3178H2.81376C1.5226 27.3178 0.5 28.3404 0.5 29.6316V35.9798C0.499974 37.2709 1.5226 38.2935 2.81374 38.2935H8.36844C8.9911 41.1115 10.0736 43.7704 11.5683 46.1456L7.25372 50.4602L7.6006 50.8071L7.25372 50.4602C6.34077 51.3732 6.34066 52.8454 7.25373 53.7584L11.7233 58.2281C12.6363 59.1411 14.1085 59.141 15.0215 58.2281L14.668 57.8745L15.0215 58.2281L19.3362 53.9134C21.6575 55.3727 24.2471 56.4224 26.9939 57.0461V63.1862C26.9939 64.4774 28.0164 65.5 29.3076 65.5H35.6558C36.947 65.5 37.9696 64.4774 37.9696 63.1862V57.046C40.7133 56.4225 43.311 55.3731 45.6276 53.9137L49.8771 58.1633L50.2307 57.8097L49.8771 58.1633C50.7675 59.0535 52.3052 59.1631 53.2401 58.2281C53.2401 58.228 53.2401 58.228 53.2401 58.228L57.7097 53.7584C58.6454 52.8227 58.5345 51.3497 57.6451 50.4602L57.6451 50.4602L53.33 46.1451C54.8184 43.7705 55.9049 41.1119 56.53 38.2935H63.1215C64.3895 38.2935 65.5 37.2935 65.5 35.9798V29.6316C65.5 28.3179 64.3895 27.3178 63.1215 27.3178H56.4575C55.8136 24.6561 54.7405 22.169 53.3299 19.9198L57.6451 15.6046C58.5354 14.7142 58.6447 13.1765 57.7097 12.2416L53.2401 7.77195C52.7808 7.31264 52.1837 7.09281 51.5789 7.10743L51.5779 7.10746C50.9821 7.12312 50.3303 7.38351 49.8771 7.83673L49.8746 7.83925L45.6249 12.1497C43.312 10.6927 40.7238 9.58065 37.9696 8.95375V2.87854C37.9696 1.61046 36.9695 0.5 35.6558 0.5H29.3076C27.9939 0.5 26.9939 1.61046 26.9939 2.87854V8.95386C24.2524 9.57998 21.7034 10.7086 19.4017 12.1521L15.0216 7.77196C15.0216 7.77196 15.0215 7.77196 15.0215 7.77195C14.5555 7.30591 13.9466 7.10729 13.3724 7.10729C12.7982 7.10729 12.1894 7.30598 11.7234 7.77193Z" stroke="#44FF57"/>
</svg>
