<svg width="66" height="66" viewBox="0 0 66 66" fill="none" xmlns="http://www.w3.org/2000/svg">
<path d="M11.7234 7.77193L11.7208 7.77451L7.25374 12.3064C7.25329 12.3068 7.25285 12.3072 7.25241 12.3077C6.34065 13.2207 6.34122 14.6272 7.25371 15.5398L7.25372 15.5398L11.5679 19.8539C10.1403 22.1152 9.07726 24.6403 8.43987 27.3178H2.81376C1.5226 27.3178 0.5 28.3404 0.5 29.6316V35.9798C0.499974 37.2709 1.5226 38.2935 2.81374 38.2935H8.36844C8.9911 41.1115 10.0736 43.7704 11.5683 46.1456L7.25372 50.4602L7.6006 50.8071L7.25372 50.4602C6.34077 51.3732 6.34066 52.8454 7.25373 53.7584L11.7233 58.2281C12.6363 59.1411 14.1085 59.141 15.0215 58.2281L14.668 57.8745L15.0215 58.2281L19.3362 53.9134C21.6575 55.3727 24.2471 56.4224 26.9939 57.0461V63.1862C26.9939 64.4774 28.0164 65.5 29.3076 65.5H35.6558C36.947 65.5 37.9696 64.4774 37.9696 63.1862V57.046C40.7133 56.4225 43.311 55.3731 45.6276 53.9137L49.8771 58.1633L50.2307 57.8097L49.8771 58.1633C50.7675 59.0535 52.3052 59.1631 53.2401 58.2281C53.2401 58.228 53.2401 58.228 53.2401 58.228L57.7097 53.7584C58.6454 52.8227 58.5345 51.3497 57.6451 50.4602L57.6451 50.4602L53.33 46.1451C54.8184 43.7705 55.9049 41.1119 56.53 38.2935H63.1215C64.3895 38.2935 65.5 37.2935 65.5 35.9798V29.6316C65.5 28.3179 64.3895 27.3178 63.1215 27.3178H56.4575C55.8136 24.6561 54.7405 22.169 53.3299 19.9198L57.6451 15.6046C58.5354 14.7142 58.6447 13.1765 57.7097 12.2416L53.2401 7.77195C52.7808 7.31264 52.1837 7.09281 51.5789 7.10743L51.5779 7.10746C50.9821 7.12312 50.3303 7.38351 49.8771 7.83673L49.8746 7.83925L45.6249 12.1497C43.312 10.6927 40.7238 9.58065 37.9696 8.95375V2.87854C37.9696 1.61046 36.9695 0.5 35.6558 0.5H29.3076C27.9939 0.5 26.9939 1.61046 26.9939 2.87854V8.95386C24.2524 9.57998 21.7034 10.7086 19.4017 12.1521L15.0216 7.77196C15.0216 7.77196 15.0215 7.77196 15.0215 7.77195C14.5555 7.30591 13.9466 7.10729 13.3724 7.10729C12.7982 7.10729 12.1894 7.30598 11.7234 7.77193Z" stroke="#44FF57"/>
<mask id="mask0_204_95" style="mask-type:alpha" maskUnits="userSpaceOnUse" x="1" y="1" width="64" height="64">
<path d="M29.3076 1C28.2926 1 27.4939 1.86352 27.4939 2.87854V9.35628C24.5325 9.97569 21.7879 11.1992 19.3319 12.7895L14.668 8.12551C14.3092 7.76665 13.8343 7.60729 13.3724 7.60729C12.9106 7.60729 12.4358 7.76669 12.0769 8.12551L7.60727 12.6599C6.8895 13.3776 6.88956 14.4685 7.60727 15.1862L12.2065 19.7854C10.6301 22.1903 9.48024 24.9162 8.83804 27.8178H2.81376C1.79874 27.8178 1 28.6165 1 29.6316V35.9798C0.999979 36.9948 1.79872 37.7935 2.81376 37.7935H8.77326C9.39556 40.8372 10.5612 43.6974 12.2065 46.2146L7.60727 50.8138C6.88956 51.5315 6.8895 52.6871 7.60727 53.4049L12.0769 57.8745C12.7946 58.5922 13.9502 58.5922 14.668 57.8745L19.2672 53.2753C21.7303 54.8852 24.5198 56.0162 27.4939 56.6437V63.1862C27.4939 64.2013 28.2926 65 29.3076 65H35.6558C36.6708 65 37.4696 64.2013 37.4696 63.1862V56.6437C40.4401 56.0162 43.2402 54.8852 45.6963 53.2753L50.2307 57.8097C50.9484 58.5274 52.1688 58.5923 52.8865 57.8745L57.3562 53.4049C58.0739 52.6871 58.0091 51.5315 57.2915 50.8138L52.6923 46.2146C54.3303 43.6974 55.5008 40.8372 56.1255 37.7935H63.1215C64.1365 37.7935 65 36.9948 65 35.9798V29.6316C65 28.6165 64.1365 27.8178 63.1215 27.8178H56.0607C55.4124 24.9325 54.2502 22.2492 52.6923 19.8502L57.2915 15.251C58.0092 14.5333 58.074 13.3129 57.3562 12.5951L52.8865 8.12551C52.5277 7.76663 52.0643 7.59585 51.591 7.60729C51.1178 7.61972 50.5895 7.83141 50.2307 8.19028L45.6963 12.7895C43.2359 11.1839 40.446 9.97955 37.4696 9.35628V2.87854C37.4696 1.86352 36.6708 1 35.6558 1H29.3076Z" fill="black"/>
</mask>
<g mask="url(#mask0_204_95)">
<path d="M29.3076 1C28.2926 1 27.4939 1.86352 27.4939 2.87854V9.35628C24.5325 9.97569 21.7879 11.1992 19.3319 12.7895L14.668 8.12551C14.3092 7.76665 13.8343 7.60729 13.3724 7.60729C12.9106 7.60729 12.4358 7.76669 12.0769 8.12551L7.60727 12.6599C6.8895 13.3776 6.88956 14.4685 7.60727 15.1862L12.2065 19.7854C10.6301 22.1903 9.48024 24.9162 8.83804 27.8178H2.81376C1.79874 27.8178 1 28.6165 1 29.6316V35.9798C0.999979 36.9948 1.79872 37.7935 2.81376 37.7935H8.77326C9.39556 40.8372 10.5612 43.6974 12.2065 46.2146L7.60727 50.8138C6.88956 51.5315 6.8895 52.6871 7.60727 53.4049L12.0769 57.8745C12.7946 58.5922 13.9502 58.5922 14.668 57.8745L19.2672 53.2753C21.7303 54.8852 24.5198 56.0162 27.4939 56.6437V63.1862C27.4939 64.2013 28.2926 65 29.3076 65H35.6558C36.6708 65 37.4696 64.2013 37.4696 63.1862V56.6437C40.4401 56.0162 43.2402 54.8852 45.6963 53.2753L50.2307 57.8097C50.9484 58.5274 52.1688 58.5923 52.8865 57.8745L57.3562 53.4049C58.0739 52.6871 58.0091 51.5315 57.2915 50.8138L52.6923 46.2146C54.3303 43.6974 55.5008 40.8372 56.1255 37.7935H63.1215C64.1365 37.7935 65 36.9948 65 35.9798V29.6316C65 28.6165 64.1365 27.8178 63.1215 27.8178H56.0607C55.4124 24.9325 54.2502 22.2492 52.6923 19.8502L57.2915 15.251C58.0092 14.5333 58.074 13.3129 57.3562 12.5951L52.8865 8.12551C52.5277 7.76663 52.0643 7.59585 51.591 7.60729C51.1178 7.61972 50.5895 7.83141 50.2307 8.19028L45.6963 12.7895C43.2359 11.1839 40.446 9.97955 37.4696 9.35628V2.87854C37.4696 1.86352 36.6708 1 35.6558 1H29.3076Z" fill="#44FF57"/>
</g>
</svg>
