<svg width="192" height="84" viewBox="0 0 192 84" fill="none" xmlns="http://www.w3.org/2000/svg">
<path d="M95.8182 2C84.2447 2 73.8025 6.75963 66.4055 14.4113H33.9327C26.4505 14.4113 18.1284 17.0944 18.1284 20.4397V21.2199C18.1284 24.5652 26.4505 27.2837 33.9327 27.2837H58.0533C57.008 29.8841 56.2233 32.6052 55.7492 35.4397H17.8044C10.3222 35.4397 2 38.1227 2 41.4681V42.2482C2 45.5936 10.3222 48.3121 17.8044 48.3121H55.7132C56.1683 51.1419 56.9211 53.8686 57.9453 56.4681H33.9327C26.4505 56.4681 18.1284 59.1511 18.1284 62.4965V63.2766C18.1284 66.622 26.4505 69.3404 33.9327 69.3404H66.1895C73.5983 77.1207 84.1341 82 95.8182 82C107.502 82 118.038 77.1207 125.447 69.3404H157.704C165.186 69.3404 173.508 66.622 173.508 63.2766V62.4965C173.508 59.1511 165.186 56.4681 157.704 56.4681H133.691C134.715 53.8686 135.468 51.1419 135.923 48.3121H173.832C181.314 48.3121 189.636 45.5936 189.636 42.2482V41.4681C189.636 38.1227 181.314 35.4397 173.832 35.4397H135.887C135.413 32.6052 134.628 29.8841 133.583 27.2837H157.704C165.186 27.2837 173.508 24.5652 173.508 21.2199V20.4397C173.508 17.0944 165.186 14.4113 157.704 14.4113H125.231C117.834 6.75963 107.392 2 95.8182 2ZM95.8182 11.9291C112.679 11.9291 126.347 25.3923 126.347 42C126.347 58.6077 112.679 72.0709 95.8182 72.0709C78.9576 72.0709 65.2895 58.6077 65.2895 42C65.2895 25.3923 78.9576 11.9291 95.8182 11.9291Z" stroke="#2DC92D" stroke-width="3"/>
</svg>
