<svg width="398" height="210" viewBox="0 0 398 210" fill="none" xmlns="http://www.w3.org/2000/svg">
<g clip-path="url(#clip0_147_15)">
<path fill-rule="evenodd" clip-rule="evenodd" d="M350.361 0.635498C328.043 3.3095 317.492 33.3715 331.485 54.4145C337.396 63.3035 349.589 68.4485 358.494 65.8105C360.765 65.1375 360.627 65.6275 360.627 58.1975C360.627 50.5845 360.943 51.2445 357.712 52.1035C348.281 54.6115 340.244 45.8315 340.251 33.0305C340.259 19.8965 348.616 11.7995 359.098 14.7725C359.65 14.9295 360.22 14.9845 360.364 14.8945C360.671 14.7055 360.727 2.5195 360.423 2.0825C359.679 1.0115 354.015 0.197498 350.361 0.635498ZM37.7004 1.3595C37.7034 1.4715 38.0154 2.5835 38.3944 3.8305C38.7734 5.0775 39.4784 7.5375 39.9604 9.2975C40.4424 11.0575 41.6894 15.3775 42.7324 18.8975C45.4764 28.1575 47.5064 35.1685 48.2534 37.9635C48.4694 38.7705 48.9895 40.5705 49.4095 41.9635C49.8295 43.3575 50.7334 46.4175 51.4184 48.7635C52.1034 51.1105 52.7764 53.3905 52.9144 53.8305C53.0514 54.2705 53.6495 56.3705 54.2425 58.4975C54.8355 60.6235 55.5644 63.1135 55.8624 64.0305L56.4044 65.6975L61.9165 65.6935C68.0765 65.6885 67.8494 65.7445 68.3414 64.0975C68.5384 63.4375 68.8064 62.5375 68.9364 62.0975C69.0674 61.6575 70.0724 58.0575 71.1714 54.0975C72.2694 50.1375 73.3904 46.1175 73.6624 45.1635C73.9334 44.2105 74.4285 42.4105 74.7615 41.1635C75.0945 39.9175 75.7174 37.6975 76.1454 36.2305C76.5734 34.7635 77.1624 32.6635 77.4534 31.5635C77.7454 30.4635 78.0895 29.2035 78.2195 28.7635C78.3495 28.3235 78.6945 27.0635 78.9865 25.9635C79.2785 24.8635 79.8345 22.8235 80.2215 21.4305C80.6095 20.0375 81.5254 16.7375 82.2574 14.0975C82.9904 11.4575 83.7605 8.6975 83.9705 7.9635C85.2465 3.4935 85.6945 1.8135 85.6945 1.5045C85.6945 1.2235 84.2504 1.1695 78.2944 1.2265L70.8944 1.2975L69.8934 5.1635C67.3164 15.1205 64.0064 28.0555 63.8204 28.8975C63.4394 30.6195 62.4594 34.0735 62.2414 34.4635C61.9314 35.0165 61.5885 34.2865 60.9375 31.6865C60.6455 30.5195 60.1635 28.6635 59.8685 27.5635C59.5725 26.4635 58.8494 23.7035 58.2624 21.4305C55.2824 9.8905 53.5644 3.3055 53.2184 2.0975L52.9894 1.2975L45.3424 1.2265C41.1354 1.1875 37.6974 1.2475 37.7004 1.3595ZM92.1274 2.0305C91.9764 2.5075 91.2404 5.5975 90.4934 8.8975C89.7464 12.1975 88.6624 16.8775 88.0854 19.2975C87.5084 21.7175 86.6294 25.4975 86.1314 27.6975C85.6344 29.8975 85.0204 32.5375 84.7664 33.5635C84.5134 34.5905 84.2034 35.8505 84.0774 36.3635C83.9514 36.8775 83.5355 38.6775 83.1525 40.3635C82.7705 42.0505 82.1164 44.8705 81.6994 46.6305C81.2824 48.3905 80.6804 50.9705 80.3624 52.3635C80.0444 53.7575 79.4365 56.3445 79.0125 58.1145C77.6285 63.8895 77.3904 65.2335 77.7014 65.5445C78.0164 65.8585 91.2894 65.7915 91.6024 65.4745C91.7484 65.3265 93.1994 58.7495 93.6274 56.2945C93.8004 55.3055 94.0584 55.2665 99.8274 55.3545L104.761 55.4305L105.113 56.8975C105.306 57.7035 105.855 59.9835 106.331 61.9635L107.198 65.5635L114.579 65.6345L121.961 65.7055V65.1015C121.961 64.4695 121.597 62.8395 119.68 54.8975C119.043 52.2575 117.986 47.8775 117.331 45.1635C116.677 42.4505 115.823 38.8505 115.435 37.1635C115.046 35.4775 114.447 32.9575 114.103 31.5635C113.759 30.1705 113.09 27.3505 112.617 25.2975C112.143 23.2435 111.001 18.4435 110.079 14.6305C109.157 10.8175 108.086 6.3805 107.699 4.7725C106.744 0.801498 107.577 1.1635 99.4155 1.1635H92.4025L92.1274 2.0305ZM126.076 1.5155C125.65 2.6235 126.121 53.3375 126.57 54.8515C128.956 62.8865 134.779 66.5695 145.161 66.6115C154.753 66.6505 160.333 63.9485 163.297 57.8305C164.935 54.4515 164.918 54.7805 164.836 26.7635L164.761 1.2975L157.761 1.2265C153.911 1.1865 150.734 1.1865 150.701 1.2265C150.668 1.2655 150.578 12.3375 150.501 25.8305L150.361 50.3635L149.638 51.5935C148.109 54.1945 143.394 54.3975 141.711 51.9355C140.406 50.0275 140.372 49.3465 140.366 24.8525C140.363 12.2875 140.288 1.8175 140.199 1.5855C139.977 1.0065 126.297 0.939498 126.076 1.5155ZM172.894 1.6305C172.891 17.1065 172.889 65.1285 172.891 65.3665C172.893 65.6325 175.691 65.6875 186.427 65.6325L199.961 65.5635L200.032 58.9705L200.103 52.3765L199.439 52.2095C199.074 52.1185 196.253 52.0855 193.171 52.1365C188.684 52.2115 187.539 52.1595 187.43 51.8755C187.355 51.6805 187.292 40.4605 187.29 26.9425C187.288 13.4245 187.214 2.0935 187.126 1.7635L186.965 1.1635H179.93C173.407 1.1635 172.894 1.1975 172.894 1.6305ZM195.74 1.3395C195.579 1.5015 195.468 14.4345 195.627 14.5425C195.664 14.5665 197.854 14.6565 200.494 14.7425L205.294 14.8975L205.427 40.2305L205.561 65.5635L212.561 65.6345L219.561 65.7065V40.3835C219.561 20.4195 219.631 15.0165 219.894 14.8465C220.077 14.7275 222.267 14.6305 224.761 14.6305H229.294V7.9635V1.2975L212.607 1.2285C203.429 1.1905 195.839 1.2405 195.74 1.3395ZM254.494 7.9575V14.7515L259.361 14.8245L264.227 14.8975L264.361 40.2305L264.494 65.5635L271.493 65.6345L278.491 65.7065L278.559 40.3015L278.627 14.8975L283.29 14.7635L287.952 14.6305L288.141 13.5635C288.373 12.2545 288.415 2.5935 288.193 1.7635L288.032 1.1635H271.263H254.494V7.9575ZM294.227 33.4015C294.227 58.9635 294.296 65.6595 294.561 65.7355C294.744 65.7875 300.774 65.7705 307.961 65.6975L321.027 65.5635L321.099 59.1825C321.147 54.9255 321.076 52.7055 320.886 52.5155C320.71 52.3385 318.348 52.1795 314.681 52.0975L308.761 51.9635L308.589 49.5635C308.324 45.8555 308.341 41.0745 308.622 40.6305C308.83 40.3005 309.754 40.2225 313.884 40.1875C316.64 40.1645 319.046 40.1345 319.232 40.1215C319.497 40.1025 319.555 38.6495 319.499 33.3635L319.427 26.6305L314.248 26.5575C310.977 26.5125 308.937 26.3775 308.714 26.1915C308.317 25.8625 308.192 15.7095 308.577 15.1025C308.73 14.8625 310.391 14.7555 314.773 14.7025L320.761 14.6305L320.832 7.8975L320.903 1.1635H307.565H294.227V33.4015ZM100.399 31.0025C100.822 33.4375 101.28 36.0305 101.416 36.7635C102.267 41.3475 102.498 42.9025 102.376 43.2215C102.119 43.8905 96.2154 43.5765 96.2724 42.8975C96.3984 41.3845 98.6944 26.8595 98.9204 26.1485C99.2324 25.1655 99.5885 26.3345 100.399 31.0025ZM228.681 27.6175C228.189 28.1085 228.23 39.9235 228.725 40.3335C228.987 40.5515 232.581 40.6165 241.591 40.5665L254.094 40.4975L254.166 34.1155C254.221 29.1885 254.16 27.6855 253.899 27.5205C253.318 27.1515 229.053 27.2445 228.681 27.6175ZM194.154 77.7085C189.205 78.0205 183.683 79.0845 178.766 80.6755C169.09 83.8055 159.72 89.5585 152.527 96.7845L149.893 99.4305L116.394 99.5785C86.4354 99.7105 82.6874 99.7735 80.9314 100.17C78.8914 100.632 73.9565 102.086 73.0275 102.499C72.7345 102.63 71.6075 103.104 70.5245 103.554C68.7965 104.27 66.8714 105.238 64.6274 106.517C63.2354 107.31 61.6945 108.684 61.6945 109.131C61.6945 110.725 69.0025 114.693 75.9725 116.884C82.2195 118.848 80.6725 118.763 110.166 118.763C126.714 118.763 136.843 118.86 137.144 119.021C137.595 119.262 137.554 119.489 136.503 122.559C135.885 124.364 135.314 126.138 135.233 126.502C135.152 126.866 134.84 128.368 134.539 129.84C134.237 131.311 133.867 132.842 133.716 133.241L133.441 133.964H77.9324C44.5205 133.964 22.0395 134.063 21.4585 134.213C20.9285 134.349 19.7745 134.601 18.8945 134.773C12.1535 136.093 0.36145 141.679 0.36145 143.553C0.36145 145.065 8.04245 149.027 15.8275 151.529C20.7485 153.111 16.0474 152.992 77.3554 153.09C130.092 153.173 133.43 153.205 133.652 153.637C133.782 153.89 133.97 154.638 134.07 155.298C134.38 157.335 135.301 160.904 136.252 163.754C136.752 165.251 137.161 166.596 137.161 166.743C137.161 166.918 127.967 167.037 110.294 167.092C80.8414 167.184 83.0324 167.073 76.8114 168.797C71.1884 170.356 62.3625 174.74 61.7775 176.266C61.0505 178.16 70.6134 183.18 78.4944 185.04C80.0344 185.404 81.5344 185.782 81.8274 185.883C82.1214 185.983 97.2694 186.133 115.491 186.215L148.62 186.363L152.291 189.99C161.163 198.756 169.957 203.947 181.161 207.029C181.821 207.211 182.661 207.46 183.027 207.583C188.358 209.374 201.03 210.018 208.581 208.883C223.125 206.696 235.758 200.274 246.141 189.792L249.656 186.245L282.008 186.236L314.361 186.226L317.427 185.581C322.695 184.474 324.507 183.847 330.747 180.969C332.376 180.218 336.079 177.689 336.383 177.122C337.383 175.254 327.268 170.157 318.094 167.906L315.161 167.186L288.161 167.098C265.573 167.025 261.161 166.952 261.161 166.648C261.161 166.448 261.571 165.005 262.073 163.441C262.574 161.878 263.313 159.076 263.715 157.215C264.118 155.354 264.56 153.684 264.698 153.504C264.895 153.247 277.042 153.159 320.722 153.098C382.154 153.012 376.704 153.158 382.59 151.447C389.17 149.534 397.694 145.076 397.694 143.548C397.694 141.584 386.598 136.363 378.718 134.62L375.747 133.964H320.353C276.358 133.964 264.904 133.896 264.693 133.631C264.546 133.448 264.098 131.738 263.697 129.831C263.295 127.924 262.434 124.754 261.783 122.788C260.851 119.977 260.672 119.166 260.946 118.992C261.137 118.871 273.271 118.77 287.909 118.767C303.094 118.765 315.005 118.658 315.643 118.518C316.258 118.383 317.443 118.136 318.277 117.969C324.682 116.688 336.627 111.064 336.627 109.331C336.627 108.106 329.545 103.987 324.494 102.275C316.06 99.4165 318.457 99.5655 281.02 99.5645L248.48 99.5635L246.62 97.6655C237.678 88.5365 226.509 82.1835 214.361 79.3135C213.627 79.1405 212.607 78.8975 212.094 78.7745C211.581 78.6515 210.141 78.4065 208.894 78.2315C207.647 78.0555 206.051 77.8035 205.348 77.6715C203.895 77.3985 198.807 77.4145 194.154 77.7085ZM203.505 92.3765C211.139 93.1985 218.181 95.3435 223.733 98.5375C224.592 99.0305 225.628 99.6065 226.037 99.8165C235.496 104.67 246.575 119.875 248.88 131.163C249 131.75 249.287 133.13 249.519 134.23C250.514 138.951 250.591 147.785 249.675 152.23C246.37 168.273 238.182 180.05 224.894 187.874C222.971 189.006 219.492 190.764 219.175 190.764C219.09 190.764 218.513 190.995 217.891 191.279C209.102 195.284 195.27 195.856 184.34 192.665C167.24 187.672 152.739 172.318 149.173 155.43C149.049 154.843 148.733 153.344 148.471 152.098C147.809 148.95 147.782 138.619 148.428 135.298C149.437 130.102 150.47 126.634 152.153 122.79C160.808 103.018 182.584 90.1215 203.505 92.3765ZM193.427 112.374C168.613 117.208 158.831 147.024 176.084 165.24C196.328 186.614 232.048 171.294 230.664 141.831C229.775 122.9 211.917 108.772 193.427 112.374Z" fill="#2dc92d"/>
</g>
<defs>
<clipPath id="clip0_147_15">
<rect width="397.333" height="208.933" fill="#2dc92d" transform="translate(0.36145 0.514603)"/>
</clipPath>
</defs>
</svg>
