<svg width="32" height="32" viewBox="0 0 32 32" fill="none" xmlns="http://www.w3.org/2000/svg">
<path d="M14.1434 0.675293C13.6538 0.675293 13.2684 1.09187 13.2684 1.58154V4.70654C11.8398 5.00536 10.5158 5.5956 9.33093 6.36279L7.08093 4.11279C6.90782 3.93967 6.67873 3.86279 6.45593 3.86279C6.23313 3.86279 6.00405 3.93969 5.83093 4.11279L3.67468 6.30029C3.32841 6.64653 3.32844 7.17277 3.67468 7.51904L5.89343 9.73779C5.13294 10.898 4.57824 12.213 4.26843 13.6128H1.36218C0.872513 13.6128 0.487183 13.9981 0.487183 14.4878V17.5503C0.487173 18.04 0.872503 18.4253 1.36218 18.4253H4.23718C4.53739 19.8936 5.09973 21.2734 5.89343 22.4878L3.67468 24.7065C3.32844 25.0528 3.32841 25.6103 3.67468 25.9565L5.83093 28.1128C6.17716 28.459 6.73466 28.459 7.08093 28.1128L9.29968 25.894C10.488 26.6707 11.8337 27.2163 13.2684 27.519V30.6753C13.2684 31.165 13.6538 31.5503 14.1434 31.5503H17.2059C17.6956 31.5503 18.0809 31.165 18.0809 30.6753V27.519C19.514 27.2163 20.8648 26.6707 22.0497 25.894L24.2372 28.0815C24.5835 28.4278 25.1722 28.4591 25.5184 28.1128L27.6747 25.9565C28.021 25.6103 27.9897 25.0528 27.6435 24.7065L25.4247 22.4878C26.2149 21.2734 26.7796 19.8936 27.081 18.4253H30.456C30.9457 18.4253 31.3622 18.04 31.3622 17.5503V14.4878C31.3622 13.9981 30.9457 13.6128 30.456 13.6128H27.0497C26.737 12.2209 26.1763 10.9264 25.4247 9.76904L27.6435 7.55029C27.9897 7.20404 28.021 6.61529 27.6747 6.26904L25.5184 4.11279C25.3453 3.93966 25.1218 3.85727 24.8934 3.86279C24.6651 3.86879 24.4103 3.97091 24.2372 4.14404L22.0497 6.36279C20.8628 5.58821 19.5168 5.00722 18.0809 4.70654V1.58154C18.0809 1.09187 17.6956 0.675293 17.2059 0.675293H14.1434ZM15.6747 11.4878C18.2297 11.4878 20.2997 13.5578 20.2997 16.1128C20.2997 18.6678 18.2297 20.7378 15.6747 20.7378C13.1196 20.7378 11.0497 18.6678 11.0497 16.1128C11.0497 13.5578 13.1196 11.4878 15.6747 11.4878Z" fill="black"/>
</svg>
