<svg width="177" height="301" viewBox="0 0 177 301" fill="none" xmlns="http://www.w3.org/2000/svg">
<path fill-rule="evenodd" clip-rule="evenodd" d="M37.4564 1.31581C37.4564 1.57224 37.5152 1.77984 37.6216 1.93149L39.3886 8.9447C39.47 9.88901 39.753 11.1034 40.0957 11.9003C40.1255 11.9695 40.1545 12.0351 40.1828 12.0968L41.5552 17.5439C41.882 19.2614 42.3206 21.5039 42.8009 23.902C43.8039 28.9141 45.3373 35.1261 46.2074 37.7056C47.7479 42.2733 47.7435 42.517 46.0613 46.9431C44.7276 50.4507 44.4021 53.1164 44.6335 58.607C44.8957 64.8111 45.2986 66.3094 47.7734 70.2894C50.1989 74.1912 50.5367 75.4026 50.0959 78.6226C49.6262 82.0475 49.8584 82.6862 52.6376 85.6334C54.3197 87.4176 56.8684 89.1111 58.3015 89.3979C59.7347 89.6847 63.1948 91.8709 65.9907 94.2569C68.7875 96.6437 71.8675 99.0199 72.8353 99.5372C73.803 100.055 74.2561 100.777 73.8408 101.141C73.4264 101.504 70.7115 102.722 67.8083 103.846C64.905 104.971 59.4426 107.422 55.6693 109.293C50.864 111.676 46.6833 114.726 41.7109 119.477C37.8074 123.206 32.0792 129.626 28.9825 133.743C25.8866 137.858 21.6092 144.593 19.4775 148.708C17.3458 152.823 14.9828 157.969 14.2253 160.145C13.4678 162.32 12.8432 165.228 12.8361 166.608C12.8265 168.35 11.1875 171.149 7.46516 175.776C4.51883 179.438 1.73173 183.425 1.27249 184.633C0.812374 185.843 0.416479 188.843 0.392726 191.302C0.368972 193.76 0.829091 197.658 1.41589 199.965C2.00182 202.272 2.84639 204.384 3.29243 204.66C3.73759 204.935 4.67191 204.688 5.36868 204.109C6.40416 203.249 6.80358 203.517 7.55578 205.573C8.06252 206.957 8.65021 208.583 8.86223 209.188C9.07513 209.793 9.62851 210.287 10.093 210.287C10.5575 210.287 11.5596 209.665 12.3206 208.905C13.0807 208.144 13.7027 207.126 13.7027 206.642C13.7027 206.157 14.7461 206.582 16.0209 207.584C17.2957 208.587 19.2329 209.408 20.3256 209.408C21.4182 209.408 22.5523 208.781 22.8461 208.016C23.1399 207.25 23.3801 203.522 23.3801 199.73C23.3801 195.938 23.6203 192.21 23.9141 191.445C24.208 190.679 24.771 190.053 25.166 190.053C25.5611 190.053 27.1138 191.283 28.6165 192.785C31.0332 195.202 31.7273 195.447 34.6226 194.906C36.4235 194.569 38.3915 193.885 38.9959 193.385C39.6003 192.886 40.0957 192.142 40.0957 191.734C40.0957 191.326 38.5121 188.542 36.5766 185.547C34.6411 182.553 33.0575 179.57 33.0575 178.919C33.0575 178.268 33.5845 177.736 34.2285 177.736C34.8725 177.736 35.9546 176.7 36.632 175.433C37.3103 174.166 40.7819 170.405 44.3476 167.075C47.9133 163.745 51.1728 161.021 51.5907 161.021C52.0086 161.021 52.788 161.837 53.322 162.835C53.8561 163.834 54.5168 168.104 54.7904 172.324C55.1388 177.705 54.8502 182.222 53.8253 187.444C53.0203 191.54 51.5493 198.455 50.5561 202.809C49.5619 207.164 47.4267 214.884 45.8097 219.965C44.1936 225.045 42.0751 232.172 41.103 235.801C40.1308 239.43 38.9133 245.246 38.396 248.726C37.8795 252.206 37.4564 258.051 37.4564 261.714C37.4564 265.44 37.9306 269.135 38.5323 270.099C39.4613 271.586 39.2344 272.217 36.8784 274.706C35.3766 276.292 32.3194 280.749 30.0839 284.609C27.5282 289.023 26.0194 292.689 26.0194 294.484C26.0194 296.756 26.5499 297.613 28.6147 298.681C30.0426 299.419 32.5385 300.023 34.1616 300.023C35.9045 300.023 38.7549 298.982 41.125 297.478C44.622 295.26 45.8229 293.591 50.4584 284.502C55.7599 274.106 55.7933 274.064 60.3654 272.311C63.7613 271.009 65.2578 269.866 66.1253 267.912C66.7702 266.46 68.9264 261.116 70.9174 256.035C72.9083 250.955 77.5341 241.057 81.1974 234.041C84.8608 227.025 89.0264 219.206 90.4543 216.666C91.8813 214.126 93.3162 212.047 93.6426 212.047C93.9681 212.047 95.4786 214.323 96.998 217.106C98.5174 219.888 101.602 226.277 103.851 231.304C106.102 236.331 109.693 245.635 111.833 251.979C114.634 260.283 116.344 264.016 117.939 265.306C119.158 266.291 120.154 267.932 120.154 268.951C120.154 269.97 120.781 271.043 121.546 271.337C122.311 271.631 123.796 271.878 124.845 271.887C125.894 271.896 131.107 273.31 136.43 275.03C142.305 276.928 148.734 278.35 152.794 278.65C159.094 279.114 159.564 279.023 160.931 277.07C161.73 275.931 162.383 274.08 162.383 272.957C162.383 271.319 161.306 270.407 156.934 268.34C153.937 266.922 149.345 265.283 146.729 264.698C144.119 264.114 142.942 263.851 142.522 263.14C142.177 262.556 142.344 261.67 142.647 260.055C143.018 258.086 143.324 255.485 143.327 254.276C143.331 253.066 142.676 247.523 141.872 241.959C141.045 236.235 138.863 227.066 136.846 220.845C134.887 214.796 132.294 205.889 131.085 201.05C129.277 193.807 128.794 189.221 128.354 175.097C128.059 165.661 128.107 154.867 128.462 151.108C128.636 149.259 128.763 147.911 129.143 146.638C130.166 143.206 133.028 140.323 143.602 129.667C157.427 115.735 158.203 114.767 160.345 108.787C163.022 101.313 163.376 99.0161 164.384 92.4845L164.385 92.4819C164.602 91.0706 164.851 89.4617 165.16 87.5601C166.103 81.7536 167.106 74.529 167.389 71.5044C167.746 67.6827 167.597 66.0059 166.902 66.0059C166.353 66.0059 165.902 65.4384 165.902 64.7451C165.902 64.0519 166.768 63.21 167.826 62.8748C169.713 62.2756 169.718 62.2387 168.046 60.9551C166.819 60.012 166.659 59.5273 167.474 59.2229C168.097 58.9897 169.807 57.7888 171.276 56.5536C173.248 54.8935 173.817 53.8 173.457 52.3624C173.135 51.078 173.562 49.8806 174.714 48.8372C175.674 47.9689 176.459 46.4724 176.459 45.5117C176.459 44.5519 175.815 43.2947 175.028 42.7193C173.858 41.8633 173.785 41.3223 174.629 39.7448C175.197 38.6847 175.421 37.4293 175.128 36.9551C174.835 36.4818 172.864 36.0938 170.746 36.0938C168.628 36.0938 165.895 36.4748 164.671 36.9402C163.213 37.4944 162.257 37.4812 161.898 36.9014C161.597 36.4149 161.881 35.375 162.527 34.5912C163.174 33.8073 165.952 31.2903 168.702 28.9985C171.452 26.7067 173.465 24.5944 173.174 24.3041C172.884 24.0146 171.258 23.7771 169.561 23.7771C166.475 23.7771 166.475 23.7771 168.608 21.4L168.608 21.3998C169.63 20.2609 170.162 19.6676 170.117 19.6202C170.069 19.5687 169.338 20.1618 167.814 21.3996L167.814 21.4C165.194 23.5281 164.089 23.7973 157.257 23.9689C153.06 24.0745 147.739 24.2135 145.433 24.2768C143.127 24.3402 141.076 24.5557 140.876 24.7563C140.676 24.9569 143.627 27.6885 147.436 30.8267C151.243 33.9657 154.383 37.0053 154.412 37.5815C154.441 38.1577 152.783 38.9548 150.726 39.3525C147.578 39.9604 146.73 40.5991 145.362 43.3906C144.257 45.6437 143.699 48.8812 143.616 53.4965C143.523 58.7258 143.145 60.5909 141.976 61.607C141.058 62.405 140.124 65.1859 139.614 68.6451C139.149 71.7903 138.372 75.9023 137.885 77.7824C137.36 79.8138 135.456 82.7926 133.197 85.1214C131.104 87.2768 126.886 90.8434 123.824 93.0463C120.761 95.2493 116.653 97.6035 114.694 98.2783C112.735 98.9531 110.937 99.3102 110.699 99.0718C110.46 98.8334 111.479 97.1056 112.962 95.2325C114.446 93.3586 116.543 89.6786 117.622 87.0542C119.22 83.1683 119.575 80.6478 119.536 73.4839C119.498 66.5654 119.062 63.5583 117.494 59.4076C116.079 55.6624 115.55 52.5393 115.673 48.656C115.77 45.5434 115.363 42.3182 114.727 41.178C114.111 40.0721 113.736 37.2569 113.89 34.9009C114.149 30.9727 113.902 30.3533 110.826 27.2029C108.986 25.3184 107.233 23.7771 106.931 23.7771C106.63 23.7771 106.537 24.8654 106.726 26.1965C106.915 27.5275 106.519 29.3575 105.847 30.2636C104.947 31.4759 104.079 31.7381 102.559 31.2551C101.423 30.8944 98.615 28.8428 96.3197 26.6953C92.637 23.251 91.8003 22.8525 89.2147 23.3152C86.7602 23.7542 85.4265 23.2519 81.0188 20.2299C76.7115 17.2765 75.2537 16.7143 73.0024 17.1366C71.1514 17.4841 69.9047 17.2352 69.1921 16.3765C68.6088 15.6736 64.298 12.9402 59.6124 10.3009C54.9267 7.66156 48.6294 4.26918 45.6197 2.76303C42.6091 1.25599 39.5405 0.0234375 38.8015 0.0234375C38.0616 0.0234375 37.4564 0.604962 37.4564 1.31581ZM39.05 3.99976L38.5883 2.1671C38.6318 2.15421 38.6762 2.13908 38.7215 2.12168C39.4182 1.85511 42.6839 3.13429 45.9795 4.9642C49.276 6.79499 52.1045 8.60907 52.2654 8.99705C52.4273 9.38414 53.132 9.70086 53.8332 9.70086C54.5335 9.70086 55.335 10.2947 55.613 11.0205C55.8918 11.7463 56.6097 12.3402 57.2089 12.3402C57.808 12.3402 60.771 13.9387 63.793 15.8918C68.1135 18.6841 69.0804 19.695 68.3141 20.6179C67.7784 21.2636 65.5209 21.9973 63.2968 22.2481C61.5889 22.4405 60.1689 22.8462 59.0389 23.4644C57.4884 24.2521 56.4321 25.3517 55.6995 26.6742C54.79 28.3162 54.3979 30.2776 54.1239 32.3078C53.7411 33.9852 53.0235 35.7974 52.4502 36.488C51.8273 37.2384 50.622 37.8533 49.7722 37.8533C48.8968 37.8533 47.8262 36.8038 47.3027 35.434C46.7933 34.1029 45.8643 31.5014 45.2361 29.6522C44.2358 26.705 44.2877 25.9545 45.654 23.573C46.9833 21.2583 47.0027 21.0314 45.7869 22.0404C44.5869 23.0363 44.2297 23.024 43.5391 21.9613C43.0869 21.2663 42.8959 19.9061 43.1141 18.9384C43.3323 17.9706 42.9408 16.4099 42.2432 15.4712C42.0864 15.2598 41.936 15.0688 41.797 14.9028L39.1639 4.45189C39.1694 4.29569 39.1314 4.1382 39.05 3.99976ZM54.9435 32.8293C54.9458 32.9305 54.9481 33.0342 54.9505 33.1404C55.0226 36.3621 54.6822 37.8067 53.7698 38.1569C53.0643 38.4278 51.4006 40.3501 50.0731 42.4299C47.8552 45.9032 47.6546 46.9422 47.6159 55.1821C47.5886 60.9683 47.9432 64.5234 48.6153 65.1973C49.4176 66.0014 50.0722 65.5589 51.471 63.2645C52.4687 61.6273 53.2728 60.6833 53.2578 61.1671C53.242 61.651 52.664 63.0366 51.9725 64.2463C51.281 65.456 50.7012 67.1381 50.6836 67.9853C50.6669 68.8325 51.0408 69.5249 51.515 69.5249C51.9883 69.5249 53.1417 68.0407 54.0769 66.2258C55.0121 64.4117 57.2968 61.5419 59.1531 59.8484L62.5297 56.771L59.374 60.2883C57.6373 62.2237 55.3613 65.3135 54.3153 67.1557C53.2684 68.9979 52.4124 71.0768 52.4124 71.7745C52.4124 72.473 52.9578 73.044 53.6256 73.044C54.2924 73.044 55.291 71.9504 55.8452 70.6141C56.3986 69.2777 57.8317 67.0009 59.03 65.5554C60.5784 63.6868 60.3179 64.4381 58.13 68.1534C56.4373 71.0284 55.0517 73.856 55.0517 74.4375C55.0517 75.019 54.4578 75.7229 53.732 76.0017C52.9886 76.2868 52.4124 77.5968 52.4124 79.0017C52.4124 80.6935 53.3951 82.4487 55.4652 84.4545C57.5652 86.4912 59.3484 87.4132 61.1836 87.4132C62.6493 87.4132 63.8493 87.8795 63.8493 88.4478C63.8493 89.017 66.3241 91.5859 69.3479 94.1566C72.3725 96.7281 77.2218 99.956 80.125 101.33C83.0282 102.704 84.3584 103.6 83.0801 103.321C81.8027 103.042 80.5209 103.195 80.2323 103.662C79.9437 104.13 80.791 104.935 82.1159 105.452C83.4399 105.97 85.5135 106.556 86.7232 106.754C88.8118 107.097 88.7977 107.122 86.4461 107.235C85.0842 107.301 82.0886 106.545 79.7889 105.556C76.3684 104.085 75.1455 103.933 73.0701 104.722C70.5329 105.687 70.5329 105.687 73.13 107.801C74.5578 108.963 78.076 110.449 80.9476 111.102C83.9652 111.789 86.3141 112.826 86.513 113.562C86.7285 114.359 86.586 114.488 86.1303 113.908C85.7309 113.4 83.3 112.51 80.7294 111.931C78.1596 111.353 74.7567 109.889 73.1687 108.677C71.5807 107.466 69.6127 106.475 68.7945 106.475C67.9763 106.475 64.0552 108.315 60.0795 110.563C56.1047 112.811 50.081 117.03 46.6939 119.938C43.3068 122.846 39.1218 126.846 37.393 128.826C35.6652 130.808 32.5086 134.803 30.3778 137.707C28.247 140.61 24.2177 147.488 21.4226 152.991C18.6285 158.495 16.342 163.344 16.342 163.768C16.342 164.193 18.3408 164.54 20.7848 164.54C23.2279 164.54 26.4936 165.178 28.0429 165.96C29.5913 166.741 31.9279 168.381 33.2361 169.604C35.615 171.828 35.615 171.828 42.4737 165.411C46.2461 161.883 52.8364 156.284 57.1174 152.97C61.7872 149.356 65.7479 146.944 67.0147 146.944C68.1769 146.944 69.1279 147.196 69.1279 147.503C69.1279 147.811 68.2156 148.899 67.1001 149.922C65.9845 150.945 63.6197 152.465 61.8443 153.297C59.7153 154.296 58.4168 155.611 58.0279 157.16C57.7033 158.452 57.7921 160.501 58.2241 161.714C58.657 162.927 60.0267 164.677 61.2698 165.601C62.5121 166.526 67.0649 168.062 71.3871 169.015C75.7086 169.968 80.9872 170.637 83.1153 170.503C86.0599 170.317 87.3716 169.732 88.5971 168.059C89.483 166.849 90.8088 162.963 91.5443 159.424C92.2798 155.884 92.8816 149.642 92.8816 145.552C92.8816 141.287 92.0915 134.464 91.0288 129.554C90.0091 124.845 88.6235 119.922 87.9496 118.616C87.2748 117.308 86.7408 115.923 86.7619 115.537C86.7839 115.15 87.5326 116.218 88.4273 117.912C89.322 119.606 90.8889 124.845 91.9077 129.554C92.9713 134.465 93.7613 141.286 93.7613 145.552C93.7613 149.642 93.1825 155.74 92.4743 159.104C91.7669 162.469 90.5062 166.652 89.6722 168.4C88.1696 171.551 88.1106 171.578 82.6446 171.578C79.613 171.578 75.0347 171.155 72.4701 170.64C69.9065 170.124 65.937 169.06 63.6496 168.274C61.3622 167.489 59.3273 167.02 59.1276 167.233C58.9288 167.445 58.6226 171.182 58.4484 175.537L58.1308 183.455L62.9696 185.856C65.6308 187.178 70.7775 188.911 74.4065 189.707C78.5027 190.606 85.5083 191.196 92.8816 191.264C103.074 191.357 105.688 191.08 111.312 189.315C114.916 188.182 119.37 186.604 121.209 185.808C122.547 185.228 123.35 184.88 123.831 184.276C124.551 183.371 124.548 181.89 124.541 178.188C124.535 174.794 124.28 171.084 123.974 169.944C123.489 168.135 123.042 167.938 120.467 168.404L118.021 168.847L114.607 169.465C111.7 169.992 111.7 169.992 112.068 156.929C112.376 146.036 112.13 142.403 110.589 135.067C109.572 130.229 107.941 123.696 106.965 120.551C105.746 116.626 105.359 113.67 105.73 111.122C106.026 109.081 106.821 106.955 107.494 106.396C108.167 105.837 108.717 104.877 108.717 104.262C108.717 103.647 108.066 102.894 107.27 102.589C106.475 102.284 105.155 102.638 104.338 103.378C103.521 104.117 101.011 105.35 98.761 106.116C96.5106 106.883 94.1678 107.309 93.5555 107.063C92.9432 106.816 93.31 106.582 94.371 106.545C95.4329 106.507 96.8185 105.747 97.4502 104.855C98.0827 103.965 100.184 102.223 102.119 100.986C104.055 99.7484 107.502 96.8152 109.782 94.468C112.06 92.1199 114.57 88.4179 115.357 86.2405C116.144 84.063 116.997 79.1143 117.25 75.2434C117.504 71.3724 117.267 65.8299 116.724 62.9267C116.182 60.0234 114.059 54.2838 112.008 50.1718C108.493 43.1284 108.088 42.6657 105.014 42.1783C103.219 41.8941 100.229 40.6061 98.3687 39.3173C96.508 38.0284 93.9135 36.9736 92.6027 36.9736C91.291 36.9736 89.4936 37.4267 88.6068 37.98C87.3127 38.7885 85.9992 38.5308 81.9399 36.6727C78.442 35.0707 76.4361 34.6009 75.4262 35.1454C74.6229 35.5783 73.0068 36.9586 71.8341 38.2123C70.1511 40.0114 68.8508 40.4988 65.6757 40.5208C63.4614 40.5358 60.9575 41.0742 60.1103 41.7173C59.1179 42.4704 58.5707 44.0777 58.5707 46.2393C58.5707 48.1281 59.2086 50.2959 60.032 51.2056C60.8352 52.0941 61.3235 52.9167 61.1177 53.0346C60.9118 53.1525 58.9675 54.8328 56.798 56.7683L52.8522 60.2874L56.1514 56.7314C57.9663 54.7756 59.4505 52.8665 59.4505 52.4891C59.4505 52.1126 58.8144 51.1677 58.0358 50.3891C57.01 49.3633 56.7523 48.0006 57.098 45.4246C57.3602 43.4715 58.2699 41.3654 59.1206 40.7434C59.9704 40.1214 62.4083 39.6129 64.5373 39.6129C67.6895 39.6129 69.076 39.041 72.0056 36.5337C73.9842 34.8402 76.3517 33.4545 77.2675 33.4545C78.1825 33.4545 80.5992 34.4319 82.6376 35.6258C86.0696 37.6378 86.527 37.7029 88.8329 36.5055C90.2027 35.7956 91.7863 35.2141 92.352 35.2141C92.9176 35.2141 95.5446 36.6217 98.1901 38.3425C102.097 40.885 103.686 41.4208 106.663 41.2017C109.105 41.0214 110.077 41.2343 109.575 41.8387C109.133 42.3718 109.562 43.9141 110.616 45.5777C111.602 47.1358 112.766 48.4105 113.202 48.4105C113.639 48.4105 113.993 47.5193 113.991 46.4311C113.987 45.3428 113.399 43.3272 112.682 41.9531C111.758 40.1803 111.631 38.9838 112.248 37.8322C112.726 36.9402 113.116 34.8718 113.116 33.2372C113.116 31.0827 112.389 29.5686 110.477 27.736C108.03 25.3924 107.838 25.3413 107.838 27.034C107.838 28.0387 107.121 29.7463 106.243 30.8293C105.055 32.2976 104.145 32.6381 102.666 32.1692C101.575 31.8226 98.6907 29.7701 96.2555 27.6076C92.4584 24.2355 91.4564 23.7569 89.2138 24.2495C87.1341 24.7061 85.6675 24.2099 82.0429 21.8214C79.5364 20.1701 76.7555 18.5469 75.8634 18.2143C74.7171 17.7877 73.5496 18.3498 71.8886 20.1278C69.9707 22.1803 68.6089 22.7223 64.5074 23.0627C63.3358 23.16 62.2301 23.3309 61.2403 23.5607C58.7617 24.2489 57.3468 25.516 56.4691 27.1005C55.5777 28.7098 55.2189 30.6763 54.9435 32.8293ZM46.4907 14.7094C47.3467 14.9328 48.5344 14.9179 49.13 14.6768C49.7256 14.4358 49.0253 14.2536 47.5737 14.2712C46.122 14.2888 45.6347 14.4859 46.4907 14.7094ZM58.0473 16.8753C57.6575 17.5044 57.8053 17.6522 58.4344 17.2624C58.993 16.9176 59.4505 16.461 59.4505 16.2472C59.4505 16.0334 59.2763 15.8592 59.0625 15.8592C58.8487 15.8592 58.3921 16.3167 58.0473 16.8753ZM60.0936 18.4281C59.7109 19.8912 59.8253 20.2352 60.4781 19.5824C60.9901 19.0704 61.2347 18.1334 61.0235 17.4982C60.8036 16.8393 60.405 17.2387 60.0936 18.4281ZM50.1294 23.9135C49.7396 24.5425 49.8874 24.6903 50.5165 24.3006C51.0751 23.9557 51.5326 23.4991 51.5326 23.2853C51.5326 23.0715 51.3584 22.8973 51.1446 22.8973C50.9308 22.8973 50.4742 23.3548 50.1294 23.9135ZM50.6528 26.4164C49.8602 26.9284 49.7511 27.2742 50.381 27.283C50.9572 27.29 51.6734 26.9003 51.9725 26.4164C52.2716 25.9325 52.3939 25.5428 52.2443 25.5498C52.0948 25.5577 51.3786 25.9475 50.6528 26.4164ZM158.818 27.0762C158.732 27.9226 158.707 29.0838 158.763 29.6566C158.818 30.2284 159.636 30.9419 160.579 31.241C161.633 31.5753 162.102 32.2853 161.794 33.0841C161.521 33.7985 160.546 34.7847 159.629 35.2756C158.712 35.7665 157.417 35.8545 156.752 35.4709C156.086 35.0882 153.704 33.0727 151.458 30.9929C149.213 28.9132 147.608 26.8352 147.893 26.3742C148.177 25.914 150.788 25.5366 153.693 25.5366C158.196 25.5366 158.951 25.7636 158.818 27.0762ZM168.528 26.1965C168.52 26.5598 168.141 27.4466 167.685 28.1689C167.057 29.1604 166.607 29.2325 165.84 28.4654C165.281 27.9067 165.09 27.019 165.415 26.4929C165.74 25.9668 166.576 25.5366 167.274 25.5366C167.971 25.5366 168.535 25.8331 168.528 26.1965ZM164.143 27.7053C164.143 28.4135 163.403 29.39 162.498 29.8739C161.595 30.3577 160.605 30.5029 160.299 30.1976C159.994 29.8924 159.744 28.9167 159.744 28.029C159.744 26.895 160.397 26.4164 161.943 26.4164C163.288 26.4164 164.143 26.917 164.143 27.7053ZM173.664 38.4199C173.508 39.2152 172.39 40.5806 171.181 41.4534C169.971 42.3261 167.497 43.3035 165.682 43.6237C162.841 44.127 162.384 43.98 162.392 42.5698C162.396 41.6161 163.774 40.1223 165.691 38.9918C167.501 37.9246 170.099 37.0343 171.465 37.0123C173.31 36.9833 173.875 37.3457 173.664 38.4199ZM159.753 43.3519C160.712 44.924 161.498 46.8753 161.5 47.6865C161.502 48.4976 160.811 49.3185 159.964 49.5102C159.116 49.702 157.299 49.3061 155.923 48.6305C154.547 47.9539 153.226 47.5959 152.988 47.8343C152.75 48.0727 153.38 48.7097 154.389 49.2498C155.565 49.8789 156.225 51.0991 156.225 52.644C156.225 54.0859 155.182 56.1973 153.635 57.8918C151.838 59.8598 150.251 60.7273 148.45 60.7273C146.896 60.7273 145.642 60.1695 145.322 59.3355C145.028 58.5701 144.789 55.5023 144.791 52.5173C144.793 48.7053 145.301 46.2604 146.496 44.3003C147.432 42.7651 149.114 41.3346 150.232 41.1208C151.351 40.907 153.558 40.6783 155.138 40.6123C157.496 40.5138 158.322 41.0038 159.753 43.3519ZM174.284 44.0504C174.596 44.5554 174.219 45.9331 173.448 47.1111C172.675 48.29 170.959 49.8146 169.633 50.5C168.306 51.1853 166.232 51.8865 165.022 52.0581C163.283 52.3044 162.763 51.9463 162.536 50.3487C162.343 48.9789 163.031 47.705 164.677 46.3897C166.013 45.3243 167.725 44.1824 168.483 43.8533C169.241 43.5243 170.729 43.2278 171.789 43.1935C172.849 43.1601 173.971 43.5454 174.284 44.0504ZM99.9197 44.6759C99.9197 45.0419 101.305 45.7748 102.999 46.3044C104.692 46.8349 106.078 46.922 106.078 46.4979C106.078 46.0739 105.063 45.3419 103.821 44.8695C102.58 44.3979 101.194 44.0117 100.742 44.0117C100.29 44.0117 99.9197 44.3108 99.9197 44.6759ZM75.2133 48.4836C74.205 49.4918 73.547 50.4833 73.7502 50.6874C73.9543 50.8906 75.3725 50.4331 76.9033 49.6695C78.4332 48.9058 79.6851 47.9144 79.6851 47.4666C79.6851 47.0179 79.0913 46.651 78.3654 46.651C77.6396 46.651 76.2215 47.4762 75.2133 48.4836ZM104.636 54.1308C104.357 54.8575 104.384 56.4674 104.695 57.7088C105.073 59.2158 105.761 59.8695 106.77 59.6768C107.599 59.5193 108.407 58.4812 108.565 57.3709C108.723 56.2607 108.378 54.78 107.797 54.0806C107.217 53.3812 106.382 52.8094 105.943 52.8094C105.503 52.8094 104.915 53.4041 104.636 54.1308ZM171.403 54.129C171.496 54.6129 170.483 55.5305 169.154 56.1674C167.824 56.8053 165.36 57.5495 163.68 57.8223C161.032 58.2516 160.624 58.0792 160.624 56.5308C160.624 55.2111 161.487 54.51 163.923 53.8493C165.738 53.3566 168.124 53.0205 169.228 53.1014C170.333 53.1824 171.311 53.6451 171.403 54.129ZM78.8933 56.6627C78.2986 57.3789 77.9361 59.4375 78.0883 61.2366C78.2484 63.1237 78.9989 64.9044 79.8628 65.4454C80.6863 65.9619 81.6672 66.0762 82.042 65.7014C82.4176 65.3267 82.7247 63.4651 82.7247 61.5648C82.7247 59.6056 82.1291 57.5161 81.3487 56.7358C80.1382 55.5243 79.8452 55.5155 78.8933 56.6627ZM92.8816 57.7141C92.8816 58.1531 94.2778 60.5399 95.9845 63.0182C98.7109 66.9762 98.9748 67.8208 98.1593 69.9666C97.649 71.3091 97.4669 72.6446 97.7555 72.9331C98.044 73.2217 99.0364 72.4739 99.9602 71.2712C100.884 70.0686 101.649 68.6038 101.66 68.0144C101.67 67.4258 99.8423 64.8525 97.5962 62.2959C95.3511 59.7402 93.3716 57.4836 93.1974 57.2812C93.0241 57.0798 92.8816 57.2742 92.8816 57.7141ZM158.382 58.0202C158.658 58.4671 160.067 59.0927 161.513 59.4102C162.959 59.7278 164.143 60.3516 164.143 60.7968C164.143 61.2428 161.965 61.607 159.304 61.607C155.92 61.607 154.465 61.263 154.465 60.4633C154.465 59.8343 154.94 58.8446 155.521 58.2639C156.102 57.6833 156.87 57.2082 157.228 57.2082C157.587 57.2082 158.106 57.5733 158.382 58.0202ZM61.5663 61.7434C61.1766 62.3724 61.3244 62.5202 61.9534 62.1305C62.5121 61.7856 62.9696 61.329 62.9696 61.1152C62.9696 60.9015 62.7954 60.7273 62.5816 60.7273C62.3678 60.7273 61.9112 61.1847 61.5663 61.7434ZM163.043 63.2707C163.648 63.3234 164.143 63.9428 164.143 64.6466C164.143 65.397 162.96 66.1413 161.283 66.4466C159.711 66.7325 156.279 66.6507 153.658 66.2645C151.037 65.8783 148.739 65.1014 148.55 64.5384C148.363 63.9753 148.899 63.3824 149.741 63.2205C150.584 63.0586 153.673 62.983 156.608 63.0507C159.542 63.1193 162.438 63.2179 163.043 63.2707ZM149.768 66.4457C152.555 67.1715 156.929 67.7654 159.489 67.7654C161.932 67.7654 163.092 67.7654 163.644 68.3449C164.143 68.8693 164.143 69.8682 164.143 71.771C164.143 73.9739 163.128 81.5944 161.889 88.7064C160.65 95.8176 158.698 104.344 157.551 107.653C156.405 110.963 154.747 114.221 153.866 114.895C152.986 115.57 151.073 116.963 149.614 117.991C148.155 119.02 145.78 121.436 144.336 123.361C142.891 125.286 139.619 128.649 137.066 130.833C133.211 134.13 132.201 134.619 131.107 133.711C130.382 133.109 129.592 132.813 129.352 133.054C129.112 133.294 127.934 137.36 126.734 142.09C125.532 146.83 124.553 153.223 124.553 156.337C124.553 161.36 124.286 162.235 122.134 164.258C120.804 165.509 118.385 167.097 116.76 167.787C115.135 168.477 113.575 168.81 113.292 168.528C113.01 168.245 112.874 162.382 112.991 155.5C113.156 145.85 112.817 141.173 111.512 135.067C110.582 130.713 108.961 124.277 107.911 120.766C106.57 116.285 106.183 113.401 106.612 111.089C106.948 109.277 108.163 106.557 109.312 105.044C110.69 103.228 112.763 101.911 115.41 101.17C117.994 100.447 121.805 98.0636 126.135 94.4636C129.829 91.3924 133.162 88.8797 133.541 88.8797C133.92 88.8797 134.231 89.3504 134.231 89.9258C134.231 90.5003 135.021 90.1229 135.987 89.0856C136.953 88.0484 138.476 85.3017 139.371 82.9809C140.267 80.661 141.493 76.1891 142.097 73.044C142.7 69.8988 143.342 66.8311 143.524 66.2258C143.705 65.6214 144.043 65.1261 144.277 65.1261C144.511 65.1261 146.982 65.7199 149.768 66.4457ZM109.051 75.3094C109.551 76.9211 109.074 77.2633 104.989 78.2223C102.443 78.8196 97.7863 79.5217 94.6411 79.7821C91.4238 80.0487 87.8643 79.8428 86.5033 79.3114C85.1581 78.7853 84.0681 77.6733 84.0479 76.805C84.0206 75.6182 83.4039 75.9551 81.4772 78.2082C80.0828 79.8384 79.1572 81.7361 79.4221 82.4249C79.686 83.1138 80.0951 83.4841 80.33 83.2493C80.5657 83.0144 82.1933 83.5906 83.9476 84.5311C86.1047 85.6871 88.8699 86.2405 92.4919 86.2405C95.4373 86.2405 99.7974 85.5903 102.182 84.7959C104.567 84.0014 107.043 82.9387 107.685 82.4337C108.523 81.7739 109.067 81.8636 109.616 82.7531C110.268 83.8079 110.443 83.7991 110.796 82.6968C111.023 81.9841 111.434 80.3689 111.709 79.1056C112.069 77.4481 111.69 76.3475 110.346 75.1466C108.511 73.5085 108.492 73.5102 109.051 75.3094ZM91.7379 80.9469C94.0605 80.9381 98.732 80.3443 102.119 79.6273C105.505 78.9094 108.574 78.3226 108.937 78.3226C109.3 78.3226 109.597 78.8495 109.597 79.4935C109.597 80.1375 108.707 81.1246 107.618 81.6868C106.528 82.249 103.906 83.3055 101.788 84.0349C99.6716 84.7642 95.5745 85.3607 92.6836 85.3607C89.6704 85.3607 86.1531 84.7554 84.4367 83.9408C82.744 83.1375 81.4446 81.8636 81.4446 81.0085C81.4446 80.1762 81.6927 79.2472 81.9962 78.9446C82.2998 78.641 83.6652 78.971 85.0314 79.6774C86.3977 80.3839 89.4162 80.9548 91.7379 80.9469ZM93.3655 90.5469C93.8247 90.9797 95.3968 91.585 96.8572 91.8912C98.6018 92.258 100.112 91.9976 101.256 91.1328C102.868 89.9144 102.605 89.8132 97.7643 89.7877C94.6499 89.771 92.8684 90.078 93.3655 90.5469ZM27.7693 168.493C29.1672 169.216 30.9179 170.674 31.6596 171.733C32.6458 173.141 32.7523 173.965 32.0546 174.806C31.5303 175.437 31.3279 176.849 31.6042 177.945C31.8813 179.04 33.5089 182.26 35.2218 185.101C36.9347 187.941 38.3361 190.812 38.3361 191.479C38.3361 192.147 37.6438 192.738 36.7965 192.793C35.9493 192.849 34.4652 192.817 33.4974 192.722C32.5297 192.626 30.8141 191.957 29.6845 191.233C28.5558 190.508 27.0162 188.462 26.2631 186.685L24.8933 183.455L23.7637 186.534C23.1426 188.227 22.6042 193.226 22.5672 197.643C22.5179 203.614 22.1652 205.952 21.1921 206.759C20.4725 207.356 19.2699 207.609 18.5185 207.322C17.7681 207.033 16.1836 204.712 14.9977 202.164C13.5109 198.972 12.7869 195.752 12.669 191.812C12.5796 188.835 12.5368 187.407 12.4696 187.406C12.4077 187.405 12.3252 188.612 12.1666 190.93C11.9845 193.589 12.3056 197.444 12.8801 199.494C13.7678 202.665 13.7071 203.551 12.4728 205.435C11.6757 206.652 10.6745 207.648 10.2496 207.648C9.82381 207.648 9.0417 206.401 8.51032 204.878C7.97894 203.354 7.47572 198.306 7.39302 193.661L7.24082 185.214L6.7332 192.946C6.37953 198.326 5.83583 200.919 4.94727 201.466C4.24434 201.899 3.35401 202.058 2.9678 201.82C2.58158 201.581 2.27015 199.529 2.27631 197.259C2.28158 194.989 2.84112 191.048 3.51942 188.501C4.19771 185.954 5.7505 182.167 6.97073 180.084C8.19097 178.002 11.1162 174.247 13.4704 171.739C17.3256 167.633 18.1235 167.179 21.4895 167.179C23.5446 167.179 26.3713 167.77 27.7693 168.493ZM61.8822 186.534C63.8854 187.501 67.8188 188.891 70.6226 189.622C73.4265 190.352 79.2848 191.388 83.6414 191.924C87.998 192.461 94.7291 192.68 98.6001 192.412C102.471 192.145 109.003 190.873 113.116 189.585C117.229 188.297 120.97 186.886 121.43 186.448C121.889 186.011 122.879 185.655 123.629 185.656C124.613 185.657 125.415 187.557 126.507 192.474C127.339 196.223 128.267 200.676 128.568 202.369C128.87 204.063 130.452 209.908 132.084 215.359C133.716 220.81 136.021 229.916 137.207 235.594C138.393 241.272 139.636 248.935 139.968 252.621C140.366 257.02 140.235 259.958 139.587 261.169C138.987 262.29 136.816 263.544 134.055 264.363C131.557 265.106 128.224 265.713 126.65 265.713C125.076 265.713 122.827 265.347 121.653 264.901C119.929 264.245 119 262.486 116.814 255.731C115.325 251.134 111.164 241.304 107.567 233.889C103.969 226.472 99.7631 217.511 98.2191 213.974L95.4118 207.544L98.1056 202.771C99.5872 200.145 100.799 197.595 100.799 197.104C100.799 196.613 100.411 196.211 99.9373 196.211C99.464 196.211 98.2675 197.796 97.2795 199.731C96.2924 201.667 93.7112 205.992 91.5435 209.342C89.3766 212.693 87.603 215.665 87.603 215.948C87.603 216.23 85.3675 219.923 82.6349 224.152C79.9024 228.382 75.3962 236.394 72.6215 241.959C69.8458 247.523 66.4983 255.243 65.1822 259.114C63.866 262.985 62.3995 267.207 61.9244 268.496C61.4484 269.786 59.9124 271.315 58.5109 271.896C57.0197 272.513 53.4144 272.807 49.8188 272.604C44.4822 272.302 43.3226 271.92 41.0053 269.7C38.8508 267.636 38.3361 266.42 38.3361 263.394C38.3361 261.33 39.1605 255.367 40.1678 250.142C41.176 244.915 44.8974 232.071 48.4394 221.599C53.0194 208.055 55.1845 200.181 55.9394 194.326C56.5235 189.799 57.1798 185.796 57.398 185.434C57.6162 185.072 57.8951 184.774 58.0174 184.774C58.1396 184.774 59.8789 185.566 61.8822 186.534ZM150.185 267.014C153.555 268.154 157.282 269.722 158.467 270.499C159.653 271.276 160.624 272.646 160.624 273.544C160.624 274.497 159.613 275.595 158.197 276.182C156.862 276.734 153.993 276.967 151.819 276.696C149.645 276.426 146.283 275.8 144.348 275.304C142.412 274.808 138.058 273.379 134.67 272.128C131.283 270.877 127.072 269.918 125.312 269.996C123.133 270.094 121.946 269.703 121.588 268.772C121.3 268.02 121.552 267.256 122.149 267.073C122.745 266.89 125.916 266.523 129.195 266.257C132.474 265.991 135.839 265.362 136.673 264.859C137.507 264.356 139.51 264.169 141.124 264.442C142.738 264.717 146.816 265.874 150.185 267.014ZM49.1221 274.445L52.43 274.95L50.1109 279.349C48.8352 281.768 46.3569 285.916 44.6036 288.565C42.8502 291.215 40.042 294.302 38.3643 295.426C36.3135 296.797 34.3226 297.382 32.2948 297.206C30.6347 297.062 28.8839 296.316 28.4027 295.548C27.9223 294.781 27.7833 292.801 28.093 291.149C28.4124 289.45 31.1801 284.785 34.4713 280.399C40.0983 272.904 40.3763 272.673 43.0499 273.296C44.5701 273.65 47.3027 274.167 49.1221 274.445Z" fill="#2DC92D"/>
</svg>
