<svg width="20" height="50" viewBox="0 0 20 50" fill="none" xmlns="http://www.w3.org/2000/svg">
<path fill-rule="evenodd" clip-rule="evenodd" d="M11.6036 0.0140296C11.8871 0.0396101 11.9545 0.100785 12.3152 0.659857C12.7445 1.32539 12.8202 1.36111 13.3282 1.13772C13.537 1.04586 14.0873 0.986974 14.28 1.03592C14.3401 1.05121 14.598 1.26776 14.8626 1.52525C15.416 2.06365 15.8835 2.44945 16.1081 2.55306C16.6613 2.80818 17.438 2.46695 17.6877 1.85917C17.732 1.75117 17.7798 1.66285 17.7939 1.66285C17.8437 1.66285 18.0387 2.00637 18.0789 2.16525C18.1014 2.25393 18.1567 2.44157 18.2018 2.58218C18.5424 3.64461 17.8357 4.64398 16.78 4.59282C16.2474 4.56704 15.9592 4.36525 15.2949 3.55311C14.6868 2.80967 14.5156 2.77769 13.2894 3.17837C12.7403 3.35784 12.6843 3.34951 12.0043 2.98777C10.9142 2.40786 10.7408 2.44249 9.92708 3.4024C9.58817 3.80224 9.58432 3.80341 9.22053 3.61831C8.12623 3.06149 6.6435 3.19877 6.4155 3.87802C6.23038 4.42949 6.32173 4.97054 6.66993 5.38502C6.95549 5.72492 6.9681 5.68008 6.48391 6.04693C5.96887 6.43716 5.37696 6.95371 5.12431 7.23345C4.8822 7.50148 4.9014 7.5008 4.84643 7.24351C4.49333 5.59107 4.78271 4.02881 5.58581 3.25158C5.7687 3.0746 6.16293 2.69311 6.46188 2.4038C6.78878 2.0875 7.15603 1.77752 7.38312 1.62625C7.59081 1.48793 7.85017 1.28823 7.95948 1.18253C8.38512 0.770868 8.46434 0.737765 9.02361 0.737765C9.63035 0.737765 9.74769 0.703939 10.3076 0.367611C10.8786 0.0246876 11.088 -0.0324658 11.6036 0.0140296ZM11.8748 3.20878C11.995 3.23685 12.2186 3.31947 12.3717 3.39235C12.7237 3.55999 12.9524 3.56494 13.4622 3.41584C14.0248 3.25133 14.5066 3.2056 14.6693 3.30125C14.7392 3.34235 15.0228 3.65567 15.2995 3.99751C15.8465 4.67335 16.0133 4.82228 16.4062 4.9853C16.7727 5.13738 16.9093 5.30574 17.2982 6.0847C17.987 7.46432 18.0272 7.64596 18.034 9.41017C18.0425 11.5726 16.7397 13.9154 15.0746 14.7322C14.2476 15.1379 12.9509 15.5614 12.2922 15.641C11.3386 15.7562 11.3382 15.7563 11.3382 15.8206C11.3382 15.8725 11.4437 15.8796 12.0866 15.8715C12.9178 15.861 12.9853 15.8872 12.5675 16.0573C11.5211 16.4835 10.6592 16.4138 9.51865 15.8107C8.79319 15.4271 8.15855 14.6495 8.03731 13.9957C8.00253 13.8081 8.00985 13.8097 8.37081 14.0649C8.81704 14.3804 9.43903 14.7451 9.49731 14.7254C9.54695 14.7087 9.46551 14.6407 8.78015 14.1267C8.10302 13.6189 7.01321 12.2902 7.0074 11.9653C7.00573 11.8723 6.99039 11.8599 6.88625 11.8673C5.95003 11.934 5.4164 11.6482 5.35009 11.0446C5.20743 9.74642 5.35351 9.44383 6.5285 8.60346C7.30767 8.04624 7.46262 7.91101 7.46262 7.7885C7.46262 7.70898 7.44775 7.69302 7.39305 7.71377C7.08277 7.83138 6.33779 8.42709 5.87797 8.92531C5.72064 9.09576 5.58541 9.22829 5.5775 9.21976C5.56959 9.21124 5.53628 9.10473 5.50349 8.98306C5.47069 8.86139 5.39628 8.64814 5.33813 8.50914C5.21661 8.21862 5.18978 8.26476 5.89768 7.54802C6.38835 7.05121 7.26442 6.40836 7.63155 6.27571C7.7252 6.24184 7.72353 6.08715 7.62952 6.08715C7.30886 6.08715 5.83531 7.24821 5.35287 7.88097C5.15158 8.14494 5.14972 8.14514 5.06545 7.90715C4.98344 7.67568 4.9815 7.61768 5.05372 7.55964C5.08429 7.53511 5.35403 7.2978 5.65318 7.03235C5.9523 6.76689 6.47731 6.34903 6.81991 6.10376C7.52487 5.59903 7.55205 5.56058 7.27071 5.46602C6.5793 5.23366 6.64306 3.94623 7.36344 3.59333C7.7469 3.40554 8.64035 3.54068 9.31959 3.88924C9.60515 4.0358 9.61783 4.03251 10.0662 3.69385C10.7477 3.17914 11.2131 3.05433 11.8748 3.20878ZM18.1087 5.07157C18.1128 5.65554 18.07 5.8336 17.9038 5.9249C17.765 6.00116 17.6594 5.89329 17.3762 5.38622C17.1679 5.01321 17.1707 4.99105 17.4384 4.90108C17.5501 4.86355 17.732 4.77116 17.8427 4.69579C18.1155 4.51005 18.1046 4.49464 18.1087 5.07157ZM15.1839 5.39153C15.0059 5.63334 15.1822 5.84583 15.561 5.84583C15.6985 5.84583 15.9399 5.88199 16.0975 5.92615C16.7094 6.09773 16.657 5.91589 15.9845 5.53407C15.517 5.2687 15.3025 5.23049 15.1839 5.39153ZM10.5137 5.38831C10.2419 5.53058 9.6893 6.15155 9.7484 6.24836C9.88005 6.4639 11.0401 5.79125 11.0401 5.4994C11.0401 5.34025 10.7305 5.27489 10.5137 5.38831ZM15.7939 6.89716C15.5487 7.01018 15.4708 8.0065 15.6929 8.1885C16.0324 8.46667 16.3573 8.14739 16.3173 7.57501C16.2825 7.07743 16.0516 6.77835 15.7939 6.89716ZM7.05459 7.05149C6.56897 7.33083 5.47515 8.45822 5.47515 8.67939C5.47515 8.76848 5.64042 8.63555 6.05215 8.21532C6.31414 7.94789 6.71183 7.57541 6.93594 7.38758C7.44254 6.96288 7.50217 6.79404 7.05459 7.05149ZM10.6902 7.24351C10.5546 7.53684 10.5308 8.28237 10.6511 8.46827C10.7452 8.61387 11.0958 8.69552 11.2034 8.59694C11.5025 8.32312 11.4231 7.33191 11.0839 7.10326C10.8712 6.95991 10.8115 6.98118 10.6902 7.24351ZM13.3299 7.19653C13.2576 7.38713 13.4526 7.78689 13.9341 8.43545C14.7052 9.47408 14.6759 9.40446 14.4419 9.64132C14.1784 9.9079 14.0213 10.3261 14.1652 10.378C14.3015 10.4271 14.8042 9.85377 14.901 9.53892C14.963 9.33697 15.0051 9.41387 13.8416 7.60549C13.5337 7.12686 13.3976 7.01811 13.3299 7.19653ZM7.03892 8.78324C6.83743 8.93717 6.74065 9.14395 6.87007 9.14395C6.98829 9.14395 7.38312 8.75557 7.38312 8.63929C7.38312 8.57643 7.22078 8.64432 7.03892 8.78324ZM10.8376 11.005C10.3916 11.4407 10.3643 11.4903 10.3643 11.8652C10.3643 12.3503 10.6399 12.5269 10.6985 12.0794C10.7303 11.8369 10.6842 11.8353 11.1285 12.0948C12.813 13.0788 13.5637 13.1092 15.8497 12.2858C16.1787 12.1673 16.3701 12.121 16.5326 12.1207C16.9658 12.1199 17.0088 11.8293 16.6621 11.2465C16.4309 10.8578 16.244 10.8305 16.3393 11.1994C16.3954 11.4163 15.768 11.5145 14.3194 11.5156C13.1776 11.5165 12.8602 11.48 12.0097 11.2502C11.1653 11.0219 11.2123 11.0507 11.2932 10.8104C11.3709 10.5798 11.37 10.5917 11.3084 10.5927C11.281 10.5931 11.0692 10.7786 10.8376 11.005ZM12.0537 11.4437C13.1748 11.7308 15.4083 11.7779 16.2784 11.5329C16.5048 11.4691 16.5652 11.4817 16.5652 11.5928C16.5652 11.7454 16.2916 11.9127 15.6548 12.1494C13.8549 12.8185 12.938 12.8061 11.6003 12.0946C10.9385 11.7427 10.8863 11.6773 11.0275 11.3776C11.1123 11.1977 11.0859 11.1959 12.0537 11.4437ZM7.79337 13.5351C7.88348 13.6547 7.89179 13.6948 7.87207 13.9148C7.76249 15.1377 9.5559 16.6653 11.1013 16.6653C11.992 16.6653 13.3127 16.1757 13.8277 15.6545C14.0116 15.4685 14.0265 15.4605 14.559 15.2651C15.3446 14.9767 15.2891 14.9847 15.4206 15.1416C15.5781 15.3294 15.7694 15.6647 15.7699 15.7535C15.7706 15.8903 15.1043 16.5128 14.697 16.7558C13.9561 17.198 13.9275 17.2747 14.0951 18.3747C14.375 20.2119 14.3445 24.9844 14.043 26.5248C13.972 26.8877 13.9945 26.9716 14.1938 27.0872C14.528 27.2809 15.8505 27.1637 16.1061 26.9177C16.1964 26.8308 16.2134 26.9089 16.2009 27.354C16.175 28.2761 15.9115 28.5656 14.5181 29.2025C12.8497 29.9652 12.3304 30.0946 10.5777 30.1842C8.35893 30.2976 7.05463 29.9314 5.31488 28.7066C4.80549 28.348 4.80572 28.3505 5.19531 27.4202C5.52348 26.6367 5.39926 26.6714 6.40926 27.0809C7.45284 27.504 8.91073 27.9208 9.59827 27.9927C10.1692 28.0523 10.4947 27.3326 10.9011 25.1117C11.1524 23.7388 11.1313 19.3741 10.8684 18.325C10.7304 17.7745 10.6915 17.7527 9.70846 17.6733C8.4323 17.5703 6.72038 15.9217 6.56754 14.6485C6.54031 14.4217 6.54031 14.4217 6.79069 14.2262C6.92838 14.1188 7.18767 13.8892 7.36682 13.7161C7.69264 13.4015 7.69265 13.4015 7.79337 13.5351ZM6.12811 14.986C6.16035 15.0358 6.22104 15.1883 6.26306 15.3249C6.52004 16.1606 7.47454 17.2355 8.31246 17.6329C8.69135 17.8125 9.75508 18.1328 10.1959 18.1999C10.5213 18.2494 10.4854 18.1982 10.5855 18.7568C10.7355 19.594 10.7643 19.8903 10.8011 20.9726C10.8485 22.3692 10.8018 23.7316 10.6861 24.3274C10.6432 24.5486 10.5879 24.8744 10.5633 25.0513C10.3636 26.4861 10.0458 27.5018 9.77162 27.5814C9.337 27.7075 7.92403 27.3275 6.40926 26.677C5.67433 26.3615 5.72616 26.4102 5.85423 26.1545C6.14687 25.5701 6.79514 24.6216 7.36865 23.9385C7.69308 23.5522 7.71335 23.5028 7.54748 23.5028C7.38471 23.5028 7.2626 23.6154 6.82869 24.1658C5.942 25.2905 5.20946 26.4928 4.87183 27.3774C4.6548 27.9461 4.06054 29.6129 3.94225 29.9847C3.79434 30.4497 3.80046 30.4456 3.15621 30.5057C1.95092 30.6181 0.967207 30.3438 0.318616 29.7147C0.0770987 29.4804 0.0792423 29.4932 0.166572 28.804C0.243964 28.1934 0.299575 27.5059 0.328592 26.8009C0.396802 25.1421 0.873157 23.6772 2.41285 20.3913C2.82052 19.5213 3.42821 18.4794 4.07012 17.5499C4.15423 17.4282 4.32909 17.1748 4.45871 16.9868C5.56176 15.3875 5.93254 14.8955 6.03482 14.8955C6.05393 14.8955 6.09591 14.9363 6.12811 14.986ZM16.0314 16.0659C16.0505 16.0969 16.1572 16.3214 16.2686 16.5647C16.38 16.8081 16.5964 17.2243 16.7497 17.4898C17.3463 18.5232 17.7657 19.5245 18.2679 21.1147C18.3997 21.5322 18.6968 22.4259 18.9281 23.1006C19.5374 24.8787 19.5265 24.8325 19.4315 25.2189C19.3889 25.3922 19.3435 25.5973 19.3306 25.6748C19.1989 26.4684 17.4315 27.3892 16.6633 27.0644C16.5114 27.0002 16.4774 26.8005 16.5637 26.4792C16.5845 26.4018 16.6382 26.076 16.6831 25.7552C16.728 25.4344 16.7907 25.0453 16.8225 24.8905C16.8544 24.7356 16.9177 24.4008 16.9632 24.1464C17.0088 23.892 17.1033 23.3942 17.1733 23.0403C17.3694 22.049 17.3601 20.7568 17.1528 20.1947C17.0692 19.9678 17.0472 20.1042 17.045 20.8626C17.0423 21.8289 16.9382 22.8582 16.7455 23.8246C16.398 25.5668 16.1894 26.3757 16.0608 26.478C15.8759 26.6251 14.9836 26.8814 14.6561 26.8814C14.4405 26.8814 14.4402 26.8792 14.4977 25.4608C14.6077 22.7483 14.5964 20.7959 14.4555 18.1539C14.4149 17.3919 14.4159 17.3683 14.4931 17.3092C14.5367 17.2758 14.7391 17.1403 14.9428 17.0082C15.2966 16.7786 15.741 16.3755 15.9151 16.1263C15.9794 16.0343 16.004 16.0215 16.0314 16.0659ZM19.597 25.8266C20.309 26.6351 20.0348 29.381 19.1107 30.6961C18.6812 31.3072 17.9402 31.955 17.292 32.2858C16.8889 32.4916 16.8447 32.4223 16.8438 31.5836C16.8435 31.3185 16.8435 31.3185 17.0582 31.2699C17.8785 31.0841 19.3421 29.4448 19.4544 28.586C19.5025 28.2172 19.3094 28.3401 19.1106 28.8047C18.6821 29.8063 18.0401 30.5176 17.1713 30.9533C16.7856 31.1468 16.8214 31.163 16.7674 30.7699C16.6666 30.0354 16.8304 29.6416 17.5505 28.8864C17.7679 28.6584 17.7889 28.5708 17.6262 28.5705C17.5308 28.5703 17.3119 28.4488 17.1714 28.3181C16.9688 28.1296 17.0741 27.4609 17.312 27.4258C17.8867 27.3411 18.227 27.2132 18.7117 26.8998C19.1033 26.6467 19.4669 26.1523 19.4669 25.8728C19.4669 25.7676 19.5264 25.7464 19.597 25.8266ZM17.0025 27.4654C17.0025 27.4991 16.9578 27.5472 16.9031 27.5725C16.783 27.6278 16.783 27.6281 16.8866 27.865C17.0176 28.1649 16.9291 28.1681 16.7271 27.8709C16.5632 27.63 16.5367 27.503 16.6386 27.4478C16.7631 27.3804 17.0025 27.392 17.0025 27.4654ZM16.5785 27.9491C16.6406 28.0481 16.8077 28.2763 16.95 28.4561C17.1907 28.7601 17.2056 28.7905 17.1621 28.8881C17.0991 29.0295 16.7565 29.536 16.7239 29.536C16.6495 29.536 16.3686 28.4408 16.368 28.1483C16.3671 27.7354 16.4158 27.6893 16.5785 27.9491ZM16.0845 28.7653C16.1038 28.8021 16.1411 29.0402 16.1675 29.2946C16.1939 29.549 16.2574 29.9472 16.3088 30.1795C16.4765 30.9388 16.5485 32.9447 16.4461 34.0098C16.2609 35.9354 15.0342 38.2949 13.7873 39.1235C13.4184 39.3686 13.2918 39.3901 12.2149 39.3901C11.2786 39.3901 11.2786 39.3901 11.2786 39.2478C11.2786 38.9147 11.4182 37.9081 11.574 37.1176C11.6046 36.9628 11.6412 36.6098 11.6554 36.3333C11.6696 36.0568 11.6974 35.6858 11.7173 35.5088C11.97 33.2562 11.8608 30.9402 11.5044 30.9915C11.424 31.0031 11.4181 31.0246 11.4238 31.2856C11.4271 31.4404 11.443 32.1122 11.4591 32.7784C11.4936 34.2027 11.3909 36.1648 11.2624 36.5354C11.2511 36.568 11.2137 36.9024 11.1794 37.2785C11.124 37.8855 10.9881 38.9042 10.9406 39.0683C10.931 39.1015 10.877 39.4907 10.8207 39.9331C10.7644 40.3755 10.693 40.8371 10.6623 40.9587C10.6315 41.0804 10.5684 41.4333 10.522 41.743C10.3717 42.7463 10.0619 43.8461 9.45112 45.5439C9.29594 45.9753 9.14724 46.3896 9.12068 46.4647C9.06237 46.6295 8.92134 46.7429 8.71166 46.7936C8.40682 46.8672 7.18628 46.8273 6.90195 46.7344C5.83567 46.3859 5.16554 45.9776 5.05929 45.6118C4.87346 44.9719 4.82262 44.7374 4.68048 43.8657C4.52486 42.911 4.48185 42.4823 4.40112 41.0794C4.37754 40.6701 4.33187 40.1181 4.2996 39.8526C4.24943 39.4395 4.0861 37.328 4.08447 37.0709C4.08408 37.008 4.13138 36.9608 4.25619 36.8996C4.60109 36.7307 4.7075 36.4845 4.65742 35.9713C4.62717 35.6611 4.28851 34.2244 4.14791 33.8098C4.04051 33.4931 3.97743 33.1559 4.0256 33.1559C4.04222 33.1559 4.22761 33.2134 4.43757 33.2836C4.99501 33.4702 5.84776 33.4808 6.10009 33.3042C6.55096 32.9886 6.34903 32.4824 5.62428 32.1113C5.0474 31.8159 4.42783 31.3323 4.11603 30.934C3.99667 30.7815 3.99666 30.7815 4.21692 30.1688C4.33803 29.8318 4.49429 29.3841 4.56409 29.174C4.72352 28.6941 4.72201 28.6956 4.91865 28.8273C5.74894 29.3833 7.14621 30.0816 7.80049 30.2675C8.71993 30.5289 10.1739 30.6443 10.9804 30.52C11.1991 30.4863 11.5121 30.4403 11.6761 30.4177C12.9556 30.2414 14.7373 29.5729 15.7807 28.8776C16.0157 28.721 16.0539 28.7069 16.0845 28.7653ZM0.411308 30.1766C1.20379 30.7415 1.67021 30.8803 2.7985 30.8868C3.67943 30.8918 3.67943 30.8918 4.05061 31.2564C4.62725 31.8229 5.02614 32.1384 5.41552 32.336C5.77291 32.5172 6.0112 32.7056 6.05342 32.8402C6.18209 33.2505 5.00555 33.2581 4.08392 32.8529C3.40826 32.5559 3.41851 32.5243 3.82062 33.6643C4.14891 34.595 4.44869 36.0483 4.38418 36.3962C4.32372 36.7223 4.00939 36.6773 3.71103 36.2997C3.12922 35.5634 2.69499 34.7755 2.4551 34.0206C2.18795 33.1799 2.15961 33.1057 2.08842 33.0607C1.93304 32.9625 1.93983 32.992 2.41694 34.4832C2.67683 35.2954 2.73037 35.5289 2.65683 35.5289C2.53381 35.5289 1.83641 35.1036 1.69168 34.9403C1.49711 34.7208 1.19743 33.916 1.10215 33.357C1.00751 32.8016 0.938466 32.5525 0.879121 32.5525C0.835833 32.5525 0.825977 32.5861 0.840764 32.6833C0.851695 32.7551 0.871766 32.9649 0.88536 33.1493C0.911873 33.5094 1.08725 34.295 1.22001 34.6485C1.31732 34.9076 1.31561 34.8854 1.23837 34.8854C0.819773 34.8854 0.1246 33.4926 0.0237951 32.452C-0.0359085 31.8353 0.0260997 29.9784 0.106433 29.9784C0.12122 29.9784 0.258432 30.0676 0.411308 30.1766ZM3.82085 39.8426C3.8327 39.9809 3.87114 40.5555 3.90632 41.1196C3.94149 41.6837 3.99341 42.3353 4.02171 42.5676C4.08277 43.0688 4.08054 43.0774 3.87849 43.1325C3.24171 43.306 3.00778 42.3292 3.3637 40.983C3.40988 40.8083 3.47468 40.4955 3.50767 40.288C3.55966 39.9612 3.7059 39.5912 3.78313 39.5912C3.79204 39.5912 3.80901 39.7044 3.82085 39.8426ZM5.17702 46.1521C6.49627 47.0078 7.82644 47.2885 8.90524 46.9388C9.14982 46.8595 9.24307 46.8463 9.34837 46.8757C9.47823 46.9119 10.3445 47.4498 10.5034 47.5928C10.5472 47.6321 10.7439 47.7705 10.9407 47.9001C11.861 48.5068 12.6127 49.534 12.3625 49.8431C12.1426 50.1148 10.3324 50.016 9.4155 49.6822C8.8098 49.4617 8.76636 49.4439 8.24623 49.2033C7.58651 48.8981 7.46631 48.8251 6.86757 48.3658C5.79155 47.5405 5.84624 47.5647 5.6731 47.8378C5.47817 48.1451 5.4449 48.152 5.05885 47.9646C4.48105 47.684 4.25758 47.4164 4.30202 47.0581C4.35763 46.6097 4.61624 45.8619 4.7139 45.8671C4.72813 45.8678 4.93654 45.996 5.17702 46.1521Z" fill="#2DC92D"/>
</svg>
